<svg width="181" height="28" viewBox="0 0 181 28" fill="none" xmlns="http://www.w3.org/2000/svg">
<path d="M12.1344 14.5434C13.6811 14.5434 14.9349 13.2858 14.9349 11.7346C14.9349 10.1833 13.6811 8.92578 12.1344 8.92578C10.5878 8.92578 9.33398 10.1833 9.33398 11.7346C9.33398 13.2858 10.5878 14.5434 12.1344 14.5434Z" fill="black"/>
<path d="M7.77738 15.4805H3.42115C3.07745 15.4805 2.79883 15.7599 2.79883 16.1046V20.4739C2.79883 20.8186 3.07745 21.0981 3.42115 21.0981H7.77738C8.12107 21.0981 8.3997 20.8186 8.3997 20.4739V16.1046C8.3997 15.7599 8.12107 15.4805 7.77738 15.4805Z" fill="black"/>
<path d="M6.49059 11.5797C6.51926 11.5322 6.53435 11.4783 6.53435 11.4234C6.53435 11.3685 6.51926 11.3146 6.49059 11.2671L3.55156 6.26513C3.52073 6.21972 3.47853 6.18239 3.4288 6.15656C3.37907 6.13072 3.32339 6.11719 3.2668 6.11719C3.21022 6.11719 3.15454 6.13072 3.10481 6.15656C3.05508 6.18239 3.01288 6.21972 2.98204 6.26513L0.0430133 11.2671C0.0144784 11.3149 -0.000357537 11.3691 6.54308e-06 11.4241C0.000370623 11.4792 0.0159219 11.5332 0.0450867 11.5807C0.0742515 11.6281 0.115995 11.6674 0.166093 11.6944C0.216192 11.7215 0.272867 11.7354 0.330385 11.7348H6.20845C6.26553 11.7348 6.32162 11.7205 6.37113 11.6933C6.42063 11.666 6.46182 11.6269 6.49059 11.5797Z" fill="black"/>
<path d="M178.539 18.5977V7.34375H180.507V18.5977H178.539Z" fill="black"/>
<path d="M171.076 18.8362C168.583 18.8362 166.742 16.7728 166.742 14.2013C166.742 11.6299 168.583 9.56641 171.076 9.56641C172.631 9.56641 173.837 10.4077 174.393 11.5664H174.456V9.82037H176.393V18.5981H174.456V16.8839H174.393C173.631 18.2648 172.488 18.8362 171.076 18.8362ZM171.488 16.9632C173.076 16.9632 174.171 15.7728 174.171 14.2013C174.171 12.614 173.076 11.4394 171.488 11.4394C169.917 11.4394 168.837 12.614 168.837 14.2013C168.837 15.7728 169.917 16.9632 171.488 16.9632Z" fill="black"/>
<path d="M164.299 8.40705C163.664 8.40705 163.141 7.88325 163.141 7.24833C163.141 6.61341 163.664 6.10547 164.299 6.10547C164.934 6.10547 165.442 6.61341 165.442 7.24833C165.442 7.88325 164.934 8.40705 164.299 8.40705ZM163.299 18.5816V9.81975H165.299V18.5816H163.299Z" fill="black"/>
<path d="M158.808 18.8331C156.22 18.8331 154.125 16.7537 154.125 14.1664C154.125 11.595 156.22 9.51562 158.808 9.51562C160.141 9.51562 161.363 10.0871 162.204 10.9759L160.919 12.2934C160.427 11.7378 159.696 11.3886 158.808 11.3886C157.315 11.3886 156.125 12.595 156.125 14.1664C156.125 15.7537 157.315 16.9601 158.808 16.9601C159.649 16.9601 160.315 16.6585 160.808 16.1664L162.093 17.468C161.252 18.3251 160.093 18.8331 158.808 18.8331Z" fill="black"/>
<path d="M151.679 8.40705C151.044 8.40705 150.52 7.88325 150.52 7.24833C150.52 6.61341 151.044 6.10547 151.679 6.10547C152.314 6.10547 152.822 6.61341 152.822 7.24833C152.822 7.88325 152.314 8.40705 151.679 8.40705ZM144.869 18.5975V7.34356H149.187V9.20071H146.869V11.7086H148.996V13.5817H146.869V18.5975H144.869ZM150.679 18.5816V9.81975H152.679V18.5816H150.679Z" fill="black"/>
<path d="M138.404 18.5981V9.82031H143.69V11.6775H140.404V18.5981H138.404Z" fill="black"/>
<path d="M132.178 18.836C129.496 18.836 127.4 16.7408 127.4 14.1693C127.4 11.5979 129.496 9.58203 132.178 9.58203C134.861 9.58203 136.956 11.5979 136.956 14.2328C136.956 14.3757 136.94 14.6296 136.892 14.8677H129.527C129.75 16.0741 130.877 16.9789 132.21 16.9789C133.258 16.9789 134.131 16.4868 134.543 15.5979H136.734C136.115 17.4868 134.369 18.836 132.178 18.836ZM129.559 13.3598H134.75C134.575 12.3122 133.543 11.4392 132.146 11.4392C130.75 11.4392 129.702 12.2487 129.559 13.3598Z" fill="black"/>
<path d="M116.752 21.1058V9.82013H118.704V11.5979H118.768C119.308 10.3757 120.673 9.58203 122.181 9.58203C124.561 9.58203 126.403 11.6455 126.403 14.2169C126.403 16.7884 124.561 18.8519 122.181 18.8519C120.736 18.8519 119.577 18.2328 118.815 16.9154H118.752V21.1058H116.752ZM121.657 16.9789C123.133 16.9789 124.355 15.8995 124.355 14.2169C124.355 12.5344 123.133 11.455 121.657 11.455C120.196 11.455 118.99 12.5344 118.99 14.2169C118.99 15.8995 120.196 16.9789 121.657 16.9789Z" fill="black"/>
<path d="M111.084 18.8362C108.91 18.8362 107.322 17.3441 107.322 15.1854V9.82031H109.291V15.2965C109.291 16.3917 110.021 16.979 111.084 16.979C112.195 16.979 112.846 16.3282 112.846 15.2965V9.82031H114.846V15.1854C114.846 17.3441 113.259 18.8362 111.084 18.8362Z" fill="black"/>
<path d="M102.674 18.836C100.801 18.836 99.4043 17.5662 99.4043 16.0265H101.388C101.404 16.5979 101.976 17.0106 102.706 17.0106C103.484 17.0106 103.976 16.6296 103.976 16.0582C103.976 15.3281 103.198 15.1693 102.404 14.963C100.754 14.5503 99.5789 13.8677 99.5789 12.2646C99.5789 10.7566 100.944 9.58203 102.738 9.58203C104.468 9.58203 105.896 10.7725 105.896 12.3281L103.912 12.3122C103.912 11.7249 103.357 11.3916 102.738 11.3916C102.103 11.3916 101.563 11.709 101.563 12.2487C101.563 12.8995 102.325 13.0582 103.119 13.2646C104.293 13.5662 105.912 13.963 105.912 16.0265C105.912 17.582 104.452 18.836 102.674 18.836Z" fill="black"/>
<path d="M88.4728 21.106L90.3141 17.2806L86.8379 9.82031H88.9966L91.4252 14.9949L93.5839 9.82031H95.7426L90.6474 21.106H88.4728Z" fill="black"/>
<path d="M82.4501 18.8358C81.0532 18.8358 79.7993 18.2644 79.0374 16.8834H78.958V18.5977H77.0215V7.34375H79.0215V11.566H79.085C79.6405 10.4072 80.8945 9.56597 82.4501 9.56597C84.831 9.56597 86.6723 11.6295 86.6723 14.2009C86.6723 16.7723 84.831 18.8358 82.4501 18.8358ZM81.9262 16.9628C83.5135 16.9628 84.577 15.7723 84.577 14.2009C84.577 12.6136 83.5135 11.439 81.9262 11.439C80.3548 11.439 79.2596 12.6136 79.2596 14.2009C79.2596 15.7723 80.3548 16.9628 81.9262 16.9628Z" fill="black"/>
<path d="M67.4614 18.836C64.7788 18.836 62.6836 16.7408 62.6836 14.1693C62.6836 11.5979 64.7788 9.58203 67.4614 9.58203C70.1439 9.58203 72.2391 11.5979 72.2391 14.2328C72.2391 14.3757 72.2233 14.6296 72.1757 14.8677H64.8106C65.0328 16.0741 66.1598 16.9789 67.4931 16.9789C68.5407 16.9789 69.4138 16.4868 69.8264 15.5979H72.0169C71.3979 17.4868 69.6518 18.836 67.4614 18.836ZM64.8423 13.3598H70.0328C69.8582 12.3122 68.8264 11.4392 67.4296 11.4392C66.0328 11.4392 64.9852 12.2487 64.8423 13.3598Z" fill="black"/>
<path d="M55.8062 18.8358C53.4253 18.8358 51.584 16.7723 51.584 14.2009C51.584 11.6295 53.4253 9.56597 55.8062 9.56597C57.3618 9.56597 58.6157 10.4072 59.1713 11.566H59.2348V7.34375H61.2348V18.5977H59.2983V16.8834H59.2189C58.457 18.2644 57.203 18.8358 55.8062 18.8358ZM56.33 16.9628C57.9014 16.9628 58.9967 15.7723 58.9967 14.2009C58.9967 12.6136 57.9014 11.439 56.33 11.439C54.7427 11.439 53.6792 12.6136 53.6792 14.2009C53.6792 15.7723 54.7427 16.9628 56.33 16.9628Z" fill="black"/>
<path d="M44.804 18.8362C42.312 18.8362 40.4707 16.7728 40.4707 14.2013C40.4707 11.6299 42.312 9.56641 44.804 9.56641C46.3596 9.56641 47.5659 10.4077 48.1215 11.5664H48.185V9.82037H50.1215V18.5981H48.185V16.8839H48.1215C47.3596 18.2648 46.2167 18.8362 44.804 18.8362ZM45.2167 16.9632C46.804 16.9632 47.8993 15.7728 47.8993 14.2013C47.8993 12.614 46.804 11.4394 45.2167 11.4394C43.6453 11.4394 42.5659 12.614 42.5659 14.2013C42.5659 15.7728 43.6453 16.9632 45.2167 16.9632Z" fill="black"/>
<path d="M39.0295 9.82031V18.5981H37.0613V11.6775H33.0613V18.5981H31.093V11.6775H27.1089V18.5981H25.1406V9.82031H39.0295Z" fill="black"/>
</svg>
