<svg width="174" height="19" viewBox="0 0 174 19" fill="none" xmlns="http://www.w3.org/2000/svg">
<g style="mix-blend-mode:difference" clip-path="url(#clip0_198_4697)">
<path d="M28.8687 6.02881H38.1408C38.5761 6.04143 38.9978 6.05617 39.4081 6.073C39.8184 6.08983 40.2081 6.12982 40.5796 6.18874C40.9512 6.24766 41.2999 6.34025 41.6258 6.4623C41.9518 6.58646 42.2504 6.76112 42.5193 6.98417C42.647 7.0915 42.7814 7.23038 42.9228 7.40083C43.0641 7.57128 43.1985 7.78172 43.3262 8.03003C43.4538 8.27834 43.5587 8.56874 43.643 8.89912C43.7251 9.2295 43.7684 9.60827 43.7684 10.0333C43.7684 10.4584 43.7046 10.8982 43.5769 11.3528C43.4493 11.8073 43.2122 12.2303 42.8681 12.6196C42.5603 12.9731 42.2025 13.2509 41.7945 13.4529C41.3865 13.6549 40.9489 13.8064 40.4816 13.9137C40.0167 14.0211 39.5198 14.0842 38.9978 14.1094C38.4736 14.1326 37.9379 14.1452 37.3886 14.1452H33.7304V18.558H28.8732V6.02881H28.8687ZM33.7235 11.3275H36.8598C37.0627 11.3275 37.2861 11.3212 37.53 11.3107C37.7716 11.2981 37.9949 11.2518 38.2001 11.1676C38.4029 11.0855 38.5739 10.9635 38.7061 10.8014C38.8405 10.6415 38.9066 10.4058 38.9066 10.0965C38.9066 9.88184 38.8588 9.68613 38.763 9.50727C38.6673 9.3284 38.5488 9.19162 38.4098 9.09692C38.232 8.97908 38.0405 8.90543 37.8354 8.88228C37.6325 8.85913 37.4342 8.84651 37.2428 8.84651H33.7235V11.3275Z" fill="white"/>
<path d="M59.3109 6.04565V8.86335H49.8861V10.9193H58.5998V13.737H49.8655V15.7403H59.5001V18.558H45.0266V6.04565H59.3086H59.3109Z" fill="white"/>
<path d="M61.1912 6.04565H71.1539C71.448 6.04565 71.758 6.05197 72.0839 6.06249C72.4098 6.07511 72.7358 6.10668 73.064 6.15929C73.3899 6.2119 73.7136 6.29186 74.0327 6.39918C74.3518 6.5065 74.6527 6.65381 74.9353 6.8432C75.4208 7.1862 75.8083 7.64074 76.0954 8.20891C76.3826 8.77708 76.5285 9.37891 76.5285 10.0165C76.5285 10.4647 76.4556 10.8961 76.3074 11.3107C76.1593 11.7252 75.945 12.0851 75.6647 12.3923C75.4732 12.6049 75.2749 12.7795 75.0698 12.9163C74.8646 13.0531 74.664 13.1604 74.4657 13.2446C74.2675 13.3266 74.076 13.3919 73.8891 13.4403C73.7045 13.4887 73.5404 13.5287 73.399 13.5644L76.7975 18.558H71.4229L68.6399 14.0042H66.0483V18.558H61.1912V6.04565ZM66.0483 11.1844H69.6952C69.8867 11.1844 70.0941 11.1781 70.3197 11.1655C70.5431 11.1529 70.7573 11.1108 70.9625 11.0392C71.1676 10.9677 71.3363 10.854 71.4708 10.6983C71.6052 10.5426 71.6713 10.3195 71.6713 10.0313C71.6713 9.88816 71.6463 9.74296 71.5938 9.59987C71.5437 9.45677 71.4525 9.33051 71.3249 9.22319C71.1334 9.05485 70.9215 8.95384 70.6912 8.91807C70.461 8.88229 70.2559 8.86335 70.0781 8.86335H66.0483V11.1844Z" fill="white"/>
<path d="M92.4791 6.04565V8.86335H83.0543V10.9193H91.768V13.737H83.0338V15.7403H92.6683V18.558H78.1948V6.04565H92.4769H92.4791Z" fill="white"/>
<path d="M103.401 11.0793H111.463V18.5581H107.279V17.1755C107.151 17.2808 107.023 17.3818 106.896 17.4765C106.768 17.5712 106.574 17.6953 106.319 17.8489C106.139 17.9563 105.913 18.0699 105.637 18.194C105.362 18.3182 105.033 18.4339 104.648 18.5392C104.265 18.6465 103.814 18.737 103.297 18.8148C102.779 18.8927 102.187 18.9306 101.521 18.9306C100.511 18.9306 99.5404 18.798 98.6127 18.5328C97.685 18.2677 96.8622 17.8679 96.1465 17.3376C95.4308 16.8052 94.8564 16.136 94.4279 15.3258C93.9994 14.5157 93.7852 13.5624 93.7852 12.464C93.7852 12.2388 93.7943 12.0157 93.8148 11.7906C93.833 11.5654 93.8695 11.3423 93.9196 11.1172C94.0473 10.4922 94.2934 9.85248 94.6581 9.20434C95.0228 8.55411 95.5698 7.94595 96.2992 7.37989C96.7733 7.01374 97.2816 6.70861 97.8263 6.46661C98.3711 6.22461 98.9364 6.02891 99.5267 5.88161C100.115 5.7343 100.719 5.63119 101.341 5.57227C101.961 5.51335 102.579 5.48389 103.194 5.48389C104.243 5.48389 105.298 5.58489 106.36 5.78481C107.192 5.95105 107.921 6.18252 108.548 6.48555C109.175 6.78647 109.752 7.21575 110.276 7.77129C110.492 7.99646 110.65 8.19426 110.748 8.36472C110.843 8.53517 110.944 8.72245 111.044 8.92236L106.246 9.38321C105.797 8.95814 105.321 8.67195 104.815 8.52464C104.309 8.37734 103.794 8.30369 103.269 8.30369C102.462 8.30369 101.779 8.42785 101.216 8.67616C100.653 8.92447 100.188 9.24433 99.8253 9.63363C99.4606 10.0229 99.1939 10.4585 99.0298 10.9362C98.8634 11.4139 98.7791 11.8853 98.7791 12.344C98.7791 12.9816 98.893 13.5351 99.1233 14.0001C99.3535 14.4673 99.6634 14.8566 100.055 15.1701C100.445 15.4837 100.894 15.713 101.398 15.8624C101.902 16.0119 102.431 16.0834 102.982 16.0834C103.456 16.0834 103.917 16.0266 104.363 15.9151C104.81 15.8035 105.211 15.6499 105.562 15.4542C105.913 15.2585 106.212 15.0291 106.456 14.764C106.697 14.4988 106.859 14.2127 106.937 13.9054H103.404V11.0877L103.401 11.0793Z" fill="white"/>
<path d="M113.747 6.04565H123.71C124.004 6.04565 124.314 6.05197 124.64 6.06249C124.966 6.07511 125.292 6.10668 125.62 6.15929C125.946 6.2119 126.27 6.29186 126.589 6.39918C126.908 6.5065 127.209 6.65381 127.491 6.8432C127.977 7.1862 128.364 7.64074 128.651 8.20891C128.939 8.77708 129.082 9.37891 129.082 10.0165C129.082 10.4647 129.009 10.8961 128.861 11.3107C128.713 11.7252 128.499 12.0851 128.218 12.3923C128.027 12.6049 127.829 12.7795 127.623 12.9163C127.418 13.0531 127.218 13.1604 127.019 13.2446C126.821 13.3266 126.63 13.3919 126.443 13.4403C126.258 13.4887 126.094 13.5287 125.953 13.5644L129.351 18.558H123.977L121.194 14.0042H118.602V18.558H113.745V6.04565H113.747ZM118.602 11.1844H122.249C122.44 11.1844 122.648 11.1781 122.873 11.1655C123.097 11.1529 123.311 11.1108 123.516 11.0392C123.721 10.9677 123.89 10.854 124.024 10.6983C124.159 10.5426 124.225 10.3195 124.225 10.0313C124.225 9.88816 124.2 9.74296 124.148 9.59987C124.097 9.45677 124.006 9.33051 123.879 9.22319C123.687 9.05485 123.475 8.95384 123.245 8.91807C123.015 8.88229 122.81 8.86335 122.632 8.86335H118.6V11.1844H118.602Z" fill="white"/>
<path d="M135.628 6.04565V18.5559H130.771V6.04565H135.628Z" fill="white"/>
<path d="M138.181 6.04565H142.193L146.357 10.2627C146.651 10.5573 146.897 10.8057 147.095 11.0077C147.294 11.2076 147.476 11.4012 147.642 11.5843C147.809 11.7673 147.975 11.9588 148.142 12.1608C148.308 12.3629 148.513 12.6049 148.755 12.8868C148.73 12.4618 148.714 12.0914 148.707 11.78C148.7 11.4664 148.691 11.1655 148.677 10.8772C148.664 10.5868 148.659 10.2901 148.659 9.98075V6.04776H153.439V18.558H149.409L144.438 13.3835C144.258 13.1941 144.107 13.032 143.986 12.8952C143.863 12.7606 143.749 12.6301 143.64 12.5059C143.531 12.3818 143.419 12.2555 143.303 12.1251C143.186 11.9946 143.054 11.841 142.899 11.6642C142.913 12.2071 142.922 12.6596 142.929 13.0194C142.936 13.3792 142.94 13.7033 142.947 13.9937C142.954 14.2841 142.958 14.5724 142.965 14.8628C142.972 15.1532 142.974 15.4983 142.974 15.9002V18.558H138.177V6.04565H138.181Z" fill="white"/>
<path d="M164.133 5.5848C164.979 5.57217 165.836 5.61847 166.706 5.71737C167.577 5.81838 168.402 6.01619 169.182 6.31079C169.961 6.6054 170.618 6.98208 171.149 7.43661C171.68 7.89115 172.111 8.38566 172.443 8.91596C172.776 9.44835 173.015 10.0039 173.164 10.5826C173.312 11.1613 173.385 11.7168 173.385 12.2492C173.385 12.8405 173.305 13.4255 173.145 14.0042C172.986 14.5829 172.74 15.1321 172.407 15.6519C171.971 16.3127 171.434 16.8745 170.795 17.3354C169.875 18.0088 168.872 18.4549 167.791 18.6737C166.709 18.8926 165.548 19.002 164.309 19.002C163.069 19.002 162.116 18.9157 161.266 18.7453C160.415 18.5748 159.688 18.3518 159.087 18.0803C158.485 17.8089 157.99 17.5079 157.598 17.1776C157.209 16.8472 156.892 16.521 156.648 16.2033C156.187 15.6372 155.857 15.0459 155.659 14.4314C155.46 13.8169 155.362 13.1499 155.362 12.4281C155.362 11.7063 155.46 11.0308 155.659 10.3637C155.857 9.69666 156.174 9.07799 156.609 8.51192C157.083 7.89746 157.63 7.39873 158.25 7.01575C158.87 6.63065 159.517 6.33605 160.19 6.12982C160.862 5.9236 161.537 5.78471 162.216 5.71316C162.893 5.64372 163.534 5.60164 164.135 5.58901L164.133 5.5848ZM164.42 8.36672C163.652 8.3541 163.009 8.47405 162.492 8.72025C161.975 8.96856 161.557 9.28421 161.245 9.66931C160.931 10.0544 160.705 10.4795 160.564 10.9445C160.422 11.4117 160.352 11.8578 160.352 12.2829C160.352 12.7669 160.425 13.2425 160.573 13.7096C160.721 14.1768 160.956 14.5955 161.284 14.968C161.61 15.3405 162.032 15.6414 162.551 15.8708C163.069 16.1022 163.693 16.2159 164.422 16.2159C164.755 16.2159 165.09 16.1927 165.43 16.1443C165.77 16.098 166.086 16.0033 166.38 15.8602C166.752 15.6835 167.064 15.4583 167.322 15.1869C167.577 14.9154 167.784 14.6145 167.946 14.282C168.106 13.9516 168.222 13.6149 168.293 13.2719C168.363 12.9289 168.398 12.5985 168.398 12.2787C168.398 11.9357 168.345 11.5401 168.245 11.0918C168.142 10.6436 167.946 10.2185 167.659 9.81661C167.372 9.41468 166.968 9.07589 166.449 8.79811C165.931 8.52034 165.254 8.37514 164.425 8.36462L164.42 8.36672Z" fill="white"/>
<path d="M11.0995 0L0.614746 6.00155V18.556H3.04447V7.24942L11.0995 2.63883L19.1545 7.24942V18.556H21.5842V6.00155L11.0995 0Z" fill="white"/>
<path d="M15.2043 11.2139L16.4785 9.31155L11.0993 6.23291L5.72021 9.31155L6.99434 11.2139L9.88448 9.56407V11.4769L5.72021 13.8611L6.99434 15.7634L9.88448 14.1136V18.5559H12.3142V14.1136L15.2043 15.7634L16.4785 13.8611L12.3142 11.4769V9.56407L15.2043 11.2139Z" fill="white"/>
</g>
<defs>
<clipPath id="clip0_198_4697">
<rect width="172.77" height="19" fill="white" transform="translate(0.614746)"/>
</clipPath>
</defs>
</svg>
