<svg width="21" height="21" viewBox="0 0 21 21" fill="none" xmlns="http://www.w3.org/2000/svg">
<rect width="20.6977" height="20.6977" transform="translate(0 0.0930786)" fill="#C0BEAD"/>
<path d="M16.1453 13.9579V6.29573C16.1453 5.86027 15.9723 5.44265 15.6644 5.13474C15.3565 4.82682 14.9388 4.65384 14.5034 4.65384H13.9561V12.316H14.5034C14.9388 12.316 15.3565 12.489 15.6644 12.7969C15.9723 13.1048 16.1453 13.5224 16.1453 13.9579ZM16.1453 13.9579C16.1453 14.3933 15.9723 14.811 15.6644 15.1189C15.3565 15.4268 14.9388 15.5998 14.5034 15.5998H4.10474V6.29573H12.3142" stroke="black" stroke-width="0.775338" stroke-miterlimit="10"/>
<path d="M8.48313 12.316V13.4106H11.7669V8.48492H6.29395V13.4106" stroke="black" stroke-width="0.775338" stroke-miterlimit="10" stroke-linecap="square"/>
<path d="M9.57776 10.1268V8.48492" stroke="black" stroke-width="0.775338" stroke-miterlimit="10" stroke-linecap="square"/>
</svg>
