<svg width="21" height="22" viewBox="0 0 21 22" fill="none" xmlns="http://www.w3.org/2000/svg">
<rect width="20.6977" height="20.6977" transform="translate(0 0.488464)" fill="#C0BEAD"/>
<path d="M14.5695 5.2099L15.8021 6.44257" stroke="black" stroke-width="0.775338" stroke-miterlimit="10"/>
<path d="M13.4011 9.28975L13.5236 9.26933L13.6115 9.18148L16.4377 6.35522C16.9296 5.86336 16.9296 5.06616 16.4377 4.5743L16.1636 4.84843L16.4377 4.5743C15.9459 4.08245 15.1487 4.08245 14.6568 4.5743L14.9309 4.84843L14.6568 4.5743L11.8306 7.40056L11.7427 7.48841L11.7223 7.61096L11.4758 9.09016L11.3865 9.62551L11.9219 9.53628L13.4011 9.28975Z" stroke="black" stroke-width="0.775338" stroke-miterlimit="10" stroke-linecap="square"/>
<path d="M15.1862 5.82565L13.0907 7.92119" stroke="black" stroke-width="0.775338" stroke-miterlimit="10" stroke-linecap="square"/>
<path d="M8.20945 13.9221C8.62163 13.9221 8.95576 13.588 8.95576 13.1758C8.95576 12.7636 8.62163 12.4295 8.20945 12.4295C7.79727 12.4295 7.46313 12.7636 7.46313 13.1758C7.46313 13.588 7.79727 13.9221 8.20945 13.9221Z" stroke="black" stroke-width="0.775338" stroke-miterlimit="10" stroke-linecap="square"/>
<path d="M6.34363 16.9074C6.34363 15.8771 7.17913 15.0416 8.20941 15.0416C9.2397 15.0416 10.0752 15.8771 10.0752 16.9074" stroke="black" stroke-width="0.775338" stroke-miterlimit="10"/>
<path d="M4.10474 12.8027L8.20947 9.44427L12.3142 12.8027" stroke="black" stroke-width="0.775338" stroke-miterlimit="10"/>
<path d="M5.59741 13.549V16.1611C5.59741 16.5734 5.93139 16.9074 6.34373 16.9074H10.0753C10.4876 16.9074 10.8216 16.5734 10.8216 16.1611V13.549" stroke="black" stroke-width="0.775338" stroke-miterlimit="10" stroke-linecap="square"/>
</svg>
