<svg width="22" height="22" viewBox="0 0 22 22" fill="none" xmlns="http://www.w3.org/2000/svg">
<rect width="20.6977" height="20.6977" transform="translate(0.493286 0.564148)" fill="#C0BEAD"/>
<path d="M10.3367 13.6205V16.4047C10.3367 17.2862 11.845 18.0008 13.7061 18.0008C15.5671 18.0008 17.0755 17.2862 17.0755 16.4047V13.6205" stroke="black" stroke-width="0.776164" stroke-miterlimit="10"/>
<path d="M3.5979 10.925V16.3591C3.5979 17.2658 5.10626 18.0008 6.96729 18.0008C8.82832 18.0008 10.3367 17.2658 10.3367 16.3591V10.925" stroke="black" stroke-width="0.776164" stroke-miterlimit="10"/>
<path d="M13.7061 15.3053C15.5669 15.3053 17.0755 14.551 17.0755 13.6206C17.0755 12.6902 15.5669 11.9359 13.7061 11.9359C11.8452 11.9359 10.3367 12.6902 10.3367 13.6206C10.3367 14.551 11.8452 15.3053 13.7061 15.3053Z" stroke="black" stroke-width="0.776164" stroke-miterlimit="10" stroke-linecap="square"/>
<path d="M10.3367 13.6205C10.3367 14.551 8.82815 15.3052 6.96729 15.3052C5.10643 15.3052 3.5979 14.551 3.5979 13.6205" stroke="black" stroke-width="0.776164" stroke-miterlimit="10" stroke-linecap="square"/>
<path d="M6.96729 12.6098C8.82815 12.6098 10.3367 11.8555 10.3367 10.9251C10.3367 9.99468 8.82815 9.24042 6.96729 9.24042C5.10643 9.24042 3.5979 9.99468 3.5979 10.9251C3.5979 11.8555 5.10643 12.6098 6.96729 12.6098Z" stroke="black" stroke-width="0.776164" stroke-miterlimit="10" stroke-linecap="square"/>
<path d="M18.0867 8.5666C18.0867 8.00834 17.6341 7.55579 17.0759 7.55579C16.5176 7.55579 16.0651 8.00834 16.0651 8.5666C16.0651 9.12487 16.5176 9.57742 17.0759 9.57742C17.6341 9.57742 18.0867 9.12487 18.0867 8.5666Z" fill="black"/>
<path d="M14.7172 5.19716C14.7172 4.6389 14.2646 4.18634 13.7064 4.18634C13.1481 4.18634 12.6956 4.6389 12.6956 5.19716C12.6956 5.75542 13.1481 6.20798 13.7064 6.20798C14.2646 6.20798 14.7172 5.75542 14.7172 5.19716Z" fill="black"/>
<path d="M13.7062 8.56635L17.0756 5.19696" stroke="black" stroke-width="0.776164" stroke-miterlimit="10" stroke-linecap="square"/>
</svg>
