<svg width="21" height="21" viewBox="0 0 21 21" fill="none" xmlns="http://www.w3.org/2000/svg">
<rect width="20.6977" height="20.6977" fill="#C0BEAD"/>
<path d="M5.39 7C5.39 4.45397 7.45397 2.39 10 2.39C12.546 2.39 14.61 4.45397 14.61 7C14.61 8.24246 14.119 9.36945 13.3196 10.1988C12.7716 10.7039 12.4486 11.4322 12.2604 12.0976C12.1214 12.5888 12.0485 13.072 12.0184 13.4578H10H7.98276C7.95342 13.0567 7.88064 12.5548 7.73992 12.0524C7.55342 11.3867 7.23086 10.6595 6.67389 10.192C5.87834 9.36332 5.39 8.23908 5.39 7Z" stroke="black" stroke-width="0.78"/>
<path d="M7.82607 14.7308H12.1739M7 7C7 6 7.41304 4 10 4" stroke="black" stroke-width="0.78"/>
<path d="M7.82605 16H12.1739" stroke="black" stroke-width="0.78"/>
<path d="M9.99992 17.5H8.91296C8.91296 17.9348 9.13036 18.8043 9.99992 18.8043C10.8695 18.8043 11.0869 17.9348 11.0869 17.5H9.99992Z" stroke="black" stroke-width="0.78"/>
</svg>
