<svg width="21" height="21" viewBox="0 0 21 21" fill="none" xmlns="http://www.w3.org/2000/svg">
<rect width="20.6977" height="20.6977" transform="translate(0.155518 0.0405273)" fill="#C0BEAD"/>
<path d="M13.034 9.23949V6.70977C13.034 5.31274 11.9014 4.18005 10.5043 4.18005C9.10729 4.18005 7.97461 5.31274 7.97461 6.70977V9.23949" stroke="black" stroke-width="0.776164" stroke-miterlimit="10"/>
<path d="M14.9314 9.23932H6.07736C5.3788 9.23932 4.8125 9.80562 4.8125 10.5042V15.5636C4.8125 16.2622 5.3788 16.8285 6.07736 16.8285H14.9314C15.6299 16.8285 16.1962 16.2622 16.1962 15.5636V10.5042C16.1962 9.80562 15.6299 9.23932 14.9314 9.23932Z" stroke="black" stroke-width="0.776164" stroke-miterlimit="10" stroke-linecap="square"/>
<path d="M10.5044 11.5589V11.1373" stroke="black" stroke-width="0.776164" stroke-miterlimit="10" stroke-linecap="square"/>
<path d="M10.5044 15.3537V14.9321" stroke="black" stroke-width="0.776164" stroke-miterlimit="10" stroke-linecap="square"/>
<path d="M11.3471 11.5587H10.0823C9.61654 11.5587 9.23901 11.9362 9.23901 12.402C9.23901 12.8677 9.61654 13.2452 10.0823 13.2452H10.9255C11.3912 13.2452 11.7687 13.6227 11.7687 14.0884C11.7687 14.5542 11.3912 14.9317 10.9255 14.9317H9.66063" stroke="black" stroke-width="0.776164" stroke-miterlimit="10" stroke-linecap="square"/>
</svg>
