<svg width="21" height="21" viewBox="0 0 21 21" fill="none" xmlns="http://www.w3.org/2000/svg">
<rect width="20.6977" height="20.6977" transform="translate(0.155273 0.0405273)" fill="#C0BEAD"/>
<path d="M4.2948 12.1277C4.2948 12.8995 5.58246 13.5251 7.17117 13.5251C8.75989 13.5251 10.0475 12.8995 10.0475 12.1277" stroke="black" stroke-width="0.776164" stroke-miterlimit="10"/>
<path d="M4.2948 9.5708C4.2948 10.3426 5.58246 10.9682 7.17117 10.9682C8.75989 10.9682 10.0475 10.3426 10.0475 9.5708" stroke="black" stroke-width="0.776164" stroke-miterlimit="10"/>
<path d="M11.3258 11.9265V14.6839C11.3258 15.4557 12.6135 16.0813 14.2022 16.0813C15.7909 16.0813 17.0785 15.4557 17.0785 14.6839V11.9265" stroke="black" stroke-width="0.776164" stroke-miterlimit="10"/>
<path d="M4.2948 6.81274V14.6836C4.2948 15.4555 5.58246 16.081 7.17117 16.081C8.75989 16.081 10.0475 15.4555 10.0475 14.6836V6.81274" stroke="black" stroke-width="0.776164" stroke-miterlimit="10"/>
<path d="M14.2022 13.5248C15.7908 13.5248 17.0785 12.8094 17.0785 11.9268C17.0785 11.0443 15.7908 10.3289 14.2022 10.3289C12.6136 10.3289 11.3258 11.0443 11.3258 11.9268C11.3258 12.8094 12.6136 13.5248 14.2022 13.5248Z" stroke="black" stroke-width="0.776164" stroke-miterlimit="10" stroke-linecap="square"/>
<path d="M7.17117 8.41106C8.75975 8.41106 10.0475 7.69561 10.0475 6.81307C10.0475 5.93053 8.75975 5.21509 7.17117 5.21509C5.5826 5.21509 4.2948 5.93053 4.2948 6.81307C4.2948 7.69561 5.5826 8.41106 7.17117 8.41106Z" stroke="black" stroke-width="0.776164" stroke-miterlimit="10" stroke-linecap="square"/>
<path d="M11.6451 8.41106L14.2019 10.9678M14.2019 10.9678L16.7587 8.41106M14.2019 10.9678V5.21509" stroke="black" stroke-width="0.776164"/>
</svg>
