<svg width="21" height="21" viewBox="0 0 21 21" fill="none" xmlns="http://www.w3.org/2000/svg">
<rect width="20.6977" height="20.6977" transform="translate(0.155396 0.212891)" fill="#C0BEAD"/>
<path d="M14.7249 4.93445L15.9575 6.16712" stroke="black" stroke-width="0.775338" stroke-miterlimit="10"/>
<path d="M13.5565 9.0143L13.679 8.99388L13.7669 8.90603L16.5931 6.07977C17.085 5.58791 17.085 4.79071 16.5931 4.29885L16.319 4.57297L16.5931 4.29885C16.1013 3.80699 15.3041 3.80699 14.8122 4.29885L15.0863 4.57297L14.8122 4.29885L11.986 7.12511L11.8981 7.21296L11.8777 7.3355L11.6312 8.81471L11.5419 9.35006L12.0773 9.26083L13.5565 9.0143Z" stroke="black" stroke-width="0.775338" stroke-miterlimit="10" stroke-linecap="square"/>
<path d="M15.3416 5.55017L13.2461 7.64571" stroke="black" stroke-width="0.775338" stroke-miterlimit="10" stroke-linecap="square"/>
<path d="M8.36484 13.6467C8.77702 13.6467 9.11116 13.3125 9.11116 12.9004C9.11116 12.4882 8.77702 12.1541 8.36484 12.1541C7.95267 12.1541 7.61853 12.4882 7.61853 12.9004C7.61853 13.3125 7.95267 13.6467 8.36484 13.6467Z" stroke="black" stroke-width="0.775338" stroke-miterlimit="10" stroke-linecap="square"/>
<path d="M6.49902 16.6319C6.49902 15.6016 7.33452 14.7661 8.36481 14.7661C9.3951 14.7661 10.2306 15.6016 10.2306 16.6319" stroke="black" stroke-width="0.775338" stroke-miterlimit="10"/>
<path d="M4.26013 12.5272L8.36486 9.16882L12.4696 12.5272" stroke="black" stroke-width="0.775338" stroke-miterlimit="10"/>
<path d="M5.75281 13.2736V15.8857C5.75281 16.298 6.08678 16.632 6.49912 16.632H10.2307C10.643 16.632 10.977 16.298 10.977 15.8857V13.2736" stroke="black" stroke-width="0.775338" stroke-miterlimit="10" stroke-linecap="square"/>
</svg>
