<svg width="21" height="22" viewBox="0 0 21 22" fill="none" xmlns="http://www.w3.org/2000/svg">
<rect width="20.6977" height="20.6977" transform="translate(0.155518 0.753418)" fill="#C0BEAD"/>
<path d="M10.1719 13.203C11.231 13.203 12.0895 12.3445 12.0895 11.2855C12.0895 10.2264 11.231 9.36792 10.1719 9.36792C9.11291 9.36792 8.25439 10.2264 8.25439 11.2855C8.25439 12.3445 9.11291 13.203 10.1719 13.203Z" stroke="black" stroke-width="0.775338" stroke-miterlimit="10" stroke-linecap="square"/>
<path d="M15.0821 9.86975C14.9753 9.49838 14.8296 9.14427 14.6461 8.81254L15.2559 7.33091L14.1258 6.20084L12.6442 6.81062C12.3131 6.62717 11.9584 6.48144 11.587 6.37469L10.9696 4.89307H9.3716L8.75415 6.37469C8.38278 6.48144 8.02867 6.62717 7.69694 6.81062L6.21531 6.20084L5.08523 7.33091L5.69502 8.81254C5.51157 9.14363 5.36584 9.49838 5.25909 9.86975L3.77747 10.4872V12.0852L5.25909 12.7026C5.36584 13.074 5.51157 13.4281 5.69502 13.7598L5.08523 15.2414L6.21531 16.3715L7.69694 15.7617" stroke="black" stroke-width="0.775338" stroke-miterlimit="10" stroke-linecap="square"/>
<path d="M9.83411 15.4579L11.8104 17.8294L16.9486 12.2959" stroke="black" stroke-width="0.775338" stroke-miterlimit="10" stroke-linecap="square"/>
</svg>
