<svg width="21" height="22" viewBox="0 0 21 22" fill="none" xmlns="http://www.w3.org/2000/svg">
<rect width="20.6977" height="20.6977" transform="translate(0.155518 0.753357)" fill="#C0BEAD"/>
<path d="M10.9086 17.3164C10.9086 17.3164 11.304 14.7892 13.0741 13.7671C14.8443 12.7451 17.2307 13.6663 17.2307 13.6663C17.2307 13.6663 16.8037 16.2118 15.0651 17.2156C13.2949 18.2376 10.9086 17.3164 10.9086 17.3164Z" stroke="black" stroke-width="0.776164" stroke-miterlimit="10" stroke-linecap="square"/>
<path d="M9.58224 17.3164C9.58224 17.3164 9.18684 14.7892 7.41666 13.7671C5.64648 12.7451 3.26013 13.6663 3.26013 13.6663C3.26013 13.6663 3.68714 16.2118 5.42571 17.2156C7.1959 18.2376 9.58224 17.3164 9.58224 17.3164Z" stroke="black" stroke-width="0.776164" stroke-miterlimit="10" stroke-linecap="square"/>
<path d="M10.2453 11.6757C12.2612 11.6757 13.8954 10.0415 13.8954 8.02562C13.8954 6.00974 12.2612 4.37555 10.2453 4.37555C8.22941 4.37555 6.59521 6.00974 6.59521 8.02562C6.59521 10.0415 8.22941 11.6757 10.2453 11.6757Z" stroke="black" stroke-width="0.776164" stroke-miterlimit="10" stroke-linecap="square"/>
<path d="M10.2144 6.27257V5.85114" stroke="black" stroke-width="0.776164" stroke-miterlimit="10" stroke-linecap="square"/>
<path d="M10.2144 10.0655V9.64404" stroke="black" stroke-width="0.776164" stroke-miterlimit="10" stroke-linecap="square"/>
<path d="M11.0571 6.27258H9.79283C9.32732 6.27258 8.94995 6.64995 8.94995 7.11546C8.94995 7.58098 9.32732 7.95834 9.79283 7.95834H10.6357C11.1012 7.95834 11.4786 8.3357 11.4786 8.80122C11.4786 9.26674 11.1012 9.6441 10.6357 9.6441H9.37139" stroke="black" stroke-width="0.776164" stroke-miterlimit="10" stroke-linecap="square"/>
</svg>
