<svg width="21" height="22" viewBox="0 0 21 22" fill="none" xmlns="http://www.w3.org/2000/svg">
<rect width="20.6977" height="20.6977" transform="translate(0.155396 0.87793)" fill="#C0BEAD"/>
<path d="M12.2356 7.60456L12.0565 7.86325L14.0267 5.01733L16.4149 9.15686L15.5194 9.41561L16.7135 12.2615H15.5194" stroke="black" stroke-width="0.776164" stroke-miterlimit="10" stroke-linecap="square"/>
<path d="M8.77279 7.60456L8.9519 7.86325L6.98164 5.01733L4.59345 9.15686L5.48902 9.41561L4.29492 12.2615H5.48902" stroke="black" stroke-width="0.776164" stroke-miterlimit="10" stroke-linecap="square"/>
<path d="M10.2442 17.9534C9.34888 17.9532 8.45365 17.7352 7.63794 17.2994C6.99191 16.9542 6.71661 16.1637 6.98338 15.4739C7.19776 14.9196 7.42528 14.2944 7.53543 13.8738C7.60422 13.6112 7.4922 13.361 7.33594 13.1403C6.66302 12.1899 6.89711 11.1863 7.36225 10.2896C7.78447 9.47567 8.81847 9.46167 8.97055 10.3685C9.13339 11.3395 9.06081 12.4995 9.06081 13.2808L9.72619 13.1682C10.0701 13.1101 10.4211 13.1101 10.765 13.1682L11.4304 13.2808C11.4304 12.4995 11.3578 11.3395 11.5206 10.3685C11.6727 9.46167 12.7276 9.45981 13.1634 10.2663C13.6082 11.0895 13.8122 12.0435 13.0873 13.1787C12.9662 13.3684 12.8844 13.5828 12.9377 13.8023C13.0393 14.2212 13.2809 14.8872 13.5078 15.4739C13.7745 16.1637 13.4992 16.9542 12.8532 17.2994C12.0366 17.7356 11.1404 17.9536 10.2442 17.9534ZM10.2442 17.9534V16.4011" stroke="black" stroke-width="0.776164" stroke-miterlimit="10" stroke-linecap="square"/>
<path d="M8.95201 15.8838C9.23779 15.8838 9.46946 15.6521 9.46946 15.3663C9.46946 15.0805 9.23779 14.8489 8.95201 14.8489C8.66624 14.8489 8.43457 15.0805 8.43457 15.3663C8.43457 15.6521 8.66624 15.8838 8.95201 15.8838Z" fill="black"/>
<path d="M11.5392 15.8838C11.8249 15.8838 12.0566 15.6521 12.0566 15.3663C12.0566 15.0805 11.8249 14.8489 11.5392 14.8489C11.2534 14.8489 11.0217 15.0805 11.0217 15.3663C11.0217 15.6521 11.2534 15.8838 11.5392 15.8838Z" fill="black"/>
</svg>
