<svg width="21" height="22" viewBox="0 0 21 22" fill="none" xmlns="http://www.w3.org/2000/svg">
<rect width="20.6977" height="20.6977" transform="translate(0.155518 0.837891)" fill="#C0BEAD"/>
<path d="M6.75061 12.3501V16.9517" stroke="black" stroke-width="0.775338" stroke-miterlimit="10" stroke-linecap="square"/>
<path d="M12.5315 16.0427V17.0337" stroke="black" stroke-width="0.775338" stroke-miterlimit="10" stroke-linecap="square"/>
<path d="M6.75038 14.8873C8.39228 14.8873 9.7233 13.4084 9.7233 11.584C9.7233 8.10807 6.75038 4.97754 6.75038 4.97754C6.75038 4.97754 3.77747 8.10807 3.77747 11.584C3.77747 13.4084 5.10849 14.8873 6.75038 14.8873Z" stroke="black" stroke-width="0.775338" stroke-miterlimit="10" stroke-linecap="square"/>
<path d="M12.5313 16.0434C13.3522 16.0434 14.0177 15.3779 14.0177 14.5569C14.0177 12.9927 12.5313 11.584 12.5313 11.584C12.5313 11.584 11.0448 12.9927 11.0448 14.5569C11.0448 15.3779 11.7103 16.0434 12.5313 16.0434Z" stroke="black" stroke-width="0.775338" stroke-miterlimit="10" stroke-linecap="square"/>
<path d="M15.9465 17.3959C16.4383 17.3959 16.8369 16.9529 16.8369 16.4065C16.8369 15.3654 15.9465 14.4277 15.9465 14.4277C15.9465 14.4277 15.056 15.3654 15.056 16.4065C15.056 16.9529 15.4547 17.3959 15.9465 17.3959Z" stroke="black" stroke-width="0.775338" stroke-miterlimit="10" stroke-linecap="square"/>
</svg>
