<svg width="21" height="21" viewBox="0 0 21 21" fill="none" xmlns="http://www.w3.org/2000/svg">
<rect width="20.6977" height="20.6977" transform="translate(0.155518 0.0405273)" fill="#C0BEAD"/>
<path d="M5.89172 7.0708V9.91746" stroke="black" stroke-width="0.775338" stroke-miterlimit="10"/>
<path d="M10.6349 7.0708V9.91746" stroke="black" stroke-width="0.775338" stroke-miterlimit="10"/>
<path d="M8.26282 11.3398V13.9493" stroke="black" stroke-width="0.775338" stroke-miterlimit="10"/>
<path d="M15.0056 13.6436V16.253" stroke="black" stroke-width="0.775338" stroke-miterlimit="10"/>
<path d="M8.26298 5.97046L5.89077 7.06917L3.51855 5.97046" stroke="black" stroke-width="0.775338" stroke-miterlimit="10"/>
<path d="M5.89172 10.2405L8.26394 11.3392L10.6362 10.2405" stroke="black" stroke-width="0.775338" stroke-miterlimit="10"/>
<path d="M12.6335 12.5442L15.0058 13.6429L17.378 12.5442" stroke="black" stroke-width="0.775338" stroke-miterlimit="10"/>
<path d="M8.26282 5.97046L10.635 7.06917L13.0072 5.97046" stroke="black" stroke-width="0.775338" stroke-miterlimit="10"/>
<path d="M8.26298 8.81767V5.79622L5.89077 4.69751L3.51855 5.79622V8.81767L5.89077 9.91638L8.26298 8.81767Z" stroke="black" stroke-width="0.775338" stroke-miterlimit="10"/>
<path d="M13.0072 8.81767V5.79622L10.635 4.69751L8.26282 5.79622V8.81767L10.635 9.91638L13.0072 8.81767Z" stroke="black" stroke-width="0.775338" stroke-miterlimit="10"/>
<path d="M10.6362 12.9378V9.91634L8.26394 8.81763L5.89172 9.91634V12.9378L8.26394 14.0365L10.6362 12.9378Z" stroke="black" stroke-width="0.775338" stroke-miterlimit="10"/>
<path d="M17.378 15.2413V12.2198L15.0058 11.1211L12.6335 12.2198V15.2413L15.0058 16.34L17.378 15.2413Z" stroke="black" stroke-width="0.775338" stroke-miterlimit="10"/>
</svg>
