<svg width="21" height="22" viewBox="0 0 21 22" fill="none" xmlns="http://www.w3.org/2000/svg">
<rect width="20.6977" height="20.6977" transform="translate(0.155396 0.841187)" fill="#C0BEAD"/>
<path d="M15.4551 12.2219V10.5427C15.4551 10.3942 15.3961 10.2518 15.2912 10.1469C15.1862 10.0419 15.0438 9.98291 14.8954 9.98291H10.4174C10.269 9.98291 10.1266 10.0419 10.0216 10.1469C9.91664 10.2518 9.85767 10.3942 9.85767 10.5427V12.2219" stroke="black" stroke-width="0.775338" stroke-miterlimit="10" stroke-linecap="square"/>
<path d="M14.3349 12.7831V13.9026H10.9764V12.7831C10.9764 12.6347 10.9174 12.4923 10.8125 12.3873C10.7075 12.2824 10.5651 12.2234 10.4167 12.2234H9.29717C9.14872 12.2234 9.00634 12.2824 8.90137 12.3873C8.7964 12.4923 8.73743 12.6347 8.73743 12.7831V16.1416H16.5739V12.7831C16.5739 12.6347 16.5149 12.4923 16.4099 12.3873C16.3049 12.2824 16.1626 12.2234 16.0141 12.2234H14.8946C14.7462 12.2234 14.6038 12.2824 14.4988 12.3873C14.3938 12.4923 14.3349 12.6347 14.3349 12.7831Z" stroke="black" stroke-width="0.775338" stroke-miterlimit="10" stroke-linecap="square"/>
<path d="M9.85767 16.1401V17.2596" stroke="black" stroke-width="0.775338" stroke-miterlimit="10" stroke-linecap="square"/>
<path d="M15.4542 16.1401V17.2596" stroke="black" stroke-width="0.775338" stroke-miterlimit="10" stroke-linecap="square"/>
<path d="M6.49878 17.2604V10.5435" stroke="black" stroke-width="0.775338" stroke-miterlimit="10" stroke-linecap="square"/>
<path d="M7.6186 4.94592H5.37962L4.26013 7.1849V8.30439H8.73809V7.1849L7.6186 4.94592Z" stroke="black" stroke-width="0.775338" stroke-miterlimit="10" stroke-linecap="square"/>
</svg>
