<svg width="21" height="21" viewBox="0 0 21 21" fill="none" xmlns="http://www.w3.org/2000/svg">
<rect width="20.6977" height="20.6977" transform="translate(0.155518 0.125)" fill="#C0BEAD"/>
<path d="M10.5301 10.5636C12.0061 10.5636 13.2027 9.36702 13.2027 7.89101C13.2027 6.41499 12.0061 5.21844 10.5301 5.21844C9.05409 5.21844 7.85754 6.41499 7.85754 7.89101C7.85754 9.36702 9.05409 10.5636 10.5301 10.5636Z" stroke="black" stroke-width="0.776164" stroke-miterlimit="10" stroke-linecap="square"/>
<path d="M10.6389 12.942C10.5752 13.1409 10.5364 13.3667 10.5304 13.6227C10.4922 15.2549 11.9065 15.6629 12.6185 15.6629C13.0023 15.6629 13.6027 15.533 14.053 15.1263M10.6389 12.942C10.9814 11.8726 12.0451 11.5825 12.6185 11.5825C13.0023 11.5825 13.6027 11.7125 14.053 12.1191M10.6389 12.942C10.6029 12.9424 10.5667 12.9427 10.5304 12.9427C6.76032 12.9427 4.45766 10.4042 3.77759 9.13493C3.77759 9.13493 6.17737 4.78186 10.5304 4.78186C14.8835 4.78186 17.2833 9.13493 17.2833 9.13493C16.8505 9.94275 15.7604 11.2647 14.053 12.1191M14.053 12.1191C14.4005 12.433 14.6587 12.9117 14.6587 13.6227C14.6587 14.3338 14.4005 14.8125 14.053 15.1263M14.053 15.1263L15.6788 16.683" stroke="black" stroke-width="0.776164" stroke-miterlimit="10" stroke-linecap="square"/>
</svg>
