<svg width="21" height="21" viewBox="0 0 21 21" fill="none" xmlns="http://www.w3.org/2000/svg">
<rect width="20.6977" height="20.6977" transform="translate(0.155396 0.128418)" fill="#C0BEAD"/>
<path d="M16.3007 13.9933V6.3311C16.3007 5.89564 16.1277 5.47802 15.8198 5.17011C15.5119 4.86219 15.0942 4.68921 14.6588 4.68921H14.1115V12.3514H14.6588C15.0942 12.3514 15.5119 12.5244 15.8198 12.8323C16.1277 13.1402 16.3007 13.5578 16.3007 13.9933ZM16.3007 13.9933C16.3007 14.4287 16.1277 14.8463 15.8198 15.1543C15.5119 15.4622 15.0942 15.6352 14.6588 15.6352H4.26013V6.3311H12.4696" stroke="black" stroke-width="0.775338" stroke-miterlimit="10"/>
<path d="M8.63853 12.3513V13.4459H11.9223V8.52026H6.44934V13.4459" stroke="black" stroke-width="0.775338" stroke-miterlimit="10" stroke-linecap="square"/>
<path d="M9.73315 10.1622V8.52026" stroke="black" stroke-width="0.775338" stroke-miterlimit="10" stroke-linecap="square"/>
</svg>
