<svg width="21" height="22" viewBox="0 0 21 22" fill="none" xmlns="http://www.w3.org/2000/svg">
<rect width="20.6977" height="20.6977" transform="translate(0 0.697693)" fill="#C0BEAD"/>
<path d="M5.73621 7.72794V10.5746" stroke="black" stroke-width="0.775338" stroke-miterlimit="10"/>
<path d="M10.4794 7.72794V10.5746" stroke="black" stroke-width="0.775338" stroke-miterlimit="10"/>
<path d="M8.1073 11.9971V14.6066" stroke="black" stroke-width="0.775338" stroke-miterlimit="10"/>
<path d="M14.8501 14.3007V16.9101" stroke="black" stroke-width="0.775338" stroke-miterlimit="10"/>
<path d="M8.10746 6.62759L5.73525 7.7263L3.36304 6.62759" stroke="black" stroke-width="0.775338" stroke-miterlimit="10"/>
<path d="M5.73621 10.8978L8.10842 11.9965L10.4806 10.8978" stroke="black" stroke-width="0.775338" stroke-miterlimit="10"/>
<path d="M12.478 13.2014L14.8502 14.3001L17.2225 13.2014" stroke="black" stroke-width="0.775338" stroke-miterlimit="10"/>
<path d="M8.1073 6.62759L10.4795 7.7263L12.8517 6.62759" stroke="black" stroke-width="0.775338" stroke-miterlimit="10"/>
<path d="M8.10746 9.47489V6.45345L5.73525 5.35474L3.36304 6.45345V9.47489L5.73525 10.5736L8.10746 9.47489Z" stroke="black" stroke-width="0.775338" stroke-miterlimit="10"/>
<path d="M12.8517 9.47495V6.45351L10.4795 5.3548L8.1073 6.45351V9.47495L10.4795 10.5737L12.8517 9.47495Z" stroke="black" stroke-width="0.775338" stroke-miterlimit="10"/>
<path d="M10.4806 13.5949V10.5735L8.10842 9.47476L5.73621 10.5735V13.5949L8.10842 14.6936L10.4806 13.5949Z" stroke="black" stroke-width="0.775338" stroke-miterlimit="10"/>
<path d="M17.2225 15.8985V12.877L14.8502 11.7783L12.478 12.877V15.8985L14.8502 16.9972L17.2225 15.8985Z" stroke="black" stroke-width="0.775338" stroke-miterlimit="10"/>
</svg>
