<svg width="21" height="22" viewBox="0 0 21 22" fill="none" xmlns="http://www.w3.org/2000/svg">
<rect width="20.6977" height="20.6977" transform="translate(0.155396 0.715088)" fill="#C0BEAD"/>
<path d="M3.8634 5.71866L5.55372 4.6924C6.3385 4.20945 7.36476 4.20945 8.14955 4.75277L9.17581 5.41682C9.9606 5.96013 11.0472 5.96013 11.832 5.41682L12.8583 4.75277C13.6431 4.20945 14.6693 4.20945 15.4541 4.6924L17.1444 5.71866" stroke="black" stroke-width="0.776164" stroke-miterlimit="10"/>
<path d="M3.8634 8.13297L5.55372 7.10671C6.3385 6.62376 7.36476 6.62376 8.14955 7.16707L9.17581 7.83113C9.9606 8.37444 11.0472 8.37444 11.832 7.83113L12.8583 7.16707C13.6431 6.62376 14.6693 6.62376 15.4541 7.10671L17.1444 8.13297" stroke="black" stroke-width="0.776164" stroke-miterlimit="10"/>
<path d="M8.69324 15.9931C8.69324 15.0179 10.2024 13.3926 10.2024 13.3926C10.2024 13.3926 11.7117 15.0179 11.7117 15.9931C11.7117 17.0332 10.9269 17.6184 10.2024 17.6184C9.47802 17.6184 8.69324 17.0332 8.69324 15.9931Z" stroke="black" stroke-width="0.776164" stroke-miterlimit="10" stroke-linecap="square"/>
<path d="M3.8634 13.7451C3.8634 13.16 4.76893 12.1848 4.76893 12.1848C4.76893 12.1848 5.67445 13.16 5.67445 13.7451C5.67445 14.3692 5.20358 14.7203 4.76893 14.7203C4.33428 14.7203 3.8634 14.3692 3.8634 13.7451Z" stroke="black" stroke-width="0.776164" stroke-miterlimit="10" stroke-linecap="square"/>
<path d="M15.3341 13.7451C15.3341 13.16 16.2396 12.1848 16.2396 12.1848C16.2396 12.1848 17.1452 13.16 17.1452 13.7451C17.1452 14.3692 16.6743 14.7203 16.2396 14.7203C15.805 14.7203 15.3341 14.3692 15.3341 13.7451Z" stroke="black" stroke-width="0.776164" stroke-miterlimit="10" stroke-linecap="square"/>
<path d="M3.26001 10.3738H17.7484" stroke="black" stroke-width="0.776164"/>
</svg>
