<svg width="21" height="22" viewBox="0 0 21 22" fill="none" xmlns="http://www.w3.org/2000/svg">
<rect width="20.6977" height="20.6977" transform="translate(0.155518 0.381714)" fill="#C0BEAD"/>
<path d="M12.8329 13.8354V15.9733C12.8329 16.6501 11.6747 17.1988 10.2457 17.1988C8.81665 17.1988 7.65846 16.6501 7.65846 15.9733V13.8354" stroke="black" stroke-width="0.776164" stroke-miterlimit="10"/>
<path d="M18.0073 11.7656V15.9382C18.0073 16.6344 16.8491 17.1987 15.4201 17.1987C13.9911 17.1987 12.8329 16.6344 12.8329 15.9382V11.7656" stroke="black" stroke-width="0.776164" stroke-miterlimit="10"/>
<path d="M10.2457 15.129C8.81681 15.129 7.65846 14.5498 7.65846 13.8354C7.65846 13.1209 8.81681 12.5417 10.2457 12.5417C11.6745 12.5417 12.8329 13.1209 12.8329 13.8354C12.8329 14.5498 11.6745 15.129 10.2457 15.129Z" stroke="black" stroke-width="0.776164" stroke-miterlimit="10" stroke-linecap="square"/>
<path d="M12.8329 13.8354C12.8329 14.5498 13.9912 15.129 15.4201 15.129C16.849 15.129 18.0073 14.5498 18.0073 13.8354" stroke="black" stroke-width="0.776164" stroke-miterlimit="10" stroke-linecap="square"/>
<path d="M15.4201 13.0591C13.9912 13.0591 12.8329 12.48 12.8329 11.7655C12.8329 11.0511 13.9912 10.4719 15.4201 10.4719C16.849 10.4719 18.0073 11.0511 18.0073 11.7655C18.0073 12.48 16.849 13.0591 15.4201 13.0591Z" stroke="black" stroke-width="0.776164" stroke-miterlimit="10" stroke-linecap="square"/>
<path d="M3.26022 15.3877L8.69336 8.91962L10.2457 10.9894L15.6788 4.52136" stroke="black" stroke-width="0.776164"/>
</svg>
