<svg width="21" height="22" viewBox="0 0 21 22" fill="none" xmlns="http://www.w3.org/2000/svg">
<rect width="20.6977" height="20.6977" transform="translate(0.155518 0.466187)" fill="#C0BEAD"/>
<path d="M9.30607 16.9257H4.29504V4.60565H14.3171V7.68567M7.42693 8.30167H11.1852M7.42693 10.7657H9.30607M12.438 14.773C11.7805 14.4403 11.1852 13.7904 11.1852 12.6137C11.1852 10.6425 12.8555 10.1497 13.6907 10.1497C14.5259 10.1497 16.1962 10.6425 16.1962 12.6137C16.1962 13.7904 15.601 14.4403 14.9435 14.773M12.438 14.773C12.8818 14.9977 13.3541 15.0777 13.6907 15.0777C14.0273 15.0777 14.4996 14.9977 14.9435 14.773M12.438 14.773L11.8116 17.5417H15.5698L14.9435 14.773" stroke="black" stroke-width="0.776164" stroke-miterlimit="10" stroke-linecap="square"/>
</svg>
