<svg width="22" height="21" viewBox="0 0 22 21" fill="none" xmlns="http://www.w3.org/2000/svg">
<rect width="20.6977" height="20.6977" transform="translate(0.493286 0.0405273)" fill="#C0BEAD"/>
<path d="M6.15644 6.61041L6.13807 6.57652L8.62744 11.1699C8.62744 12.4384 7.50154 13.4667 6.11267 13.4667C4.7238 13.4667 3.5979 12.4384 3.5979 11.1699L6.11267 6.57652H10.5834M15.0098 6.6113L15.0287 6.57652L12.5393 11.1699C12.5393 12.4384 13.6652 13.4667 15.0541 13.4667C16.443 13.4667 17.5688 12.4384 17.5688 11.1699L15.0541 6.57652H10.5834M10.5834 6.57652V16.5986M10.5834 6.57652V4.69739M10.5834 16.5986H7.09064M10.5834 16.5986H14.0761" stroke="black" stroke-width="0.776164" stroke-miterlimit="10" stroke-linecap="square"/>
</svg>
