<svg width="21" height="21" viewBox="0 0 21 21" fill="none" xmlns="http://www.w3.org/2000/svg">
<rect width="20.6977" height="20.6977" transform="translate(0.155396 0.0405273)" fill="#C0BEAD"/>
<path d="M4.42708 7.82362L5.97219 6.8721C6.68952 6.42438 7.63124 6.41843 8.35453 6.91243L9.3001 7.51582C10.0234 8.00983 11.0205 8.00352 11.7375 7.50041L12.6753 6.88511C13.3923 6.38201 14.334 6.37605 15.057 6.81466L16.614 7.74657" stroke="black" stroke-width="0.776164" stroke-miterlimit="10"/>
<path d="M4.47164 14.527L6.01675 13.5755C6.73408 13.1278 7.6758 13.1218 8.39909 13.6158L9.34465 14.2192C10.0679 14.7132 11.0651 14.7069 11.782 14.2038L12.7199 13.5885C13.4369 13.0854 14.3786 13.0794 15.1015 13.518L16.6586 14.4499" stroke="black" stroke-width="0.776164" stroke-miterlimit="10"/>
<path d="M4.44844 11.1464L5.99355 10.1949C6.71089 9.74714 7.6526 9.74118 8.37589 10.2352L9.32146 10.8386C10.0447 11.3326 11.0419 11.3263 11.7588 10.8232L12.6967 10.2079C13.4137 9.70476 14.3554 9.69881 15.0783 10.1374L16.6354 11.0693" stroke="black" stroke-width="0.776164" stroke-miterlimit="10"/>
<path d="M3.26001 4.69751H17.7484" stroke="black" stroke-width="0.776164"/>
<path d="M3.26001 16.2883H17.7484" stroke="black" stroke-width="0.776164"/>
</svg>
