<svg width="21" height="22" viewBox="0 0 21 22" fill="none" xmlns="http://www.w3.org/2000/svg">
<rect width="20.6977" height="20.6977" transform="translate(0.155518 0.668945)" fill="#C0BEAD"/>
<path d="M8.31845 5.32593H3.26001V9.92088M8.31845 5.32593H13.3769V9.92088H11.48V8.93625H10.8477H10.2154V9.92088H8.31845M8.31845 5.32593V6.96698H7.37V7.6234V8.27982H8.31845V9.92088M3.26001 9.92088V14.5158H8.31845V12.8748H9.26691V12.2184V11.5619H8.31845V9.92088M3.26001 9.92088H5.18704V10.8882H5.90967H6.39143V9.92088H8.31845M17.231 16.7097H12.1725V15.0686H13.121V14.4122V13.7558H12.1725V12.1147H14.0694V11.1301H14.7017H15.334V12.1147H17.231V16.7097Z" stroke="black" stroke-width="0.775338"/>
</svg>
