<svg width="21" height="22" viewBox="0 0 21 22" fill="none" xmlns="http://www.w3.org/2000/svg">
<rect width="20.6977" height="20.6977" transform="translate(0 0.790771)" fill="#C0BEAD"/>
<path d="M12.6774 14.2444V16.3822C12.6774 17.0591 11.5192 17.6078 10.0902 17.6078C8.66114 17.6078 7.50294 17.0591 7.50294 16.3822V14.2444" stroke="black" stroke-width="0.776164" stroke-miterlimit="10"/>
<path d="M17.8518 12.1746V16.3472C17.8518 17.0434 16.6936 17.6077 15.2646 17.6077C13.8356 17.6077 12.6774 17.0434 12.6774 16.3472V12.1746" stroke="black" stroke-width="0.776164" stroke-miterlimit="10"/>
<path d="M10.0902 15.538C8.66129 15.538 7.50294 14.9588 7.50294 14.2444C7.50294 13.5299 8.66129 12.9507 10.0902 12.9507C11.519 12.9507 12.6774 13.5299 12.6774 14.2444C12.6774 14.9588 11.519 15.538 10.0902 15.538Z" stroke="black" stroke-width="0.776164" stroke-miterlimit="10" stroke-linecap="square"/>
<path d="M12.6774 14.2444C12.6774 14.9588 13.8357 15.538 15.2646 15.538C16.6935 15.538 17.8518 14.9588 17.8518 14.2444" stroke="black" stroke-width="0.776164" stroke-miterlimit="10" stroke-linecap="square"/>
<path d="M15.2646 13.4682C13.8357 13.4682 12.6774 12.889 12.6774 12.1746C12.6774 11.4601 13.8357 10.881 15.2646 10.881C16.6935 10.881 17.8518 11.4601 17.8518 12.1746C17.8518 12.889 16.6935 13.4682 15.2646 13.4682Z" stroke="black" stroke-width="0.776164" stroke-miterlimit="10" stroke-linecap="square"/>
<path d="M3.1047 15.7966L8.53784 9.32862L10.0902 11.3984L15.5233 4.93036" stroke="black" stroke-width="0.776164"/>
</svg>
