<svg width="460" height="270" viewBox="0 0 460 270" fill="none" xmlns="http://www.w3.org/2000/svg">
<g clip-path="url(#clip0_552_8112)">
<rect width="460" height="270" fill="#C0BEAD"/>
<path d="M356.403 174.83C348.976 177.001 422.184 185.288 459.954 189.16V206.157H407.441L230.286 154.31L219.812 151.216L302.224 133.077C337.296 133.711 415.487 135.219 447.671 136.171C452.651 136.319 456.718 136.572 460.001 136.902V145.322C459.086 145.408 458.187 145.455 457.335 145.455C446.099 145.455 424.866 142.36 416.724 142.36C408.583 142.36 400.871 143.122 390.016 142.36C379.161 141.599 352.88 145.455 342.835 145.455C332.789 145.455 333.551 160.499 330.075 165.927C326.6 171.354 365.687 172.116 356.403 174.83Z" fill="#F7F7F7" stroke="black" stroke-width="0.0952187"/>
<path d="M407.522 129.548C414.197 129.548 443.152 132.105 456.795 133.384L459.952 138.799C443.453 138.047 408.717 136.542 401.771 136.542C393.089 136.542 356.331 136.881 345.169 136.542C334.006 136.204 300.405 138.799 286.988 138.799C276.254 138.799 245.006 146.244 230.723 149.967C225.762 149.027 214.013 146.899 206.707 145.906C197.574 144.665 163.973 125.036 153.938 125.036C145.91 125.036 125.111 119.921 115.714 117.364H185.96C191.823 117.364 239.368 120.373 262.407 121.877H300.405H331.413C337.163 121.877 364.337 125.036 373.696 125.036C383.054 125.036 399.178 129.548 407.522 129.548Z" fill="#B2B2B2" stroke="black" stroke-width="0.0952187"/>
<path d="M0.145264 270V117.364H115.718C125.114 119.921 145.914 125.036 153.942 125.036C163.977 125.036 197.578 144.665 206.711 145.906C214.017 146.899 225.766 149.027 230.727 149.967C241.289 152.336 262.907 157.255 264.892 157.977C267.372 158.879 319.916 177.493 334.912 181.329C346.909 184.398 358.478 186.669 362.762 187.421C374.902 190.617 403.218 197.01 419.365 197.01C435.511 197.01 453.153 198.514 459.956 199.266V270H0.145264Z" fill="#DFDFDF" stroke="black" stroke-width="0.0952187"/>
<path d="M257.662 213.914L92.6478 212.676L0 221.683V229.52L90.1721 230.197L257.662 213.914Z" fill="#888777" fill-opacity="0.5"/>
<g filter="url(#filter0_f_552_8112)">
<path d="M282.467 150.01L287.137 148.524L301.864 151.666L301.728 151.71L297.213 153.145L292.699 154.581L291.871 154.844L286.36 153.669L286.752 152.044L282.467 150.01Z" fill="#717168" fill-opacity="0.2"/>
<path d="M318.072 157.606L322.743 156.121L309.293 153.251L304.623 154.736L302.605 155.378L300.27 156.121L299.102 156.492L311.873 159.217L316.543 157.731L317.393 157.461L318.072 157.606Z" fill="#717168" fill-opacity="0.2"/>
</g>
<path d="M289.33 143.662V147.543L295.461 145.622V141.742L289.33 143.662Z" fill="#E0E0E0" stroke="#E0E0E0" stroke-width="0.18994"/>
<path d="M289.333 143.663L284.367 143.503L290.499 141.583L295.464 141.742L289.333 143.663Z" fill="#D7D7D7" stroke="black" stroke-width="0.00794118"/>
<path d="M289.333 143.664V147.544L284.372 146.486V143.506L289.333 143.664Z" fill="#F5F5F5" stroke="black" stroke-width="0.00794118"/>
<path d="M292.901 141.336V147.549L293.258 147.438L293.616 147.326L299.033 145.629V139.416L292.901 141.336Z" fill="#D6D6D6"/>
<path d="M299.033 145.629L293.616 147.326L293.258 147.438L292.901 147.549V141.336L299.033 139.416V145.629" stroke="black" stroke-width="0.00794118"/>
<path d="M292.904 141.338L299.035 139.417L295.898 138.749L289.767 140.67L292.904 141.338Z" fill="#E0E0E0"/>
<path d="M289.767 140.67L295.898 138.749L299.035 139.417L292.904 141.338L289.767 140.67" stroke="black" stroke-width="0.00794118"/>
<path d="M292.903 141.341V147.881L289.605 147.178L289.336 146.629V143.687L289.767 140.672L292.903 141.341Z" fill="#EBEBEB" stroke="black" stroke-width="0.00794118"/>
<path d="M296.486 148.916C296.057 149.051 295.95 149.583 295.95 149.832C295.95 150.031 296.018 150.366 296.262 150.426L292.695 149.658C292.538 149.617 292.383 149.466 292.383 149.072C292.383 148.474 292.74 148.212 292.919 148.156C292.973 148.139 293.044 148.131 293.116 148.144L294.9 148.521L296.685 148.897C296.628 148.888 296.562 148.893 296.486 148.916Z" fill="#EBEBEB" stroke="black" stroke-width="0.00794118"/>
<path d="M293.95 148.376C293.521 148.51 293.414 149.042 293.414 149.291C293.414 149.49 293.482 149.825 293.726 149.886L293.28 149.789C293.123 149.749 292.968 149.598 292.968 149.203C292.968 148.605 293.327 148.33 293.506 148.274C293.56 148.257 293.631 148.249 293.703 148.262L294.149 148.356C294.092 148.347 294.026 148.352 293.95 148.376Z" fill="#D7D7D7" stroke="black" stroke-width="0.00794118"/>
<path d="M296.009 148.82C295.581 148.954 295.473 149.486 295.473 149.736C295.473 149.934 295.541 150.27 295.786 150.33L295.34 150.234C295.183 150.193 295.028 150.042 295.028 149.648C295.028 149.05 295.386 148.775 295.565 148.719C295.619 148.702 295.69 148.693 295.762 148.707L296.208 148.801C296.151 148.791 296.085 148.796 296.009 148.82Z" fill="#D7D7D7" stroke="black" stroke-width="0.00794118"/>
<path d="M296.489 148.914C296.06 149.049 295.953 149.581 295.953 149.83C295.953 150.028 296.021 150.364 296.265 150.424C296.327 150.44 296.401 150.437 296.489 150.41C296.917 150.276 297.024 149.744 297.024 149.494C297.024 149.289 296.952 148.938 296.688 148.895C296.631 148.886 296.565 148.891 296.489 148.914Z" fill="#E0E0E0"/>
<path d="M296.47 142.687V148.901L296.827 148.789L297.184 148.677L302.601 146.98V140.767L296.47 142.687Z" fill="#E0E0E0"/>
<path d="M302.601 146.98L297.184 148.677L296.827 148.789L296.47 148.901V142.687L302.601 140.767V146.98" stroke="black" stroke-width="0.00794118"/>
<path d="M296.467 142.69L292.9 141.93L299.031 140.009L302.599 140.77L296.467 142.69Z" fill="#EBEBEB" stroke="black" stroke-width="0.00794118"/>
<path d="M292.9 139.005L293.139 138.93L293.427 138.991L293.187 139.066L292.9 139.005Z" fill="#9B9B9B" stroke="black" stroke-width="0.00794118"/>
<path d="M298.788 137.15L299.027 137.075L299.314 137.136L299.075 137.211L298.788 137.15Z" fill="#9B9B9B" stroke="black" stroke-width="0.00794118"/>
<path d="M293.19 139.068V141.99L293.43 141.915V138.993L293.19 139.068Z" fill="#D7D7D7" stroke="black" stroke-width="0.00794118"/>
<path d="M299.073 137.213V140.135L299.313 140.06V137.138L299.073 137.213Z" fill="#D7D7D7" stroke="black" stroke-width="0.00794118"/>
<path d="M296.467 142.693V148.906L292.9 148.146V141.932L296.467 142.693Z" fill="#F5F5F5" stroke="black" stroke-width="0.00794118"/>
<path d="M293.387 147.758L295.956 148.305C295.985 148.311 296.013 148.289 296.013 148.259V147.197C296.013 147.174 295.997 147.155 295.975 147.15L293.406 146.603C293.377 146.597 293.349 146.619 293.349 146.649V147.712C293.349 147.734 293.365 147.753 293.387 147.758Z" fill="#EBEBEB" stroke="#777777" stroke-width="0.047485"/>
<path d="M293.387 146.031L295.956 146.578C295.985 146.584 296.013 146.561 296.013 146.531V143.328C296.013 143.305 295.997 143.286 295.975 143.281L293.406 142.734C293.377 142.728 293.349 142.75 293.349 142.78V145.984C293.349 146.007 293.365 146.026 293.387 146.031Z" fill="#EBEBEB" stroke="#777777" stroke-width="0.047485"/>
<path d="M289.911 146.152V141.714C289.911 141.684 289.939 141.662 289.969 141.668L292.455 142.198C292.477 142.203 292.493 142.222 292.493 142.244V146.682C292.493 146.712 292.465 146.734 292.436 146.728L289.949 146.198C289.927 146.193 289.911 146.174 289.911 146.152Z" fill="white" stroke="#9D9D9D" stroke-width="0.047485"/>
<path d="M292.152 142.535L290.236 142.126C290.207 142.12 290.179 142.142 290.179 142.173V143.842C290.179 143.864 290.194 143.884 290.216 143.888L291.171 144.092C291.18 144.094 291.188 144.093 291.197 144.091L291.675 143.928C291.683 143.925 291.691 143.925 291.7 143.926L292.132 144.019C292.162 144.025 292.19 144.002 292.19 143.972V142.581C292.19 142.559 292.174 142.539 292.152 142.535Z" fill="#BFBFBF" stroke="black" stroke-width="0.00794118"/>
<path d="M283.099 147.217L283.923 146.961C283.923 146.657 284.07 146.223 284.518 145.946C283.412 146.052 283.099 146.772 283.099 147.217Z" fill="#B1B1B1" stroke="black" stroke-width="0.00794118"/>
<path d="M287.336 148.265C287.336 147.671 286.942 146.398 285.364 146.062C284.952 145.974 284.621 145.984 284.357 146.058L284.274 146.084C284.301 146.075 284.328 146.066 284.357 146.058L286.037 145.532C286.314 145.436 286.597 145.435 287.053 145.532C288.63 145.868 289.025 147.141 289.025 147.735C289.025 148.156 288.901 148.809 288.228 149.05L286.465 149.602C287.139 149.361 287.336 148.686 287.336 148.265Z" fill="#282828"/>
<path d="M285.366 146.057C286.943 146.393 287.337 147.666 287.337 148.261C287.337 148.855 286.943 149.96 285.366 149.624C283.789 149.288 283.394 148.015 283.394 147.42C283.394 146.826 283.789 145.721 285.366 146.057Z" fill="#444444" stroke="black" stroke-width="0.00794118"/>
<mask id="mask0_552_8112" style="mask-type:alpha" maskUnits="userSpaceOnUse" x="283" y="146" width="4" height="4">
<path d="M285.364 146.593C286.472 146.829 286.749 147.722 286.749 148.138C286.749 148.555 286.472 149.33 285.364 149.094C284.256 148.859 283.979 147.966 283.979 147.549C283.979 147.132 284.256 146.357 285.364 146.593Z" fill="#B9B9B9" stroke="#B9B9B9" stroke-width="0.18994"/>
</mask>
<g mask="url(#mask0_552_8112)">
<path d="M285.364 146.593C286.472 146.829 286.749 147.722 286.749 148.138C286.749 148.555 286.472 149.33 285.364 149.094C284.256 148.859 283.979 147.966 283.979 147.549C283.979 147.132 284.256 146.357 285.364 146.593Z" fill="#6E6E6E" stroke="#6E6E6E" stroke-width="0.18994"/>
<path d="M285.591 146.539C286.699 146.774 286.976 147.667 286.976 148.084C286.976 148.501 286.699 149.276 285.591 149.04C284.483 148.804 284.206 147.912 284.206 147.495C284.206 147.078 284.483 146.303 285.591 146.539Z" fill="#D1D1D1" stroke="#D1D1D1" stroke-width="0.18994"/>
</g>
<path d="M285.56 147.346C286.011 147.442 286.123 147.804 286.123 147.973C286.123 148.093 286.067 148.286 285.875 148.354L285.585 148.444C285.778 148.376 285.834 148.183 285.834 148.064C285.834 147.894 285.721 147.532 285.271 147.436C285.153 147.411 285.058 147.414 284.983 147.435L285.249 147.352C285.328 147.325 285.43 147.318 285.56 147.346Z" fill="#282828"/>
<path d="M285.281 147.441C285.731 147.536 285.843 147.898 285.843 148.066C285.843 148.235 285.731 148.549 285.281 148.453C284.831 148.358 284.719 147.997 284.719 147.828C284.719 147.659 284.831 147.346 285.281 147.441Z" fill="#6D6D6D" stroke="black" stroke-width="0.00794118"/>
<path d="M288.793 148.431L289.617 148.176C289.617 147.403 289.01 145.727 286.579 145.209C285.578 144.995 284.886 145.111 284.419 145.374C284.787 145.33 285.228 145.352 285.755 145.464C288.185 145.982 288.793 147.658 288.793 148.431Z" fill="#B1B1B1" stroke="black" stroke-width="0.00794118"/>
<path d="M285.756 145.463C288.186 145.981 288.794 147.657 288.794 148.43L288.414 148.349C288.414 147.769 287.882 146.496 285.756 146.043C285.261 145.937 284.852 145.913 284.517 145.945C283.411 146.051 283.098 146.771 283.098 147.216L282.718 147.135C282.718 146.529 283.09 145.529 284.419 145.373C284.787 145.329 285.229 145.351 285.756 145.463Z" fill="#CDCDCD" stroke="black" stroke-width="0.00794118"/>
<path d="M288.913 147.389L288.913 148.251L292.212 148.954L292.212 148.092L288.913 147.389Z" fill="#C3C3C3" stroke="black" stroke-width="0.00794118"/>
<path d="M289.604 147.18L288.914 147.392L292.213 148.095L292.903 147.884L289.604 147.18Z" fill="#DBDBDB"/>
<path d="M292.213 148.957L288.914 148.254L288.224 148.466L291.523 149.169L292.213 148.957Z" fill="#DBDBDB"/>
<path d="M289.604 147.18L288.914 147.392L292.213 148.095L292.903 147.884L289.604 147.18Z" stroke="black" stroke-width="0.00794118"/>
<path d="M292.213 148.957L288.914 148.254L288.224 148.466L291.523 149.169L292.213 148.957Z" stroke="black" stroke-width="0.00794118"/>
<path d="M292.9 139.007V141.929L293.187 141.99V139.068L292.9 139.007Z" fill="#EBEBEB" stroke="black" stroke-width="0.00794118"/>
<path d="M298.788 137.152V140.074L299.075 140.135V137.213L298.788 137.152Z" fill="#EBEBEB" stroke="black" stroke-width="0.00794118"/>
<path d="M304.459 147.798L302.092 148.539L300.908 148.91L296.48 147.966L303.581 145.741L308.01 146.685L306.826 147.056L304.459 147.798Z" fill="#9E9E9E" stroke="black" stroke-width="0.00794118"/>
<path d="M300.908 150.429V148.912L296.48 147.968V149.485L300.908 150.429Z" fill="#7F7F7F" stroke="black" stroke-width="0.00794118"/>
<path d="M304.458 147.797L302.09 148.539L300.907 148.909V150.426L308.008 148.202V146.685L306.825 147.056L304.458 147.797Z" fill="#8F8F8F" stroke="black" stroke-width="0.00794118"/>
<path d="M299.347 150.309L299.059 151.012L300.512 150.557L299.347 150.309Z" fill="#818181" stroke="black" stroke-width="0.00794118"/>
<path d="M302.377 152.376C302.377 151.921 302.076 150.949 300.871 150.692C300.557 150.625 300.303 150.633 300.101 150.69L300.038 150.709C300.059 150.702 300.08 150.696 300.101 150.69L301.586 150.225C301.798 150.151 302.07 150.133 302.418 150.207C303.623 150.464 303.925 151.437 303.925 151.891C303.925 152.212 303.774 152.728 303.26 152.912L301.712 153.397C302.227 153.213 302.377 152.697 302.377 152.376Z" fill="#282828" stroke="#282828" stroke-width="0.18994"/>
<path d="M300.864 150.697C302.069 150.954 302.37 151.927 302.37 152.381C302.37 152.835 302.069 153.679 300.864 153.422C299.659 153.166 299.358 152.193 299.358 151.739C299.358 151.285 299.659 150.441 300.864 150.697Z" fill="#444444" stroke="#444444" stroke-width="0.18994"/>
<mask id="mask1_552_8112" style="mask-type:alpha" maskUnits="userSpaceOnUse" x="299" y="150" width="4" height="4">
<path d="M300.866 151.105C301.713 151.285 301.924 151.967 301.924 152.286C301.924 152.604 301.713 153.196 300.866 153.016C300.02 152.836 299.808 152.154 299.808 151.836C299.808 151.517 300.02 150.925 300.866 151.105Z" fill="#B9B9B9" stroke="#B9B9B9" stroke-width="0.18994"/>
</mask>
<g mask="url(#mask1_552_8112)">
<path d="M300.866 151.105C301.713 151.285 301.924 151.967 301.924 152.286C301.924 152.604 301.713 153.196 300.866 153.016C300.02 152.836 299.808 152.154 299.808 151.836C299.808 151.517 300.02 150.925 300.866 151.105Z" fill="#6E6E6E" stroke="#6E6E6E" stroke-width="0.18994"/>
<path d="M301.043 151.064C301.89 151.244 302.101 151.926 302.101 152.245C302.101 152.563 301.89 153.155 301.043 152.975C300.197 152.795 299.985 152.113 299.985 151.795C299.985 151.476 300.197 150.884 301.043 151.064Z" fill="#D1D1D1" stroke="#D1D1D1" stroke-width="0.18994"/>
</g>
<path d="M301.023 151.684C301.368 151.757 301.454 152.034 301.454 152.163C301.454 152.255 301.411 152.402 301.264 152.454L301.043 152.523C301.19 152.471 301.233 152.324 301.233 152.232C301.233 152.103 301.147 151.826 300.802 151.753C300.713 151.734 300.64 151.736 300.583 151.752L300.786 151.689C300.846 151.668 300.924 151.663 301.023 151.684Z" fill="#282828"/>
<path d="M300.564 151.758L300.786 151.689C300.846 151.668 300.924 151.663 301.023 151.684C301.368 151.757 301.454 152.034 301.454 152.163C301.454 152.255 301.411 152.402 301.264 152.454L301.043 152.523C301.19 152.471 301.233 152.324 301.233 152.232C301.233 152.103 301.147 151.826 300.802 151.753C300.703 151.732 300.625 151.737 300.564 151.758" stroke="#282828" stroke-width="0.18994"/>
<path d="M300.799 151.752C301.142 151.825 301.228 152.101 301.228 152.23C301.228 152.358 301.142 152.598 300.799 152.525C300.455 152.452 300.369 152.176 300.369 152.047C300.369 151.919 300.455 151.679 300.799 151.752Z" fill="#6D6D6D" stroke="#6D6D6D" stroke-width="0.18994"/>
<path d="M309.056 150.321C309.056 149.867 308.755 148.894 307.55 148.637C307.235 148.57 306.982 148.578 306.78 148.635L306.717 148.655C306.738 148.647 306.759 148.641 306.78 148.635L308.265 148.17C308.477 148.096 308.749 148.078 309.097 148.153C310.302 148.409 310.604 149.382 310.604 149.836C310.604 150.157 310.453 150.674 309.938 150.857L308.391 151.342C308.906 151.158 309.056 150.642 309.056 150.321Z" fill="#282828" stroke="#282828" stroke-width="0.18994"/>
<path d="M307.543 148.643C308.748 148.899 309.049 149.872 309.049 150.326C309.049 150.78 308.748 151.624 307.543 151.368C306.338 151.111 306.037 150.138 306.037 149.684C306.037 149.23 306.338 148.386 307.543 148.643Z" fill="#444444" stroke="#444444" stroke-width="0.18994"/>
<mask id="mask2_552_8112" style="mask-type:alpha" maskUnits="userSpaceOnUse" x="306" y="148" width="3" height="4">
<path d="M307.543 149.05C308.389 149.23 308.601 149.912 308.601 150.231C308.601 150.549 308.389 151.141 307.543 150.961C306.696 150.781 306.485 150.099 306.485 149.781C306.485 149.462 306.696 148.87 307.543 149.05Z" fill="#B9B9B9" stroke="#B9B9B9" stroke-width="0.18994"/>
</mask>
<g mask="url(#mask2_552_8112)">
<path d="M307.543 149.05C308.389 149.23 308.601 149.912 308.601 150.231C308.601 150.549 308.389 151.141 307.543 150.961C306.696 150.781 306.485 150.099 306.485 149.781C306.485 149.462 306.696 148.87 307.543 149.05Z" fill="#6E6E6E" stroke="#6E6E6E" stroke-width="0.18994"/>
<path d="M307.72 149.01C308.566 149.19 308.778 149.872 308.778 150.19C308.778 150.509 308.566 151.101 307.72 150.92C306.873 150.74 306.662 150.058 306.662 149.74C306.662 149.421 306.873 148.829 307.72 149.01Z" fill="#D1D1D1" stroke="#D1D1D1" stroke-width="0.18994"/>
</g>
<path d="M305.243 152.968C305.243 152.514 304.942 151.541 303.737 151.285C303.422 151.218 303.169 151.226 302.967 151.282L302.904 151.302C302.924 151.295 302.945 151.288 302.967 151.282L304.451 150.817C304.663 150.744 304.936 150.726 305.284 150.8C306.489 151.057 306.79 152.029 306.79 152.483C306.79 152.805 306.64 153.321 306.125 153.505L304.578 153.99C305.092 153.806 305.243 153.289 305.243 152.968Z" fill="#282828" stroke="#282828" stroke-width="0.18994"/>
<path d="M303.73 151.29C304.935 151.547 305.236 152.519 305.236 152.973C305.236 153.428 304.935 154.272 303.73 154.015C302.525 153.758 302.224 152.786 302.224 152.331C302.224 151.877 302.525 151.033 303.73 151.29Z" fill="#444444" stroke="#444444" stroke-width="0.18994"/>
<mask id="mask3_552_8112" style="mask-type:alpha" maskUnits="userSpaceOnUse" x="302" y="151" width="3" height="3">
<path d="M303.731 151.692C304.578 151.873 304.789 152.555 304.789 152.873C304.789 153.191 304.578 153.783 303.731 153.603C302.885 153.423 302.673 152.741 302.673 152.423C302.673 152.104 302.885 151.512 303.731 151.692Z" fill="#B9B9B9" stroke="#B9B9B9" stroke-width="0.18994"/>
</mask>
<g mask="url(#mask3_552_8112)">
<path d="M303.731 151.692C304.578 151.873 304.789 152.555 304.789 152.873C304.789 153.191 304.578 153.783 303.731 153.603C302.885 153.423 302.673 152.741 302.673 152.423C302.673 152.104 302.885 151.512 303.731 151.692Z" fill="#6E6E6E" stroke="#6E6E6E" stroke-width="0.18994"/>
<path d="M303.908 151.652C304.755 151.832 304.966 152.514 304.966 152.832C304.966 153.151 304.755 153.743 303.908 153.563C303.062 153.382 302.85 152.7 302.85 152.382C302.85 152.063 303.062 151.472 303.908 151.652Z" fill="#D1D1D1" stroke="#D1D1D1" stroke-width="0.18994"/>
</g>
<path d="M303.889 152.276C304.233 152.35 304.32 152.626 304.32 152.756C304.32 152.847 304.276 152.994 304.129 153.047L303.908 153.116C304.055 153.063 304.098 152.916 304.098 152.825C304.098 152.695 304.012 152.419 303.668 152.345C303.578 152.326 303.506 152.329 303.448 152.345L303.651 152.281C303.712 152.26 303.79 152.255 303.889 152.276Z" fill="#282828"/>
<path d="M303.43 152.35L303.651 152.281C303.712 152.26 303.79 152.255 303.889 152.276C304.233 152.35 304.32 152.626 304.32 152.756C304.32 152.847 304.276 152.994 304.129 153.047L303.908 153.116C304.055 153.063 304.098 152.916 304.098 152.825C304.098 152.695 304.012 152.419 303.668 152.345C303.569 152.324 303.491 152.329 303.43 152.35" stroke="#282828" stroke-width="0.18994"/>
<path d="M303.665 152.344C304.008 152.417 304.094 152.693 304.094 152.822C304.094 152.951 304.008 153.191 303.665 153.118C303.321 153.045 303.235 152.769 303.235 152.64C303.235 152.511 303.321 152.272 303.665 152.344Z" fill="#6D6D6D" stroke="#6D6D6D" stroke-width="0.18994"/>
<path d="M311.927 150.912C311.927 150.458 311.626 149.485 310.421 149.229C310.107 149.162 309.854 149.17 309.651 149.226L309.588 149.246C309.609 149.239 309.63 149.232 309.651 149.226L311.136 148.761C311.348 148.687 311.62 148.67 311.968 148.744C313.173 149.001 313.475 149.973 313.475 150.427C313.475 150.749 313.324 151.265 312.81 151.449L311.262 151.933C311.777 151.75 311.927 151.233 311.927 150.912Z" fill="#282828" stroke="#282828" stroke-width="0.18994"/>
<path d="M310.414 149.234C311.619 149.491 311.92 150.463 311.92 150.917C311.92 151.371 311.619 152.216 310.414 151.959C309.209 151.702 308.908 150.73 308.908 150.275C308.908 149.821 309.209 148.977 310.414 149.234Z" fill="#444444" stroke="#444444" stroke-width="0.18994"/>
<mask id="mask4_552_8112" style="mask-type:alpha" maskUnits="userSpaceOnUse" x="309" y="149" width="3" height="3">
<path d="M310.414 149.636C311.26 149.816 311.472 150.498 311.472 150.816C311.472 151.135 311.26 151.727 310.414 151.547C309.568 151.367 309.356 150.685 309.356 150.366C309.356 150.048 309.568 149.456 310.414 149.636Z" fill="#B9B9B9" stroke="#B9B9B9" stroke-width="0.18994"/>
</mask>
<g mask="url(#mask4_552_8112)">
<path d="M310.414 149.636C311.26 149.816 311.472 150.498 311.472 150.816C311.472 151.135 311.26 151.727 310.414 151.547C309.568 151.367 309.356 150.685 309.356 150.366C309.356 150.048 309.568 149.456 310.414 149.636Z" fill="#6E6E6E" stroke="#6E6E6E" stroke-width="0.18994"/>
<path d="M310.591 149.595C311.437 149.775 311.649 150.457 311.649 150.775C311.649 151.094 311.437 151.686 310.591 151.506C309.745 151.326 309.533 150.644 309.533 150.325C309.533 150.007 309.745 149.415 310.591 149.595Z" fill="#D1D1D1" stroke="#D1D1D1" stroke-width="0.18994"/>
</g>
<path d="M299.344 150.309L308.813 147.343L314.718 148.601L315.12 149.451L305.652 152.418L305.249 151.567L300.51 150.557L299.344 150.309Z" fill="#9E9E9E"/>
<path d="M305.249 151.567L314.718 148.601M305.249 151.567L305.652 152.418L315.12 149.451L314.718 148.601M305.249 151.567L300.51 150.557L299.344 150.309L308.813 147.343L314.718 148.601" stroke="black" stroke-width="0.00794118"/>
<path d="M314.724 148.603L305.255 151.57L305.657 152.42L315.126 149.454L314.724 148.603Z" fill="#ABABAB" stroke="black" stroke-width="0.00794118"/>
<path d="M321.416 151.711L311.948 154.677V153.832V152.988L321.416 150.021V151.711Z" fill="#D9D9D9" stroke="black" stroke-width="0.00794118"/>
<path d="M306.263 151.78L306.142 151.754V151.891V153.444L306.263 153.469L311.939 154.679V152.989L306.263 151.78Z" fill="#ACACAC"/>
<path d="M306.263 151.917V153.364M306.142 151.754L306.263 151.78L311.939 152.989V154.679L306.263 153.469L306.142 153.444V151.891V151.754Z" stroke="black" stroke-width="0.00794118"/>
<path d="M306.26 153.36V151.913L309.414 152.585V154.033L306.26 153.36Z" fill="#CCCCCC" stroke="black" stroke-width="0.00794118"/>
<path d="M309.421 152.589V154.036L311.862 153.271V153.11L309.421 152.589Z" fill="#7D7D7D" stroke="black" stroke-width="0.00794118"/>
<path d="M311.862 154.556L309.421 154.035L311.862 153.269V154.556Z" fill="#8D8D8D" stroke="black" stroke-width="0.00794118"/>
<path d="M317.291 154.957C317.291 154.502 316.99 153.53 315.785 153.273C315.471 153.206 315.218 153.214 315.015 153.271L314.952 153.29C314.973 153.283 314.994 153.277 315.015 153.271L316.5 152.806C316.712 152.732 316.984 152.714 317.332 152.788C318.537 153.045 318.839 154.018 318.839 154.472C318.839 154.793 318.688 155.309 318.174 155.493L316.626 155.978C317.141 155.794 317.291 155.278 317.291 154.957Z" fill="#282828" stroke="#282828" stroke-width="0.18994"/>
<path d="M315.778 153.278C316.983 153.535 317.284 154.508 317.284 154.962C317.284 155.416 316.983 156.26 315.778 156.003C314.573 155.747 314.272 154.774 314.272 154.32C314.272 153.866 314.573 153.022 315.778 153.278Z" fill="#444444" stroke="#444444" stroke-width="0.18994"/>
<mask id="mask5_552_8112" style="mask-type:alpha" maskUnits="userSpaceOnUse" x="314" y="153" width="3" height="3">
<path d="M315.78 153.683C316.627 153.863 316.838 154.545 316.838 154.864C316.838 155.182 316.627 155.774 315.78 155.594C314.934 155.414 314.722 154.732 314.722 154.414C314.722 154.095 314.934 153.503 315.78 153.683Z" fill="#B9B9B9" stroke="#B9B9B9" stroke-width="0.18994"/>
</mask>
<g mask="url(#mask5_552_8112)">
<path d="M315.78 153.683C316.627 153.863 316.838 154.545 316.838 154.864C316.838 155.182 316.627 155.774 315.78 155.594C314.934 155.414 314.722 154.732 314.722 154.414C314.722 154.095 314.934 153.503 315.78 153.683Z" fill="#6E6E6E" stroke="#6E6E6E" stroke-width="0.18994"/>
<path d="M315.957 153.642C316.804 153.822 317.015 154.504 317.015 154.823C317.015 155.141 316.804 155.733 315.957 155.553C315.111 155.373 314.899 154.691 314.899 154.373C314.899 154.054 315.111 153.462 315.957 153.642Z" fill="#D1D1D1" stroke="#D1D1D1" stroke-width="0.18994"/>
</g>
<path d="M315.938 154.265C316.282 154.338 316.368 154.615 316.368 154.744C316.368 154.836 316.325 154.983 316.178 155.035L315.957 155.104C316.104 155.052 316.147 154.905 316.147 154.813C316.147 154.684 316.061 154.407 315.716 154.334C315.627 154.315 315.554 154.317 315.497 154.333L315.7 154.27C315.76 154.249 315.838 154.244 315.938 154.265Z" fill="#282828"/>
<path d="M315.479 154.339L315.7 154.27C315.76 154.249 315.838 154.244 315.938 154.265C316.282 154.338 316.368 154.615 316.368 154.744C316.368 154.836 316.325 154.983 316.178 155.035L315.957 155.104C316.104 155.052 316.147 154.905 316.147 154.813C316.147 154.684 316.061 154.407 315.716 154.334C315.617 154.313 315.539 154.318 315.479 154.339" stroke="#282828" stroke-width="0.18994"/>
<path d="M315.713 154.333C316.057 154.406 316.142 154.682 316.142 154.811C316.142 154.939 316.057 155.179 315.713 155.106C315.369 155.033 315.283 154.757 315.283 154.628C315.283 154.5 315.369 154.26 315.713 154.333Z" fill="#6D6D6D" stroke="#6D6D6D" stroke-width="0.18994"/>
<path d="M323.97 152.897C323.97 152.443 323.669 151.47 322.464 151.213C322.15 151.146 321.896 151.154 321.694 151.211L321.631 151.23C321.652 151.223 321.673 151.217 321.694 151.211L323.179 150.746C323.391 150.672 323.663 150.654 324.011 150.729C325.216 150.985 325.518 151.958 325.518 152.412C325.518 152.733 325.367 153.249 324.853 153.433L323.305 153.918C323.82 153.734 323.97 153.218 323.97 152.897Z" fill="#282828" stroke="#282828" stroke-width="0.18994"/>
<path d="M322.457 151.218C323.662 151.475 323.963 152.448 323.963 152.902C323.963 153.356 323.662 154.2 322.457 153.943C321.252 153.687 320.951 152.714 320.951 152.26C320.951 151.806 321.252 150.962 322.457 151.218Z" fill="#444444" stroke="#444444" stroke-width="0.18994"/>
<mask id="mask6_552_8112" style="mask-type:alpha" maskUnits="userSpaceOnUse" x="321" y="151" width="3" height="3">
<path d="M322.457 151.623C323.303 151.803 323.515 152.485 323.515 152.803C323.515 153.122 323.303 153.714 322.457 153.534C321.61 153.353 321.399 152.671 321.399 152.353C321.399 152.034 321.61 151.442 322.457 151.623Z" fill="#B9B9B9" stroke="#B9B9B9" stroke-width="0.18994"/>
</mask>
<g mask="url(#mask6_552_8112)">
<path d="M322.457 151.623C323.303 151.803 323.515 152.485 323.515 152.803C323.515 153.122 323.303 153.714 322.457 153.534C321.61 153.353 321.399 152.671 321.399 152.353C321.399 152.034 321.61 151.442 322.457 151.623Z" fill="#6E6E6E" stroke="#6E6E6E" stroke-width="0.18994"/>
<path d="M322.634 151.582C323.48 151.762 323.692 152.444 323.692 152.762C323.692 153.081 323.48 153.673 322.634 153.493C321.787 153.313 321.576 152.631 321.576 152.312C321.576 151.994 321.787 151.402 322.634 151.582Z" fill="#D1D1D1" stroke="#D1D1D1" stroke-width="0.18994"/>
</g>
<path d="M320.161 155.545C320.161 155.091 319.86 154.119 318.655 153.862C318.34 153.795 318.087 153.803 317.885 153.859L317.822 153.879C317.842 153.872 317.863 153.865 317.885 153.859L319.369 153.394C319.581 153.321 319.854 153.303 320.202 153.377C321.407 153.634 321.708 154.606 321.708 155.061C321.708 155.382 321.557 155.898 321.043 156.082L319.496 156.567C320.01 156.383 320.161 155.866 320.161 155.545Z" fill="#282828" stroke="#282828" stroke-width="0.18994"/>
<path d="M318.648 153.867C319.853 154.124 320.154 155.096 320.154 155.551C320.154 156.005 319.853 156.849 318.648 156.592C317.443 156.335 317.141 155.363 317.141 154.909C317.141 154.454 317.443 153.61 318.648 153.867Z" fill="#444444" stroke="#444444" stroke-width="0.18994"/>
<mask id="mask7_552_8112" style="mask-type:alpha" maskUnits="userSpaceOnUse" x="317" y="154" width="3" height="3">
<path d="M318.65 154.272C319.497 154.452 319.708 155.134 319.708 155.452C319.708 155.771 319.497 156.363 318.65 156.183C317.804 156.003 317.592 155.321 317.592 155.002C317.592 154.684 317.804 154.092 318.65 154.272Z" fill="#B9B9B9" stroke="#B9B9B9" stroke-width="0.18994"/>
</mask>
<g mask="url(#mask7_552_8112)">
<path d="M318.65 154.272C319.497 154.452 319.708 155.134 319.708 155.452C319.708 155.771 319.497 156.363 318.65 156.183C317.804 156.003 317.592 155.321 317.592 155.002C317.592 154.684 317.804 154.092 318.65 154.272Z" fill="#6E6E6E" stroke="#6E6E6E" stroke-width="0.18994"/>
<path d="M318.827 154.231C319.674 154.411 319.885 155.093 319.885 155.411C319.885 155.73 319.674 156.322 318.827 156.142C317.981 155.962 317.769 155.28 317.769 154.961C317.769 154.643 317.981 154.051 318.827 154.231Z" fill="#D1D1D1" stroke="#D1D1D1" stroke-width="0.18994"/>
</g>
<path d="M318.807 154.854C319.151 154.927 319.237 155.204 319.237 155.333C319.237 155.424 319.194 155.571 319.047 155.624L318.826 155.693C318.973 155.64 319.016 155.493 319.016 155.402C319.016 155.273 318.93 154.996 318.586 154.923C318.496 154.903 318.424 154.906 318.366 154.922L318.569 154.858C318.63 154.837 318.707 154.832 318.807 154.854Z" fill="#282828"/>
<path d="M318.348 154.927L318.569 154.858C318.63 154.837 318.707 154.832 318.807 154.854C319.151 154.927 319.237 155.204 319.237 155.333C319.237 155.424 319.194 155.571 319.047 155.624L318.826 155.693C318.973 155.64 319.016 155.493 319.016 155.402C319.016 155.273 318.93 154.996 318.586 154.923C318.486 154.901 318.408 154.906 318.348 154.927" stroke="#282828" stroke-width="0.18994"/>
<path d="M318.582 154.922C318.926 154.994 319.012 155.27 319.012 155.399C319.012 155.528 318.926 155.768 318.582 155.695C318.239 155.622 318.153 155.346 318.153 155.217C318.153 155.088 318.239 154.849 318.582 154.922Z" fill="#6D6D6D" stroke="#6D6D6D" stroke-width="0.18994"/>
<path d="M326.844 153.48C326.844 153.026 326.542 152.053 325.338 151.797C325.023 151.73 324.77 151.738 324.568 151.794L324.505 151.814C324.525 151.807 324.546 151.8 324.568 151.794L326.052 151.329C326.264 151.256 326.537 151.238 326.885 151.312C328.09 151.569 328.391 152.541 328.391 152.995C328.391 153.317 328.24 153.833 327.726 154.017L326.179 154.502C326.693 154.318 326.844 153.801 326.844 153.48Z" fill="#282828" stroke="#282828" stroke-width="0.18994"/>
<path d="M325.33 151.802C326.535 152.059 326.837 153.031 326.837 153.485C326.837 153.94 326.535 154.784 325.33 154.527C324.125 154.27 323.824 153.298 323.824 152.843C323.824 152.389 324.125 151.545 325.33 151.802Z" fill="#444444" stroke="#444444" stroke-width="0.18994"/>
<mask id="mask8_552_8112" style="mask-type:alpha" maskUnits="userSpaceOnUse" x="324" y="152" width="3" height="3">
<path d="M325.331 152.205C326.177 152.385 326.389 153.067 326.389 153.386C326.389 153.704 326.177 154.296 325.331 154.116C324.484 153.936 324.273 153.254 324.273 152.936C324.273 152.617 324.484 152.025 325.331 152.205Z" fill="#B9B9B9" stroke="#B9B9B9" stroke-width="0.18994"/>
</mask>
<g mask="url(#mask8_552_8112)">
<path d="M325.331 152.205C326.177 152.385 326.389 153.067 326.389 153.386C326.389 153.704 326.177 154.296 325.331 154.116C324.484 153.936 324.273 153.254 324.273 152.936C324.273 152.617 324.484 152.025 325.331 152.205Z" fill="#6E6E6E" stroke="#6E6E6E" stroke-width="0.18994"/>
<path d="M325.508 152.164C326.354 152.345 326.566 153.027 326.566 153.345C326.566 153.663 326.354 154.255 325.508 154.075C324.661 153.895 324.45 153.213 324.45 152.895C324.45 152.576 324.661 151.984 325.508 152.164Z" fill="#D1D1D1" stroke="#D1D1D1" stroke-width="0.18994"/>
</g>
<path d="M311.545 147.591L302.076 150.558L319.866 154.349L329.335 151.383L311.545 147.591Z" fill="#D9D9D9" stroke="black" stroke-width="0.00794118"/>
<path d="M319.185 154.522L319.867 154.667V155.348L319.526 155.276L319.185 154.863V154.522Z" fill="#BCBCBC" stroke="black" stroke-width="0.00794118"/>
<path d="M319.866 154.667L319.747 154.641L302.195 150.91L302.076 150.884V150.804V150.643V150.553L319.747 154.319L319.866 154.345V154.425V154.506V154.586V154.667Z" fill="#BCBCBC" stroke="black" stroke-width="0.00794118"/>
<path d="M319.746 154.403L302.194 150.671V150.832L302.359 150.867L319.746 154.564V154.403Z" fill="#838383" stroke="black" stroke-width="0.00794118"/>
<path d="M319.634 154.034L303.296 150.552L303.764 150.405L304.233 150.259L304.701 150.112L305.169 149.965L321.507 153.447L321.039 153.594L320.571 153.741L320.103 153.887L319.634 154.034Z" fill="#BCBCBC"/>
<path d="M311.777 147.895L328.115 151.377L327.647 151.524L327.178 151.671L326.71 151.817L326.242 151.964L309.904 148.482L310.372 148.335L310.84 148.189L311.309 148.042L311.777 147.895Z" fill="#BCBCBC"/>
<path d="M309.41 148.637L325.748 152.119L325.279 152.265L324.811 152.412L324.343 152.559L323.875 152.706L323.406 152.852L322.938 152.999L322.47 153.146L322.001 153.292L305.663 149.81L306.132 149.664L306.6 149.517L307.068 149.37L307.536 149.224L308.005 149.077L308.473 148.93L308.941 148.784L309.41 148.637Z" fill="#BCBCBC"/>
<path d="M304.233 150.259L320.571 153.741M304.233 150.259L304.701 150.112M304.233 150.259L303.764 150.405M320.571 153.741L321.039 153.594M320.571 153.741L320.103 153.887M321.039 153.594L321.507 153.447L305.169 149.965L304.701 150.112M321.039 153.594L304.701 150.112M303.764 150.405L303.296 150.552L319.634 154.034L320.103 153.887M303.764 150.405L320.103 153.887M327.178 151.671L310.84 148.189M327.178 151.671L326.71 151.817M327.178 151.671L327.647 151.524M310.84 148.189L310.372 148.335M310.84 148.189L311.309 148.042M310.372 148.335L309.904 148.482L326.242 151.964L326.71 151.817M310.372 148.335L326.71 151.817M327.647 151.524L328.115 151.377L311.777 147.895L311.309 148.042M327.647 151.524L311.309 148.042M307.536 149.224L323.875 152.706M307.536 149.224L307.068 149.37M307.536 149.224L308.005 149.077M323.875 152.706L323.406 152.852M323.875 152.706L324.343 152.559M324.811 152.412L308.473 148.93M324.811 152.412L324.343 152.559M324.811 152.412L325.279 152.265M308.473 148.93L308.005 149.077M308.473 148.93L308.941 148.784M306.6 149.517L322.938 152.999M306.6 149.517L306.132 149.664M306.6 149.517L307.068 149.37M322.938 152.999L322.47 153.146M322.938 152.999L323.406 152.852M322.47 153.146L322.001 153.292L305.663 149.81L306.132 149.664M322.47 153.146L306.132 149.664M307.068 149.37L323.406 152.852M324.343 152.559L308.005 149.077M308.941 148.784L309.41 148.637L325.748 152.119L325.279 152.265M308.941 148.784L325.279 152.265" stroke="#838383" stroke-width="0.018994"/>
<path d="M319.865 154.667V154.345L320.359 154.19L322.233 153.604L322.727 153.449L326.473 152.275L326.967 152.12L328.84 151.534L329.334 151.379V151.701V153.025V153.687V154.018V154.349L326.134 155.352V155.021V154.69V154.027V152.703L323.065 153.665V154.989V155.651V155.982V156.313L319.865 157.315V156.984V156.653V155.991V154.667Z" fill="#E3E3E3"/>
<path d="M319.865 154.667V154.345L320.359 154.19L322.233 153.604L322.727 153.449L326.473 152.275L326.967 152.12L328.84 151.534L329.334 151.379V151.701M319.865 154.667L323.065 153.665M319.865 154.667V155.991V156.653V156.984M329.334 151.701L326.134 152.703M329.334 151.701V153.025V153.687V154.018M326.134 152.703L323.065 153.665M326.134 152.703V154.027V154.69V155.021M323.065 153.665V154.989V155.651V155.982M323.065 155.982V156.313L319.865 157.315V156.984M323.065 155.982L319.865 156.984M326.134 155.021V155.352L329.334 154.349V154.018M326.134 155.021L329.334 154.018" stroke="black" stroke-width="0.00794118"/>
<path d="M319.865 157.316L323.065 156.314V155.983L319.865 156.985V157.316Z" fill="#BCBCBC"/>
<path d="M326.134 155.352L329.334 154.35V154.019L326.134 155.021V155.352Z" fill="#BCBCBC"/>
<path d="M319.865 157.316L323.065 156.314V155.983L319.865 156.985V157.316Z" stroke="black" stroke-width="0.00794118"/>
<path d="M326.134 155.352L329.334 154.35V154.019L326.134 155.021V155.352Z" stroke="black" stroke-width="0.00794118"/>
<path d="M266.02 57.0235V68.8394L219.22 72.6482L172.42 76.4569L170.23 76.4299V64.6139L217.03 60.8052L263.83 56.9964L266.02 57.0235Z" fill="#D9D9D9"/>
<path d="M266.02 57.0235V68.8394L219.22 72.6482L172.42 76.4569M266.02 57.0235L263.83 56.9964L217.03 60.8052L170.23 64.6139M266.02 57.0235L219.22 60.8322L172.42 64.641M172.42 64.641L170.23 64.6139M172.42 64.641V76.4569M170.23 64.6139V76.4299L172.42 76.4569" stroke="black" stroke-width="0.0952187"/>
<path d="M257.972 214.217H254.116V65.7596L256.973 65.474H260.829V213.932L257.972 214.217Z" fill="#A6A6A6"/>
<path d="M254.116 65.7596H257.972M254.116 65.7596L254.116 214.217H257.972M254.116 65.7596L256.973 65.474H260.829M257.972 214.217V65.7596M257.972 214.217L260.829 213.932V65.474M257.972 65.7596L260.829 65.474" stroke="black" stroke-width="0.0952187"/>
<path d="M257.976 214.217V65.7596L260.833 65.474V213.932L257.976 214.217Z" fill="#D9D9D9" stroke="black" stroke-width="0.0952187"/>
<path d="M170.752 213.643H166.896V43.856L169.753 43.5703H173.609V213.357L170.752 213.643Z" fill="#D9D9D9"/>
<path d="M166.896 43.856H170.752M166.896 43.856V213.643H170.752M166.896 43.856L169.753 43.5703H173.609M170.752 213.643V43.856M170.752 213.643L173.609 213.357V43.5703M170.752 43.856L173.609 43.5703" stroke="black" stroke-width="0.0952187"/>
<path d="M172.611 76.7047V136.202L219.554 136.597L254.118 136.888V77.3908L219.554 77.1002L172.611 76.7047Z" fill="#7C7C7C" stroke="black" stroke-width="0.0952187"/>
<path d="M170.752 213.643H166.896V43.8561H170.752V213.643Z" fill="#A6A6A6" stroke="black" stroke-width="0.0952187"/>
<path d="M96.768 212.878H92.9116V72.2278L95.7682 71.9421H99.6245V212.592L96.768 212.878Z" fill="#D9D9D9"/>
<path d="M92.9116 72.2278H96.768M92.9116 72.2278L92.9116 212.878H96.768M92.9116 72.2278L95.7682 71.9421H99.6245M96.768 212.878V72.2278M96.768 212.878L99.6245 212.592V71.9421M96.768 72.2278L99.6245 71.9421" stroke="black" stroke-width="0.0952187"/>
<path d="M96.768 212.881H92.9116V74.278H96.768V212.881Z" fill="#A6A6A6"/>
<path d="M92.9116 74.278H96.768V212.881H92.9116V74.278ZM92.9116 74.278L95.7682 73.9923" stroke="black" stroke-width="0.0952187"/>
<path d="M216.509 194.512V203.896L212.701 203.864V194.48L216.509 194.512Z" fill="#484848" stroke="black" stroke-width="0.0952187"/>
<path d="M216.506 194.512V203.865L258.016 200.571V191.219L216.506 194.512Z" fill="#9B9B9B" stroke="black" stroke-width="0.0952187"/>
<path d="M256.927 190.965L212.596 194.534L216.459 194.566L260.789 190.997L256.927 190.965Z" fill="#727272" stroke="black" stroke-width="0.0952187"/>
<path d="M126.622 194.427V203.811L122.813 203.779V194.395L126.622 194.427Z" fill="#484848" stroke="black" stroke-width="0.0952187"/>
<path d="M126.619 194.427V203.78L170.753 200.278V190.925L126.619 194.427Z" fill="#9B9B9B" stroke="black" stroke-width="0.0952187"/>
<path d="M167.039 190.88L122.709 194.449L126.571 194.481L170.901 190.912L167.039 190.88Z" fill="#727272" stroke="black" stroke-width="0.0952187"/>
<path d="M52.6374 193.664V203.048L48.8286 203.017V193.633L52.6374 193.664Z" fill="#484848" stroke="black" stroke-width="0.0952187"/>
<path d="M52.6343 193.665V203.017L96.7681 199.515V190.163L52.6343 193.665Z" fill="#9B9B9B" stroke="black" stroke-width="0.0952187"/>
<path d="M93.0546 190.117L48.7244 193.687L52.5866 193.719L96.9169 190.149L93.0546 190.117Z" fill="#727272" stroke="black" stroke-width="0.0952187"/>
<path d="M60.3456 170.498L308.622 172.557V192.016L60.3455 189.958L60.3456 170.498Z" fill="#767676" stroke="black" stroke-width="0.0952187"/>
<path d="M308.62 192.017V172.557L309.578 172.48V191.94L308.62 192.017Z" fill="#616161" stroke="black" stroke-width="0.0952187"/>
<path d="M50.0614 171.26L298.338 173.319V192.778L50.0613 190.72L50.0614 171.26Z" fill="#767676" stroke="black" stroke-width="0.0952187"/>
<path d="M298.336 192.779V173.32L299.294 173.243V192.702L298.336 192.779Z" fill="#616161" stroke="black" stroke-width="0.0952187"/>
<path d="M288.053 193.635V174.176L50.0122 172.202V191.662L288.053 193.635Z" fill="#767676" stroke="black" stroke-width="0.0952187"/>
<path d="M288.054 193.635V174.175L289.012 174.098V193.558L288.054 193.635Z" fill="#616161" stroke="black" stroke-width="0.0952187"/>
<path d="M278.15 194.397V174.937L50.0122 173.046V192.505L278.15 194.397Z" fill="#767676" stroke="black" stroke-width="0.0952187"/>
<path d="M278.148 194.397V174.937L279.106 174.86V194.32L278.148 194.397Z" fill="#616161" stroke="black" stroke-width="0.0952187"/>
<path d="M265.2 195.446V175.987L50.0122 174.203V193.662L265.2 195.446Z" fill="#767676" stroke="black" stroke-width="0.0952187"/>
<path d="M265.202 195.445V175.985L266.16 175.908V195.368L265.202 195.445Z" fill="#616161" stroke="black" stroke-width="0.0952187"/>
<path d="M52.6333 171.531V174.259L265.304 176.022V173.295L52.6333 171.531Z" fill="#616161" stroke="black" stroke-width="0.0952187"/>
<path d="M265.261 176.032V173.304L309.591 169.735V172.464L265.261 176.032Z" fill="#535353" stroke="black" stroke-width="0.0952187"/>
<path d="M96.9635 167.962L52.6333 171.531L176.772 172.56L229.692 172.999L265.301 173.294L309.628 169.735L283.171 169.505L221.102 168.991L96.9635 167.962Z" fill="#888888" stroke="black" stroke-width="0.0952187"/>
<path d="M52.6333 171.533L126.666 172.147V80.4219L52.6333 79.8073V171.533Z" fill="#CCCCCC" stroke="black" stroke-width="0.0952187"/>
<path d="M126.667 172.145V80.4196L143.569 80.5839L148.711 80.6339L154.567 80.6908L170.754 80.8481V168.574L154.567 169.885L148.711 170.359L143.569 170.776L126.667 172.145Z" fill="#9B9B9B"/>
<path d="M148.711 80.6339V170.359M148.711 80.6339L154.567 80.6908M148.711 80.6339L143.569 80.5839M148.711 170.359L154.567 169.885M148.711 170.359L143.569 170.776M154.567 169.885L170.754 168.574V80.8481L154.567 80.6908M154.567 169.885V80.6908M143.569 80.5839L126.667 80.4196V172.145L143.569 170.776M143.569 80.5839V170.776" stroke="black" stroke-width="0.0952187"/>
<path d="M170.754 80.8481V168.574L159.732 169.466V80.741L170.754 80.8481Z" fill="#474747"/>
<path d="M137.689 171.252L126.667 172.145V171.252V80.4196L137.689 80.5267V171.252Z" fill="#474747"/>
<path d="M137.689 171.252L126.667 172.145V171.252M137.689 171.252V80.5267L126.667 80.4196V171.252M137.689 171.252H126.667M170.754 168.574V80.8481L159.732 80.741V169.466L170.754 168.574Z" stroke="black" stroke-width="0.0952187"/>
<path d="M159.756 146.312L137.808 148.074L146.496 148.147L168.444 146.385L159.756 146.312Z" fill="#AEAEAE"/>
<path d="M227.694 167.854L168.444 167.355L146.496 169.117L155.185 169.19L205.746 169.615L227.694 167.854Z" fill="#AEAEAE"/>
<path d="M159.756 146.312L137.808 148.074L146.496 148.147L168.444 146.385L159.756 146.312Z" stroke="black" stroke-width="0.0952187"/>
<path d="M227.694 167.854L168.444 167.355L146.496 169.117L155.185 169.19L205.746 169.615L227.694 167.854Z" stroke="black" stroke-width="0.0952187"/>
<path d="M227.696 170.116L205.748 171.878V169.615L227.696 167.853V170.116Z" fill="#C1C1C1"/>
<path d="M168.446 146.385L146.498 148.146V169.116L168.446 167.355V146.385Z" fill="#C1C1C1"/>
<path d="M227.696 170.116L205.748 171.878V169.615L227.696 167.853V170.116Z" stroke="black" stroke-width="0.0952187"/>
<path d="M168.446 146.385L146.498 148.146V169.116L168.446 167.355V146.385Z" stroke="black" stroke-width="0.0952187"/>
<path d="M227.696 155.905L168.446 155.406L146.498 157.168L205.748 157.666L227.696 155.905Z" fill="#E9E9E9" stroke="black" stroke-width="0.0952187"/>
<path d="M227.694 167.855L205.746 169.617V157.667L227.694 155.905V167.855Z" fill="#D1D1D1" stroke="black" stroke-width="0.0952187"/>
<path d="M205.748 157.665L146.498 157.166V169.116L205.748 169.615V157.665Z" fill="#C4C4C4" stroke="black" stroke-width="0.0952187"/>
<path d="M137.808 171.305V148.072L146.496 148.145V169.115L155.185 169.188L205.746 169.613V171.877L155.185 171.451L146.496 171.378L137.808 171.305Z" fill="#9E9E9E" stroke="black" stroke-width="0.0952187"/>
<path d="M159.732 80.741L170.754 80.8481V135.121C167.08 134.543 159.732 122.857 159.732 80.741Z" fill="#706E6E"/>
<path d="M126.667 80.4196L137.689 80.5267C137.689 121.786 130.341 137.415 126.667 140.073V80.4196Z" fill="#706E6E"/>
<path d="M159.732 80.741L170.754 80.8481V135.121C167.08 134.543 159.732 122.857 159.732 80.741Z" stroke="black" stroke-width="0.0952187"/>
<path d="M126.667 80.4196L137.689 80.5267C137.689 121.786 130.341 137.415 126.667 140.073V80.4196Z" stroke="black" stroke-width="0.0952187"/>
<path d="M137.689 171.255L126.667 172.148V171.255H137.689Z" fill="#1C1C1C" stroke="black" stroke-width="0.0952187"/>
<path d="M49.8263 216.689H45.97V67.8507L48.8265 67.565H52.6829V216.404L49.8263 216.689Z" fill="#D9D9D9"/>
<path d="M45.97 67.8507H49.8263M45.97 67.8507V216.689H49.8263M45.97 67.8507L48.8265 67.565H52.6829M49.8263 216.689V67.8507M49.8263 216.689L52.6829 216.404V67.565M49.8263 67.8507L52.6829 67.565" stroke="black" stroke-width="0.0952187"/>
<path d="M67.2513 171.672L65.585 171.67V79.9451H67.2513L68.9176 79.9462V171.673L67.2513 171.672Z" fill="#9E9E9E"/>
<path d="M67.2513 171.672V79.9451M67.2513 171.672L65.585 171.67V79.9451H67.2513M67.2513 171.672L68.9176 171.673V79.9462L67.2513 79.9451" stroke="black" stroke-width="0.0952187"/>
<path d="M67.2495 79.9451V171.672L68.9158 171.673V79.9462L67.2495 79.9451Z" fill="#B3B2B2" stroke="black" stroke-width="0.0952187"/>
<path d="M85.8206 171.764L84.1543 171.763V80.038H85.8206L87.4869 80.0391V171.766L85.8206 171.764Z" fill="#9E9E9E"/>
<path d="M85.8206 171.764V80.038M85.8206 171.764L84.1543 171.763V80.038H85.8206M85.8206 171.764L87.4869 171.766V80.0391L85.8206 80.038" stroke="black" stroke-width="0.0952187"/>
<path d="M85.8188 80.038V171.764L87.4852 171.766V80.0391L85.8188 80.038Z" fill="#B3B2B2" stroke="black" stroke-width="0.0952187"/>
<path d="M102.579 171.954L100.913 171.953V80.2276H102.579L104.245 80.2287V171.955L102.579 171.954Z" fill="#9E9E9E"/>
<path d="M102.579 171.954V80.2276M102.579 171.954L100.913 171.953V80.2276H102.579M102.579 171.954L104.245 171.955V80.2287L102.579 80.2276" stroke="black" stroke-width="0.0952187"/>
<path d="M102.577 80.2276V171.954L104.243 171.955V80.2287L102.577 80.2276Z" fill="#B3B2B2" stroke="black" stroke-width="0.0952187"/>
<path d="M49.8263 216.689H45.97V67.8508H49.8263V216.689Z" fill="#C2C2C2" stroke="black" stroke-width="0.0952187"/>
<path d="M123.81 68.4244L49.8254 67.8018L94.1497 64.2311L260.782 65.4216L213.887 69.1825L170.753 68.8199L123.81 68.4244Z" fill="#8E8E8E"/>
<path d="M213.887 69.1825L170.753 68.8199L123.81 68.4244L49.8254 67.8018L94.1497 64.2311L260.782 65.4216L213.887 69.1826" stroke="black" stroke-width="0.0952187"/>
<path d="M260.783 65.4241L213.887 69.1852V81.135L260.783 77.3739V65.4241Z" fill="#616161" stroke="black" stroke-width="0.0952187"/>
<path d="M123.811 217.448H119.954V47.6616L122.811 47.3759H126.667V217.163L123.811 217.448Z" fill="#D9D9D9"/>
<path d="M119.954 47.6616H123.811M119.954 47.6616V217.448H123.811M119.954 47.6616L122.811 47.3759H126.667M123.811 217.448V47.6616M123.811 217.448L126.667 217.163V47.3759M123.811 47.6616L126.667 47.3759" stroke="black" stroke-width="0.0952187"/>
<path d="M123.811 217.453H119.954V47.6662H123.811V217.453Z" fill="#C2C2C2" stroke="black" stroke-width="0.0952187"/>
<path d="M49.8254 67.8508V79.7531L119.954 80.3433V68.4409L49.8254 67.8508Z" fill="#6F6F6F"/>
<path d="M123.81 68.4734V80.3757L170.753 80.7712L213.887 81.1338V69.2314L170.753 68.8688L123.81 68.4734Z" fill="#6F6F6F"/>
<path d="M49.8254 67.8508V79.7531L119.954 80.3433V68.4409L49.8254 67.8508Z" stroke="black" stroke-width="0.0952187"/>
<path d="M123.81 68.4734V80.3757L170.753 80.7712L213.887 81.1338V69.2314L170.753 68.8688L123.81 68.4734Z" stroke="black" stroke-width="0.0952187"/>
<path d="M125.189 80.4196V96.8009L172.132 97.1964L215.266 97.559V81.1777L172.132 80.8151L125.189 80.4196Z" fill="#9E9E9E" stroke="black" stroke-width="0.0952187"/>
<path d="M213.888 217.692H210.032V81.2314H213.888L216.745 80.9458V217.406L213.888 217.692Z" fill="#D9D9D9"/>
<path d="M213.888 217.692H210.032V81.2314H213.888M213.888 217.692V81.2314M213.888 217.692L216.745 217.406V80.9458L213.888 81.2314" stroke="black" stroke-width="0.0952187"/>
<path d="M213.888 217.687H210.032V81.227H213.888V217.687Z" fill="#C2C2C2" stroke="black" stroke-width="0.0952187"/>
<path d="M282.819 79.5762V67.531L238.12 67.1604V79.2056L282.819 79.5762Z" fill="#767676" stroke="black" stroke-width="0.0952187"/>
<path d="M238.12 67.1587L282.819 67.5293L283.825 67.3768L239.125 67.0062L238.12 67.1587Z" fill="#424242" stroke="black" stroke-width="0.0952187"/>
<path d="M282.821 79.5912V67.5278L283.779 67.4507V79.5141L282.821 79.5912Z" fill="#616161" stroke="black" stroke-width="0.0952187"/>
<path d="M123.095 68.4584V80.2743L76.2949 84.0831L29.495 87.8918L27.3049 87.8648V76.0488L74.1049 72.2401L120.905 68.4313L123.095 68.4584Z" fill="#D9D9D9"/>
<path d="M123.095 68.4584V80.2743L76.2949 84.0831L29.495 87.8918M123.095 68.4584L120.905 68.4313L74.1049 72.2401L27.3049 76.0488M123.095 68.4584L76.2949 72.2671L29.495 76.0759M29.495 76.0759L27.3049 76.0488M29.495 76.0759V87.8918M27.3049 76.0488V87.8648L29.495 87.8918" stroke="black" stroke-width="0.0952187"/>
<path d="M38.4922 75.3738L266.303 105.606L275.22 73.1792L276.777 67.5183L277.824 67.3278L258.971 57.6155L258.019 57.4727L126.665 62.8247V68.5181L119.952 68.4229V63.0983L94.4332 64.138L49.9185 67.8039L37.1116 75.231L38.4922 75.3738Z" fill="#D9D9D9"/>
<path d="M281.886 79.5634L319.911 115.985L283.776 74.208V79.5158L282.823 79.5634H281.886Z" fill="#D9D9D9"/>
<path d="M38.4922 75.3738L266.303 105.606L275.22 73.1792L276.777 67.5183L277.824 67.3278L258.971 57.6155L258.019 57.4727L126.665 62.8247V68.5181L119.952 68.4229V63.0983L94.4332 64.138L49.9185 67.8039L37.1116 75.231L38.4922 75.3738Z" stroke="black" stroke-width="0.0952187"/>
<path d="M281.886 79.5634L319.911 115.985L283.776 74.208V79.5158L282.823 79.5634H281.886Z" stroke="black" stroke-width="0.0952187"/>
<path d="M37.8782 75.3281L122.337 47.7147M124.908 47.7147L277.258 67.4726L171.898 43.906M258.738 57.5698L173.66 43.906M120.004 48.1908L79.3935 65.5206L166.947 44.3821" stroke="black" stroke-width="0.0952187"/>
<path d="M266.163 105.748L322.961 226.485M319.819 115.984L385.758 212.583" stroke="black" stroke-width="0.0952187"/>
<path d="M37.6377 75.1852L34.1622 233.772M35.0775 87.5637L6.52173 225.631" stroke="black" stroke-width="0.0952187"/>
<path d="M283.248 142.251C274.935 138.815 266.856 139.269 265.204 143.266L263.784 160.215L290.112 158.872C292.704 158.49 294.6 157.427 295.31 155.71C296.962 151.713 291.562 145.688 283.248 142.251Z" fill="#D9D9D9"/>
<path d="M295.266 155.692C294.565 157.386 292.69 158.444 290.105 158.825C286.676 159.33 282.02 158.638 277.284 156.68C273.132 154.964 269.71 152.603 267.533 150.173C265.354 147.742 264.433 145.256 265.248 143.284C266.063 141.312 268.47 140.202 271.731 140.019C274.987 139.836 279.078 140.579 283.23 142.295C287.381 144.011 290.803 146.373 292.98 148.802C295.16 151.234 296.081 153.72 295.266 155.692Z" fill="#D9D9D9" stroke="black" stroke-width="0.0952187"/>
<path d="M293.71 154.967C293.084 156.482 291.407 157.429 289.093 157.77C286.023 158.222 281.855 157.603 277.615 155.85C273.898 154.314 270.834 152.199 268.885 150.025C266.934 147.848 266.111 145.624 266.84 143.861C267.569 142.098 269.721 141.104 272.64 140.94C275.556 140.776 279.218 141.442 282.935 142.978C286.652 144.515 289.716 146.629 291.664 148.804C293.616 150.981 294.438 153.205 293.71 154.967Z" fill="#C6C6C6" stroke="black" stroke-width="0.0952187"/>
<path d="M265.204 143.266C266.856 139.269 274.935 138.815 283.248 142.251C291.562 145.688 296.962 151.713 295.31 155.71C294.6 157.427 292.704 158.49 290.112 158.872L263.784 160.215M263.784 160.215L264.974 145.218M263.784 160.215L272.02 153.93M263.784 160.215L267.164 149.836M263.784 160.215L277.972 156.977" stroke="black" stroke-width="0.0952187"/>
<path d="M275.446 157.071L277.35 170.211M292.252 170.211L290.109 158.975M265.829 158.975L262.067 170.211M270.066 169.735L268.876 160.023" stroke="black" stroke-width="0.190437"/>
</g>
<defs>
<filter id="filter0_f_552_8112" x="282.125" y="148.182" width="40.9592" height="11.3759" filterUnits="userSpaceOnUse" color-interpolation-filters="sRGB">
<feFlood flood-opacity="0" result="BackgroundImageFix"/>
<feBlend mode="normal" in="SourceGraphic" in2="BackgroundImageFix" result="shape"/>
<feGaussianBlur stdDeviation="0.170946" result="effect1_foregroundBlur_552_8112"/>
</filter>
<clipPath id="clip0_552_8112">
<rect width="460" height="270" fill="white"/>
</clipPath>
</defs>
</svg>
