<svg width="228" height="252" viewBox="0 0 228 252" fill="none" xmlns="http://www.w3.org/2000/svg">
<path d="M96.3764 202.542L0.245605 147.185L131.593 68.3823L227.79 123.699L96.3764 202.542Z" fill="#C0BEAD" stroke="black" stroke-width="0.15"/>
<path d="M96.3764 251L0.245605 195.643V183.529L96.3764 238.886V251Z" fill="#C0BEAD" stroke="black" stroke-width="0.15"/>
<path d="M0.245605 171.414L96.3764 226.771V238.885L0.245605 183.528V171.414Z" fill="#C0BEAD" stroke="black" stroke-width="0.15"/>
<path d="M0.245605 171.413L96.3764 226.77V214.655L0.245605 159.299V171.413Z" fill="#C0BEAD" stroke="black" stroke-width="0.15"/>
<path d="M96.3764 202.54L0.245605 147.183V159.297L96.3764 214.654V202.54Z" fill="#C0BEAD" stroke="black" stroke-width="0.15"/>
<path d="M227.789 123.698L96.3755 202.542V214.656L227.789 135.812V123.698Z" fill="#C0BEAD" stroke="black" stroke-width="0.15"/>
<path d="M227.789 172.156L96.3755 250.999V238.885L227.789 160.042V172.156Z" fill="#C0BEAD" stroke="black" stroke-width="0.15"/>
<path d="M227.789 147.928L96.3755 226.772V238.886L227.789 160.043V147.928Z" fill="#C0BEAD" stroke="black" stroke-width="0.15"/>
<path d="M227.789 147.926L96.3755 226.769V214.655L227.789 135.812V147.926Z" fill="#C0BEAD" stroke="black" stroke-width="0.15"/>
<path d="M168.361 89.0053L167.987 88.7947V97.9589V99.0034L168.735 99.4247V98.3802V89.216L168.361 89.0053Z" fill="#C0BEAD"/>
<path d="M171.005 98.3802V89.216L171.77 88.7947V96.7726V97.9589V99.0034L171.005 99.4247V98.3802Z" fill="#C0BEAD"/>
<path d="M167.987 88.7947L168.361 89.0053L168.735 89.216V98.3802V99.4247L167.987 99.0034V97.9589V88.7947ZM167.987 88.7947L168.013 88.7805M171.796 96.785L171.77 96.7726M171.77 96.7726V88.7947L171.005 89.216V98.3802V99.4247L171.77 99.0034V97.9589V96.7726Z" stroke="black" stroke-width="0.15"/>
<path d="M168.361 89.005L167.987 88.7943L168.013 88.7802V87.5306L168.778 87.1094L169.9 87.7412L170.283 87.5306L171.048 87.1094L171.796 87.5306L170.648 88.1625L171.77 88.7943L171.005 89.2156L169.883 88.5837L168.735 89.2156L168.361 89.005Z" fill="#C0BEAD"/>
<path d="M168.013 87.5306L169.135 88.1625L168.752 88.3731L168.013 88.7802M168.013 87.5306L168.778 87.1094L169.9 87.7412L170.283 87.5306L171.048 87.1094L171.796 87.5306L170.648 88.1625L171.77 88.7943L171.005 89.2156L169.883 88.5837L168.735 89.2156L168.361 89.005L167.987 88.7943L168.013 88.7802M168.013 87.5306V88.7802" stroke="black" stroke-width="0.15"/>
<path d="M168.753 88.374L169.135 88.1634L168.013 87.5315V88.781L168.753 88.374Z" fill="#C0BEAD" stroke="black" stroke-width="0.15"/>
<path d="M171.79 96.7855V87.5315L170.643 88.1634L171.764 88.7952V96.7731L171.79 96.7855Z" fill="#C0BEAD" stroke="black" stroke-width="0.15"/>
<path d="M171.006 98.3788V89.2146L169.885 88.5828V97.747L171.006 98.3788Z" fill="#C0BEAD" stroke="black" stroke-width="0.15"/>
<path d="M168.734 98.3788V89.2146L169.882 88.5828V97.747L168.734 98.3788Z" fill="#C0BEAD" stroke="black" stroke-width="0.15"/>
<path d="M169.858 103.412V99.0107L171.006 98.3788V99.4233L171.771 99.0021V97.9575L172.919 97.3257L174.535 100.833L169.858 103.412Z" fill="#C0BEAD" stroke="black" stroke-width="0.15"/>
<path d="M165.145 100.833L169.856 103.412V99.0107L168.734 98.3788V99.4233L167.987 99.0021V97.9575L166.865 97.3257L165.145 100.833Z" fill="#C0BEAD" stroke="black" stroke-width="0.15"/>
<path d="M168.737 98.3806L169.859 99.0124L171.006 98.3806L169.884 97.7487L168.737 98.3806Z" fill="#C0BEAD"/>
<path d="M166.867 97.3274L167.989 97.9593V96.7729L167.615 96.9578L166.867 97.3274Z" fill="#C0BEAD"/>
<path d="M172.919 97.3274L171.797 96.7854L171.771 96.7729V97.9593L172.919 97.3274Z" fill="#C0BEAD"/>
<path d="M168.737 98.3806L169.859 99.0124L171.006 98.3806L169.884 97.7487L168.737 98.3806Z" stroke="black" stroke-width="0.15"/>
<path d="M166.867 97.3274L167.989 97.9593V96.7729L167.615 96.9578L166.867 97.3274Z" stroke="black" stroke-width="0.15"/>
<path d="M172.919 97.3274L171.797 96.7854L171.771 96.7729V97.9593L172.919 97.3274Z" stroke="black" stroke-width="0.15"/>
<path d="M153.865 95.7373L153.108 95.3247L169.133 86.3496L169.889 86.7623L153.865 95.7373Z" fill="#C0BEAD" stroke="black" stroke-width="0.15"/>
<path d="M153.865 97.5923L153.108 97.1796V95.2883L153.865 95.701V97.5923Z" fill="#C0BEAD" stroke="black" stroke-width="0.15"/>
<path d="M169.891 88.6518L153.866 97.6228V95.7315L169.891 86.7605V88.6518Z" fill="#C0BEAD" stroke="black" stroke-width="0.15"/>
<path d="M151.584 98.4563L151.21 98.2456V107.41V108.454L151.958 108.876V107.831V98.6669L151.584 98.4563Z" fill="#C0BEAD"/>
<path d="M154.227 107.831V98.6669L154.992 98.2456V106.223V107.41V108.454L154.227 108.876V107.831Z" fill="#C0BEAD"/>
<path d="M151.21 98.2456L151.584 98.4563L151.958 98.6669V107.831V108.876L151.21 108.454V107.41V98.2456ZM151.21 98.2456L151.236 98.2314M155.018 106.236L154.992 106.223M154.992 106.223V98.2456L154.227 98.6669V107.831V108.876L154.992 108.454V107.41V106.223Z" stroke="black" stroke-width="0.15"/>
<path d="M151.584 98.4561L151.21 98.2455L151.236 98.2313V96.9818L152.001 96.5605L153.123 97.1924L153.505 96.9818L154.27 96.5605L155.018 96.9818L153.87 97.6137L154.992 98.2455L154.227 98.6668L153.105 98.0349L151.958 98.6668L151.584 98.4561Z" fill="#C0BEAD"/>
<path d="M151.236 96.9818L152.357 97.6137L151.975 97.8243L151.236 98.2313M151.236 96.9818L152.001 96.5605L153.123 97.1924L153.505 96.9818L154.27 96.5605L155.018 96.9818L153.87 97.6137L154.992 98.2455L154.227 98.6668L153.105 98.0349L151.958 98.6668L151.584 98.4561L151.21 98.2455L151.236 98.2313M151.236 96.9818V98.2313" stroke="black" stroke-width="0.15"/>
<path d="M151.975 97.8249L152.358 97.6143L151.236 96.9824V98.232L151.975 97.8249Z" fill="#C0BEAD" stroke="black" stroke-width="0.15"/>
<path d="M155.013 106.236V96.9824L153.865 97.6143L154.987 98.2462V106.224L155.013 106.236Z" fill="#C0BEAD" stroke="black" stroke-width="0.15"/>
<path d="M154.229 107.83V98.6656L153.107 98.0337V107.198L154.229 107.83Z" fill="#C0BEAD" stroke="black" stroke-width="0.15"/>
<path d="M151.957 107.83V98.6656L153.104 98.0337V107.198L151.957 107.83Z" fill="#C0BEAD" stroke="black" stroke-width="0.15"/>
<path d="M153.081 112.863V108.461L154.228 107.829V108.874L154.994 108.453V107.408L156.141 106.776L157.757 110.284L153.081 112.863Z" fill="#C0BEAD" stroke="black" stroke-width="0.15"/>
<path d="M148.368 110.284L153.079 112.863V108.461L151.957 107.829V108.874L151.209 108.453V107.408L150.087 106.776L148.368 110.284Z" fill="#C0BEAD" stroke="black" stroke-width="0.15"/>
<path d="M151.959 107.831L153.081 108.463L154.229 107.831L153.107 107.199L151.959 107.831Z" fill="#C0BEAD"/>
<path d="M150.089 106.778L151.211 107.41V106.224L150.837 106.408L150.089 106.778Z" fill="#C0BEAD"/>
<path d="M156.142 106.778L155.02 106.236L154.994 106.224V107.41L156.142 106.778Z" fill="#C0BEAD"/>
<path d="M151.959 107.831L153.081 108.463L154.229 107.831L153.107 107.199L151.959 107.831Z" stroke="black" stroke-width="0.15"/>
<path d="M150.089 106.778L151.211 107.41V106.224L150.837 106.408L150.089 106.778Z" stroke="black" stroke-width="0.15"/>
<path d="M156.142 106.778L155.02 106.236L154.994 106.224V107.41L156.142 106.778Z" stroke="black" stroke-width="0.15"/>
<path d="M165.546 106.577L165.172 106.366V115.531V116.575L165.92 116.996V115.952V106.788L165.546 106.577Z" fill="#C0BEAD"/>
<path d="M168.189 115.952V106.788L168.954 106.366V114.344V115.531V116.575L168.189 116.996V115.952Z" fill="#C0BEAD"/>
<path d="M165.172 106.366L165.546 106.577L165.92 106.788V115.952V116.996L165.172 116.575V115.531V106.366ZM165.172 106.366L165.197 106.352M168.98 114.357L168.954 114.344M168.954 114.344V106.366L168.189 106.788V115.952V116.996L168.954 116.575V115.531V114.344Z" stroke="black" stroke-width="0.15"/>
<path d="M165.546 106.577L165.172 106.366L165.197 106.352V105.102L165.963 104.681L167.084 105.313L167.467 105.102L168.232 104.681L168.98 105.102L167.832 105.734L168.954 106.366L168.189 106.787L167.067 106.156L165.92 106.787L165.546 106.577Z" fill="#C0BEAD"/>
<path d="M165.197 105.102L166.319 105.734L165.937 105.945L165.197 106.352M165.197 105.102L165.963 104.681L167.084 105.313L167.467 105.102L168.232 104.681L168.98 105.102L167.832 105.734L168.954 106.366L168.189 106.787L167.067 106.156L165.92 106.787L165.546 106.577L165.172 106.366L165.197 106.352M165.197 105.102V106.352" stroke="black" stroke-width="0.15"/>
<path d="M165.937 105.946L166.32 105.735L165.198 105.103V106.353L165.937 105.946Z" fill="#C0BEAD" stroke="black" stroke-width="0.15"/>
<path d="M168.975 114.357V105.103L167.827 105.735L168.949 106.367V114.345L168.975 114.357Z" fill="#C0BEAD" stroke="black" stroke-width="0.15"/>
<path d="M168.191 115.951V106.786L167.069 106.155V115.319L168.191 115.951Z" fill="#C0BEAD" stroke="black" stroke-width="0.15"/>
<path d="M165.918 115.951V106.786L167.066 106.155V115.319L165.918 115.951Z" fill="#C0BEAD" stroke="black" stroke-width="0.15"/>
<path d="M167.043 120.984V116.582L168.19 115.951V116.995L168.956 116.574V115.529L170.103 114.897L171.719 118.405L167.043 120.984Z" fill="#C0BEAD" stroke="black" stroke-width="0.15"/>
<path d="M162.33 118.405L167.041 120.984V116.582L165.919 115.951V116.995L165.171 116.574V115.529L164.049 114.897L162.33 118.405Z" fill="#C0BEAD" stroke="black" stroke-width="0.15"/>
<path d="M165.921 115.952L167.043 116.584L168.191 115.952L167.069 115.32L165.921 115.952Z" fill="#C0BEAD"/>
<path d="M164.051 114.899L165.173 115.531V114.345L164.799 114.53L164.051 114.899Z" fill="#C0BEAD"/>
<path d="M170.103 114.899L168.982 114.357L168.956 114.345V115.531L170.103 114.899Z" fill="#C0BEAD"/>
<path d="M165.921 115.952L167.043 116.584L168.191 115.952L167.069 115.32L165.921 115.952Z" stroke="black" stroke-width="0.15"/>
<path d="M164.051 114.899L165.173 115.531V114.345L164.799 114.53L164.051 114.899Z" stroke="black" stroke-width="0.15"/>
<path d="M170.103 114.899L168.982 114.357L168.956 114.345V115.531L170.103 114.899Z" stroke="black" stroke-width="0.15"/>
<path d="M137.965 90.6897L137.591 90.479V99.6432V100.688L138.339 101.109V100.064V90.9003L137.965 90.6897Z" fill="#C0BEAD"/>
<path d="M140.608 100.064V90.9003L141.373 90.479V98.4569V99.6432V100.688L140.608 101.109V100.064Z" fill="#C0BEAD"/>
<path d="M137.591 90.479L137.965 90.6897L138.339 90.9003V100.064V101.109L137.591 100.688V99.6432V90.479ZM137.591 90.479L137.617 90.4648M141.399 98.4693L141.373 98.4569M141.373 98.4569V90.479L140.608 90.9003V100.064V101.109L141.373 100.688V99.6432V98.4569Z" stroke="black" stroke-width="0.15"/>
<path d="M137.965 90.6893L137.591 90.4787L137.617 90.4645V89.2149L138.382 88.7937L139.504 89.4256L139.886 89.2149L140.651 88.7937L141.399 89.2149L140.252 89.8468L141.373 90.4787L140.608 90.8999L139.486 90.2681L138.339 90.8999L137.965 90.6893Z" fill="#C0BEAD"/>
<path d="M137.617 89.2149L138.738 89.8468L138.356 90.0574L137.617 90.4645M137.617 89.2149L138.382 88.7937L139.504 89.4256L139.886 89.2149L140.651 88.7937L141.399 89.2149L140.252 89.8468L141.373 90.4787L140.608 90.8999L139.486 90.2681L138.339 90.8999L137.965 90.6893L137.591 90.4787L137.617 90.4645M137.617 89.2149V90.4645" stroke="black" stroke-width="0.15"/>
<path d="M138.356 90.0583L138.739 89.8477L137.617 89.2158V90.4654L138.356 90.0583Z" fill="#C0BEAD" stroke="black" stroke-width="0.15"/>
<path d="M141.394 98.4699V89.2158L140.246 89.8477L141.368 90.4796V98.4574L141.394 98.4699Z" fill="#C0BEAD" stroke="black" stroke-width="0.15"/>
<path d="M140.61 100.063V90.899L139.488 90.2671V99.4313L140.61 100.063Z" fill="#C0BEAD" stroke="black" stroke-width="0.15"/>
<path d="M138.338 100.063V90.899L139.485 90.2671V99.4313L138.338 100.063Z" fill="#C0BEAD" stroke="black" stroke-width="0.15"/>
<path d="M139.462 105.097V100.695L140.61 100.063V101.108L141.375 100.686V99.6419L142.522 99.01L144.139 102.518L139.462 105.097Z" fill="#C0BEAD" stroke="black" stroke-width="0.15"/>
<path d="M134.749 102.518L139.46 105.097V100.695L138.338 100.063V101.108L137.59 100.686V99.6419L136.468 99.01L134.749 102.518Z" fill="#C0BEAD" stroke="black" stroke-width="0.15"/>
<path d="M138.34 100.065L139.462 100.697L140.61 100.065L139.488 99.433L138.34 100.065Z" fill="#C0BEAD"/>
<path d="M136.47 99.0118L137.592 99.6436V98.4573L137.218 98.6421L136.47 99.0118Z" fill="#C0BEAD"/>
<path d="M142.523 99.0118L141.401 98.4697L141.375 98.4573V99.6436L142.523 99.0118Z" fill="#C0BEAD"/>
<path d="M138.34 100.065L139.462 100.697L140.61 100.065L139.488 99.433L138.34 100.065Z" stroke="black" stroke-width="0.15"/>
<path d="M136.47 99.0118L137.592 99.6436V98.4573L137.218 98.6421L136.47 99.0118Z" stroke="black" stroke-width="0.15"/>
<path d="M142.523 99.0118L141.401 98.4697L141.375 98.4573V99.6436L142.523 99.0118Z" stroke="black" stroke-width="0.15"/>
<path d="M138.391 86.9692L137.628 87.3819L168.171 104.954L168.962 104.541L138.391 86.9692Z" fill="#C0BEAD" stroke="black" stroke-width="0.15"/>
<path d="M168.961 106.365L168.17 106.778V104.955L168.961 104.543V106.365Z" fill="#C0BEAD" stroke="black" stroke-width="0.15"/>
<path d="M137.628 89.2029V87.3804L168.171 104.952V106.775L137.628 89.2029Z" fill="#C0BEAD" stroke="black" stroke-width="0.15"/>
<path d="M144.03 116.198L143.274 115.785L166.313 103.887L167.07 104.3L144.03 116.198Z" fill="#C0BEAD" stroke="black" stroke-width="0.15"/>
<path d="M144.03 118.09L143.274 117.677V115.786L144.03 116.198V118.09Z" fill="#C0BEAD" stroke="black" stroke-width="0.15"/>
<path d="M167.071 106.189L144.032 118.087V116.196L167.071 104.298V106.189Z" fill="#C0BEAD" stroke="black" stroke-width="0.15"/>
<path d="M130.415 108.429L129.659 108.016L152.354 95.74L153.111 96.1526L130.415 108.429Z" fill="#C0BEAD" stroke="black" stroke-width="0.15"/>
<path d="M130.415 110.322L129.659 109.909V108.018L130.415 108.43V110.322Z" fill="#C0BEAD" stroke="black" stroke-width="0.15"/>
<path d="M153.112 98.0422L130.417 110.318V108.427L153.112 96.1509V98.0422Z" fill="#C0BEAD" stroke="black" stroke-width="0.15"/>
<path d="M116.656 100.485L115.899 100.073L138.801 87.9685L139.558 88.3811L116.656 100.485Z" fill="#C0BEAD" stroke="black" stroke-width="0.15"/>
<path d="M116.656 102.376L115.899 101.964V100.073L116.656 100.485V102.376Z" fill="#C0BEAD" stroke="black" stroke-width="0.15"/>
<path d="M139.525 90.2707L116.658 102.375V100.484L139.525 88.3794V90.2707Z" fill="#C0BEAD" stroke="black" stroke-width="0.15"/>
<path d="M60.3244 150.967L59.9504 150.756V159.92V160.965L60.6984 161.386V160.341V151.177L60.3244 150.967Z" fill="#C0BEAD"/>
<path d="M62.9679 160.341V151.177L63.733 150.756V158.734V159.92V160.965L62.9679 161.386V160.341Z" fill="#C0BEAD"/>
<path d="M59.9504 150.756L60.3244 150.967L60.6984 151.177V160.341V161.386L59.9504 160.965V159.92V150.756ZM59.9504 150.756L59.9762 150.742M63.7588 158.746L63.733 158.734M63.733 158.734V150.756L62.9679 151.177V160.341V161.386L63.733 160.965V159.92V158.734Z" stroke="black" stroke-width="0.15"/>
<path d="M60.3244 150.966L59.9504 150.756L59.9762 150.741V149.492L60.7413 149.071L61.8632 149.702L62.2458 149.492L63.0109 149.071L63.7588 149.492L62.6112 150.124L63.733 150.756L62.9679 151.177L61.846 150.545L60.6984 151.177L60.3244 150.966Z" fill="#C0BEAD"/>
<path d="M59.9762 149.492L61.0981 150.124L60.7156 150.334L59.9762 150.741M59.9762 149.492L60.7413 149.071L61.8632 149.702L62.2458 149.492L63.0109 149.071L63.7588 149.492L62.6112 150.124L63.733 150.756L62.9679 151.177L61.846 150.545L60.6984 151.177L60.3244 150.966L59.9504 150.756L59.9762 150.741M59.9762 149.492V150.741" stroke="black" stroke-width="0.15"/>
<path d="M60.7122 150.335L61.0948 150.124L59.9729 149.492V150.742L60.7122 150.335Z" fill="#C0BEAD" stroke="black" stroke-width="0.15"/>
<path d="M63.7497 158.746V149.492L62.6021 150.124L63.7239 150.756V158.734L63.7497 158.746Z" fill="#C0BEAD" stroke="black" stroke-width="0.15"/>
<path d="M62.9659 160.34V151.176L61.844 150.544V159.708L62.9659 160.34Z" fill="#C0BEAD" stroke="black" stroke-width="0.15"/>
<path d="M60.6936 160.34V151.176L61.8413 150.544V159.708L60.6936 160.34Z" fill="#C0BEAD" stroke="black" stroke-width="0.15"/>
<path d="M61.8179 165.373V160.972L62.9655 160.34V161.384L63.7307 160.963V159.918L64.8783 159.287L66.4945 162.794L61.8179 165.373Z" fill="#C0BEAD" stroke="black" stroke-width="0.15"/>
<path d="M57.1047 162.794L61.8158 165.373V160.972L60.6939 160.34V161.384L59.946 160.963V159.918L58.8241 159.287L57.1047 162.794Z" fill="#C0BEAD" stroke="black" stroke-width="0.15"/>
<path d="M60.6962 160.341L61.8181 160.973L62.9658 160.341L61.8439 159.71L60.6962 160.341Z" fill="#C0BEAD"/>
<path d="M58.8264 159.288L59.9483 159.92V158.734L59.5743 158.919L58.8264 159.288Z" fill="#C0BEAD"/>
<path d="M64.8786 159.288L63.7567 158.746L63.7309 158.734V159.92L64.8786 159.288Z" fill="#C0BEAD"/>
<path d="M60.6962 160.341L61.8181 160.973L62.9658 160.341L61.8439 159.71L60.6962 160.341Z" stroke="black" stroke-width="0.15"/>
<path d="M58.8264 159.288L59.9483 159.92V158.734L59.5743 158.919L58.8264 159.288Z" stroke="black" stroke-width="0.15"/>
<path d="M64.8786 159.288L63.7567 158.746L63.7309 158.734V159.92L64.8786 159.288Z" stroke="black" stroke-width="0.15"/>
<path d="M74.2807 159.084L73.9067 158.874V168.038V169.083L74.6547 169.504V168.459V159.295L74.2807 159.084Z" fill="#C0BEAD"/>
<path d="M76.9242 168.459V159.295L77.6893 158.874V166.852V168.038V169.083L76.9242 169.504V168.459Z" fill="#C0BEAD"/>
<path d="M73.9067 158.874L74.2807 159.084L74.6547 159.295V168.459V169.504L73.9067 169.083V168.038V158.874ZM73.9067 158.874L73.9325 158.86M77.7151 166.864L77.6893 166.852M77.6893 166.852V158.874L76.9242 159.295V168.459V169.504L77.6893 169.083V168.038V166.852Z" stroke="black" stroke-width="0.15"/>
<path d="M74.2807 159.084L73.9067 158.873L73.9325 158.859V157.609L74.6976 157.188L75.8195 157.82L76.2021 157.609L76.9672 157.188L77.7151 157.609L76.5675 158.241L77.6893 158.873L76.9242 159.294L75.8023 158.663L74.6547 159.294L74.2807 159.084Z" fill="#C0BEAD"/>
<path d="M73.9325 157.609L75.0544 158.241L74.6719 158.452L73.9325 158.859M73.9325 157.609L74.6976 157.188L75.8195 157.82L76.2021 157.609L76.9672 157.188L77.7151 157.609L76.5675 158.241L77.6893 158.873L76.9242 159.294L75.8023 158.663L74.6547 159.294L74.2807 159.084L73.9067 158.873L73.9325 158.859M73.9325 157.609V158.859" stroke="black" stroke-width="0.15"/>
<path d="M74.6722 158.453L75.0547 158.242L73.9329 157.611V158.86L74.6722 158.453Z" fill="#C0BEAD" stroke="black" stroke-width="0.15"/>
<path d="M77.7097 166.865V157.611L76.562 158.242L77.6839 158.874V166.852L77.7097 166.865Z" fill="#C0BEAD" stroke="black" stroke-width="0.15"/>
<path d="M76.9258 168.458V159.294L75.804 158.662V167.826L76.9258 168.458Z" fill="#C0BEAD" stroke="black" stroke-width="0.15"/>
<path d="M74.6536 168.458V159.294L75.8012 158.662V167.826L74.6536 168.458Z" fill="#C0BEAD" stroke="black" stroke-width="0.15"/>
<path d="M75.7778 173.491V169.09L76.9255 168.458V169.502L77.6906 169.081V168.036L78.8383 167.405L80.4545 170.912L75.7778 173.491Z" fill="#C0BEAD" stroke="black" stroke-width="0.15"/>
<path d="M71.0647 170.912L75.7757 173.491V169.09L74.6539 168.458V169.502L73.9059 169.081V168.036L72.7841 167.405L71.0647 170.912Z" fill="#C0BEAD" stroke="black" stroke-width="0.15"/>
<path d="M74.6559 168.46L75.7778 169.092L76.9255 168.46L75.8036 167.828L74.6559 168.46Z" fill="#C0BEAD"/>
<path d="M72.7861 167.407L73.908 168.038V166.852L73.5341 167.037L72.7861 167.407Z" fill="#C0BEAD"/>
<path d="M78.8383 167.407L77.7164 166.865L77.6906 166.852V168.038L78.8383 167.407Z" fill="#C0BEAD"/>
<path d="M74.6559 168.46L75.7778 169.092L76.9255 168.46L75.8036 167.828L74.6559 168.46Z" stroke="black" stroke-width="0.15"/>
<path d="M72.7861 167.407L73.908 168.038V166.852L73.5341 167.037L72.7861 167.407Z" stroke="black" stroke-width="0.15"/>
<path d="M78.8383 167.407L77.7164 166.865L77.6906 166.852V168.038L78.8383 167.407Z" stroke="black" stroke-width="0.15"/>
<path d="M46.704 143.197L46.3301 142.987V152.151V153.195L47.078 153.617V152.572V143.408L46.704 143.197Z" fill="#C0BEAD"/>
<path d="M49.3476 152.572V143.408L50.1127 142.987V150.964V152.151V153.195L49.3476 153.617V152.572Z" fill="#C0BEAD"/>
<path d="M46.3301 142.987L46.704 143.197L47.078 143.408V152.572V153.617L46.3301 153.195V152.151V142.987ZM46.3301 142.987L46.3559 142.972M50.1385 150.977L50.1127 150.964M50.1127 150.964V142.987L49.3476 143.408V152.572V153.617L50.1127 153.195V152.151V150.964Z" stroke="black" stroke-width="0.15"/>
<path d="M46.704 143.197L46.3301 142.986L46.3559 142.972V141.723L47.121 141.301L48.2429 141.933L48.6254 141.723L49.3905 141.301L50.1385 141.723L48.9908 142.354L50.1127 142.986L49.3476 143.407L48.2257 142.776L47.078 143.407L46.704 143.197Z" fill="#C0BEAD"/>
<path d="M46.3559 141.723L47.4778 142.354L47.0952 142.565L46.3559 142.972M46.3559 141.723L47.121 141.301L48.2429 141.933L48.6254 141.723L49.3905 141.301L50.1385 141.723L48.9908 142.354L50.1127 142.986L49.3476 143.407L48.2257 142.776L47.078 143.407L46.704 143.197L46.3301 142.986L46.3559 142.972M46.3559 141.723V142.972" stroke="black" stroke-width="0.15"/>
<path d="M47.0955 142.566L47.4781 142.355L46.3562 141.723V142.973L47.0955 142.566Z" fill="#C0BEAD" stroke="black" stroke-width="0.15"/>
<path d="M50.133 150.977V141.723L48.9854 142.355L50.1072 142.987V150.965L50.133 150.977Z" fill="#C0BEAD" stroke="black" stroke-width="0.15"/>
<path d="M49.3492 152.571V143.407L48.2273 142.775V151.939L49.3492 152.571Z" fill="#C0BEAD" stroke="black" stroke-width="0.15"/>
<path d="M47.0769 152.571V143.407L48.2246 142.775V151.939L47.0769 152.571Z" fill="#C0BEAD" stroke="black" stroke-width="0.15"/>
<path d="M48.2012 157.604V153.203L49.3488 152.571V153.615L50.114 153.194V152.149L51.2616 151.518L52.8778 155.025L48.2012 157.604Z" fill="#C0BEAD" stroke="black" stroke-width="0.15"/>
<path d="M43.488 155.025L48.1991 157.604V153.203L47.0772 152.571V153.615L46.3293 153.194V152.149L45.2074 151.518L43.488 155.025Z" fill="#C0BEAD" stroke="black" stroke-width="0.15"/>
<path d="M47.0795 152.573L48.2014 153.205L49.3491 152.573L48.2272 151.941L47.0795 152.573Z" fill="#C0BEAD"/>
<path d="M45.2097 151.52L46.3316 152.151V150.965L45.9576 151.15L45.2097 151.52Z" fill="#C0BEAD"/>
<path d="M51.2619 151.52L50.14 150.978L50.1142 150.965V152.151L51.2619 151.52Z" fill="#C0BEAD"/>
<path d="M47.0795 152.573L48.2014 153.205L49.3491 152.573L48.2272 151.941L47.0795 152.573Z" stroke="black" stroke-width="0.15"/>
<path d="M45.2097 151.52L46.3316 152.151V150.965L45.9576 151.15L45.2097 151.52Z" stroke="black" stroke-width="0.15"/>
<path d="M51.2619 151.52L50.14 150.978L50.1142 150.965V152.151L51.2619 151.52Z" stroke="black" stroke-width="0.15"/>
<path d="M56.9494 125.662L56.5754 125.452V134.616V135.66L57.3234 136.082V135.037V125.873L56.9494 125.662Z" fill="#C0BEAD"/>
<path d="M59.5929 135.037V125.873L60.358 125.452V133.43V134.616V135.66L59.5929 136.082V135.037Z" fill="#C0BEAD"/>
<path d="M56.5754 125.452L56.9494 125.662L57.3234 125.873V135.037V136.082L56.5754 135.66V134.616V125.452ZM56.5754 125.452L56.6012 125.438M60.3838 133.442L60.358 133.43M60.358 133.43V125.452L59.5929 125.873V135.037V136.082L60.358 135.66V134.616V133.43Z" stroke="black" stroke-width="0.15"/>
<path d="M56.9494 125.662L56.5754 125.451L56.6012 125.437V124.188L57.3663 123.766L58.4882 124.398L58.8708 124.188L59.6359 123.766L60.3838 124.188L59.2362 124.819L60.358 125.451L59.5929 125.873L58.471 125.241L57.3234 125.873L56.9494 125.662Z" fill="#C0BEAD"/>
<path d="M56.6012 124.188L57.7231 124.819L57.3406 125.03L56.6012 125.437M56.6012 124.188L57.3663 123.766L58.4882 124.398L58.8708 124.188L59.6359 123.766L60.3838 124.188L59.2362 124.819L60.358 125.451L59.5929 125.873L58.471 125.241L57.3234 125.873L56.9494 125.662L56.5754 125.451L56.6012 125.437M56.6012 124.188V125.437" stroke="black" stroke-width="0.15"/>
<path d="M57.3409 125.031L57.7234 124.82L56.6016 124.188V125.438L57.3409 125.031Z" fill="#C0BEAD" stroke="black" stroke-width="0.15"/>
<path d="M60.3786 133.443V124.188L59.231 124.82L60.3528 125.452V133.43L60.3786 133.443Z" fill="#C0BEAD" stroke="black" stroke-width="0.15"/>
<path d="M59.5945 135.036V125.872L58.4727 125.24V134.404L59.5945 135.036Z" fill="#C0BEAD" stroke="black" stroke-width="0.15"/>
<path d="M57.3225 135.036V125.872L58.4702 125.24V134.404L57.3225 135.036Z" fill="#C0BEAD" stroke="black" stroke-width="0.15"/>
<path d="M58.4465 140.069V135.667L59.5942 135.036V136.08L60.3593 135.659V134.614L61.507 133.982L63.1232 137.49L58.4465 140.069Z" fill="#C0BEAD" stroke="black" stroke-width="0.15"/>
<path d="M53.7334 137.49L58.4445 140.069V135.667L57.3226 135.036V136.08L56.5746 135.659V134.614L55.4528 133.982L53.7334 137.49Z" fill="#C0BEAD" stroke="black" stroke-width="0.15"/>
<path d="M57.3249 135.037L58.4468 135.669L59.5944 135.037L58.4726 134.405L57.3249 135.037Z" fill="#C0BEAD"/>
<path d="M55.4551 133.984L56.577 134.616V133.43L56.203 133.615L55.4551 133.984Z" fill="#C0BEAD"/>
<path d="M61.5072 133.984L60.3853 133.442L60.3596 133.43V134.616L61.5072 133.984Z" fill="#C0BEAD"/>
<path d="M57.3249 135.037L58.4468 135.669L59.5944 135.037L58.4726 134.405L57.3249 135.037Z" stroke="black" stroke-width="0.15"/>
<path d="M55.4551 133.984L56.577 134.616V133.43L56.203 133.615L55.4551 133.984Z" stroke="black" stroke-width="0.15"/>
<path d="M61.5072 133.984L60.3853 133.442L60.3596 133.43V134.616L61.5072 133.984Z" stroke="black" stroke-width="0.15"/>
<path d="M67.0556 131.509L66.6816 131.298V140.463V141.507L67.4296 141.928V140.884V131.72L67.0556 131.509Z" fill="#C0BEAD"/>
<path d="M69.6991 140.884V131.72L70.4642 131.298V139.276V140.463V141.507L69.6991 141.928V140.884Z" fill="#C0BEAD"/>
<path d="M66.6816 131.298L67.0556 131.509L67.4296 131.72V140.884V141.928L66.6816 141.507V140.463V131.298ZM66.6816 131.298L66.7074 131.284M70.49 139.289L70.4642 139.276M70.4642 139.276V131.298L69.6991 131.72V140.884V141.928L70.4642 141.507V140.463V139.276Z" stroke="black" stroke-width="0.15"/>
<path d="M67.0556 131.509L66.6816 131.298L66.7074 131.284V130.035L67.4725 129.613L68.5944 130.245L68.977 130.035L69.7421 129.613L70.49 130.035L69.3424 130.666L70.4642 131.298L69.6991 131.719L68.5772 131.088L67.4296 131.719L67.0556 131.509Z" fill="#C0BEAD"/>
<path d="M66.7074 130.035L67.8293 130.666L67.4468 130.877L66.7074 131.284M66.7074 130.035L67.4725 129.613L68.5944 130.245L68.977 130.035L69.7421 129.613L70.49 130.035L69.3424 130.666L70.4642 131.298L69.6991 131.719L68.5772 131.088L67.4296 131.719L67.0556 131.509L66.6816 131.298L66.7074 131.284M66.7074 130.035V131.284" stroke="black" stroke-width="0.15"/>
<path d="M67.4471 130.878L67.8296 130.667L66.7078 130.035V131.285L67.4471 130.878Z" fill="#C0BEAD" stroke="black" stroke-width="0.15"/>
<path d="M70.4846 139.289V130.035L69.3369 130.667L70.4588 131.299V139.277L70.4846 139.289Z" fill="#C0BEAD" stroke="black" stroke-width="0.15"/>
<path d="M69.7007 140.882V131.718L68.5789 131.086V140.251L69.7007 140.882Z" fill="#C0BEAD" stroke="black" stroke-width="0.15"/>
<path d="M67.4287 140.882V131.718L68.5764 131.086V140.251L67.4287 140.882Z" fill="#C0BEAD" stroke="black" stroke-width="0.15"/>
<path d="M68.5527 145.916V141.514L69.7004 140.882V141.927L70.4655 141.506V140.461L71.6132 139.829L73.2294 143.337L68.5527 145.916Z" fill="#C0BEAD" stroke="black" stroke-width="0.15"/>
<path d="M63.8396 143.337L68.5507 145.916V141.514L67.4288 140.882V141.927L66.6808 141.506V140.461L65.559 139.829L63.8396 143.337Z" fill="#C0BEAD" stroke="black" stroke-width="0.15"/>
<path d="M67.4311 140.884L68.553 141.516L69.7006 140.884L68.5788 140.252L67.4311 140.884Z" fill="#C0BEAD"/>
<path d="M65.5613 139.831L66.6832 140.463V139.277L66.3092 139.461L65.5613 139.831Z" fill="#C0BEAD"/>
<path d="M71.6134 139.831L70.4916 139.289L70.4658 139.277V140.463L71.6134 139.831Z" fill="#C0BEAD"/>
<path d="M67.4311 140.884L68.553 141.516L69.7006 140.884L68.5788 140.252L67.4311 140.884Z" stroke="black" stroke-width="0.15"/>
<path d="M65.5613 139.831L66.6832 140.463V139.277L66.3092 139.461L65.5613 139.831Z" stroke="black" stroke-width="0.15"/>
<path d="M71.6134 139.831L70.4916 139.289L70.4658 139.277V140.463L71.6134 139.831Z" stroke="black" stroke-width="0.15"/>
<path d="M80.8176 139.415L80.4436 139.204V148.369V149.413L81.1915 149.834V148.79V139.626L80.8176 139.415Z" fill="#C0BEAD"/>
<path d="M83.4611 148.79V139.626L84.2262 139.204V147.182V148.369V149.413L83.4611 149.834V148.79Z" fill="#C0BEAD"/>
<path d="M80.4436 139.204L80.8176 139.415L81.1915 139.626V148.79V149.834L80.4436 149.413V148.369V139.204ZM80.4436 139.204L80.4694 139.19M84.252 147.195L84.2262 147.182M84.2262 147.182V139.204L83.4611 139.626V148.79V149.834L84.2262 149.413V148.369V147.182Z" stroke="black" stroke-width="0.15"/>
<path d="M80.8176 139.415L80.4436 139.204L80.4694 139.19V137.94L81.2345 137.519L82.3564 138.151L82.739 137.94L83.5041 137.519L84.252 137.94L83.1043 138.572L84.2262 139.204L83.4611 139.625L82.3392 138.993L81.1915 139.625L80.8176 139.415Z" fill="#C0BEAD"/>
<path d="M80.4694 137.94L81.5913 138.572L81.2087 138.783L80.4694 139.19M80.4694 137.94L81.2345 137.519L82.3564 138.151L82.739 137.94L83.5041 137.519L84.252 137.94L83.1043 138.572L84.2262 139.204L83.4611 139.625L82.3392 138.993L81.1915 139.625L80.8176 139.415L80.4436 139.204L80.4694 139.19M80.4694 137.94V139.19" stroke="black" stroke-width="0.15"/>
<path d="M81.2091 138.784L81.5916 138.573L80.4697 137.941V139.191L81.2091 138.784Z" fill="#C0BEAD" stroke="black" stroke-width="0.15"/>
<path d="M84.2466 147.195V137.941L83.0989 138.573L84.2208 139.205V147.183L84.2466 147.195Z" fill="#C0BEAD" stroke="black" stroke-width="0.15"/>
<path d="M83.4627 148.788V139.624L82.3408 138.992V148.157L83.4627 148.788Z" fill="#C0BEAD" stroke="black" stroke-width="0.15"/>
<path d="M81.1904 148.788V139.624L82.3381 138.992V148.157L81.1904 148.788Z" fill="#C0BEAD" stroke="black" stroke-width="0.15"/>
<path d="M82.3147 153.822V149.42L83.4624 148.788V149.833L84.2275 149.412V148.367L85.3752 147.735L86.9914 151.243L82.3147 153.822Z" fill="#C0BEAD" stroke="black" stroke-width="0.15"/>
<path d="M77.6016 151.243L82.3126 153.822V149.42L81.1907 148.788V149.833L80.4428 149.412V148.367L79.3209 147.735L77.6016 151.243Z" fill="#C0BEAD" stroke="black" stroke-width="0.15"/>
<path d="M81.193 148.79L82.3149 149.422L83.4626 148.79L82.3407 148.159L81.193 148.79Z" fill="#C0BEAD"/>
<path d="M79.3232 147.737L80.4451 148.369V147.183L80.0712 147.368L79.3232 147.737Z" fill="#C0BEAD"/>
<path d="M85.3754 147.737L84.2535 147.195L84.2277 147.183V148.369L85.3754 147.737Z" fill="#C0BEAD"/>
<path d="M81.193 148.79L82.3149 149.422L83.4626 148.79L82.3407 148.159L81.193 148.79Z" stroke="black" stroke-width="0.15"/>
<path d="M79.3232 147.737L80.4451 148.369V147.183L80.0712 147.368L79.3232 147.737Z" stroke="black" stroke-width="0.15"/>
<path d="M85.3754 147.737L84.2535 147.195L84.2277 147.183V148.369L85.3754 147.737Z" stroke="black" stroke-width="0.15"/>
<path d="M94.4262 147.189L94.0522 146.978V156.143V157.187L94.8002 157.608V156.564V147.4L94.4262 147.189Z" fill="#C0BEAD"/>
<path d="M97.0697 156.564V147.4L97.8348 146.978V154.956V156.143V157.187L97.0697 157.608V156.564Z" fill="#C0BEAD"/>
<path d="M94.0522 146.978L94.4262 147.189L94.8002 147.4V156.564V157.608L94.0522 157.187V156.143V146.978ZM94.0522 146.978L94.078 146.964M97.8606 154.969L97.8348 154.956M97.8348 154.956V146.978L97.0697 147.4V156.564V157.608L97.8348 157.187V156.143V154.956Z" stroke="black" stroke-width="0.15"/>
<path d="M94.4262 147.189L94.0522 146.978L94.078 146.964V145.714L94.8432 145.293L95.965 145.925L96.3476 145.714L97.1127 145.293L97.8606 145.714L96.713 146.346L97.8348 146.978L97.0697 147.399L95.9478 146.768L94.8002 147.399L94.4262 147.189Z" fill="#C0BEAD"/>
<path d="M94.078 145.714L95.1999 146.346L94.8174 146.557L94.078 146.964M94.078 145.714L94.8432 145.293L95.965 145.925L96.3476 145.714L97.1127 145.293L97.8606 145.714L96.713 146.346L97.8348 146.978L97.0697 147.399L95.9478 146.768L94.8002 147.399L94.4262 147.189L94.0522 146.978L94.078 146.964M94.078 145.714V146.964" stroke="black" stroke-width="0.15"/>
<path d="M94.8177 146.558L95.2003 146.347L94.0784 145.715V146.965L94.8177 146.558Z" fill="#C0BEAD" stroke="black" stroke-width="0.15"/>
<path d="M97.8554 154.969V145.715L96.7078 146.347L97.8296 146.979V154.957L97.8554 154.969Z" fill="#C0BEAD" stroke="black" stroke-width="0.15"/>
<path d="M97.0713 156.562V147.398L95.9495 146.766V155.931L97.0713 156.562Z" fill="#C0BEAD" stroke="black" stroke-width="0.15"/>
<path d="M94.7993 156.562V147.398L95.947 146.766V155.931L94.7993 156.562Z" fill="#C0BEAD" stroke="black" stroke-width="0.15"/>
<path d="M95.9233 161.596V157.194L97.071 156.562V157.607L97.8361 157.186V156.141L98.9838 155.509L100.6 159.017L95.9233 161.596Z" fill="#C0BEAD" stroke="black" stroke-width="0.15"/>
<path d="M91.2102 159.017L95.9213 161.596V157.194L94.7994 156.562V157.607L94.0515 157.186V156.141L92.9296 155.509L91.2102 159.017Z" fill="#C0BEAD" stroke="black" stroke-width="0.15"/>
<path d="M94.8017 156.564L95.9236 157.196L97.0712 156.564L95.9494 155.932L94.8017 156.564Z" fill="#C0BEAD"/>
<path d="M92.9319 155.511L94.0538 156.143V154.957L93.6798 155.141L92.9319 155.511Z" fill="#C0BEAD"/>
<path d="M98.984 155.511L97.8622 154.969L97.8364 154.957V156.143L98.984 155.511Z" fill="#C0BEAD"/>
<path d="M94.8017 156.564L95.9236 157.196L97.0712 156.564L95.9494 155.932L94.8017 156.564Z" stroke="black" stroke-width="0.15"/>
<path d="M92.9319 155.511L94.0538 156.143V154.957L93.6798 155.141L92.9319 155.511Z" stroke="black" stroke-width="0.15"/>
<path d="M98.984 155.511L97.8622 154.969L97.8364 154.957V156.143L98.984 155.511Z" stroke="black" stroke-width="0.15"/>
<path d="M104.89 153.309L104.516 153.098V162.262V163.307L105.264 163.728V162.683V153.519L104.89 153.309Z" fill="#C0BEAD"/>
<path d="M107.534 162.683V153.519L108.299 153.098V161.076V162.262V163.307L107.534 163.728V162.683Z" fill="#C0BEAD"/>
<path d="M104.516 153.098L104.89 153.309L105.264 153.519V162.683V163.728L104.516 163.307V162.262V153.098ZM104.516 153.098L104.542 153.084M108.325 161.088L108.299 161.076M108.299 161.076V153.098L107.534 153.519V162.683V163.728L108.299 163.307V162.262V161.076Z" stroke="black" stroke-width="0.15"/>
<path d="M104.89 153.308L104.516 153.098L104.542 153.083V151.834L105.307 151.413L106.429 152.044L106.811 151.834L107.577 151.413L108.325 151.834L107.177 152.466L108.299 153.098L107.534 153.519L106.412 152.887L105.264 153.519L104.89 153.308Z" fill="#C0BEAD"/>
<path d="M104.542 151.834L105.664 152.466L105.281 152.676L104.542 153.083M104.542 151.834L105.307 151.413L106.429 152.044L106.811 151.834L107.577 151.413L108.325 151.834L107.177 152.466L108.299 153.098L107.534 153.519L106.412 152.887L105.264 153.519L104.89 153.308L104.516 153.098L104.542 153.083M104.542 151.834V153.083" stroke="black" stroke-width="0.15"/>
<path d="M105.282 152.677L105.664 152.467L104.542 151.835V153.084L105.282 152.677Z" fill="#C0BEAD" stroke="black" stroke-width="0.15"/>
<path d="M108.319 161.089V151.835L107.171 152.467L108.293 153.098V161.076L108.319 161.089Z" fill="#C0BEAD" stroke="black" stroke-width="0.15"/>
<path d="M107.535 162.682V153.518L106.413 152.886V162.05L107.535 162.682Z" fill="#C0BEAD" stroke="black" stroke-width="0.15"/>
<path d="M105.263 162.682V153.518L106.411 152.886V162.05L105.263 162.682Z" fill="#C0BEAD" stroke="black" stroke-width="0.15"/>
<path d="M106.387 167.715V163.314L107.535 162.682V163.726L108.3 163.305V162.261L109.448 161.629L111.064 165.136L106.387 167.715Z" fill="#C0BEAD" stroke="black" stroke-width="0.15"/>
<path d="M101.674 165.136L106.385 167.715V163.314L105.263 162.682V163.726L104.515 163.305V162.261L103.393 161.629L101.674 165.136Z" fill="#C0BEAD" stroke="black" stroke-width="0.15"/>
<path d="M105.266 162.684L106.387 163.315L107.535 162.684L106.413 162.052L105.266 162.684Z" fill="#C0BEAD"/>
<path d="M103.396 161.63L104.518 162.262V161.076L104.144 161.261L103.396 161.63Z" fill="#C0BEAD"/>
<path d="M109.448 161.63L108.326 161.088L108.3 161.076V162.262L109.448 161.63Z" fill="#C0BEAD"/>
<path d="M105.266 162.684L106.387 163.315L107.535 162.684L106.413 162.052L105.266 162.684Z" stroke="black" stroke-width="0.15"/>
<path d="M103.396 161.63L104.518 162.262V161.076L104.144 161.261L103.396 161.63Z" stroke="black" stroke-width="0.15"/>
<path d="M109.448 161.63L108.326 161.088L108.3 161.076V162.262L109.448 161.63Z" stroke="black" stroke-width="0.15"/>
<path d="M104.266 97.3908L103.892 97.1802V106.344V107.389L104.64 107.81V106.766V97.6015L104.266 97.3908Z" fill="#C0BEAD"/>
<path d="M106.91 106.766V97.6015L107.675 97.1802V105.158V106.344V107.389L106.91 107.81V106.766Z" fill="#C0BEAD"/>
<path d="M103.892 97.1802L104.266 97.3908L104.64 97.6015V106.766V107.81L103.892 107.389V106.344V97.1802ZM103.892 97.1802L103.918 97.166M107.701 105.171L107.675 105.158M107.675 105.158V97.1802L106.91 97.6015V106.766V107.81L107.675 107.389V106.344V105.158Z" stroke="black" stroke-width="0.15"/>
<path d="M104.266 97.3907L103.892 97.1801L103.918 97.1659V95.9164L104.683 95.4951L105.805 96.127L106.188 95.9164L106.953 95.4951L107.701 95.9164L106.553 96.5482L107.675 97.1801L106.91 97.6013L105.788 96.9695L104.64 97.6013L104.266 97.3907Z" fill="#C0BEAD"/>
<path d="M103.918 95.9164L105.04 96.5482L104.657 96.7588L103.918 97.1659M103.918 95.9164L104.683 95.4951L105.805 96.127L106.188 95.9164L106.953 95.4951L107.701 95.9164L106.553 96.5482L107.675 97.1801L106.91 97.6013L105.788 96.9695L104.64 97.6013L104.266 97.3907L103.892 97.1801L103.918 97.1659M103.918 95.9164V97.1659" stroke="black" stroke-width="0.15"/>
<path d="M104.658 96.7595L105.04 96.5489L103.918 95.917V97.1665L104.658 96.7595Z" fill="#C0BEAD" stroke="black" stroke-width="0.15"/>
<path d="M107.695 105.171V95.917L106.548 96.5489L107.669 97.1807V105.159L107.695 105.171Z" fill="#C0BEAD" stroke="black" stroke-width="0.15"/>
<path d="M106.911 106.764V97.6001L105.79 96.9683V106.132L106.911 106.764Z" fill="#C0BEAD" stroke="black" stroke-width="0.15"/>
<path d="M104.639 106.764V97.6001L105.787 96.9683V106.132L104.639 106.764Z" fill="#C0BEAD" stroke="black" stroke-width="0.15"/>
<path d="M105.763 111.798V107.396L106.911 106.764V107.809L107.676 107.388V106.343L108.824 105.711L110.44 109.219L105.763 111.798Z" fill="#C0BEAD" stroke="black" stroke-width="0.15"/>
<path d="M101.05 109.219L105.761 111.798V107.396L104.639 106.764V107.809L103.892 107.388V106.343L102.77 105.711L101.05 109.219Z" fill="#C0BEAD" stroke="black" stroke-width="0.15"/>
<path d="M104.642 106.766L105.764 107.398L106.911 106.766L105.789 106.134L104.642 106.766Z" fill="#C0BEAD"/>
<path d="M102.772 105.713L103.894 106.345V105.158L103.52 105.343L102.772 105.713Z" fill="#C0BEAD"/>
<path d="M108.824 105.713L107.702 105.171L107.676 105.158V106.345L108.824 105.713Z" fill="#C0BEAD"/>
<path d="M104.642 106.766L105.764 107.398L106.911 106.766L105.789 106.134L104.642 106.766Z" stroke="black" stroke-width="0.15"/>
<path d="M102.772 105.713L103.894 106.345V105.158L103.52 105.343L102.772 105.713Z" stroke="black" stroke-width="0.15"/>
<path d="M108.824 105.713L107.702 105.171L107.676 105.158V106.345L108.824 105.713Z" stroke="black" stroke-width="0.15"/>
<path d="M114.376 103.237L114.002 103.026V112.19V113.235L114.75 113.656V112.611V103.447L114.376 103.237Z" fill="#C0BEAD"/>
<path d="M117.02 112.611V103.447L117.785 103.026V111.004V112.19V113.235L117.02 113.656V112.611Z" fill="#C0BEAD"/>
<path d="M114.002 103.026L114.376 103.237L114.75 103.447V112.611V113.656L114.002 113.235V112.19V103.026ZM114.002 103.026L114.028 103.012M117.811 111.016L117.785 111.004M117.785 111.004V103.026L117.02 103.447V112.611V113.656L117.785 113.235V112.19V111.004Z" stroke="black" stroke-width="0.15"/>
<path d="M114.376 103.236L114.002 103.026L114.028 103.011V101.762L114.793 101.341L115.915 101.972L116.298 101.762L117.063 101.341L117.811 101.762L116.663 102.394L117.785 103.026L117.02 103.447L115.898 102.815L114.75 103.447L114.376 103.236Z" fill="#C0BEAD"/>
<path d="M114.028 101.762L115.15 102.394L114.768 102.604L114.028 103.011M114.028 101.762L114.793 101.341L115.915 101.972L116.298 101.762L117.063 101.341L117.811 101.762L116.663 102.394L117.785 103.026L117.02 103.447L115.898 102.815L114.75 103.447L114.376 103.236L114.002 103.026L114.028 103.011M114.028 101.762V103.011" stroke="black" stroke-width="0.15"/>
<path d="M114.768 102.605L115.15 102.395L114.029 101.763V103.012L114.768 102.605Z" fill="#C0BEAD" stroke="black" stroke-width="0.15"/>
<path d="M117.805 111.017V101.763L116.658 102.395L117.78 103.026V111.004L117.805 111.017Z" fill="#C0BEAD" stroke="black" stroke-width="0.15"/>
<path d="M117.022 112.61V103.446L115.9 102.814V111.978L117.022 112.61Z" fill="#C0BEAD" stroke="black" stroke-width="0.15"/>
<path d="M114.749 112.61V103.446L115.897 102.814V111.978L114.749 112.61Z" fill="#C0BEAD" stroke="black" stroke-width="0.15"/>
<path d="M115.874 117.643V113.242L117.021 112.61V113.655L117.786 113.233V112.189L118.934 111.557L120.55 115.064L115.874 117.643Z" fill="#C0BEAD" stroke="black" stroke-width="0.15"/>
<path d="M111.16 115.064L115.871 117.643V113.242L114.75 112.61V113.655L114.002 113.233V112.189L112.88 111.557L111.16 115.064Z" fill="#C0BEAD" stroke="black" stroke-width="0.15"/>
<path d="M114.752 112.612L115.874 113.244L117.021 112.612L115.9 111.98L114.752 112.612Z" fill="#C0BEAD"/>
<path d="M112.882 111.559L114.004 112.191V111.004L113.63 111.189L112.882 111.559Z" fill="#C0BEAD"/>
<path d="M118.934 111.559L117.812 111.017L117.787 111.004V112.191L118.934 111.559Z" fill="#C0BEAD"/>
<path d="M114.752 112.612L115.874 113.244L117.021 112.612L115.9 111.98L114.752 112.612Z" stroke="black" stroke-width="0.15"/>
<path d="M112.882 111.559L114.004 112.191V111.004L113.63 111.189L112.882 111.559Z" stroke="black" stroke-width="0.15"/>
<path d="M118.934 111.559L117.812 111.017L117.787 111.004V112.191L118.934 111.559Z" stroke="black" stroke-width="0.15"/>
<path d="M128.134 111.145L127.76 110.935V120.099V121.144L128.508 121.565V120.52V111.356L128.134 111.145Z" fill="#C0BEAD"/>
<path d="M130.778 120.52V111.356L131.543 110.935V118.913V120.099V121.144L130.778 121.565V120.52Z" fill="#C0BEAD"/>
<path d="M127.76 110.935L128.134 111.145L128.508 111.356V120.52V121.565L127.76 121.144V120.099V110.935ZM127.76 110.935L127.786 110.921M131.569 118.925L131.543 118.913M131.543 118.913V110.935L130.778 111.356V120.52V121.565L131.543 121.144V120.099V118.913Z" stroke="black" stroke-width="0.15"/>
<path d="M128.134 111.145L127.76 110.935L127.786 110.921V109.671L128.551 109.25L129.673 109.882L130.056 109.671L130.821 109.25L131.569 109.671L130.421 110.303L131.543 110.935L130.778 111.356L129.656 110.724L128.508 111.356L128.134 111.145Z" fill="#C0BEAD"/>
<path d="M127.786 109.671L128.908 110.303L128.526 110.513L127.786 110.921M127.786 109.671L128.551 109.25L129.673 109.882L130.056 109.671L130.821 109.25L131.569 109.671L130.421 110.303L131.543 110.935L130.778 111.356L129.656 110.724L128.508 111.356L128.134 111.145L127.76 110.935L127.786 110.921M127.786 109.671V110.921" stroke="black" stroke-width="0.15"/>
<path d="M128.526 110.514L128.909 110.303L127.787 109.672V110.921L128.526 110.514Z" fill="#C0BEAD" stroke="black" stroke-width="0.15"/>
<path d="M131.564 118.926V109.672L130.416 110.303L131.538 110.935V118.913L131.564 118.926Z" fill="#C0BEAD" stroke="black" stroke-width="0.15"/>
<path d="M130.78 120.519V111.355L129.658 110.723V119.887L130.78 120.519Z" fill="#C0BEAD" stroke="black" stroke-width="0.15"/>
<path d="M128.508 120.519V111.355L129.655 110.723V119.887L128.508 120.519Z" fill="#C0BEAD" stroke="black" stroke-width="0.15"/>
<path d="M129.632 125.553V121.151L130.779 120.519V121.564L131.544 121.142V120.098L132.692 119.466L134.308 122.974L129.632 125.553Z" fill="#C0BEAD" stroke="black" stroke-width="0.15"/>
<path d="M124.918 122.974L129.63 125.553V121.151L128.508 120.519V121.564L127.76 121.142V120.098L126.638 119.466L124.918 122.974Z" fill="#C0BEAD" stroke="black" stroke-width="0.15"/>
<path d="M128.51 120.521L129.632 121.153L130.78 120.521L129.658 119.889L128.51 120.521Z" fill="#C0BEAD"/>
<path d="M126.64 119.468L127.762 120.1V118.914L127.388 119.098L126.64 119.468Z" fill="#C0BEAD"/>
<path d="M132.692 119.468L131.57 118.926L131.545 118.914V120.1L132.692 119.468Z" fill="#C0BEAD"/>
<path d="M128.51 120.521L129.632 121.153L130.78 120.521L129.658 119.889L128.51 120.521Z" stroke="black" stroke-width="0.15"/>
<path d="M126.64 119.468L127.762 120.1V118.914L127.388 119.098L126.64 119.468Z" stroke="black" stroke-width="0.15"/>
<path d="M132.692 119.468L131.57 118.926L131.545 118.914V120.1L132.692 119.468Z" stroke="black" stroke-width="0.15"/>
<path d="M141.743 118.918L141.369 118.707V127.872V128.916L142.117 129.337V128.293V119.129L141.743 118.918Z" fill="#C0BEAD"/>
<path d="M144.386 128.293V119.129L145.151 118.707V126.685V127.872V128.916L144.386 129.337V128.293Z" fill="#C0BEAD"/>
<path d="M141.369 118.707L141.743 118.918L142.117 119.129V128.293V129.337L141.369 128.916V127.872V118.707ZM141.369 118.707L141.395 118.693M145.177 126.698L145.151 126.685M145.151 126.685V118.707L144.386 119.129V128.293V129.337L145.151 128.916V127.872V126.685Z" stroke="black" stroke-width="0.15"/>
<path d="M141.743 118.918L141.369 118.707L141.395 118.693V117.443L142.16 117.022L143.282 117.654L143.664 117.443L144.429 117.022L145.177 117.443L144.03 118.075L145.151 118.707L144.386 119.128L143.264 118.496L142.117 119.128L141.743 118.918Z" fill="#C0BEAD"/>
<path d="M141.395 117.443L142.517 118.075L142.134 118.286L141.395 118.693M141.395 117.443L142.16 117.022L143.282 117.654L143.664 117.443L144.429 117.022L145.177 117.443L144.03 118.075L145.151 118.707L144.386 119.128L143.264 118.496L142.117 119.128L141.743 118.918L141.369 118.707L141.395 118.693M141.395 117.443V118.693" stroke="black" stroke-width="0.15"/>
<path d="M142.134 118.287L142.517 118.076L141.395 117.444V118.694L142.134 118.287Z" fill="#C0BEAD" stroke="black" stroke-width="0.15"/>
<path d="M145.172 126.698V117.444L144.024 118.076L145.146 118.708V126.686L145.172 126.698Z" fill="#C0BEAD" stroke="black" stroke-width="0.15"/>
<path d="M144.388 128.291V119.127L143.266 118.495V127.66L144.388 128.291Z" fill="#C0BEAD" stroke="black" stroke-width="0.15"/>
<path d="M142.116 128.291V119.127L143.263 118.495V127.66L142.116 128.291Z" fill="#C0BEAD" stroke="black" stroke-width="0.15"/>
<path d="M143.24 133.325V128.923L144.388 128.291V129.336L145.153 128.915V127.87L146.3 127.238L147.917 130.746L143.24 133.325Z" fill="#C0BEAD" stroke="black" stroke-width="0.15"/>
<path d="M138.527 130.746L143.238 133.325V128.923L142.116 128.291V129.336L141.368 128.915V127.87L140.246 127.238L138.527 130.746Z" fill="#C0BEAD" stroke="black" stroke-width="0.15"/>
<path d="M142.118 128.293L143.24 128.925L144.388 128.293L143.266 127.662L142.118 128.293Z" fill="#C0BEAD"/>
<path d="M140.249 127.24L141.37 127.872V126.686L140.996 126.871L140.249 127.24Z" fill="#C0BEAD"/>
<path d="M146.301 127.24L145.179 126.698L145.153 126.686V127.872L146.301 127.24Z" fill="#C0BEAD"/>
<path d="M142.118 128.293L143.24 128.925L144.388 128.293L143.266 127.662L142.118 128.293Z" stroke="black" stroke-width="0.15"/>
<path d="M140.249 127.24L141.37 127.872V126.686L140.996 126.871L140.249 127.24Z" stroke="black" stroke-width="0.15"/>
<path d="M146.301 127.24L145.179 126.698L145.153 126.686V127.872L146.301 127.24Z" stroke="black" stroke-width="0.15"/>
<path d="M152.201 125.039L151.827 124.828V133.992V135.037L152.575 135.458V134.413V125.249L152.201 125.039Z" fill="#C0BEAD"/>
<path d="M154.844 134.413V125.249L155.609 124.828V132.806V133.992V135.037L154.844 135.458V134.413Z" fill="#C0BEAD"/>
<path d="M151.827 124.828L152.201 125.039L152.575 125.249V134.413V135.458L151.827 135.037V133.992V124.828ZM151.827 124.828L151.852 124.814M155.635 132.818L155.609 132.806M155.609 132.806V124.828L154.844 125.249V134.413V135.458L155.609 135.037V133.992V132.806Z" stroke="black" stroke-width="0.15"/>
<path d="M152.201 125.038L151.827 124.827L151.852 124.813V123.563L152.618 123.142L153.739 123.774L154.122 123.563L154.887 123.142L155.635 123.563L154.487 124.195L155.609 124.827L154.844 125.248L153.722 124.616L152.575 125.248L152.201 125.038Z" fill="#C0BEAD"/>
<path d="M151.852 123.563L152.974 124.195L152.592 124.406L151.852 124.813M151.852 123.563L152.618 123.142L153.739 123.774L154.122 123.563L154.887 123.142L155.635 123.563L154.487 124.195L155.609 124.827L154.844 125.248L153.722 124.616L152.575 125.248L152.201 125.038L151.827 124.827L151.852 124.813M151.852 123.563V124.813" stroke="black" stroke-width="0.15"/>
<path d="M152.592 124.407L152.975 124.196L151.853 123.564V124.814L152.592 124.407Z" fill="#C0BEAD" stroke="black" stroke-width="0.15"/>
<path d="M155.63 132.818V123.564L154.482 124.196L155.604 124.828V132.806L155.63 132.818Z" fill="#C0BEAD" stroke="black" stroke-width="0.15"/>
<path d="M154.846 134.412V125.247L153.724 124.615V133.78L154.846 134.412Z" fill="#C0BEAD" stroke="black" stroke-width="0.15"/>
<path d="M152.574 134.412V125.247L153.721 124.615V133.78L152.574 134.412Z" fill="#C0BEAD" stroke="black" stroke-width="0.15"/>
<path d="M153.698 139.445V135.043L154.845 134.412V135.456L155.611 135.035V133.99L156.758 133.358L158.374 136.866L153.698 139.445Z" fill="#C0BEAD" stroke="black" stroke-width="0.15"/>
<path d="M148.985 136.866L153.696 139.445V135.043L152.574 134.412V135.456L151.826 135.035V133.99L150.704 133.358L148.985 136.866Z" fill="#C0BEAD" stroke="black" stroke-width="0.15"/>
<path d="M152.576 134.413L153.698 135.045L154.846 134.413L153.724 133.781L152.576 134.413Z" fill="#C0BEAD"/>
<path d="M150.706 133.36L151.828 133.992V132.806L151.454 132.99L150.706 133.36Z" fill="#C0BEAD"/>
<path d="M156.758 133.36L155.637 132.818L155.611 132.806V133.992L156.758 133.36Z" fill="#C0BEAD"/>
<path d="M152.576 134.413L153.698 135.045L154.846 134.413L153.724 133.781L152.576 134.413Z" stroke="black" stroke-width="0.15"/>
<path d="M150.706 133.36L151.828 133.992V132.806L151.454 132.99L150.706 133.36Z" stroke="black" stroke-width="0.15"/>
<path d="M156.758 133.36L155.637 132.818L155.611 132.806V133.992L156.758 133.36Z" stroke="black" stroke-width="0.15"/>
<path d="M104.697 93.6394L103.934 94.0521L154.861 123.35L155.652 122.937L104.697 93.6394Z" fill="#C0BEAD" stroke="black" stroke-width="0.15"/>
<path d="M155.62 124.76L154.829 125.173V123.35L155.62 122.938V124.76Z" fill="#C0BEAD" stroke="black" stroke-width="0.15"/>
<path d="M103.934 95.8728V94.0503L134.477 111.622L154.858 123.348V125.171L134.477 113.445L103.934 95.8728Z" fill="#C0BEAD" stroke="black" stroke-width="0.15"/>
<path d="M93.0043 114.617L92.2478 114.205L115.15 100.519L115.906 100.931L93.0043 114.617Z" fill="#C0BEAD" stroke="black" stroke-width="0.15"/>
<path d="M93.0043 116.506L92.2478 116.093V114.202L93.0043 114.615V116.506Z" fill="#C0BEAD" stroke="black" stroke-width="0.15"/>
<path d="M115.908 102.82L93.0061 116.507V114.615L115.908 100.929V102.82Z" fill="#C0BEAD" stroke="black" stroke-width="0.15"/>
<path d="M82.8244 108.769L82.0679 108.356L104.97 94.6699L105.726 95.0826L82.8244 108.769Z" fill="#C0BEAD" stroke="black" stroke-width="0.15"/>
<path d="M82.8244 110.659L82.0679 110.247V108.355L82.8244 108.768V110.659Z" fill="#C0BEAD" stroke="black" stroke-width="0.15"/>
<path d="M105.728 96.9719L82.8259 110.658V108.767L105.728 95.0806V96.9719Z" fill="#C0BEAD" stroke="black" stroke-width="0.15"/>
<path d="M106.692 122.527L105.936 122.115L128.906 108.428L129.663 108.841L106.692 122.527Z" fill="#C0BEAD" stroke="black" stroke-width="0.15"/>
<path d="M106.692 124.418L105.936 124.005V122.114L106.692 122.527V124.418Z" fill="#C0BEAD" stroke="black" stroke-width="0.15"/>
<path d="M129.665 110.731L106.694 124.417V122.525L129.665 108.839V110.731Z" fill="#C0BEAD" stroke="black" stroke-width="0.15"/>
<path d="M120.305 130.301L119.549 129.888L142.519 116.202L143.276 116.615L120.305 130.301Z" fill="#C0BEAD" stroke="black" stroke-width="0.15"/>
<path d="M120.305 132.191L119.549 131.779V129.887L120.305 130.3V132.191Z" fill="#C0BEAD" stroke="black" stroke-width="0.15"/>
<path d="M143.275 118.504L120.27 132.19V130.299L143.275 116.613V118.504Z" fill="#C0BEAD" stroke="black" stroke-width="0.15"/>
<path d="M130.763 136.419L130.006 136.006L152.977 122.32L153.733 122.733L130.763 136.419Z" fill="#C0BEAD" stroke="black" stroke-width="0.15"/>
<path d="M130.763 138.31L130.006 137.897V136.006L130.763 136.419V138.31Z" fill="#C0BEAD" stroke="black" stroke-width="0.15"/>
<path d="M153.732 124.623L130.727 138.309V136.418L153.732 122.732V124.623Z" fill="#C0BEAD" stroke="black" stroke-width="0.15"/>
<path d="M80.6738 111.56L80.2998 111.349V120.514V121.558L81.0477 121.979V120.935V111.771L80.6738 111.56Z" fill="#C0BEAD"/>
<path d="M83.3173 120.935V111.771L84.0824 111.349V119.327V120.514V121.558L83.3173 121.979V120.935Z" fill="#C0BEAD"/>
<path d="M80.2998 111.349L80.6738 111.56L81.0477 111.771V120.935V121.979L80.2998 121.558V120.514V111.349ZM80.2998 111.349L80.3256 111.335M84.1082 119.34L84.0824 119.327M84.0824 119.327V111.349L83.3173 111.771V120.935V121.979L84.0824 121.558V120.514V119.327Z" stroke="black" stroke-width="0.15"/>
<path d="M80.6738 111.56L80.2998 111.349L80.3256 111.335V110.085L81.0907 109.664L82.2126 110.296L82.5952 110.085L83.3603 109.664L84.1082 110.085L82.9605 110.717L84.0824 111.349L83.3173 111.77L82.1954 111.138L81.0477 111.77L80.6738 111.56Z" fill="#C0BEAD"/>
<path d="M80.3256 110.085L81.4475 110.717L81.0649 110.928L80.3256 111.335M80.3256 110.085L81.0907 109.664L82.2126 110.296L82.5952 110.085L83.3603 109.664L84.1082 110.085L82.9605 110.717L84.0824 111.349L83.3173 111.77L82.1954 111.138L81.0477 111.77L80.6738 111.56L80.2998 111.349L80.3256 111.335M80.3256 110.085V111.335" stroke="black" stroke-width="0.15"/>
<path d="M81.0653 110.929L81.4478 110.718L80.3259 110.086V111.336L81.0653 110.929Z" fill="#C0BEAD" stroke="black" stroke-width="0.15"/>
<path d="M84.1028 119.34V110.086L82.9551 110.718L84.077 111.35V119.328L84.1028 119.34Z" fill="#C0BEAD" stroke="black" stroke-width="0.15"/>
<path d="M83.3189 120.934V111.769L82.197 111.137V120.302L83.3189 120.934Z" fill="#C0BEAD" stroke="black" stroke-width="0.15"/>
<path d="M81.0466 120.934V111.769L82.1943 111.137V120.302L81.0466 120.934Z" fill="#C0BEAD" stroke="black" stroke-width="0.15"/>
<path d="M82.1709 125.967V121.565L83.3186 120.933V121.978L84.0837 121.557V120.512L85.2314 119.88L86.8476 123.388L82.1709 125.967Z" fill="#C0BEAD" stroke="black" stroke-width="0.15"/>
<path d="M77.4578 123.388L82.1688 125.967V121.565L81.0469 120.933V121.978L80.299 121.557V120.512L79.1771 119.88L77.4578 123.388Z" fill="#C0BEAD" stroke="black" stroke-width="0.15"/>
<path d="M81.0492 120.935L82.1711 121.567L83.3188 120.935L82.1969 120.303L81.0492 120.935Z" fill="#C0BEAD"/>
<path d="M79.1794 119.882L80.3013 120.514V119.328L79.9274 119.512L79.1794 119.882Z" fill="#C0BEAD"/>
<path d="M85.2316 119.882L84.1097 119.34L84.0839 119.328V120.514L85.2316 119.882Z" fill="#C0BEAD"/>
<path d="M81.0492 120.935L82.1711 121.567L83.3188 120.935L82.1969 120.303L81.0492 120.935Z" stroke="black" stroke-width="0.15"/>
<path d="M79.1794 119.882L80.3013 120.514V119.328L79.9274 119.512L79.1794 119.882Z" stroke="black" stroke-width="0.15"/>
<path d="M85.2316 119.882L84.1097 119.34L84.0839 119.328V120.514L85.2316 119.882Z" stroke="black" stroke-width="0.15"/>
<path d="M90.7841 117.406L90.4102 117.196V126.36V127.405L91.1581 127.826V126.781V117.617L90.7841 117.406Z" fill="#C0BEAD"/>
<path d="M93.4276 126.781V117.617L94.1928 117.196V125.174V126.36V127.405L93.4276 127.826V126.781Z" fill="#C0BEAD"/>
<path d="M90.4102 117.196L90.7841 117.406L91.1581 117.617V126.781V127.826L90.4102 127.405V126.36V117.196ZM90.4102 117.196L90.4359 117.182M94.2185 125.186L94.1928 125.174M94.1928 125.174V117.196L93.4276 117.617V126.781V127.826L94.1928 127.405V126.36V125.174Z" stroke="black" stroke-width="0.15"/>
<path d="M90.7841 117.406L90.4102 117.195L90.4359 117.181V115.932L91.2011 115.51L92.3229 116.142L92.7055 115.932L93.4706 115.51L94.2185 115.932L93.0709 116.564L94.1928 117.195L93.4276 117.617L92.3058 116.985L91.1581 117.617L90.7841 117.406Z" fill="#C0BEAD"/>
<path d="M90.4359 115.932L91.5578 116.564L91.1753 116.774L90.4359 117.181M90.4359 115.932L91.2011 115.51L92.3229 116.142L92.7055 115.932L93.4706 115.51L94.2185 115.932L93.0709 116.564L94.1928 117.195L93.4276 117.617L92.3058 116.985L91.1581 117.617L90.7841 117.406L90.4102 117.195L90.4359 117.181M90.4359 115.932V117.181" stroke="black" stroke-width="0.15"/>
<path d="M91.1756 116.775L91.5582 116.564L90.4363 115.933V117.182L91.1756 116.775Z" fill="#C0BEAD" stroke="black" stroke-width="0.15"/>
<path d="M94.2133 125.187V115.933L93.0657 116.564L94.1876 117.196V125.174L94.2133 125.187Z" fill="#C0BEAD" stroke="black" stroke-width="0.15"/>
<path d="M93.4293 126.78V117.616L92.3074 116.984V126.148L93.4293 126.78Z" fill="#C0BEAD" stroke="black" stroke-width="0.15"/>
<path d="M91.1572 126.78V117.616L92.3049 116.984V126.148L91.1572 126.78Z" fill="#C0BEAD" stroke="black" stroke-width="0.15"/>
<path d="M92.2812 131.813V127.412L93.4289 126.78V127.824L94.194 127.403V126.359L95.3417 125.727L96.9579 129.234L92.2812 131.813Z" fill="#C0BEAD" stroke="black" stroke-width="0.15"/>
<path d="M87.5681 129.234L92.2792 131.813V127.412L91.1573 126.78V127.824L90.4094 127.403V126.359L89.2875 125.727L87.5681 129.234Z" fill="#C0BEAD" stroke="black" stroke-width="0.15"/>
<path d="M91.1596 126.782L92.2815 127.414L93.4292 126.782L92.3073 126.15L91.1596 126.782Z" fill="#C0BEAD"/>
<path d="M89.2898 125.729L90.4117 126.36V125.174L90.0377 125.359L89.2898 125.729Z" fill="#C0BEAD"/>
<path d="M95.342 125.729L94.2201 125.187L94.1943 125.174V126.36L95.342 125.729Z" fill="#C0BEAD"/>
<path d="M91.1596 126.782L92.2815 127.414L93.4292 126.782L92.3073 126.15L91.1596 126.782Z" stroke="black" stroke-width="0.15"/>
<path d="M89.2898 125.729L90.4117 126.36V125.174L90.0377 125.359L89.2898 125.729Z" stroke="black" stroke-width="0.15"/>
<path d="M95.342 125.729L94.2201 125.187L94.1943 125.174V126.36L95.342 125.729Z" stroke="black" stroke-width="0.15"/>
<path d="M104.535 125.313L104.161 125.102V134.266V135.311L104.909 135.732V134.688V125.523L104.535 125.313Z" fill="#C0BEAD"/>
<path d="M107.179 134.688V125.523L107.944 125.102V133.08V134.266V135.311L107.179 135.732V134.688Z" fill="#C0BEAD"/>
<path d="M104.161 125.102L104.535 125.313L104.909 125.523V134.688V135.732L104.161 135.311V134.266V125.102ZM104.161 125.102L104.187 125.088M107.97 133.092L107.944 133.08M107.944 133.08V125.102L107.179 125.523V134.688V135.732L107.944 135.311V134.266V133.08Z" stroke="black" stroke-width="0.15"/>
<path d="M104.535 125.313L104.161 125.102L104.187 125.088V123.838L104.952 123.417L106.074 124.049L106.457 123.838L107.222 123.417L107.97 123.838L106.822 124.47L107.944 125.102L107.179 125.523L106.057 124.891L104.909 125.523L104.535 125.313Z" fill="#C0BEAD"/>
<path d="M104.187 123.838L105.309 124.47L104.926 124.681L104.187 125.088M104.187 123.838L104.952 123.417L106.074 124.049L106.457 123.838L107.222 123.417L107.97 123.838L106.822 124.47L107.944 125.102L107.179 125.523L106.057 124.891L104.909 125.523L104.535 125.313L104.161 125.102L104.187 125.088M104.187 123.838V125.088" stroke="black" stroke-width="0.15"/>
<path d="M104.927 124.681L105.309 124.471L104.188 123.839V125.088L104.927 124.681Z" fill="#C0BEAD" stroke="black" stroke-width="0.15"/>
<path d="M107.964 133.093V123.839L106.817 124.471L107.939 125.103V133.08L107.964 133.093Z" fill="#C0BEAD" stroke="black" stroke-width="0.15"/>
<path d="M107.18 134.686V125.522L106.059 124.89V134.054L107.18 134.686Z" fill="#C0BEAD" stroke="black" stroke-width="0.15"/>
<path d="M104.908 134.686V125.522L106.056 124.89V134.054L104.908 134.686Z" fill="#C0BEAD" stroke="black" stroke-width="0.15"/>
<path d="M106.032 139.72V135.318L107.18 134.686V135.731L107.945 135.309V134.265L109.093 133.633L110.709 137.141L106.032 139.72Z" fill="#C0BEAD" stroke="black" stroke-width="0.15"/>
<path d="M101.319 137.141L106.03 139.72V135.318L104.909 134.686V135.731L104.161 135.309V134.265L103.039 133.633L101.319 137.141Z" fill="#C0BEAD" stroke="black" stroke-width="0.15"/>
<path d="M104.911 134.688L106.033 135.32L107.18 134.688L106.058 134.056L104.911 134.688Z" fill="#C0BEAD"/>
<path d="M103.041 133.635L104.163 134.267V133.08L103.789 133.265L103.041 133.635Z" fill="#C0BEAD"/>
<path d="M109.093 133.635L107.971 133.093L107.945 133.08V134.267L109.093 133.635Z" fill="#C0BEAD"/>
<path d="M104.911 134.688L106.033 135.32L107.18 134.688L106.058 134.056L104.911 134.688Z" stroke="black" stroke-width="0.15"/>
<path d="M103.041 133.635L104.163 134.267V133.08L103.789 133.265L103.041 133.635Z" stroke="black" stroke-width="0.15"/>
<path d="M109.093 133.635L107.971 133.093L107.945 133.08V134.267L109.093 133.635Z" stroke="black" stroke-width="0.15"/>
<path d="M118.152 133.089L117.778 132.878V142.042V143.087L118.526 143.508V142.463V133.299L118.152 133.089Z" fill="#C0BEAD"/>
<path d="M120.796 142.463V133.299L121.561 132.878V140.856V142.042V143.087L120.796 143.508V142.463Z" fill="#C0BEAD"/>
<path d="M117.778 132.878L118.152 133.089L118.526 133.299V142.463V143.508L117.778 143.087V142.042V132.878ZM117.778 132.878L117.804 132.864M121.586 140.868L121.561 140.856M121.561 140.856V132.878L120.796 133.299V142.463V143.508L121.561 143.087V142.042V140.856Z" stroke="black" stroke-width="0.15"/>
<path d="M118.152 133.089L117.778 132.878L117.804 132.864V131.614L118.569 131.193L119.691 131.825L120.073 131.614L120.839 131.193L121.586 131.614L120.439 132.246L121.561 132.878L120.796 133.299L119.674 132.667L118.526 133.299L118.152 133.089Z" fill="#C0BEAD"/>
<path d="M117.804 131.614L118.926 132.246L118.543 132.457L117.804 132.864M117.804 131.614L118.569 131.193L119.691 131.825L120.073 131.614L120.839 131.193L121.586 131.614L120.439 132.246L121.561 132.878L120.796 133.299L119.674 132.667L118.526 133.299L118.152 133.089L117.778 132.878L117.804 132.864M117.804 131.614V132.864" stroke="black" stroke-width="0.15"/>
<path d="M118.544 132.457L118.926 132.247L117.804 131.615V132.864L118.544 132.457Z" fill="#C0BEAD" stroke="black" stroke-width="0.15"/>
<path d="M121.581 140.869V131.615L120.433 132.247L121.555 132.878V140.856L121.581 140.869Z" fill="#C0BEAD" stroke="black" stroke-width="0.15"/>
<path d="M120.797 142.462V133.298L119.675 132.666V141.83L120.797 142.462Z" fill="#C0BEAD" stroke="black" stroke-width="0.15"/>
<path d="M118.525 142.462V133.298L119.673 132.666V141.83L118.525 142.462Z" fill="#C0BEAD" stroke="black" stroke-width="0.15"/>
<path d="M119.649 147.495V143.094L120.797 142.462V143.507L121.562 143.085V142.041L122.71 141.409L124.326 144.916L119.649 147.495Z" fill="#C0BEAD" stroke="black" stroke-width="0.15"/>
<path d="M114.936 144.916L119.647 147.495V143.094L118.525 142.462V143.507L117.777 143.085V142.041L116.655 141.409L114.936 144.916Z" fill="#C0BEAD" stroke="black" stroke-width="0.15"/>
<path d="M118.528 142.464L119.649 143.096L120.797 142.464L119.675 141.832L118.528 142.464Z" fill="#C0BEAD"/>
<path d="M116.658 141.411L117.78 142.043V140.856L117.406 141.041L116.658 141.411Z" fill="#C0BEAD"/>
<path d="M122.71 141.411L121.588 140.869L121.562 140.856V142.043L122.71 141.411Z" fill="#C0BEAD"/>
<path d="M118.528 142.464L119.649 143.096L120.797 142.464L119.675 141.832L118.528 142.464Z" stroke="black" stroke-width="0.15"/>
<path d="M116.658 141.411L117.78 142.043V140.856L117.406 141.041L116.658 141.411Z" stroke="black" stroke-width="0.15"/>
<path d="M122.71 141.411L121.588 140.869L121.562 140.856V142.043L122.71 141.411Z" stroke="black" stroke-width="0.15"/>
<path d="M128.612 139.208L128.238 138.997V148.162V149.206L128.986 149.627V148.583V139.419L128.612 139.208Z" fill="#C0BEAD"/>
<path d="M131.256 148.583V139.419L132.021 138.997V146.975V148.162V149.206L131.256 149.627V148.583Z" fill="#C0BEAD"/>
<path d="M128.238 138.997L128.612 139.208L128.986 139.419V148.583V149.627L128.238 149.206V148.162V138.997ZM128.238 138.997L128.264 138.983M132.046 146.988L132.021 146.975M132.021 146.975V138.997L131.256 139.419V148.583V149.627L132.021 149.206V148.162V146.975Z" stroke="black" stroke-width="0.15"/>
<path d="M128.612 139.208L128.238 138.997L128.264 138.983V137.734L129.029 137.312L130.151 137.944L130.533 137.734L131.299 137.312L132.046 137.734L130.899 138.366L132.021 138.997L131.256 139.419L130.134 138.787L128.986 139.419L128.612 139.208Z" fill="#C0BEAD"/>
<path d="M128.264 137.734L129.386 138.366L129.003 138.576L128.264 138.983M128.264 137.734L129.029 137.312L130.151 137.944L130.533 137.734L131.299 137.312L132.046 137.734L130.899 138.366L132.021 138.997L131.256 139.419L130.134 138.787L128.986 139.419L128.612 139.208L128.238 138.997L128.264 138.983M128.264 137.734V138.983" stroke="black" stroke-width="0.15"/>
<path d="M129.003 138.577L129.386 138.366L128.264 137.734V138.984L129.003 138.577Z" fill="#C0BEAD" stroke="black" stroke-width="0.15"/>
<path d="M132.041 146.988V137.734L130.894 138.366L132.015 138.998V146.976L132.041 146.988Z" fill="#C0BEAD" stroke="black" stroke-width="0.15"/>
<path d="M131.257 148.581V139.417L130.135 138.785V147.95L131.257 148.581Z" fill="#C0BEAD" stroke="black" stroke-width="0.15"/>
<path d="M128.985 148.581V139.417L130.133 138.785V147.95L128.985 148.581Z" fill="#C0BEAD" stroke="black" stroke-width="0.15"/>
<path d="M130.109 153.615V149.213L131.257 148.581V149.626L132.022 149.205V148.16L133.17 147.528L134.786 151.036L130.109 153.615Z" fill="#C0BEAD" stroke="black" stroke-width="0.15"/>
<path d="M125.396 151.036L130.107 153.615V149.213L128.985 148.581V149.626L128.237 149.205V148.16L127.115 147.528L125.396 151.036Z" fill="#C0BEAD" stroke="black" stroke-width="0.15"/>
<path d="M128.987 148.583L130.109 149.215L131.257 148.583L130.135 147.951L128.987 148.583Z" fill="#C0BEAD"/>
<path d="M127.118 147.53L128.24 148.162V146.976L127.866 147.16L127.118 147.53Z" fill="#C0BEAD"/>
<path d="M133.17 147.53L132.048 146.988L132.022 146.976V148.162L133.17 147.53Z" fill="#C0BEAD"/>
<path d="M128.987 148.583L130.109 149.215L131.257 148.583L130.135 147.951L128.987 148.583Z" stroke="black" stroke-width="0.15"/>
<path d="M127.118 147.53L128.24 148.162V146.976L127.866 147.16L127.118 147.53Z" stroke="black" stroke-width="0.15"/>
<path d="M133.17 147.53L132.048 146.988L132.022 146.976V148.162L133.17 147.53Z" stroke="black" stroke-width="0.15"/>
<path d="M81.1128 107.811L80.3494 108.223L131.277 137.521L132.068 137.108L81.1128 107.811Z" fill="#C0BEAD" stroke="black" stroke-width="0.15"/>
<path d="M132.036 138.932L131.245 139.344V137.522L132.036 137.109V138.932Z" fill="#C0BEAD" stroke="black" stroke-width="0.15"/>
<path d="M80.3494 110.044V108.222L110.892 125.794L131.274 137.52V139.342L110.892 127.616L80.3494 110.044Z" fill="#C0BEAD" stroke="black" stroke-width="0.15"/>
<path d="M69.4123 128.785L68.6558 128.372L91.5577 114.686L92.3142 115.099L69.4123 128.785Z" fill="#C0BEAD" stroke="black" stroke-width="0.15"/>
<path d="M69.4123 130.676L68.6558 130.263V128.372L69.4123 128.784V130.676Z" fill="#C0BEAD" stroke="black" stroke-width="0.15"/>
<path d="M92.3157 116.988L69.4138 130.674V128.783L92.3157 115.097V116.988Z" fill="#C0BEAD" stroke="black" stroke-width="0.15"/>
<path d="M59.2363 122.938L58.4797 122.525L81.3816 108.839L82.1382 109.252L59.2363 122.938Z" fill="#C0BEAD" stroke="black" stroke-width="0.15"/>
<path d="M59.2363 124.829L58.4797 124.416V122.525L59.2363 122.937V124.829Z" fill="#C0BEAD" stroke="black" stroke-width="0.15"/>
<path d="M82.1399 111.142L59.238 124.828V122.936L82.1399 109.25V111.142Z" fill="#C0BEAD" stroke="black" stroke-width="0.15"/>
<path d="M83.0964 136.696L82.3398 136.284L105.311 122.598L106.067 123.01L83.0964 136.696Z" fill="#C0BEAD" stroke="black" stroke-width="0.15"/>
<path d="M83.0964 138.587L82.3398 138.175V136.283L83.0964 136.696V138.587Z" fill="#C0BEAD" stroke="black" stroke-width="0.15"/>
<path d="M106.069 124.9L83.0981 138.586V136.695L106.069 123.009V124.9Z" fill="#C0BEAD" stroke="black" stroke-width="0.15"/>
<path d="M96.7128 144.466L95.9563 144.054L118.927 130.368L119.683 130.78L96.7128 144.466Z" fill="#C0BEAD" stroke="black" stroke-width="0.15"/>
<path d="M96.7128 146.357L95.9563 145.945V144.053L96.7128 144.466V146.357Z" fill="#C0BEAD" stroke="black" stroke-width="0.15"/>
<path d="M119.682 132.67L96.6772 146.356V144.465L119.682 130.779V132.67Z" fill="#C0BEAD" stroke="black" stroke-width="0.15"/>
<path d="M107.163 150.588L106.406 150.175L129.377 136.489L130.133 136.902L107.163 150.588Z" fill="#C0BEAD" stroke="black" stroke-width="0.15"/>
<path d="M107.163 152.478L106.406 152.066V150.174L107.163 150.587V152.478Z" fill="#C0BEAD" stroke="black" stroke-width="0.15"/>
<path d="M130.132 138.791L107.127 152.477V150.586L130.132 136.9V138.791Z" fill="#C0BEAD" stroke="black" stroke-width="0.15"/>
<path d="M57.386 121.978L56.6226 122.39L107.55 151.688L108.341 151.276L57.386 121.978Z" fill="#C0BEAD" stroke="black" stroke-width="0.15"/>
<path d="M108.309 153.099L107.518 153.512V151.689L108.309 151.276V153.099Z" fill="#C0BEAD" stroke="black" stroke-width="0.15"/>
<path d="M56.6226 124.211V122.388L87.1655 139.96L107.547 151.686V153.509L87.1655 141.783L56.6226 124.211Z" fill="#C0BEAD" stroke="black" stroke-width="0.15"/>
<path d="M48.9887 140.512L48.2322 140.1L67.8329 128.855L68.5894 129.268L48.9887 140.512Z" fill="#C0BEAD" stroke="black" stroke-width="0.15"/>
<path d="M48.9887 142.406L48.2322 141.993V140.102L48.9887 140.514V142.406Z" fill="#C0BEAD" stroke="black" stroke-width="0.15"/>
<path d="M68.5912 131.157L48.9905 142.402V140.51L68.5912 129.266V131.157Z" fill="#C0BEAD" stroke="black" stroke-width="0.15"/>
<path d="M62.6015 148.285L61.845 147.872L81.5832 136.765L82.3398 137.178L62.6015 148.285Z" fill="#C0BEAD" stroke="black" stroke-width="0.15"/>
<path d="M62.6015 150.176L61.845 149.763V147.872L62.6015 148.284V150.176Z" fill="#C0BEAD" stroke="black" stroke-width="0.15"/>
<path d="M82.3413 139.067L62.603 150.174V148.283L82.3413 137.176V139.067Z" fill="#C0BEAD" stroke="black" stroke-width="0.15"/>
<path d="M76.5639 156.397L75.8074 155.984L95.2018 144.533L95.9583 144.946L76.5639 156.397Z" fill="#C0BEAD" stroke="black" stroke-width="0.15"/>
<path d="M76.5639 158.285L75.8074 157.873V155.981L76.5639 156.394V158.285Z" fill="#C0BEAD" stroke="black" stroke-width="0.15"/>
<path d="M95.9598 146.835L76.5654 158.286V156.395L95.9598 144.944V146.835Z" fill="#C0BEAD" stroke="black" stroke-width="0.15"/>
<path d="M47.1281 139.512L46.3647 139.925L76.9077 157.497L77.6986 157.084L47.1281 139.512Z" fill="#C0BEAD" stroke="black" stroke-width="0.15"/>
<path d="M77.6976 158.908L76.9067 159.321V157.498L77.6976 157.086V158.908Z" fill="#C0BEAD" stroke="black" stroke-width="0.15"/>
<path d="M46.3647 141.746V139.923L76.9077 157.495V159.318L46.3647 141.746Z" fill="#C0BEAD" stroke="black" stroke-width="0.15"/>
<path d="M60.8174 78.7851C80.2618 89.9887 102.847 82.1535 111.709 76.8355L191.467 28.9733L142.796 1.00024L63.0896 48.8317C57.6387 52.1027 50.671 58.45 50.6521 65.4598C50.6403 69.8391 53.3407 74.4771 60.8174 78.7851Z" fill="#C0BEAD" stroke="black" stroke-width="0.15"/>
<path d="M50.6522 68.4417L50.6521 65.5187C50.6521 65.4996 50.6521 65.4805 50.6521 65.4613L50.6521 65.5187C50.6561 66.9778 50.9618 68.4653 51.6456 69.9595C52.1186 70.9933 52.7727 72.0304 53.633 73.0634C54.5483 74.1625 55.697 75.257 57.1096 76.3383C58.1874 77.1634 59.4188 77.9808 60.8174 78.7866C63.0613 80.0796 65.3471 81.1189 67.6488 81.9379C70.1679 82.8342 72.7061 83.4665 75.2293 83.8781C77.4589 84.2419 79.6768 84.4334 81.8596 84.4826C84.3122 84.538 86.7205 84.4137 89.0513 84.1522C91.2926 83.9009 93.4621 83.5227 95.5304 83.0555C97.5917 82.5899 99.5523 82.036 101.383 81.431C103.283 80.8032 105.044 80.1204 106.631 79.4245C108.614 78.5553 110.328 77.6656 111.709 76.8371L116.694 73.8457L121.679 70.8543L126.664 67.8629L131.648 64.8715L136.633 61.8801L141.618 58.8887L146.603 55.8973L151.588 52.906L156.573 49.9146L161.558 46.9232L166.543 43.9318L171.528 40.9404L176.512 37.949L181.497 34.9576L186.482 31.9662L191.467 28.9749V31.8868L186.482 34.8782L181.497 37.8695L176.512 40.8609L171.528 43.8523L166.543 46.8437L161.558 49.8351L156.573 52.8265L151.588 55.8179L146.603 58.8092L141.618 61.8006L136.633 64.792L131.648 67.7834L126.664 70.7748L121.679 73.7662L116.694 76.7576L111.709 79.7489C110.328 80.5775 108.614 81.4672 106.631 82.3364C105.044 83.0323 103.283 83.715 101.383 84.3429C99.5523 84.9479 97.5917 85.5018 95.5304 85.9674C93.4621 86.4346 91.2926 86.8128 89.0513 87.0641C86.7205 87.3256 84.3122 87.4499 81.8596 87.3945C79.6768 87.3453 77.4589 87.1538 75.2293 86.79C72.7061 86.3784 70.1679 85.7461 67.6488 84.8498C65.3471 84.0308 63.0613 82.9915 60.8174 81.6985C59.4188 80.8927 58.1874 80.0753 57.1096 79.2502C55.697 78.1689 54.5483 77.0744 53.633 75.9753C52.7727 74.9423 52.1186 73.9052 51.6456 72.8714C50.9636 71.381 50.6577 69.8973 50.6522 68.4417Z" fill="#C0BEAD"/>
<path d="M111.709 79.7489V76.8371M111.709 79.7489L116.694 76.7576M111.709 79.7489C110.328 80.5775 108.614 81.4672 106.631 82.3364M60.8174 81.6985V78.7866M60.8174 81.6985C63.0613 82.9915 65.3471 84.0308 67.6488 84.8498M60.8174 81.6985C59.4188 80.8927 58.1874 80.0753 57.1096 79.2502M111.709 76.8371L116.694 73.8457M111.709 76.8371C110.328 77.6656 108.614 78.5553 106.631 79.4245M60.8174 78.7866C63.0613 80.0796 65.3471 81.119 67.6488 81.9379M60.8174 78.7866C59.4188 77.9808 58.1874 77.1634 57.1096 76.3383M151.588 52.906V55.8179M151.588 52.906L156.573 49.9146M151.588 52.906L146.603 55.8973M151.588 55.8179L156.573 52.8265M151.588 55.8179L146.603 58.8092M171.528 40.9404V43.8523M171.528 40.9404L176.512 37.949M171.528 40.9404L166.543 43.9318M171.528 43.8523L176.512 40.8609M171.528 43.8523L166.543 46.8437M131.648 64.8715V67.7834M131.648 64.8715L136.633 61.8801M131.648 64.8715L126.664 67.8629M131.648 67.7834L136.633 64.792M131.648 67.7834L126.664 70.7748M53.633 73.0634V75.9753M53.633 73.0634C54.5483 74.1625 55.697 75.257 57.1096 76.3383M53.633 73.0634C52.7727 72.0304 52.1186 70.9933 51.6456 69.9595M53.633 75.9753C54.5483 77.0744 55.697 78.1689 57.1096 79.2502M53.633 75.9753C52.7727 74.9423 52.1186 73.9052 51.6456 72.8714M89.0513 84.1522V87.0641M89.0513 84.1522C91.2926 83.9009 93.4621 83.5227 95.5304 83.0555M89.0513 84.1522C86.7205 84.4137 84.3122 84.538 81.8596 84.4826M89.0513 87.0641C91.2926 86.8128 93.4621 86.4346 95.5304 85.9674M89.0513 87.0641C86.7205 87.3256 84.3122 87.4499 81.8596 87.3945M121.679 70.8543V73.7662M121.679 70.8543L126.664 67.8629M121.679 70.8543L116.694 73.8457M121.679 73.7662L126.664 70.7748M121.679 73.7662L116.694 76.7576M141.618 58.8887V61.8006M141.618 58.8887L146.603 55.8973M141.618 58.8887L136.633 61.8801M141.618 61.8006L146.603 58.8092M141.618 61.8006L136.633 64.792M161.558 46.9232V49.8351M161.558 46.9232L166.543 43.9318M161.558 46.9232L156.573 49.9146M161.558 49.8351L166.543 46.8437M161.558 49.8351L156.573 52.8265M181.497 34.9576V37.8695M181.497 34.9576L186.482 31.9662M181.497 34.9576L176.512 37.949M181.497 37.8695L186.482 34.8782M181.497 37.8695L176.512 40.8609M186.482 31.9662L191.467 28.9749V31.8868L186.482 34.8782M186.482 31.9662V34.8782M176.512 37.949V40.8609M166.543 43.9318V46.8437M156.573 49.9146V52.8265M146.603 55.8973V58.8092M136.633 61.8801V64.792M126.664 67.8629V70.7748M116.694 73.8457V76.7576M101.383 81.431V84.3429M101.383 81.431C103.283 80.8032 105.044 80.1204 106.631 79.4245M101.383 81.431C99.5523 82.036 97.5917 82.5899 95.5304 83.0555M101.383 84.3429C103.283 83.715 105.044 83.0323 106.631 82.3364M101.383 84.3429C99.5523 84.9479 97.5917 85.5018 95.5304 85.9674M106.631 79.4245V82.3364M95.5304 83.0555V85.9674M75.2293 83.8781V86.79M75.2293 83.8781C77.4589 84.2419 79.6768 84.4334 81.8596 84.4826M75.2293 83.8781C72.7061 83.4665 70.1679 82.8342 67.6488 81.9379M75.2293 86.79C77.4589 87.1538 79.6768 87.3453 81.8596 87.3945M75.2293 86.79C72.7061 86.3784 70.1679 85.7461 67.6488 84.8498M81.8596 84.4826V87.3945M67.6488 81.9379V84.8498M57.1096 76.3383V79.2502M51.6456 69.9595C50.9529 68.4457 50.6482 66.9388 50.6521 65.4613L50.6522 68.4417C50.6577 69.8973 50.9636 71.381 51.6456 72.8714M51.6456 69.9595V72.8714" stroke="black" stroke-width="0.15"/>
</svg>
