<svg width="460" height="270" viewBox="0 0 460 270" fill="none" xmlns="http://www.w3.org/2000/svg">
<g clip-path="url(#clip0_520_18370)">
<rect width="460" height="270" fill="white"/>
<path d="M211.548 214.803L111 156.903L248.383 74.4792L349 132.337L211.548 214.803Z" fill="#CCCCCC" stroke="black" stroke-width="0.0581339"/>
<path d="M211.548 265.487L111 207.587V194.916L211.548 252.817V265.487Z" fill="#858585" stroke="black" stroke-width="0.0581339"/>
<path d="M111 182.245L211.548 240.145V252.816L111 194.915V182.245Z" fill="#909090" stroke="black" stroke-width="0.0581339"/>
<path d="M111 182.244L211.548 240.145V227.474L111 169.573V182.244Z" fill="#999999" stroke="black" stroke-width="0.0581339"/>
<path d="M211.548 214.802L111 156.902V169.573L211.548 227.473V214.802Z" fill="#999999" stroke="black" stroke-width="0.0581339"/>
<path d="M348.997 132.337L211.545 214.804V227.474L348.997 145.008V132.337Z" fill="#999999" stroke="black" stroke-width="0.0581339"/>
<path d="M348.997 183.02L211.545 265.486V252.816L348.997 170.349V183.02Z" fill="#858585" stroke="black" stroke-width="0.0581339"/>
<path d="M348.997 157.68L211.545 240.146V252.817L348.997 170.351V157.68Z" fill="#909090" stroke="black" stroke-width="0.0581339"/>
<path d="M348.997 157.677L211.545 240.144V227.473L348.997 145.007V157.677Z" fill="#999999" stroke="black" stroke-width="0.0581339"/>
<path d="M286.838 96.0481L286.447 95.8278V105.413V106.506L287.23 106.946V105.854V96.2684L286.838 96.0481Z" fill="#E0E0E0"/>
<path d="M289.603 105.854V96.2684L290.404 95.8278V104.172V105.413V106.506L289.603 106.946V105.854Z" fill="#E0E0E0"/>
<path d="M286.447 95.8278L286.838 96.0481L287.23 96.2684V105.854V106.946L286.447 106.506V105.413V95.8278ZM286.447 95.8278L286.474 95.813M290.431 104.185L290.404 104.172M290.404 104.172V95.8278L289.603 96.2684V105.854V106.946L290.404 106.506V105.413V104.172Z" stroke="black" stroke-width="0.0581339"/>
<path d="M286.838 96.0486L286.447 95.8283L286.474 95.8135V94.5065L287.275 94.0659L288.448 94.7268L288.848 94.5065L289.648 94.0659L290.431 94.5065L289.23 95.1674L290.404 95.8283L289.603 96.2689L288.43 95.608L287.23 96.2689L286.838 96.0486Z" fill="#CCCCCC"/>
<path d="M286.474 94.5065L287.648 95.1674L287.248 95.3877L286.474 95.8135M286.474 94.5065L287.275 94.0659L288.448 94.7268L288.848 94.5065L289.648 94.0659L290.431 94.5065L289.23 95.1674L290.404 95.8283L289.603 96.2689L288.43 95.608L287.23 96.2689L286.838 96.0486L286.447 95.8283L286.474 95.8135M286.474 94.5065V95.8135" stroke="black" stroke-width="0.0581339"/>
<path d="M287.251 95.3883L287.651 95.168L286.478 94.5071V95.814L287.251 95.3883Z" fill="#A3A3A3" stroke="black" stroke-width="0.0581339"/>
<path d="M290.428 104.186V94.5071L289.228 95.168L290.401 95.8289V104.173L290.428 104.186Z" fill="#B8B8B8" stroke="black" stroke-width="0.0581339"/>
<path d="M289.606 105.854V96.2686L288.432 95.6077V105.193L289.606 105.854Z" fill="#A3A3A3" stroke="black" stroke-width="0.0581339"/>
<path d="M287.23 105.854V96.2686L288.431 95.6077V105.193L287.23 105.854Z" fill="#B8B8B8" stroke="black" stroke-width="0.0581339"/>
<path d="M288.406 111.118V106.515L289.607 105.854V106.946L290.407 106.506V105.413L291.607 104.752L293.298 108.421L288.406 111.118Z" fill="#B8B8B8" stroke="black" stroke-width="0.0581339"/>
<path d="M283.476 108.421L288.404 111.118V106.515L287.23 105.854V106.946L286.448 106.506V105.413L285.275 104.752L283.476 108.421Z" fill="#A3A3A3" stroke="black" stroke-width="0.0581339"/>
<path d="M287.231 105.854L288.404 106.515L289.605 105.854L288.431 105.193L287.231 105.854Z" fill="#CCCCCC"/>
<path d="M285.275 104.753L286.449 105.414V104.173L286.058 104.366L285.275 104.753Z" fill="#CCCCCC"/>
<path d="M291.606 104.753L290.432 104.186L290.405 104.173V105.414L291.606 104.753Z" fill="#CCCCCC"/>
<path d="M287.231 105.854L288.404 106.515L289.605 105.854L288.431 105.193L287.231 105.854Z" stroke="black" stroke-width="0.0581339"/>
<path d="M285.275 104.753L286.449 105.414V104.173L286.058 104.366L285.275 104.753Z" stroke="black" stroke-width="0.0581339"/>
<path d="M291.606 104.753L290.432 104.186L290.405 104.173V105.414L291.606 104.753Z" stroke="black" stroke-width="0.0581339"/>
<path d="M271.68 103.091L270.888 102.659L287.649 93.2717L288.44 93.7033L271.68 103.091Z" fill="#7A7A7A" stroke="black" stroke-width="0.0581339"/>
<path d="M271.68 105.032L270.888 104.6V102.622L271.68 103.053V105.032Z" fill="#666666" stroke="black" stroke-width="0.0581339"/>
<path d="M288.441 95.6803L271.68 105.064V103.085L288.441 93.7021V95.6803Z" fill="#525252" stroke="black" stroke-width="0.0581339"/>
<path d="M269.291 105.934L268.9 105.714V115.299V116.392L269.682 116.832V115.74V106.154L269.291 105.934Z" fill="#E0E0E0"/>
<path d="M272.056 115.74V106.154L272.856 105.714V114.058V115.299V116.392L272.056 116.832V115.74Z" fill="#E0E0E0"/>
<path d="M268.9 105.714L269.291 105.934L269.682 106.154V115.74V116.832L268.9 116.392V115.299V105.714ZM268.9 105.714L268.927 105.699M272.883 114.071L272.856 114.058M272.856 114.058V105.714L272.056 106.154V115.74V116.832L272.856 116.392V115.299V114.058Z" stroke="black" stroke-width="0.0581339"/>
<path d="M269.291 105.935L268.9 105.714L268.927 105.699V104.393L269.727 103.952L270.9 104.613L271.3 104.393L272.101 103.952L272.883 104.393L271.683 105.053L272.856 105.714L272.056 106.155L270.882 105.494L269.682 106.155L269.291 105.935Z" fill="#CCCCCC"/>
<path d="M268.927 104.393L270.1 105.053L269.7 105.274L268.927 105.699M268.927 104.393L269.727 103.952L270.9 104.613L271.3 104.393L272.101 103.952L272.883 104.393L271.683 105.053L272.856 105.714L272.056 106.155L270.882 105.494L269.682 106.155L269.291 105.935L268.9 105.714L268.927 105.699M268.927 104.393V105.699" stroke="black" stroke-width="0.0581339"/>
<path d="M269.703 105.274L270.103 105.054L268.93 104.393V105.7L269.703 105.274Z" fill="#A3A3A3" stroke="black" stroke-width="0.0581339"/>
<path d="M272.881 114.072V104.393L271.68 105.054L272.854 105.715V114.059L272.881 114.072Z" fill="#B8B8B8" stroke="black" stroke-width="0.0581339"/>
<path d="M272.058 115.74V106.155L270.885 105.494V115.079L272.058 115.74Z" fill="#A3A3A3" stroke="black" stroke-width="0.0581339"/>
<path d="M269.682 115.74V106.155L270.883 105.494V115.079L269.682 115.74Z" fill="#B8B8B8" stroke="black" stroke-width="0.0581339"/>
<path d="M270.859 121.004V116.401L272.059 115.74V116.832L272.859 116.392V115.299L274.06 114.638L275.75 118.307L270.859 121.004Z" fill="#B8B8B8" stroke="black" stroke-width="0.0581339"/>
<path d="M265.928 118.307L270.856 121.004V116.401L269.683 115.74V116.832L268.9 116.392V115.299L267.727 114.638L265.928 118.307Z" fill="#A3A3A3" stroke="black" stroke-width="0.0581339"/>
<path d="M269.683 115.74L270.857 116.401L272.057 115.74L270.884 115.079L269.683 115.74Z" fill="#CCCCCC"/>
<path d="M267.728 114.639L268.901 115.3V114.059L268.51 114.252L267.728 114.639Z" fill="#CCCCCC"/>
<path d="M274.058 114.639L272.884 114.072L272.857 114.059V115.3L274.058 114.639Z" fill="#CCCCCC"/>
<path d="M269.683 115.74L270.857 116.401L272.057 115.74L270.884 115.079L269.683 115.74Z" stroke="black" stroke-width="0.0581339"/>
<path d="M267.728 114.639L268.901 115.3V114.059L268.51 114.252L267.728 114.639Z" stroke="black" stroke-width="0.0581339"/>
<path d="M274.058 114.639L272.884 114.072L272.857 114.059V115.3L274.058 114.639Z" stroke="black" stroke-width="0.0581339"/>
<path d="M283.893 114.427L283.502 114.207V123.792V124.884L284.285 125.325V124.232V114.647L283.893 114.427Z" fill="#E0E0E0"/>
<path d="M286.658 124.232V114.647L287.459 114.207V122.551V123.792V124.884L286.658 125.325V124.232Z" fill="#E0E0E0"/>
<path d="M283.502 114.207L283.893 114.427L284.285 114.647V124.232V125.325L283.502 124.884V123.792V114.207ZM283.502 114.207L283.529 114.192M287.486 122.564L287.459 122.551M287.459 122.551V114.207L286.658 114.647V124.232V125.325L287.459 124.884V123.792V122.551Z" stroke="black" stroke-width="0.0581339"/>
<path d="M283.893 114.427L283.502 114.207L283.529 114.192V112.885L284.33 112.445L285.503 113.105L285.903 112.885L286.703 112.445L287.486 112.885L286.285 113.546L287.459 114.207L286.658 114.648L285.485 113.987L284.285 114.648L283.893 114.427Z" fill="#CCCCCC"/>
<path d="M283.529 112.885L284.703 113.546L284.303 113.766L283.529 114.192M283.529 112.885L284.33 112.445L285.503 113.105L285.903 112.885L286.703 112.445L287.486 112.885L286.285 113.546L287.459 114.207L286.658 114.648L285.485 113.987L284.285 114.648L283.893 114.427L283.502 114.207L283.529 114.192M283.529 112.885V114.192" stroke="black" stroke-width="0.0581339"/>
<path d="M284.306 113.767L284.706 113.547L283.533 112.886V114.193L284.306 113.767Z" fill="#A3A3A3" stroke="black" stroke-width="0.0581339"/>
<path d="M287.483 122.565V112.886L286.283 113.547L287.457 114.208V122.552L287.483 122.565Z" fill="#B8B8B8" stroke="black" stroke-width="0.0581339"/>
<path d="M286.661 124.233V114.647L285.487 113.986V123.572L286.661 124.233Z" fill="#A3A3A3" stroke="black" stroke-width="0.0581339"/>
<path d="M284.285 124.233V114.647L285.486 113.986V123.572L284.285 124.233Z" fill="#B8B8B8" stroke="black" stroke-width="0.0581339"/>
<path d="M285.461 129.497V124.893L286.662 124.232V125.325L287.462 124.884V123.792L288.663 123.131L290.353 126.8L285.461 129.497Z" fill="#B8B8B8" stroke="black" stroke-width="0.0581339"/>
<path d="M280.531 126.8L285.459 129.497V124.893L284.285 124.232V125.325L283.503 124.884V123.792L282.33 123.131L280.531 126.8Z" fill="#A3A3A3" stroke="black" stroke-width="0.0581339"/>
<path d="M284.286 124.233L285.459 124.894L286.66 124.233L285.486 123.572L284.286 124.233Z" fill="#CCCCCC"/>
<path d="M282.33 123.131L283.504 123.792V122.552L283.113 122.745L282.33 123.131Z" fill="#CCCCCC"/>
<path d="M288.661 123.131L287.487 122.565L287.46 122.552V123.792L288.661 123.131Z" fill="#CCCCCC"/>
<path d="M284.286 124.233L285.459 124.894L286.66 124.233L285.486 123.572L284.286 124.233Z" stroke="black" stroke-width="0.0581339"/>
<path d="M282.33 123.131L283.504 123.792V122.552L283.113 122.745L282.33 123.131Z" stroke="black" stroke-width="0.0581339"/>
<path d="M288.661 123.131L287.487 122.565L287.46 122.552V123.792L288.661 123.131Z" stroke="black" stroke-width="0.0581339"/>
<path d="M255.046 97.8111L254.654 97.5908V107.176V108.269L255.437 108.709V107.617V98.0314L255.046 97.8111Z" fill="#E0E0E0"/>
<path d="M257.811 107.617V98.0314L258.611 97.5908V105.935V107.176V108.269L257.811 108.709V107.617Z" fill="#E0E0E0"/>
<path d="M254.654 97.5908L255.046 97.8111L255.437 98.0314V107.617V108.709L254.654 108.269V107.176V97.5908ZM254.654 97.5908L254.681 97.5759M258.638 105.948L258.611 105.935M258.611 105.935V97.5908L257.811 98.0314V107.617V108.709L258.611 108.269V107.176V105.935Z" stroke="black" stroke-width="0.0581339"/>
<path d="M255.046 97.8116L254.654 97.5913L254.681 97.5764V96.2695L255.482 95.8289L256.655 96.4898L257.055 96.2695L257.856 95.8289L258.638 96.2695L257.437 96.9304L258.611 97.5913L257.811 98.0319L256.637 97.371L255.437 98.0319L255.046 97.8116Z" fill="#CCCCCC"/>
<path d="M254.681 96.2695L255.855 96.9304L255.455 97.1507L254.681 97.5764M254.681 96.2695L255.482 95.8289L256.655 96.4898L257.055 96.2695L257.856 95.8289L258.638 96.2695L257.437 96.9304L258.611 97.5913L257.811 98.0319L256.637 97.371L255.437 98.0319L255.046 97.8116L254.654 97.5913L254.681 97.5764M254.681 96.2695V97.5764" stroke="black" stroke-width="0.0581339"/>
<path d="M255.458 97.1512L255.858 96.9309L254.685 96.27V97.577L255.458 97.1512Z" fill="#A3A3A3" stroke="black" stroke-width="0.0581339"/>
<path d="M258.636 105.949V96.27L257.435 96.9309L258.609 97.5918V105.936L258.636 105.949Z" fill="#B8B8B8" stroke="black" stroke-width="0.0581339"/>
<path d="M257.813 107.617V98.0315L256.64 97.3706V106.956L257.813 107.617Z" fill="#A3A3A3" stroke="black" stroke-width="0.0581339"/>
<path d="M255.437 107.617V98.0315L256.638 97.3706V106.956L255.437 107.617Z" fill="#B8B8B8" stroke="black" stroke-width="0.0581339"/>
<path d="M256.614 112.881V108.278L257.814 107.617V108.709L258.614 108.269V107.176L259.815 106.515L261.505 110.184L256.614 112.881Z" fill="#B8B8B8" stroke="black" stroke-width="0.0581339"/>
<path d="M251.683 110.184L256.611 112.881V108.278L255.437 107.617V108.709L254.655 108.269V107.176L253.482 106.515L251.683 110.184Z" fill="#A3A3A3" stroke="black" stroke-width="0.0581339"/>
<path d="M255.438 107.617L256.612 108.278L257.812 107.617L256.639 106.956L255.438 107.617Z" fill="#CCCCCC"/>
<path d="M253.482 106.516L254.656 107.177V105.936L254.265 106.129L253.482 106.516Z" fill="#CCCCCC"/>
<path d="M259.813 106.516L258.639 105.949L258.612 105.936V107.177L259.813 106.516Z" fill="#CCCCCC"/>
<path d="M255.438 107.617L256.612 108.278L257.812 107.617L256.639 106.956L255.438 107.617Z" stroke="black" stroke-width="0.0581339"/>
<path d="M253.482 106.516L254.656 107.177V105.936L254.265 106.129L253.482 106.516Z" stroke="black" stroke-width="0.0581339"/>
<path d="M259.813 106.516L258.639 105.949L258.612 105.936V107.177L259.813 106.516Z" stroke="black" stroke-width="0.0581339"/>
<path d="M255.494 93.9207L254.696 94.3523L286.642 112.732L287.469 112.3L255.494 93.9207Z" fill="#7A7A7A" stroke="black" stroke-width="0.0581339"/>
<path d="M287.469 114.207L286.642 114.639V112.732L287.469 112.301V114.207Z" fill="#525252" stroke="black" stroke-width="0.0581339"/>
<path d="M254.696 96.2573V94.3511L286.642 112.73V114.637L254.696 96.2573Z" fill="#666666" stroke="black" stroke-width="0.0581339"/>
<path d="M261.392 124.493L260.6 124.061L284.699 111.616L285.49 112.048L261.392 124.493Z" fill="#7A7A7A" stroke="black" stroke-width="0.0581339"/>
<path d="M261.392 126.471L260.6 126.039V124.061L261.392 124.492V126.471Z" fill="#666666" stroke="black" stroke-width="0.0581339"/>
<path d="M285.49 114.025L261.392 126.47V124.492L285.49 112.047V114.025Z" fill="#525252" stroke="black" stroke-width="0.0581339"/>
<path d="M247.151 116.366L246.36 115.935L270.099 103.094L270.89 103.526L247.151 116.366Z" fill="#7A7A7A" stroke="black" stroke-width="0.0581339"/>
<path d="M247.151 118.346L246.36 117.915V115.937L247.151 116.368V118.346Z" fill="#666666" stroke="black" stroke-width="0.0581339"/>
<path d="M270.89 105.503L247.151 118.343V116.365L270.89 103.525V105.503Z" fill="#525252" stroke="black" stroke-width="0.0581339"/>
<path d="M232.761 108.057L231.97 107.625L255.924 94.9646L256.716 95.3962L232.761 108.057Z" fill="#7A7A7A" stroke="black" stroke-width="0.0581339"/>
<path d="M232.761 110.035L231.97 109.603V107.625L232.761 108.057V110.035Z" fill="#666666" stroke="black" stroke-width="0.0581339"/>
<path d="M256.68 97.3732L232.762 110.034V108.056L256.68 95.395V97.3732Z" fill="#525252" stroke="black" stroke-width="0.0581339"/>
<path d="M173.837 160.858L173.446 160.637V170.223V171.315L174.228 171.756V170.663V161.078L173.837 160.858Z" fill="#E0E0E0"/>
<path d="M176.602 170.663V161.078L177.402 160.637V168.982V170.223V171.315L176.602 171.756V170.663Z" fill="#E0E0E0"/>
<path d="M173.446 160.637L173.837 160.858L174.228 161.078V170.663V171.756L173.446 171.315V170.223V160.637ZM173.446 160.637L173.473 160.623M177.429 168.995L177.402 168.982M177.402 168.982V160.637L176.602 161.078V170.663V171.756L177.402 171.315V170.223V168.982Z" stroke="black" stroke-width="0.0581339"/>
<path d="M173.837 160.858L173.446 160.638L173.473 160.623V159.316L174.273 158.875L175.447 159.536L175.847 159.316L176.647 158.875L177.429 159.316L176.229 159.977L177.402 160.638L176.602 161.078L175.429 160.418L174.228 161.078L173.837 160.858Z" fill="#CCCCCC"/>
<path d="M173.473 159.316L174.646 159.977L174.246 160.197L173.473 160.623M173.473 159.316L174.273 158.875L175.447 159.536L175.847 159.316L176.647 158.875L177.429 159.316L176.229 159.977L177.402 160.638L176.602 161.078L175.429 160.418L174.228 161.078L173.837 160.858L173.446 160.638L173.473 160.623M173.473 159.316V160.623" stroke="black" stroke-width="0.0581339"/>
<path d="M174.245 160.198L174.645 159.978L173.472 159.317V160.624L174.245 160.198Z" fill="#A3A3A3" stroke="black" stroke-width="0.0581339"/>
<path d="M177.423 168.996V159.317L176.223 159.978L177.396 160.638V168.983L177.423 168.996Z" fill="#B8B8B8" stroke="black" stroke-width="0.0581339"/>
<path d="M176.6 170.663V161.078L175.427 160.417V170.003L176.6 170.663Z" fill="#A3A3A3" stroke="black" stroke-width="0.0581339"/>
<path d="M174.225 170.663V161.078L175.425 160.417V170.003L174.225 170.663Z" fill="#B8B8B8" stroke="black" stroke-width="0.0581339"/>
<path d="M175.401 175.928V171.324L176.601 170.663V171.756L177.402 171.315V170.223L178.602 169.562L180.292 173.23L175.401 175.928Z" fill="#B8B8B8" stroke="black" stroke-width="0.0581339"/>
<path d="M170.471 173.23L175.398 175.928V171.324L174.225 170.663V171.756L173.443 171.315V170.223L172.269 169.562L170.471 173.23Z" fill="#A3A3A3" stroke="black" stroke-width="0.0581339"/>
<path d="M174.225 170.664L175.399 171.325L176.599 170.664L175.426 170.003L174.225 170.664Z" fill="#CCCCCC"/>
<path d="M172.27 169.562L173.443 170.223V168.982L173.052 169.176L172.27 169.562Z" fill="#CCCCCC"/>
<path d="M178.6 169.562L177.427 168.995L177.4 168.982V170.223L178.6 169.562Z" fill="#CCCCCC"/>
<path d="M174.225 170.664L175.399 171.325L176.599 170.664L175.426 170.003L174.225 170.664Z" stroke="black" stroke-width="0.0581339"/>
<path d="M172.27 169.562L173.443 170.223V168.982L173.052 169.176L172.27 169.562Z" stroke="black" stroke-width="0.0581339"/>
<path d="M178.6 169.562L177.427 168.995L177.4 168.982V170.223L178.6 169.562Z" stroke="black" stroke-width="0.0581339"/>
<path d="M188.437 169.348L188.045 169.128V178.713V179.806L188.828 180.247V179.154V169.569L188.437 169.348Z" fill="#E0E0E0"/>
<path d="M191.202 179.154V169.569L192.002 169.128V177.473V178.713V179.806L191.202 180.247V179.154Z" fill="#E0E0E0"/>
<path d="M188.045 169.128L188.437 169.348L188.828 169.569V179.154V180.247L188.045 179.806V178.713V169.128ZM188.045 169.128L188.072 169.113M192.029 177.486L192.002 177.473M192.002 177.473V169.128L191.202 169.569V179.154V180.247L192.002 179.806V178.713V177.473Z" stroke="black" stroke-width="0.0581339"/>
<path d="M188.437 169.349L188.045 169.129L188.072 169.114V167.807L188.873 167.366L190.046 168.027L190.446 167.807L191.246 167.366L192.029 167.807L190.828 168.468L192.002 169.129L191.202 169.569L190.028 168.908L188.828 169.569L188.437 169.349Z" fill="#CCCCCC"/>
<path d="M188.072 167.807L189.246 168.468L188.846 168.688L188.072 169.114M188.072 167.807L188.873 167.366L190.046 168.027L190.446 167.807L191.246 167.366L192.029 167.807L190.828 168.468L192.002 169.129L191.202 169.569L190.028 168.908L188.828 169.569L188.437 169.349L188.045 169.129L188.072 169.114M188.072 167.807V169.114" stroke="black" stroke-width="0.0581339"/>
<path d="M188.849 168.689L189.249 168.468L188.076 167.807V169.114L188.849 168.689Z" fill="#A3A3A3" stroke="black" stroke-width="0.0581339"/>
<path d="M192.027 177.487V167.807L190.826 168.468L192 169.129V177.474L192.027 177.487Z" fill="#B8B8B8" stroke="black" stroke-width="0.0581339"/>
<path d="M191.204 179.154V169.569L190.031 168.908V178.493L191.204 179.154Z" fill="#A3A3A3" stroke="black" stroke-width="0.0581339"/>
<path d="M188.828 179.154V169.569L190.029 168.908V178.493L188.828 179.154Z" fill="#B8B8B8" stroke="black" stroke-width="0.0581339"/>
<path d="M190.005 184.419V179.815L191.205 179.154V180.246L192.005 179.806V178.713L193.206 178.052L194.896 181.721L190.005 184.419Z" fill="#B8B8B8" stroke="black" stroke-width="0.0581339"/>
<path d="M185.074 181.721L190.002 184.419V179.815L188.828 179.154V180.246L188.046 179.806V178.713L186.873 178.052L185.074 181.721Z" fill="#A3A3A3" stroke="black" stroke-width="0.0581339"/>
<path d="M188.829 179.155L190.003 179.816L191.203 179.155L190.03 178.494L188.829 179.155Z" fill="#CCCCCC"/>
<path d="M186.873 178.053L188.047 178.714V177.473L187.656 177.666L186.873 178.053Z" fill="#CCCCCC"/>
<path d="M193.204 178.053L192.03 177.486L192.003 177.473V178.714L193.204 178.053Z" fill="#CCCCCC"/>
<path d="M188.829 179.155L190.003 179.816L191.203 179.155L190.03 178.494L188.829 179.155Z" stroke="black" stroke-width="0.0581339"/>
<path d="M186.873 178.053L188.047 178.714V177.473L187.656 177.666L186.873 178.053Z" stroke="black" stroke-width="0.0581339"/>
<path d="M193.204 178.053L192.03 177.486L192.003 177.473V178.714L193.204 178.053Z" stroke="black" stroke-width="0.0581339"/>
<path d="M159.593 152.73L159.201 152.51V162.095V163.188L159.984 163.628V162.536V152.95L159.593 152.73Z" fill="#E0E0E0"/>
<path d="M162.358 162.536V152.95L163.158 152.51V160.854V162.095V163.188L162.358 163.628V162.536Z" fill="#E0E0E0"/>
<path d="M159.201 152.51L159.593 152.73L159.984 152.95V162.536V163.628L159.201 163.188V162.095V152.51ZM159.201 152.51L159.228 152.495M163.185 160.867L163.158 160.854M163.158 160.854V152.51L162.358 152.95V162.536V163.628L163.158 163.188V162.095V160.854Z" stroke="black" stroke-width="0.0581339"/>
<path d="M159.593 152.731L159.201 152.51L159.228 152.495V151.188L160.029 150.748L161.202 151.409L161.602 151.188L162.403 150.748L163.185 151.188L161.984 151.849L163.158 152.51L162.358 152.951L161.184 152.29L159.984 152.951L159.593 152.731Z" fill="#CCCCCC"/>
<path d="M159.228 151.188L160.402 151.849L160.002 152.07L159.228 152.495M159.228 151.188L160.029 150.748L161.202 151.409L161.602 151.188L162.403 150.748L163.185 151.188L161.984 151.849L163.158 152.51L162.358 152.951L161.184 152.29L159.984 152.951L159.593 152.731L159.201 152.51L159.228 152.495M159.228 151.188V152.495" stroke="black" stroke-width="0.0581339"/>
<path d="M160.005 152.07L160.405 151.85L159.232 151.189V152.496L160.005 152.07Z" fill="#A3A3A3" stroke="black" stroke-width="0.0581339"/>
<path d="M163.183 160.868V151.189L161.982 151.85L163.156 152.511V160.855L163.183 160.868Z" fill="#B8B8B8" stroke="black" stroke-width="0.0581339"/>
<path d="M162.36 162.536V152.95L161.187 152.29V161.875L162.36 162.536Z" fill="#A3A3A3" stroke="black" stroke-width="0.0581339"/>
<path d="M159.984 162.536V152.95L161.185 152.29V161.875L159.984 162.536Z" fill="#B8B8B8" stroke="black" stroke-width="0.0581339"/>
<path d="M161.161 167.8V163.196L162.361 162.536V163.628L163.161 163.187V162.095L164.362 161.434L166.052 165.103L161.161 167.8Z" fill="#B8B8B8" stroke="black" stroke-width="0.0581339"/>
<path d="M156.23 165.103L161.158 167.8V163.196L159.984 162.536V163.628L159.202 163.187V162.095L158.029 161.434L156.23 165.103Z" fill="#A3A3A3" stroke="black" stroke-width="0.0581339"/>
<path d="M159.985 162.536L161.159 163.197L162.359 162.536L161.186 161.875L159.985 162.536Z" fill="#CCCCCC"/>
<path d="M158.029 161.435L159.203 162.096V160.855L158.812 161.048L158.029 161.435Z" fill="#CCCCCC"/>
<path d="M164.36 161.435L163.186 160.868L163.159 160.855V162.096L164.36 161.435Z" fill="#CCCCCC"/>
<path d="M159.985 162.536L161.159 163.197L162.359 162.536L161.186 161.875L159.985 162.536Z" stroke="black" stroke-width="0.0581339"/>
<path d="M158.029 161.435L159.203 162.096V160.855L158.812 161.048L158.029 161.435Z" stroke="black" stroke-width="0.0581339"/>
<path d="M164.36 161.435L163.186 160.868L163.159 160.855V162.096L164.36 161.435Z" stroke="black" stroke-width="0.0581339"/>
<path d="M170.306 134.391L169.915 134.17V143.756V144.848L170.697 145.289V144.196V134.611L170.306 134.391Z" fill="#E0E0E0"/>
<path d="M173.071 144.196V134.611L173.871 134.17V142.515V143.756V144.848L173.071 145.289V144.196Z" fill="#E0E0E0"/>
<path d="M169.915 134.17L170.306 134.391L170.697 134.611V144.196V145.289L169.915 144.848V143.756V134.17ZM169.915 134.17L169.942 134.156M173.898 142.528L173.871 142.515M173.871 142.515V134.17L173.071 134.611V144.196V145.289L173.871 144.848V143.756V142.515Z" stroke="black" stroke-width="0.0581339"/>
<path d="M170.306 134.391L169.915 134.171L169.942 134.156V132.849L170.742 132.408L171.916 133.069L172.316 132.849L173.116 132.408L173.898 132.849L172.698 133.51L173.871 134.171L173.071 134.611L171.898 133.951L170.697 134.611L170.306 134.391Z" fill="#CCCCCC"/>
<path d="M169.942 132.849L171.115 133.51L170.715 133.73L169.942 134.156M169.942 132.849L170.742 132.408L171.916 133.069L172.316 132.849L173.116 132.408L173.898 132.849L172.698 133.51L173.871 134.171L173.071 134.611L171.898 133.951L170.697 134.611L170.306 134.391L169.915 134.171L169.942 134.156M169.942 132.849V134.156" stroke="black" stroke-width="0.0581339"/>
<path d="M170.719 133.731L171.119 133.511L169.945 132.85V134.157L170.719 133.731Z" fill="#A3A3A3" stroke="black" stroke-width="0.0581339"/>
<path d="M173.896 142.529V132.85L172.696 133.511L173.869 134.171V142.516L173.896 142.529Z" fill="#B8B8B8" stroke="black" stroke-width="0.0581339"/>
<path d="M173.074 144.196V134.611L171.9 133.95V143.535L173.074 144.196Z" fill="#A3A3A3" stroke="black" stroke-width="0.0581339"/>
<path d="M170.698 144.196V134.611L171.898 133.95V143.535L170.698 144.196Z" fill="#B8B8B8" stroke="black" stroke-width="0.0581339"/>
<path d="M171.874 149.461V144.857L173.075 144.196V145.289L173.875 144.848V143.756L175.075 143.095L176.766 146.763L171.874 149.461Z" fill="#B8B8B8" stroke="black" stroke-width="0.0581339"/>
<path d="M166.944 146.763L171.871 149.461V144.857L170.698 144.196V145.289L169.916 144.848V143.756L168.742 143.095L166.944 146.763Z" fill="#A3A3A3" stroke="black" stroke-width="0.0581339"/>
<path d="M170.699 144.197L171.872 144.858L173.073 144.197L171.899 143.536L170.699 144.197Z" fill="#CCCCCC"/>
<path d="M168.743 143.095L169.916 143.756V142.515L169.525 142.709L168.743 143.095Z" fill="#CCCCCC"/>
<path d="M175.073 143.095L173.9 142.528L173.873 142.515V143.756L175.073 143.095Z" fill="#CCCCCC"/>
<path d="M170.699 144.197L171.872 144.858L173.073 144.197L171.899 143.536L170.699 144.197Z" stroke="black" stroke-width="0.0581339"/>
<path d="M168.743 143.095L169.916 143.756V142.515L169.525 142.709L168.743 143.095Z" stroke="black" stroke-width="0.0581339"/>
<path d="M175.073 143.095L173.9 142.528L173.873 142.515V143.756L175.073 143.095Z" stroke="black" stroke-width="0.0581339"/>
<path d="M180.875 140.506L180.484 140.285V149.871V150.963L181.266 151.404V150.311V140.726L180.875 140.506Z" fill="#E0E0E0"/>
<path d="M183.64 150.311V140.726L184.44 140.285V148.63V149.871V150.963L183.64 151.404V150.311Z" fill="#E0E0E0"/>
<path d="M180.484 140.285L180.875 140.506L181.266 140.726V150.311V151.404L180.484 150.963V149.871V140.285ZM180.484 140.285L180.511 140.271M184.467 148.643L184.44 148.63M184.44 148.63V140.285L183.64 140.726V150.311V151.404L184.44 150.963V149.871V148.63Z" stroke="black" stroke-width="0.0581339"/>
<path d="M180.875 140.506L180.484 140.286L180.511 140.271V138.964L181.311 138.523L182.485 139.184L182.885 138.964L183.685 138.523L184.467 138.964L183.267 139.625L184.44 140.286L183.64 140.726L182.467 140.066L181.266 140.726L180.875 140.506Z" fill="#CCCCCC"/>
<path d="M180.511 138.964L181.684 139.625L181.284 139.845L180.511 140.271M180.511 138.964L181.311 138.523L182.485 139.184L182.885 138.964L183.685 138.523L184.467 138.964L183.267 139.625L184.44 140.286L183.64 140.726L182.467 140.066L181.266 140.726L180.875 140.506L180.484 140.286L180.511 140.271M180.511 138.964V140.271" stroke="black" stroke-width="0.0581339"/>
<path d="M181.287 139.846L181.688 139.625L180.514 138.965V140.272L181.287 139.846Z" fill="#A3A3A3" stroke="black" stroke-width="0.0581339"/>
<path d="M184.465 148.644V138.965L183.265 139.625L184.438 140.286V148.631L184.465 148.644Z" fill="#B8B8B8" stroke="black" stroke-width="0.0581339"/>
<path d="M183.642 150.311V140.726L182.469 140.065V149.65L183.642 150.311Z" fill="#A3A3A3" stroke="black" stroke-width="0.0581339"/>
<path d="M181.267 150.311V140.726L182.467 140.065V149.65L181.267 150.311Z" fill="#B8B8B8" stroke="black" stroke-width="0.0581339"/>
<path d="M182.443 155.576V150.972L183.643 150.311V151.404L184.444 150.963V149.871L185.644 149.21L187.335 152.878L182.443 155.576Z" fill="#B8B8B8" stroke="black" stroke-width="0.0581339"/>
<path d="M177.513 152.878L182.44 155.576V150.972L181.267 150.311V151.404L180.485 150.963V149.871L179.311 149.21L177.513 152.878Z" fill="#A3A3A3" stroke="black" stroke-width="0.0581339"/>
<path d="M181.268 150.312L182.441 150.973L183.641 150.312L182.468 149.651L181.268 150.312Z" fill="#CCCCCC"/>
<path d="M179.312 149.21L180.485 149.871V148.63L180.094 148.824L179.312 149.21Z" fill="#CCCCCC"/>
<path d="M185.642 149.21L184.469 148.643L184.442 148.63V149.871L185.642 149.21Z" fill="#CCCCCC"/>
<path d="M181.268 150.312L182.441 150.973L183.641 150.312L182.468 149.651L181.268 150.312Z" stroke="black" stroke-width="0.0581339"/>
<path d="M179.312 149.21L180.485 149.871V148.63L180.094 148.824L179.312 149.21Z" stroke="black" stroke-width="0.0581339"/>
<path d="M185.642 149.21L184.469 148.643L184.442 148.63V149.871L185.642 149.21Z" stroke="black" stroke-width="0.0581339"/>
<path d="M195.27 148.776L194.879 148.556V158.141V159.234L195.661 159.674V158.582V148.996L195.27 148.776Z" fill="#E0E0E0"/>
<path d="M198.035 158.582V148.996L198.835 148.556V156.9V158.141V159.234L198.035 159.674V158.582Z" fill="#E0E0E0"/>
<path d="M194.879 148.556L195.27 148.776L195.661 148.996V158.582V159.674L194.879 159.234V158.141V148.556ZM194.879 148.556L194.906 148.541M198.862 156.913L198.835 156.9M198.835 156.9V148.556L198.035 148.996V158.582V159.674L198.835 159.234V158.141V156.9Z" stroke="black" stroke-width="0.0581339"/>
<path d="M195.27 148.777L194.879 148.556L194.906 148.541V147.235L195.706 146.794L196.879 147.455L197.279 147.235L198.08 146.794L198.862 147.235L197.662 147.895L198.835 148.556L198.035 148.997L196.861 148.336L195.661 148.997L195.27 148.777Z" fill="#CCCCCC"/>
<path d="M194.906 147.235L196.079 147.895L195.679 148.116L194.906 148.541M194.906 147.235L195.706 146.794L196.879 147.455L197.279 147.235L198.08 146.794L198.862 147.235L197.662 147.895L198.835 148.556L198.035 148.997L196.861 148.336L195.661 148.997L195.27 148.777L194.879 148.556L194.906 148.541M194.906 147.235V148.541" stroke="black" stroke-width="0.0581339"/>
<path d="M195.682 148.116L196.082 147.896L194.909 147.235V148.542L195.682 148.116Z" fill="#A3A3A3" stroke="black" stroke-width="0.0581339"/>
<path d="M198.86 156.914V147.235L197.659 147.896L198.833 148.557V156.901L198.86 156.914Z" fill="#B8B8B8" stroke="black" stroke-width="0.0581339"/>
<path d="M198.037 158.582V148.997L196.864 148.336V157.921L198.037 158.582Z" fill="#A3A3A3" stroke="black" stroke-width="0.0581339"/>
<path d="M195.661 158.582V148.997L196.862 148.336V157.921L195.661 158.582Z" fill="#B8B8B8" stroke="black" stroke-width="0.0581339"/>
<path d="M196.838 163.846V159.243L198.038 158.582V159.674L198.838 159.234V158.141L200.039 157.48L201.729 161.149L196.838 163.846Z" fill="#B8B8B8" stroke="black" stroke-width="0.0581339"/>
<path d="M191.907 161.149L196.835 163.846V159.243L195.662 158.582V159.674L194.879 159.234V158.141L193.706 157.48L191.907 161.149Z" fill="#A3A3A3" stroke="black" stroke-width="0.0581339"/>
<path d="M195.662 158.582L196.836 159.243L198.036 158.582L196.863 157.921L195.662 158.582Z" fill="#CCCCCC"/>
<path d="M193.707 157.481L194.88 158.142V156.901L194.489 157.094L193.707 157.481Z" fill="#CCCCCC"/>
<path d="M200.037 157.481L198.863 156.914L198.836 156.901V158.142L200.037 157.481Z" fill="#CCCCCC"/>
<path d="M195.662 158.582L196.836 159.243L198.036 158.582L196.863 157.921L195.662 158.582Z" stroke="black" stroke-width="0.0581339"/>
<path d="M193.707 157.481L194.88 158.142V156.901L194.489 157.094L193.707 157.481Z" stroke="black" stroke-width="0.0581339"/>
<path d="M200.037 157.481L198.863 156.914L198.836 156.901V158.142L200.037 157.481Z" stroke="black" stroke-width="0.0581339"/>
<path d="M209.505 156.906L209.114 156.686V166.271V167.364L209.896 167.804V166.712V157.127L209.505 156.906Z" fill="#E0E0E0"/>
<path d="M212.27 166.712V157.127L213.071 156.686V165.03V166.271V167.364L212.27 167.804V166.712Z" fill="#E0E0E0"/>
<path d="M209.114 156.686L209.505 156.906L209.896 157.127V166.712V167.804L209.114 167.364V166.271V156.686ZM209.114 156.686L209.141 156.671M213.098 165.043L213.071 165.03M213.071 165.03V156.686L212.27 157.127V166.712V167.804L213.071 167.364V166.271V165.03Z" stroke="black" stroke-width="0.0581339"/>
<path d="M209.505 156.907L209.114 156.686L209.141 156.672V155.365L209.941 154.924L211.115 155.585L211.515 155.365L212.315 154.924L213.098 155.365L211.897 156.026L213.071 156.686L212.27 157.127L211.097 156.466L209.896 157.127L209.505 156.907Z" fill="#CCCCCC"/>
<path d="M209.141 155.365L210.315 156.026L209.914 156.246L209.141 156.672M209.141 155.365L209.941 154.924L211.115 155.585L211.515 155.365L212.315 154.924L213.098 155.365L211.897 156.026L213.071 156.686L212.27 157.127L211.097 156.466L209.896 157.127L209.505 156.907L209.114 156.686L209.141 156.672M209.141 155.365V156.672" stroke="black" stroke-width="0.0581339"/>
<path d="M209.918 156.246L210.318 156.026L209.144 155.365V156.672L209.918 156.246Z" fill="#A3A3A3" stroke="black" stroke-width="0.0581339"/>
<path d="M213.095 165.044V155.365L211.895 156.026L213.068 156.687V165.031L213.095 165.044Z" fill="#B8B8B8" stroke="black" stroke-width="0.0581339"/>
<path d="M212.273 166.712V157.127L211.099 156.466V166.051L212.273 166.712Z" fill="#A3A3A3" stroke="black" stroke-width="0.0581339"/>
<path d="M209.897 166.712V157.127L211.097 156.466V166.051L209.897 166.712Z" fill="#B8B8B8" stroke="black" stroke-width="0.0581339"/>
<path d="M211.073 171.977V167.373L212.274 166.712V167.804L213.074 167.364V166.271L214.274 165.61L215.965 169.279L211.073 171.977Z" fill="#B8B8B8" stroke="black" stroke-width="0.0581339"/>
<path d="M206.143 169.279L211.071 171.977V167.373L209.897 166.712V167.804L209.115 167.364V166.271L207.941 165.61L206.143 169.279Z" fill="#A3A3A3" stroke="black" stroke-width="0.0581339"/>
<path d="M209.898 166.712L211.071 167.373L212.272 166.712L211.098 166.052L209.898 166.712Z" fill="#CCCCCC"/>
<path d="M207.942 165.611L209.116 166.272V165.031L208.724 165.224L207.942 165.611Z" fill="#CCCCCC"/>
<path d="M214.272 165.611L213.099 165.044L213.072 165.031V166.272L214.272 165.611Z" fill="#CCCCCC"/>
<path d="M209.898 166.712L211.071 167.373L212.272 166.712L211.098 166.052L209.898 166.712Z" stroke="black" stroke-width="0.0581339"/>
<path d="M207.942 165.611L209.116 166.272V165.031L208.724 165.224L207.942 165.611Z" stroke="black" stroke-width="0.0581339"/>
<path d="M214.272 165.611L213.099 165.044L213.072 165.031V166.272L214.272 165.611Z" stroke="black" stroke-width="0.0581339"/>
<path d="M220.452 163.307L220.061 163.087V172.672V173.764L220.843 174.205V173.113V163.527L220.452 163.307Z" fill="#E0E0E0"/>
<path d="M223.217 173.113V163.527L224.017 163.087V171.431V172.672V173.764L223.217 174.205V173.113Z" fill="#E0E0E0"/>
<path d="M220.061 163.087L220.452 163.307L220.843 163.527V173.113V174.205L220.061 173.764V172.672V163.087ZM220.061 163.087L220.088 163.072M224.044 171.444L224.017 171.431M224.017 171.431V163.087L223.217 163.527V173.113V174.205L224.017 173.764V172.672V171.431Z" stroke="black" stroke-width="0.0581339"/>
<path d="M220.452 163.307L220.061 163.087L220.088 163.072V161.765L220.888 161.325L222.061 161.986L222.461 161.765L223.262 161.325L224.044 161.765L222.844 162.426L224.017 163.087L223.217 163.528L222.043 162.867L220.843 163.528L220.452 163.307Z" fill="#CCCCCC"/>
<path d="M220.088 161.765L221.261 162.426L220.861 162.647L220.088 163.072M220.088 161.765L220.888 161.325L222.061 161.986L222.461 161.765L223.262 161.325L224.044 161.765L222.844 162.426L224.017 163.087L223.217 163.528L222.043 162.867L220.843 163.528L220.452 163.307L220.061 163.087L220.088 163.072M220.088 161.765V163.072" stroke="black" stroke-width="0.0581339"/>
<path d="M220.864 162.647L221.264 162.427L220.091 161.766V163.073L220.864 162.647Z" fill="#A3A3A3" stroke="black" stroke-width="0.0581339"/>
<path d="M224.042 171.445V161.766L222.841 162.427L224.015 163.088V171.432L224.042 171.445Z" fill="#B8B8B8" stroke="black" stroke-width="0.0581339"/>
<path d="M223.219 173.113V163.527L222.046 162.866V172.452L223.219 173.113Z" fill="#A3A3A3" stroke="black" stroke-width="0.0581339"/>
<path d="M220.843 173.113V163.527L222.044 162.866V172.452L220.843 173.113Z" fill="#B8B8B8" stroke="black" stroke-width="0.0581339"/>
<path d="M222.02 178.377V173.773L223.22 173.112V174.205L224.02 173.764V172.672L225.221 172.011L226.911 175.68L222.02 178.377Z" fill="#B8B8B8" stroke="black" stroke-width="0.0581339"/>
<path d="M217.089 175.68L222.017 178.377V173.773L220.844 173.112V174.205L220.061 173.764V172.672L218.888 172.011L217.089 175.68Z" fill="#A3A3A3" stroke="black" stroke-width="0.0581339"/>
<path d="M220.844 173.113L222.018 173.774L223.218 173.113L222.045 172.452L220.844 173.113Z" fill="#CCCCCC"/>
<path d="M218.889 172.012L220.062 172.673V171.432L219.671 171.625L218.889 172.012Z" fill="#CCCCCC"/>
<path d="M225.219 172.012L224.045 171.445L224.018 171.432V172.673L225.219 172.012Z" fill="#CCCCCC"/>
<path d="M220.844 173.113L222.018 173.774L223.218 173.113L222.045 172.452L220.844 173.113Z" stroke="black" stroke-width="0.0581339"/>
<path d="M218.889 172.012L220.062 172.673V171.432L219.671 171.625L218.889 172.012Z" stroke="black" stroke-width="0.0581339"/>
<path d="M225.219 172.012L224.045 171.445L224.018 171.432V172.673L225.219 172.012Z" stroke="black" stroke-width="0.0581339"/>
<path d="M219.798 104.819L219.407 104.599V114.184V115.277L220.189 115.717V114.625V105.04L219.798 104.819Z" fill="#E0E0E0"/>
<path d="M222.563 114.625V105.04L223.363 104.599V112.943V114.184V115.277L222.563 115.717V114.625Z" fill="#E0E0E0"/>
<path d="M219.407 104.599L219.798 104.819L220.189 105.04V114.625V115.717L219.407 115.277V114.184V104.599ZM219.407 104.599L219.434 104.584M223.39 112.957L223.363 112.943M223.363 112.943V104.599L222.563 105.04V114.625V115.717L223.363 115.277V114.184V112.943Z" stroke="black" stroke-width="0.0581339"/>
<path d="M219.798 104.82L219.407 104.6L219.434 104.585V103.278L220.234 102.837L221.407 103.498L221.807 103.278L222.608 102.837L223.39 103.278L222.19 103.939L223.363 104.6L222.563 105.04L221.389 104.379L220.189 105.04L219.798 104.82Z" fill="#CCCCCC"/>
<path d="M219.434 103.278L220.607 103.939L220.207 104.159L219.434 104.585M219.434 103.278L220.234 102.837L221.407 103.498L221.807 103.278L222.608 102.837L223.39 103.278L222.19 103.939L223.363 104.6L222.563 105.04L221.389 104.379L220.189 105.04L219.798 104.82L219.407 104.6L219.434 104.585M219.434 103.278V104.585" stroke="black" stroke-width="0.0581339"/>
<path d="M220.21 104.16L220.61 103.939L219.437 103.278V104.585L220.21 104.16Z" fill="#A3A3A3" stroke="black" stroke-width="0.0581339"/>
<path d="M223.388 112.958V103.278L222.187 103.939L223.361 104.6V112.945L223.388 112.958Z" fill="#B8B8B8" stroke="black" stroke-width="0.0581339"/>
<path d="M222.565 114.625V105.04L221.392 104.379V113.964L222.565 114.625Z" fill="#A3A3A3" stroke="black" stroke-width="0.0581339"/>
<path d="M220.189 114.625V105.04L221.39 104.379V113.964L220.189 114.625Z" fill="#B8B8B8" stroke="black" stroke-width="0.0581339"/>
<path d="M221.366 119.89V115.286L222.566 114.625V115.717L223.366 115.277V114.184L224.567 113.523L226.257 117.192L221.366 119.89Z" fill="#B8B8B8" stroke="black" stroke-width="0.0581339"/>
<path d="M216.436 117.192L221.363 119.89V115.286L220.19 114.625V115.717L219.407 115.277V114.184L218.234 113.523L216.436 117.192Z" fill="#A3A3A3" stroke="black" stroke-width="0.0581339"/>
<path d="M220.19 114.626L221.364 115.286L222.564 114.626L221.391 113.965L220.19 114.626Z" fill="#CCCCCC"/>
<path d="M218.235 113.524L219.408 114.185V112.944L219.017 113.137L218.235 113.524Z" fill="#CCCCCC"/>
<path d="M224.565 113.524L223.391 112.957L223.364 112.944V114.185L224.565 113.524Z" fill="#CCCCCC"/>
<path d="M220.19 114.626L221.364 115.286L222.564 114.626L221.391 113.965L220.19 114.626Z" stroke="black" stroke-width="0.0581339"/>
<path d="M218.235 113.524L219.408 114.185V112.944L219.017 113.137L218.235 113.524Z" stroke="black" stroke-width="0.0581339"/>
<path d="M224.565 113.524L223.391 112.957L223.364 112.944V114.185L224.565 113.524Z" stroke="black" stroke-width="0.0581339"/>
<path d="M230.371 110.934L229.98 110.714V120.299V121.392L230.763 121.832V120.74V111.155L230.371 110.934Z" fill="#E0E0E0"/>
<path d="M233.136 120.74V111.155L233.937 110.714V119.058V120.299V121.392L233.136 121.832V120.74Z" fill="#E0E0E0"/>
<path d="M229.98 110.714L230.371 110.934L230.763 111.155V120.74V121.832L229.98 121.392V120.299V110.714ZM229.98 110.714L230.007 110.699M233.964 119.072L233.937 119.058M233.937 119.058V110.714L233.136 111.155V120.74V121.832L233.937 121.392V120.299V119.058Z" stroke="black" stroke-width="0.0581339"/>
<path d="M230.371 110.935L229.98 110.715L230.007 110.7V109.393L230.807 108.952L231.981 109.613L232.381 109.393L233.181 108.952L233.964 109.393L232.763 110.054L233.937 110.715L233.136 111.155L231.963 110.494L230.763 111.155L230.371 110.935Z" fill="#CCCCCC"/>
<path d="M230.007 109.393L231.181 110.054L230.78 110.274L230.007 110.7M230.007 109.393L230.807 108.952L231.981 109.613L232.381 109.393L233.181 108.952L233.964 109.393L232.763 110.054L233.937 110.715L233.136 111.155L231.963 110.494L230.763 111.155L230.371 110.935L229.98 110.715L230.007 110.7M230.007 109.393V110.7" stroke="black" stroke-width="0.0581339"/>
<path d="M230.784 110.275L231.184 110.054L230.01 109.393V110.7L230.784 110.275Z" fill="#A3A3A3" stroke="black" stroke-width="0.0581339"/>
<path d="M233.961 119.073V109.393L232.761 110.054L233.934 110.715V119.06L233.961 119.073Z" fill="#B8B8B8" stroke="black" stroke-width="0.0581339"/>
<path d="M233.139 120.74V111.155L231.965 110.494V120.079L233.139 120.74Z" fill="#A3A3A3" stroke="black" stroke-width="0.0581339"/>
<path d="M230.763 120.74V111.155L231.963 110.494V120.079L230.763 120.74Z" fill="#B8B8B8" stroke="black" stroke-width="0.0581339"/>
<path d="M231.939 126.005V121.401L233.14 120.74V121.832L233.94 121.392V120.299L235.14 119.638L236.831 123.307L231.939 126.005Z" fill="#B8B8B8" stroke="black" stroke-width="0.0581339"/>
<path d="M227.009 123.307L231.937 126.005V121.401L230.763 120.74V121.832L229.981 121.392V120.299L228.808 119.638L227.009 123.307Z" fill="#A3A3A3" stroke="black" stroke-width="0.0581339"/>
<path d="M230.764 120.741L231.937 121.401L233.138 120.741L231.964 120.08L230.764 120.741Z" fill="#CCCCCC"/>
<path d="M228.808 119.639L229.982 120.3V119.059L229.591 119.252L228.808 119.639Z" fill="#CCCCCC"/>
<path d="M235.138 119.639L233.965 119.072L233.938 119.059V120.3L235.138 119.639Z" fill="#CCCCCC"/>
<path d="M230.764 120.741L231.937 121.401L233.138 120.741L231.964 120.08L230.764 120.741Z" stroke="black" stroke-width="0.0581339"/>
<path d="M228.808 119.639L229.982 120.3V119.059L229.591 119.252L228.808 119.639Z" stroke="black" stroke-width="0.0581339"/>
<path d="M235.138 119.639L233.965 119.072L233.938 119.059V120.3L235.138 119.639Z" stroke="black" stroke-width="0.0581339"/>
<path d="M244.761 119.207L244.37 118.987V128.572V129.664L245.152 130.105V129.012V119.427L244.761 119.207Z" fill="#E0E0E0"/>
<path d="M247.526 129.012V119.427L248.327 118.987V127.331V128.572V129.664L247.526 130.105V129.012Z" fill="#E0E0E0"/>
<path d="M244.37 118.987L244.761 119.207L245.152 119.427V129.012V130.105L244.37 129.664V128.572V118.987ZM244.37 118.987L244.397 118.972M248.353 127.344L248.327 127.331M248.327 127.331V118.987L247.526 119.427V129.012V130.105L248.327 129.664V128.572V127.331Z" stroke="black" stroke-width="0.0581339"/>
<path d="M244.761 119.207L244.37 118.987L244.397 118.972V117.665L245.197 117.225L246.371 117.886L246.771 117.665L247.571 117.225L248.353 117.665L247.153 118.326L248.327 118.987L247.526 119.428L246.353 118.767L245.152 119.428L244.761 119.207Z" fill="#CCCCCC"/>
<path d="M244.397 117.665L245.571 118.326L245.17 118.546L244.397 118.972M244.397 117.665L245.197 117.225L246.371 117.886L246.771 117.665L247.571 117.225L248.353 117.665L247.153 118.326L248.327 118.987L247.526 119.428L246.353 118.767L245.152 119.428L244.761 119.207L244.37 118.987L244.397 118.972M244.397 117.665V118.972" stroke="black" stroke-width="0.0581339"/>
<path d="M245.174 118.547L245.574 118.327L244.4 117.666V118.973L245.174 118.547Z" fill="#A3A3A3" stroke="black" stroke-width="0.0581339"/>
<path d="M248.351 127.345V117.666L247.151 118.327L248.324 118.988V127.332L248.351 127.345Z" fill="#B8B8B8" stroke="black" stroke-width="0.0581339"/>
<path d="M247.529 129.013V119.427L246.355 118.766V128.352L247.529 129.013Z" fill="#A3A3A3" stroke="black" stroke-width="0.0581339"/>
<path d="M245.153 129.013V119.427L246.353 118.766V128.352L245.153 129.013Z" fill="#B8B8B8" stroke="black" stroke-width="0.0581339"/>
<path d="M246.329 134.277V129.673L247.53 129.012V130.105L248.33 129.664V128.572L249.53 127.911L251.221 131.58L246.329 134.277Z" fill="#B8B8B8" stroke="black" stroke-width="0.0581339"/>
<path d="M241.399 131.58L246.327 134.277V129.673L245.153 129.012V130.105L244.371 129.664V128.572L243.197 127.911L241.399 131.58Z" fill="#A3A3A3" stroke="black" stroke-width="0.0581339"/>
<path d="M245.154 129.013L246.327 129.674L247.528 129.013L246.354 128.352L245.154 129.013Z" fill="#CCCCCC"/>
<path d="M243.198 127.912L244.372 128.572V127.332L243.98 127.525L243.198 127.912Z" fill="#CCCCCC"/>
<path d="M249.528 127.912L248.355 127.345L248.328 127.332V128.572L249.528 127.912Z" fill="#CCCCCC"/>
<path d="M245.154 129.013L246.327 129.674L247.528 129.013L246.354 128.352L245.154 129.013Z" stroke="black" stroke-width="0.0581339"/>
<path d="M243.198 127.912L244.372 128.572V127.332L243.98 127.525L243.198 127.912Z" stroke="black" stroke-width="0.0581339"/>
<path d="M249.528 127.912L248.355 127.345L248.328 127.332V128.572L249.528 127.912Z" stroke="black" stroke-width="0.0581339"/>
<path d="M258.997 127.337L258.606 127.117V136.702V137.794L259.388 138.235V137.143V127.557L258.997 127.337Z" fill="#E0E0E0"/>
<path d="M261.762 137.143V127.557L262.562 127.117V135.461V136.702V137.794L261.762 138.235V137.143Z" fill="#E0E0E0"/>
<path d="M258.606 127.117L258.997 127.337L259.388 127.557V137.143V138.235L258.606 137.794V136.702V127.117ZM258.606 127.117L258.633 127.102M262.589 135.474L262.562 135.461M262.562 135.461V127.117L261.762 127.557V137.143V138.235L262.562 137.794V136.702V135.461Z" stroke="black" stroke-width="0.0581339"/>
<path d="M258.997 127.337L258.606 127.117L258.633 127.102V125.795L259.433 125.355L260.606 126.016L261.007 125.795L261.807 125.355L262.589 125.795L261.389 126.456L262.562 127.117L261.762 127.558L260.588 126.897L259.388 127.558L258.997 127.337Z" fill="#CCCCCC"/>
<path d="M258.633 125.795L259.806 126.456L259.406 126.677L258.633 127.102M258.633 125.795L259.433 125.355L260.606 126.016L261.007 125.795L261.807 125.355L262.589 125.795L261.389 126.456L262.562 127.117L261.762 127.558L260.588 126.897L259.388 127.558L258.997 127.337L258.606 127.117L258.633 127.102M258.633 125.795V127.102" stroke="black" stroke-width="0.0581339"/>
<path d="M259.409 126.677L259.809 126.457L258.636 125.796V127.103L259.409 126.677Z" fill="#A3A3A3" stroke="black" stroke-width="0.0581339"/>
<path d="M262.587 135.475V125.796L261.386 126.457L262.56 127.118V135.462L262.587 135.475Z" fill="#B8B8B8" stroke="black" stroke-width="0.0581339"/>
<path d="M261.764 137.143V127.557L260.591 126.896V136.482L261.764 137.143Z" fill="#A3A3A3" stroke="black" stroke-width="0.0581339"/>
<path d="M259.389 137.143V127.557L260.589 126.896V136.482L259.389 137.143Z" fill="#B8B8B8" stroke="black" stroke-width="0.0581339"/>
<path d="M260.565 142.407V137.803L261.765 137.143V138.235L262.566 137.794V136.702L263.766 136.041L265.456 139.71L260.565 142.407Z" fill="#B8B8B8" stroke="black" stroke-width="0.0581339"/>
<path d="M255.635 139.71L260.562 142.407V137.803L259.389 137.143V138.235L258.606 137.794V136.702L257.433 136.041L255.635 139.71Z" fill="#A3A3A3" stroke="black" stroke-width="0.0581339"/>
<path d="M259.389 137.143L260.563 137.804L261.763 137.143L260.59 136.482L259.389 137.143Z" fill="#CCCCCC"/>
<path d="M257.434 136.042L258.607 136.703V135.462L258.216 135.655L257.434 136.042Z" fill="#CCCCCC"/>
<path d="M263.764 136.042L262.591 135.475L262.564 135.462V136.703L263.764 136.042Z" fill="#CCCCCC"/>
<path d="M259.389 137.143L260.563 137.804L261.763 137.143L260.59 136.482L259.389 137.143Z" stroke="black" stroke-width="0.0581339"/>
<path d="M257.434 136.042L258.607 136.703V135.462L258.216 135.655L257.434 136.042Z" stroke="black" stroke-width="0.0581339"/>
<path d="M263.764 136.042L262.591 135.475L262.564 135.462V136.703L263.764 136.042Z" stroke="black" stroke-width="0.0581339"/>
<path d="M269.934 133.738L269.543 133.517V143.103V144.195L270.325 144.636V143.543V133.958L269.934 133.738Z" fill="#E0E0E0"/>
<path d="M272.699 143.543V133.958L273.499 133.517V141.862V143.103V144.195L272.699 144.636V143.543Z" fill="#E0E0E0"/>
<path d="M269.543 133.517L269.934 133.738L270.325 133.958V143.543V144.636L269.543 144.195V143.103V133.517ZM269.543 133.517L269.57 133.502M273.526 141.875L273.499 141.862M273.499 141.862V133.517L272.699 133.958V143.543V144.636L273.499 144.195V143.103V141.862Z" stroke="black" stroke-width="0.0581339"/>
<path d="M269.934 133.738L269.543 133.518L269.57 133.503V132.196L270.37 131.755L271.543 132.416L271.943 132.196L272.744 131.755L273.526 132.196L272.326 132.857L273.499 133.518L272.699 133.958L271.525 133.297L270.325 133.958L269.934 133.738Z" fill="#CCCCCC"/>
<path d="M269.57 132.196L270.743 132.857L270.343 133.077L269.57 133.503M269.57 132.196L270.37 131.755L271.543 132.416L271.943 132.196L272.744 131.755L273.526 132.196L272.326 132.857L273.499 133.518L272.699 133.958L271.525 133.297L270.325 133.958L269.934 133.738L269.543 133.518L269.57 133.503M269.57 132.196V133.503" stroke="black" stroke-width="0.0581339"/>
<path d="M270.346 133.078L270.746 132.857L269.573 132.197V133.503L270.346 133.078Z" fill="#A3A3A3" stroke="black" stroke-width="0.0581339"/>
<path d="M273.524 141.876V132.197L272.323 132.857L273.497 133.518V141.863L273.524 141.876Z" fill="#B8B8B8" stroke="black" stroke-width="0.0581339"/>
<path d="M272.701 143.543V133.958L271.528 133.297V142.882L272.701 143.543Z" fill="#A3A3A3" stroke="black" stroke-width="0.0581339"/>
<path d="M270.325 143.543V133.958L271.526 133.297V142.882L270.325 143.543Z" fill="#B8B8B8" stroke="black" stroke-width="0.0581339"/>
<path d="M271.502 148.808V144.204L272.702 143.543V144.636L273.502 144.195V143.103L274.703 142.442L276.393 146.11L271.502 148.808Z" fill="#B8B8B8" stroke="black" stroke-width="0.0581339"/>
<path d="M266.572 146.11L271.499 148.808V144.204L270.326 143.543V144.636L269.543 144.195V143.103L268.37 142.442L266.572 146.11Z" fill="#A3A3A3" stroke="black" stroke-width="0.0581339"/>
<path d="M270.326 143.544L271.5 144.205L272.7 143.544L271.527 142.883L270.326 143.544Z" fill="#CCCCCC"/>
<path d="M268.371 142.442L269.544 143.103V141.862L269.153 142.056L268.371 142.442Z" fill="#CCCCCC"/>
<path d="M274.701 142.442L273.527 141.875L273.5 141.862V143.103L274.701 142.442Z" fill="#CCCCCC"/>
<path d="M270.326 143.544L271.5 144.205L272.7 143.544L271.527 142.883L270.326 143.544Z" stroke="black" stroke-width="0.0581339"/>
<path d="M268.371 142.442L269.544 143.103V141.862L269.153 142.056L268.371 142.442Z" stroke="black" stroke-width="0.0581339"/>
<path d="M274.701 142.442L273.527 141.875L273.5 141.862V143.103L274.701 142.442Z" stroke="black" stroke-width="0.0581339"/>
<path d="M220.253 100.898L219.454 101.329L272.722 131.973L273.549 131.542L220.253 100.898Z" fill="#7A7A7A" stroke="black" stroke-width="0.0581339"/>
<path d="M273.514 133.449L272.687 133.88V131.974L273.514 131.542V133.449Z" fill="#525252" stroke="black" stroke-width="0.0581339"/>
<path d="M219.454 103.234V101.328L251.401 119.707L272.719 131.972V133.879L251.401 121.614L219.454 103.234Z" fill="#666666" stroke="black" stroke-width="0.0581339"/>
<path d="M208.02 122.84L207.229 122.408L231.183 108.093L231.974 108.525L208.02 122.84Z" fill="#7A7A7A" stroke="black" stroke-width="0.0581339"/>
<path d="M208.02 124.816L207.229 124.384V122.406L208.02 122.837V124.816Z" fill="#666666" stroke="black" stroke-width="0.0581339"/>
<path d="M231.975 110.502L208.02 124.817V122.838L231.975 108.523V110.502Z" fill="#525252" stroke="black" stroke-width="0.0581339"/>
<path d="M197.374 116.722L196.583 116.291L220.537 101.976L221.328 102.407L197.374 116.722Z" fill="#7A7A7A" stroke="black" stroke-width="0.0581339"/>
<path d="M197.374 118.7L196.583 118.268V116.29L197.374 116.722V118.7Z" fill="#666666" stroke="black" stroke-width="0.0581339"/>
<path d="M221.328 104.384L197.374 118.699V116.721L221.328 102.406V104.384Z" fill="#525252" stroke="black" stroke-width="0.0581339"/>
<path d="M222.337 131.113L221.546 130.681L245.572 116.366L246.364 116.798L222.337 131.113Z" fill="#7A7A7A" stroke="black" stroke-width="0.0581339"/>
<path d="M222.337 133.09L221.546 132.659V130.681L222.337 131.112V133.09Z" fill="#666666" stroke="black" stroke-width="0.0581339"/>
<path d="M246.364 118.775L222.338 133.09V131.111L246.364 116.796V118.775Z" fill="#525252" stroke="black" stroke-width="0.0581339"/>
<path d="M236.578 139.242L235.786 138.811L259.813 124.496L260.604 124.927L236.578 139.242Z" fill="#7A7A7A" stroke="black" stroke-width="0.0581339"/>
<path d="M236.578 141.22L235.786 140.789V138.81L236.578 139.242V141.22Z" fill="#666666" stroke="black" stroke-width="0.0581339"/>
<path d="M260.601 126.904L236.539 141.219V139.241L260.601 124.926V126.904Z" fill="#525252" stroke="black" stroke-width="0.0581339"/>
<path d="M247.515 145.64L246.723 145.209L270.75 130.894L271.541 131.325L247.515 145.64Z" fill="#7A7A7A" stroke="black" stroke-width="0.0581339"/>
<path d="M247.515 147.618L246.723 147.187V145.208L247.515 145.64V147.618Z" fill="#666666" stroke="black" stroke-width="0.0581339"/>
<path d="M271.538 133.302L247.476 147.617V145.639L271.538 131.324V133.302Z" fill="#525252" stroke="black" stroke-width="0.0581339"/>
<path d="M195.124 119.641L194.733 119.421V129.006V130.098L195.515 130.539V129.446V119.861L195.124 119.641Z" fill="#E0E0E0"/>
<path d="M197.889 129.446V119.861L198.689 119.421V127.765V129.006V130.098L197.889 130.539V129.446Z" fill="#E0E0E0"/>
<path d="M194.733 119.421L195.124 119.641L195.515 119.861V129.446V130.539L194.733 130.098V129.006V119.421ZM194.733 119.421L194.76 119.406M198.716 127.778L198.689 127.765M198.689 127.765V119.421L197.889 119.861V129.446V130.539L198.689 130.098V129.006V127.765Z" stroke="black" stroke-width="0.0581339"/>
<path d="M195.124 119.641L194.733 119.421L194.76 119.406V118.099L195.56 117.659L196.734 118.32L197.134 118.099L197.934 117.659L198.716 118.099L197.516 118.76L198.689 119.421L197.889 119.862L196.716 119.201L195.515 119.862L195.124 119.641Z" fill="#CCCCCC"/>
<path d="M194.76 118.099L195.933 118.76L195.533 118.98L194.76 119.406M194.76 118.099L195.56 117.659L196.734 118.32L197.134 118.099L197.934 117.659L198.716 118.099L197.516 118.76L198.689 119.421L197.889 119.862L196.716 119.201L195.515 119.862L195.124 119.641L194.733 119.421L194.76 119.406M194.76 118.099V119.406" stroke="black" stroke-width="0.0581339"/>
<path d="M195.537 118.981L195.937 118.761L194.763 118.1V119.407L195.537 118.981Z" fill="#A3A3A3" stroke="black" stroke-width="0.0581339"/>
<path d="M198.714 127.779V118.1L197.514 118.761L198.687 119.422V127.766L198.714 127.779Z" fill="#B8B8B8" stroke="black" stroke-width="0.0581339"/>
<path d="M197.892 129.447V119.861L196.718 119.2V128.786L197.892 129.447Z" fill="#A3A3A3" stroke="black" stroke-width="0.0581339"/>
<path d="M195.516 129.447V119.861L196.716 119.2V128.786L195.516 129.447Z" fill="#B8B8B8" stroke="black" stroke-width="0.0581339"/>
<path d="M196.692 134.711V130.107L197.893 129.446V130.539L198.693 130.098V129.006L199.893 128.345L201.584 132.014L196.692 134.711Z" fill="#B8B8B8" stroke="black" stroke-width="0.0581339"/>
<path d="M191.762 132.014L196.689 134.711V130.107L195.516 129.446V130.539L194.734 130.098V129.006L193.56 128.345L191.762 132.014Z" fill="#A3A3A3" stroke="black" stroke-width="0.0581339"/>
<path d="M195.517 129.447L196.69 130.108L197.891 129.447L196.717 128.786L195.517 129.447Z" fill="#CCCCCC"/>
<path d="M193.561 128.346L194.734 129.006V127.766L194.343 127.959L193.561 128.346Z" fill="#CCCCCC"/>
<path d="M199.891 128.346L198.718 127.779L198.691 127.766V129.006L199.891 128.346Z" fill="#CCCCCC"/>
<path d="M195.517 129.447L196.69 130.108L197.891 129.447L196.717 128.786L195.517 129.447Z" stroke="black" stroke-width="0.0581339"/>
<path d="M193.561 128.346L194.734 129.006V127.766L194.343 127.959L193.561 128.346Z" stroke="black" stroke-width="0.0581339"/>
<path d="M199.891 128.346L198.718 127.779L198.691 127.766V129.006L199.891 128.346Z" stroke="black" stroke-width="0.0581339"/>
<path d="M205.697 125.756L205.306 125.536V135.121V136.213L206.088 136.654V135.561V125.976L205.697 125.756Z" fill="#E0E0E0"/>
<path d="M208.462 135.561V125.976L209.262 125.536V133.88V135.121V136.213L208.462 136.654V135.561Z" fill="#E0E0E0"/>
<path d="M205.306 125.536L205.697 125.756L206.088 125.976V135.561V136.654L205.306 136.213V135.121V125.536ZM205.306 125.536L205.333 125.521M209.289 133.893L209.262 133.88M209.262 133.88V125.536L208.462 125.976V135.561V136.654L209.262 136.213V135.121V133.88Z" stroke="black" stroke-width="0.0581339"/>
<path d="M205.697 125.756L205.306 125.536L205.333 125.521V124.214L206.133 123.774L207.306 124.435L207.707 124.214L208.507 123.774L209.289 124.214L208.089 124.875L209.262 125.536L208.462 125.977L207.288 125.316L206.088 125.977L205.697 125.756Z" fill="#CCCCCC"/>
<path d="M205.333 124.214L206.506 124.875L206.106 125.095L205.333 125.521M205.333 124.214L206.133 123.774L207.306 124.435L207.707 124.214L208.507 123.774L209.289 124.214L208.089 124.875L209.262 125.536L208.462 125.977L207.288 125.316L206.088 125.977L205.697 125.756L205.306 125.536L205.333 125.521M205.333 124.214V125.521" stroke="black" stroke-width="0.0581339"/>
<path d="M206.109 125.096L206.509 124.876L205.336 124.215V125.522L206.109 125.096Z" fill="#A3A3A3" stroke="black" stroke-width="0.0581339"/>
<path d="M209.287 133.894V124.215L208.087 124.876L209.26 125.537V133.881L209.287 133.894Z" fill="#B8B8B8" stroke="black" stroke-width="0.0581339"/>
<path d="M208.464 135.562V125.976L207.291 125.315V134.901L208.464 135.562Z" fill="#A3A3A3" stroke="black" stroke-width="0.0581339"/>
<path d="M206.089 135.562V125.976L207.289 125.315V134.901L206.089 135.562Z" fill="#B8B8B8" stroke="black" stroke-width="0.0581339"/>
<path d="M207.265 140.826V136.222L208.465 135.561V136.654L209.266 136.213V135.121L210.466 134.46L212.156 138.129L207.265 140.826Z" fill="#B8B8B8" stroke="black" stroke-width="0.0581339"/>
<path d="M202.335 138.129L207.262 140.826V136.222L206.089 135.561V136.654L205.307 136.213V135.121L204.133 134.46L202.335 138.129Z" fill="#A3A3A3" stroke="black" stroke-width="0.0581339"/>
<path d="M206.09 135.562L207.263 136.223L208.463 135.562L207.29 134.901L206.09 135.562Z" fill="#CCCCCC"/>
<path d="M204.134 134.461L205.307 135.121V133.881L204.916 134.074L204.134 134.461Z" fill="#CCCCCC"/>
<path d="M210.464 134.461L209.291 133.894L209.264 133.881V135.121L210.464 134.461Z" fill="#CCCCCC"/>
<path d="M206.09 135.562L207.263 136.223L208.463 135.562L207.29 134.901L206.09 135.562Z" stroke="black" stroke-width="0.0581339"/>
<path d="M204.134 134.461L205.307 135.121V133.881L204.916 134.074L204.134 134.461Z" stroke="black" stroke-width="0.0581339"/>
<path d="M210.464 134.461L209.291 133.894L209.264 133.881V135.121L210.464 134.461Z" stroke="black" stroke-width="0.0581339"/>
<path d="M220.083 134.026L219.692 133.806V143.391V144.484L220.474 144.925V143.832V134.247L220.083 134.026Z" fill="#E0E0E0"/>
<path d="M222.848 143.832V134.247L223.648 133.806V142.151V143.391V144.484L222.848 144.925V143.832Z" fill="#E0E0E0"/>
<path d="M219.692 133.806L220.083 134.026L220.474 134.247V143.832V144.925L219.692 144.484V143.391V133.806ZM219.692 133.806L219.719 133.791M223.675 142.164L223.648 142.151M223.648 142.151V133.806L222.848 134.247V143.832V144.925L223.648 144.484V143.391V142.151Z" stroke="black" stroke-width="0.0581339"/>
<path d="M220.083 134.027L219.692 133.807L219.719 133.792V132.485L220.519 132.044L221.692 132.705L222.093 132.485L222.893 132.044L223.675 132.485L222.475 133.146L223.648 133.807L222.848 134.247L221.674 133.586L220.474 134.247L220.083 134.027Z" fill="#CCCCCC"/>
<path d="M219.719 132.485L220.892 133.146L220.492 133.366L219.719 133.792M219.719 132.485L220.519 132.044L221.692 132.705L222.093 132.485L222.893 132.044L223.675 132.485L222.475 133.146L223.648 133.807L222.848 134.247L221.674 133.586L220.474 134.247L220.083 134.027L219.692 133.807L219.719 133.792M219.719 132.485V133.792" stroke="black" stroke-width="0.0581339"/>
<path d="M220.495 133.367L220.895 133.146L219.722 132.485V133.792L220.495 133.367Z" fill="#A3A3A3" stroke="black" stroke-width="0.0581339"/>
<path d="M223.673 142.165V132.485L222.473 133.146L223.646 133.807V142.152L223.673 142.165Z" fill="#B8B8B8" stroke="black" stroke-width="0.0581339"/>
<path d="M222.85 143.832V134.247L221.677 133.586V143.171L222.85 143.832Z" fill="#A3A3A3" stroke="black" stroke-width="0.0581339"/>
<path d="M220.475 143.832V134.247L221.675 133.586V143.171L220.475 143.832Z" fill="#B8B8B8" stroke="black" stroke-width="0.0581339"/>
<path d="M221.651 149.097V144.493L222.851 143.832V144.924L223.652 144.484V143.391L224.852 142.73L226.542 146.399L221.651 149.097Z" fill="#B8B8B8" stroke="black" stroke-width="0.0581339"/>
<path d="M216.721 146.399L221.648 149.097V144.493L220.475 143.832V144.924L219.693 144.484V143.391L218.519 142.73L216.721 146.399Z" fill="#A3A3A3" stroke="black" stroke-width="0.0581339"/>
<path d="M220.475 143.833L221.649 144.493L222.849 143.833L221.676 143.172L220.475 143.833Z" fill="#CCCCCC"/>
<path d="M218.52 142.731L219.693 143.392V142.151L219.302 142.344L218.52 142.731Z" fill="#CCCCCC"/>
<path d="M224.85 142.731L223.677 142.164L223.65 142.151V143.392L224.85 142.731Z" fill="#CCCCCC"/>
<path d="M220.475 143.833L221.649 144.493L222.849 143.833L221.676 143.172L220.475 143.833Z" stroke="black" stroke-width="0.0581339"/>
<path d="M218.52 142.731L219.693 143.392V142.151L219.302 142.344L218.52 142.731Z" stroke="black" stroke-width="0.0581339"/>
<path d="M224.85 142.731L223.677 142.164L223.65 142.151V143.392L224.85 142.731Z" stroke="black" stroke-width="0.0581339"/>
<path d="M234.323 142.158L233.932 141.938V151.523V152.616L234.714 153.057V151.964V142.379L234.323 142.158Z" fill="#E0E0E0"/>
<path d="M237.088 151.964V142.379L237.889 141.938V150.283V151.523V152.616L237.088 153.057V151.964Z" fill="#E0E0E0"/>
<path d="M233.932 141.938L234.323 142.158L234.714 142.379V151.964V153.057L233.932 152.616V151.523V141.938ZM233.932 141.938L233.959 141.923M237.916 150.296L237.889 150.283M237.889 150.283V141.938L237.088 142.379V151.964V153.057L237.889 152.616V151.523V150.283Z" stroke="black" stroke-width="0.0581339"/>
<path d="M234.323 142.159L233.932 141.939L233.959 141.924V140.617L234.759 140.176L235.933 140.837L236.333 140.617L237.133 140.176L237.916 140.617L236.715 141.278L237.889 141.939L237.088 142.379L235.915 141.718L234.714 142.379L234.323 142.159Z" fill="#CCCCCC"/>
<path d="M233.959 140.617L235.133 141.278L234.732 141.498L233.959 141.924M233.959 140.617L234.759 140.176L235.933 140.837L236.333 140.617L237.133 140.176L237.916 140.617L236.715 141.278L237.889 141.939L237.088 142.379L235.915 141.718L234.714 142.379L234.323 142.159L233.932 141.939L233.959 141.924M233.959 140.617V141.924" stroke="black" stroke-width="0.0581339"/>
<path d="M234.736 141.499L235.136 141.278L233.962 140.617V141.924L234.736 141.499Z" fill="#A3A3A3" stroke="black" stroke-width="0.0581339"/>
<path d="M237.913 150.297V140.617L236.713 141.278L237.886 141.939V150.284L237.913 150.297Z" fill="#B8B8B8" stroke="black" stroke-width="0.0581339"/>
<path d="M237.091 151.964V142.379L235.917 141.718V151.303L237.091 151.964Z" fill="#A3A3A3" stroke="black" stroke-width="0.0581339"/>
<path d="M234.715 151.964V142.379L235.915 141.718V151.303L234.715 151.964Z" fill="#B8B8B8" stroke="black" stroke-width="0.0581339"/>
<path d="M235.891 157.229V152.625L237.092 151.964V153.057L237.892 152.616V151.523L239.092 150.863L240.783 154.531L235.891 157.229Z" fill="#B8B8B8" stroke="black" stroke-width="0.0581339"/>
<path d="M230.961 154.531L235.889 157.229V152.625L234.715 151.964V153.057L233.933 152.616V151.523L232.759 150.863L230.961 154.531Z" fill="#A3A3A3" stroke="black" stroke-width="0.0581339"/>
<path d="M234.716 151.965L235.889 152.626L237.09 151.965L235.916 151.304L234.716 151.965Z" fill="#CCCCCC"/>
<path d="M232.76 150.863L233.934 151.524V150.283L233.542 150.477L232.76 150.863Z" fill="#CCCCCC"/>
<path d="M239.09 150.863L237.917 150.296L237.89 150.283V151.524L239.09 150.863Z" fill="#CCCCCC"/>
<path d="M234.716 151.965L235.889 152.626L237.09 151.965L235.916 151.304L234.716 151.965Z" stroke="black" stroke-width="0.0581339"/>
<path d="M232.76 150.863L233.934 151.524V150.283L233.542 150.477L232.76 150.863Z" stroke="black" stroke-width="0.0581339"/>
<path d="M239.09 150.863L237.917 150.296L237.89 150.283V151.524L239.09 150.863Z" stroke="black" stroke-width="0.0581339"/>
<path d="M245.264 148.559L244.873 148.339V157.924V159.017L245.655 159.457V158.365V148.779L245.264 148.559Z" fill="#E0E0E0"/>
<path d="M248.029 158.365V148.779L248.829 148.339V156.683V157.924V159.017L248.029 159.457V158.365Z" fill="#E0E0E0"/>
<path d="M244.873 148.339L245.264 148.559L245.655 148.779V158.365V159.457L244.873 159.017V157.924V148.339ZM244.873 148.339L244.9 148.324M248.856 156.696L248.829 156.683M248.829 156.683V148.339L248.029 148.779V158.365V159.457L248.829 159.017V157.924V156.683Z" stroke="black" stroke-width="0.0581339"/>
<path d="M245.264 148.56L244.873 148.339L244.9 148.324V147.018L245.7 146.577L246.874 147.238L247.274 147.018L248.074 146.577L248.856 147.018L247.656 147.678L248.829 148.339L248.029 148.78L246.856 148.119L245.655 148.78L245.264 148.56Z" fill="#CCCCCC"/>
<path d="M244.9 147.018L246.073 147.678L245.673 147.899L244.9 148.324M244.9 147.018L245.7 146.577L246.874 147.238L247.274 147.018L248.074 146.577L248.856 147.018L247.656 147.678L248.829 148.339L248.029 148.78L246.856 148.119L245.655 148.78L245.264 148.56L244.873 148.339L244.9 148.324M244.9 147.018V148.324" stroke="black" stroke-width="0.0581339"/>
<path d="M245.676 147.899L246.077 147.679L244.903 147.018V148.325L245.676 147.899Z" fill="#A3A3A3" stroke="black" stroke-width="0.0581339"/>
<path d="M248.854 156.697V147.018L247.654 147.679L248.827 148.34V156.684L248.854 156.697Z" fill="#B8B8B8" stroke="black" stroke-width="0.0581339"/>
<path d="M248.031 158.365V148.78L246.858 148.119V157.704L248.031 158.365Z" fill="#A3A3A3" stroke="black" stroke-width="0.0581339"/>
<path d="M245.656 158.365V148.78L246.856 148.119V157.704L245.656 158.365Z" fill="#B8B8B8" stroke="black" stroke-width="0.0581339"/>
<path d="M246.832 163.629V159.026L248.032 158.365V159.457L248.833 159.017V157.924L250.033 157.263L251.724 160.932L246.832 163.629Z" fill="#B8B8B8" stroke="black" stroke-width="0.0581339"/>
<path d="M241.902 160.932L246.829 163.629V159.026L245.656 158.365V159.457L244.874 159.017V157.924L243.7 157.263L241.902 160.932Z" fill="#A3A3A3" stroke="black" stroke-width="0.0581339"/>
<path d="M245.657 158.365L246.83 159.026L248.03 158.365L246.857 157.704L245.657 158.365Z" fill="#CCCCCC"/>
<path d="M243.701 157.264L244.874 157.925V156.684L244.483 156.877L243.701 157.264Z" fill="#CCCCCC"/>
<path d="M250.031 157.264L248.858 156.697L248.831 156.684V157.925L250.031 157.264Z" fill="#CCCCCC"/>
<path d="M245.657 158.365L246.83 159.026L248.03 158.365L246.857 157.704L245.657 158.365Z" stroke="black" stroke-width="0.0581339"/>
<path d="M243.701 157.264L244.874 157.925V156.684L244.483 156.877L243.701 157.264Z" stroke="black" stroke-width="0.0581339"/>
<path d="M250.031 157.264L248.858 156.697L248.831 156.684V157.925L250.031 157.264Z" stroke="black" stroke-width="0.0581339"/>
<path d="M195.584 115.719L194.785 116.151L248.053 146.795L248.88 146.363L195.584 115.719Z" fill="#7A7A7A" stroke="black" stroke-width="0.0581339"/>
<path d="M248.845 148.27L248.018 148.702V146.796L248.845 146.364V148.27Z" fill="#525252" stroke="black" stroke-width="0.0581339"/>
<path d="M194.785 118.056V116.15L226.732 134.529L248.05 146.794V148.7L226.732 136.435L194.785 118.056Z" fill="#666666" stroke="black" stroke-width="0.0581339"/>
<path d="M183.346 137.656L182.555 137.224L206.509 122.909L207.301 123.341L183.346 137.656Z" fill="#7A7A7A" stroke="black" stroke-width="0.0581339"/>
<path d="M183.346 139.634L182.555 139.202V137.224L183.346 137.656V139.634Z" fill="#666666" stroke="black" stroke-width="0.0581339"/>
<path d="M207.301 125.318L183.347 139.633V137.655L207.301 123.34V125.318Z" fill="#525252" stroke="black" stroke-width="0.0581339"/>
<path d="M172.701 131.541L171.91 131.109L195.864 116.794L196.655 117.226L172.701 131.541Z" fill="#7A7A7A" stroke="black" stroke-width="0.0581339"/>
<path d="M172.701 133.519L171.91 133.087V131.109L172.701 131.541V133.519Z" fill="#666666" stroke="black" stroke-width="0.0581339"/>
<path d="M196.655 119.203L172.701 133.518V131.54L196.655 117.225V119.203Z" fill="#525252" stroke="black" stroke-width="0.0581339"/>
<path d="M197.66 145.931L196.868 145.5L220.895 131.185L221.686 131.616L197.66 145.931Z" fill="#7A7A7A" stroke="black" stroke-width="0.0581339"/>
<path d="M197.66 147.909L196.868 147.478V145.5L197.66 145.931V147.909Z" fill="#666666" stroke="black" stroke-width="0.0581339"/>
<path d="M221.686 133.593L197.66 147.908V145.93L221.686 131.615V133.593Z" fill="#525252" stroke="black" stroke-width="0.0581339"/>
<path d="M211.9 154.059L211.109 153.627L235.135 139.312L235.926 139.744L211.9 154.059Z" fill="#7A7A7A" stroke="black" stroke-width="0.0581339"/>
<path d="M211.9 156.037L211.109 155.605V153.627L211.9 154.059V156.037Z" fill="#666666" stroke="black" stroke-width="0.0581339"/>
<path d="M235.923 141.721L211.861 156.036V154.058L235.923 139.743V141.721Z" fill="#525252" stroke="black" stroke-width="0.0581339"/>
<path d="M222.832 160.462L222.041 160.031L246.067 145.716L246.858 146.147L222.832 160.462Z" fill="#7A7A7A" stroke="black" stroke-width="0.0581339"/>
<path d="M222.832 162.44L222.041 162.008V160.03L222.832 160.462V162.44Z" fill="#666666" stroke="black" stroke-width="0.0581339"/>
<path d="M246.855 148.124L222.793 162.439V160.461L246.855 146.146V148.124Z" fill="#525252" stroke="black" stroke-width="0.0581339"/>
<path d="M170.766 130.538L169.967 130.97L223.235 161.614L224.062 161.182L170.766 130.538Z" fill="#7A7A7A" stroke="black" stroke-width="0.0581339"/>
<path d="M224.028 163.089L223.2 163.521V161.614L224.028 161.183V163.089Z" fill="#525252" stroke="black" stroke-width="0.0581339"/>
<path d="M169.967 132.875V130.969L201.914 149.348L223.232 161.613V163.519L201.914 151.254L169.967 132.875Z" fill="#666666" stroke="black" stroke-width="0.0581339"/>
<path d="M161.982 149.924L161.19 149.492L181.692 137.731L182.483 138.162L161.982 149.924Z" fill="#7A7A7A" stroke="black" stroke-width="0.0581339"/>
<path d="M161.982 151.904L161.19 151.472V149.494L161.982 149.926V151.904Z" fill="#666666" stroke="black" stroke-width="0.0581339"/>
<path d="M182.483 140.139L161.982 151.901V149.922L182.483 138.161V140.139Z" fill="#525252" stroke="black" stroke-width="0.0581339"/>
<path d="M176.222 158.052L175.431 157.621L196.076 146.003L196.867 146.435L176.222 158.052Z" fill="#7A7A7A" stroke="black" stroke-width="0.0581339"/>
<path d="M176.222 160.029L175.431 159.598V157.62L176.222 158.051V160.029Z" fill="#666666" stroke="black" stroke-width="0.0581339"/>
<path d="M196.867 148.412L176.222 160.029V158.051L196.867 146.434V148.412Z" fill="#525252" stroke="black" stroke-width="0.0581339"/>
<path d="M190.826 166.538L190.034 166.106L210.32 154.129L211.111 154.561L190.826 166.538Z" fill="#7A7A7A" stroke="black" stroke-width="0.0581339"/>
<path d="M190.826 168.514L190.034 168.082V166.104L190.826 166.536V168.514Z" fill="#666666" stroke="black" stroke-width="0.0581339"/>
<path d="M211.111 156.538L190.826 168.515V166.536L211.111 154.559V156.538Z" fill="#525252" stroke="black" stroke-width="0.0581339"/>
<path d="M160.037 148.878L159.239 149.31L191.185 167.689L192.012 167.257L160.037 148.878Z" fill="#7A7A7A" stroke="black" stroke-width="0.0581339"/>
<path d="M192.013 169.165L191.185 169.596V167.69L192.013 167.258V169.165Z" fill="#525252" stroke="black" stroke-width="0.0581339"/>
<path d="M159.239 151.215V149.309L191.185 167.688V169.594L159.239 151.215Z" fill="#666666" stroke="black" stroke-width="0.0581339"/>
<path d="M174.355 85.359C194.693 97.0774 218.316 88.8822 227.585 83.3198L311.008 33.2584L260.101 4L176.732 54.0292C171.03 57.4506 163.742 64.0895 163.723 71.4214C163.71 76.002 166.535 80.853 174.355 85.359Z" fill="#F3F3F3"/>
<path d="M163.722 74.5391L163.722 71.4818C163.722 71.4618 163.722 71.4418 163.722 71.4218L163.722 71.4818C163.727 73.008 164.046 74.5638 164.762 76.1266C165.256 77.208 165.94 78.2927 166.84 79.3732C167.798 80.5228 168.999 81.6676 170.477 82.7986C171.604 83.6616 172.892 84.5165 174.355 85.3594C176.702 86.7117 179.093 87.7988 181.5 88.6554C184.135 89.5929 186.79 90.2542 189.429 90.6848C191.761 91.0653 194.081 91.2656 196.364 91.3171C198.929 91.375 201.448 91.2449 203.886 90.9715C206.23 90.7086 208.5 90.313 210.663 89.8244C212.819 89.3374 214.87 88.758 216.784 88.1253C218.772 87.4685 220.613 86.7544 222.274 86.0265C224.348 85.1174 226.141 84.1868 227.585 83.3202L232.799 80.1914L238.013 77.0625L243.227 73.9337L248.44 70.8048L253.654 67.676L258.868 64.5472L264.082 61.4183L269.296 58.2895L274.51 55.1607L279.724 52.0318L284.938 48.903L290.152 45.7741L295.366 42.6453L300.58 39.5165L305.794 36.3876L311.008 33.2588V36.3045L305.794 39.4333L300.58 42.5622L295.366 45.691L290.152 48.8199L284.938 51.9487L279.724 55.0775L274.51 58.2064L269.296 61.3352L264.082 64.464L258.868 67.5929L253.654 70.7217L248.44 73.8505L243.227 76.9794L238.013 80.1082L232.799 83.2371L227.585 86.3659C226.141 87.2325 224.348 88.1631 222.274 89.0722C220.613 89.8001 218.772 90.5142 216.784 91.1709C214.87 91.8037 212.819 92.3831 210.663 92.8701C208.5 93.3587 206.23 93.7543 203.886 94.0172C201.448 94.2906 198.929 94.4206 196.364 94.3628C194.081 94.3113 191.761 94.111 189.429 93.7305C186.79 93.2999 184.135 92.6386 181.5 91.7011C179.093 90.8445 176.702 89.7574 174.355 88.4051C172.892 87.5622 171.604 86.7073 170.477 85.8443C168.999 84.7133 167.798 83.5684 166.84 82.4189C165.94 81.3384 165.256 80.2537 164.762 79.1723C164.048 77.6135 163.728 76.0615 163.722 74.5391Z" fill="#D9D9D9"/>
<path d="M227.585 86.3659V83.3202M227.585 86.3659L232.799 83.2371M227.585 86.3659C226.141 87.2325 224.348 88.1631 222.274 89.0722M174.355 88.4051V85.3594M174.355 88.4051C176.702 89.7574 179.093 90.8445 181.5 91.7011M174.355 88.4051C172.892 87.5622 171.604 86.7073 170.477 85.8443M227.585 83.3202L232.799 80.1914M227.585 83.3202C226.141 84.1868 224.348 85.1174 222.274 86.0265M174.355 85.3594C176.702 86.7117 179.093 87.7988 181.5 88.6554M174.355 85.3594C172.892 84.5165 171.604 83.6616 170.477 82.7986M269.296 58.2895V61.3352M269.296 58.2895L274.51 55.1607M269.296 58.2895L264.082 61.4183M269.296 61.3352L274.51 58.2064M269.296 61.3352L264.082 64.464M290.152 45.7741V48.8199M290.152 45.7741L295.366 42.6453M290.152 45.7741L284.938 48.903M290.152 48.8199L295.366 45.691M290.152 48.8199L284.938 51.9487M248.44 70.8048V73.8505M248.44 70.8048L253.654 67.676M248.44 70.8048L243.227 73.9337M248.44 73.8505L253.654 70.7217M248.44 73.8505L243.227 76.9794M166.84 79.3732V82.4189M166.84 79.3732C167.798 80.5227 168.999 81.6676 170.477 82.7986M166.84 79.3732C165.94 78.2927 165.256 77.208 164.762 76.1266M166.84 82.4189C167.798 83.5684 168.999 84.7133 170.477 85.8443M166.84 82.4189C165.94 81.3384 165.256 80.2537 164.762 79.1723M203.886 90.9715V94.0172M203.886 90.9715C206.23 90.7086 208.5 90.313 210.663 89.8244M203.886 90.9715C201.448 91.2449 198.929 91.375 196.364 91.3171M203.886 94.0172C206.23 93.7543 208.5 93.3587 210.663 92.8701M203.886 94.0172C201.448 94.2906 198.929 94.4206 196.364 94.3628M238.013 77.0625V80.1082M238.013 77.0625L243.227 73.9337M238.013 77.0625L232.799 80.1914M238.013 80.1082L243.227 76.9794M238.013 80.1082L232.799 83.2371M258.868 64.5472V67.5929M258.868 64.5472L264.082 61.4183M258.868 64.5472L253.654 67.676M258.868 67.5929L264.082 64.464M258.868 67.5929L253.654 70.7217M279.724 52.0318V55.0775M279.724 52.0318L284.938 48.903M279.724 52.0318L274.51 55.1607M279.724 55.0775L284.938 51.9487M279.724 55.0775L274.51 58.2064M300.58 39.5165V42.5622M300.58 39.5165L305.794 36.3876M300.58 39.5165L295.366 42.6453M300.58 42.5622L305.794 39.4333M300.58 42.5622L295.366 45.691M305.794 36.3876L311.008 33.2588V36.3045L305.794 39.4333M305.794 36.3876V39.4333M295.366 42.6453V45.691M284.938 48.903V51.9487M274.51 55.1607V58.2064M264.082 61.4183V64.464M253.654 67.676V70.7217M243.227 73.9337V76.9794M232.799 80.1914V83.2371M216.784 88.1253V91.1709M216.784 88.1253C218.772 87.4685 220.613 86.7544 222.274 86.0265M216.784 88.1253C214.87 88.758 212.819 89.3374 210.663 89.8244M216.784 91.1709C218.772 90.5142 220.613 89.8001 222.274 89.0722M216.784 91.1709C214.87 91.8037 212.819 92.3831 210.663 92.8701M222.274 86.0265V89.0722M210.663 89.8244V92.8701M189.429 90.6848V93.7305M189.429 90.6848C191.761 91.0653 194.081 91.2656 196.364 91.3171M189.429 90.6848C186.79 90.2542 184.135 89.5929 181.5 88.6554M189.429 93.7305C191.761 94.111 194.081 94.3113 196.364 94.3628M189.429 93.7305C186.79 93.2999 184.135 92.6386 181.5 91.7011M196.364 91.3171V94.3628M181.5 88.6554V91.7011M170.477 82.7986V85.8443M164.762 76.1266C164.037 74.5433 163.718 72.9672 163.722 71.4218L163.722 74.5391C163.728 76.0615 164.048 77.6135 164.762 79.1723M164.762 76.1266V79.1723" stroke="black" stroke-width="0.102143"/>
</g>
<defs>
<clipPath id="clip0_520_18370">
<rect width="460" height="270" fill="white"/>
</clipPath>
</defs>
</svg>
