<svg width="399" height="252" viewBox="0 0 399 252" fill="none" xmlns="http://www.w3.org/2000/svg">
<path d="M333.445 243.641L154.525 242.803L71.8452 247.599L250.765 248.437L333.445 243.641Z" fill="#C0BEAD" fill-opacity="0.5"/>
<path d="M296.507 12.4556V22.493L256.751 25.7285L216.995 28.9639L215.135 28.9409V18.9035L254.89 15.6681L294.646 12.4326L296.507 12.4556Z" fill="#C0BEAD"/>
<path d="M296.507 12.4556V22.493L256.751 25.7285L216.995 28.9639M296.507 12.4556L294.646 12.4326L254.89 15.6681L215.135 18.9035M296.507 12.4556L256.751 15.691L216.995 18.9265M216.995 18.9265L215.135 18.9035M216.995 18.9265V28.9639M215.135 18.9035V28.9409L216.995 28.9639" stroke="black" stroke-width="0.15"/>
<path d="M289.672 145.988H286.396V19.8762L288.823 19.6335H292.098V145.746L289.672 145.988Z" fill="#C0BEAD"/>
<path d="M286.396 19.8762H289.672M286.396 19.8762L286.396 145.988H289.672M286.396 19.8762L288.823 19.6335H292.098M289.672 145.988V19.8762M289.672 145.988L292.098 145.746V19.6335M289.672 19.8762L292.098 19.6335" stroke="black" stroke-width="0.15"/>
<path d="M289.674 145.988V19.8762L292.1 19.6335V145.746L289.674 145.988Z" fill="#C0BEAD" stroke="black" stroke-width="0.15"/>
<path d="M215.58 145.501H212.304V1.27074L214.731 1.02808H218.007V145.259L215.58 145.501Z" fill="#C0BEAD"/>
<path d="M212.304 1.27074H215.58M212.304 1.27074V145.501H215.58M212.304 1.27074L214.731 1.02808H218.007M215.58 145.501V1.27074M215.58 145.501L218.007 145.259V1.02808M215.58 1.27074L218.007 1.02808" stroke="black" stroke-width="0.15"/>
<path d="M217.158 29.1741V79.7157L257.035 80.0517L286.397 80.2985V29.7568L257.035 29.51L217.158 29.1741Z" fill="#C0BEAD" stroke="black" stroke-width="0.15"/>
<path d="M215.58 145.5H212.304V1.26965H215.58V145.5Z" fill="#C0BEAD" stroke="black" stroke-width="0.15"/>
<path d="M152.73 144.852H149.454V25.3722L151.88 25.1295H155.156V144.609L152.73 144.852Z" fill="#C0BEAD"/>
<path d="M149.454 25.3722H152.73M149.454 25.3722L149.454 144.852H152.73M149.454 25.3722L151.88 25.1295H155.156M152.73 144.852V25.3722M152.73 144.852L155.156 144.609V25.1295M152.73 25.3722L155.156 25.1295" stroke="black" stroke-width="0.15"/>
<path d="M152.73 246.36H149.454V126.88L151.88 126.638H155.156V246.117L152.73 246.36Z" fill="#C0BEAD"/>
<path d="M149.454 126.88H152.73M149.454 126.88L149.454 246.36H152.73M149.454 126.88L151.88 126.638H155.156M152.73 246.36V126.88M152.73 246.36L155.156 246.117V126.638M152.73 126.88L155.156 126.638" stroke="black" stroke-width="0.15"/>
<path d="M215.595 246.415H212.319V126.936L214.746 126.693H218.022V246.173L215.595 246.415Z" fill="#C0BEAD"/>
<path d="M212.319 126.936H215.595M212.319 126.936L212.319 246.415H215.595M212.319 126.936L214.746 126.693H218.022M215.595 246.415V126.936M215.595 246.415L218.022 246.173V126.693M215.595 126.936L218.022 126.693" stroke="black" stroke-width="0.15"/>
<path d="M289.699 246.415H286.423V126.936L288.85 126.693H292.126V246.173L289.699 246.415Z" fill="#C0BEAD"/>
<path d="M286.423 126.936H289.699M286.423 126.936L286.423 246.415H289.699M286.423 126.936L288.85 126.693H292.126M289.699 246.415V126.936M289.699 246.415L292.126 246.173V126.693M289.699 126.936L292.126 126.693" stroke="black" stroke-width="0.15"/>
<path d="M152.73 144.853H149.454V27.113H152.73V144.853Z" fill="#C0BEAD"/>
<path d="M149.454 27.113H152.73V144.853H149.454V27.113ZM149.454 27.113L151.88 26.8704" stroke="black" stroke-width="0.15"/>
<path d="M152.73 246.362H149.454V128.621H152.73V246.362Z" fill="#C0BEAD"/>
<path d="M149.454 128.621H152.73V246.362H149.454V128.621ZM149.454 128.621L151.88 128.379" stroke="black" stroke-width="0.15"/>
<path d="M215.595 246.417H212.319V128.677H215.595V246.417Z" fill="#C0BEAD"/>
<path d="M212.319 128.677H215.595V246.417H212.319V128.677ZM212.319 128.677L214.746 128.434" stroke="black" stroke-width="0.15"/>
<path d="M289.699 246.417H286.423V128.677H289.699V246.417Z" fill="#C0BEAD"/>
<path d="M286.423 128.677H289.699V246.417H286.423V128.677ZM286.423 128.677L288.85 128.434" stroke="black" stroke-width="0.15"/>
<path d="M254.448 129.25V137.222L251.213 137.195V129.224L254.448 129.25Z" fill="#C0BEAD" stroke="black" stroke-width="0.15"/>
<path d="M254.446 129.25V137.194L289.707 134.396V126.452L254.446 129.25Z" fill="#C0BEAD" stroke="black" stroke-width="0.15"/>
<path d="M288.781 126.237L251.123 129.269L254.404 129.296L292.062 126.264L288.781 126.237Z" fill="#C0BEAD" stroke="black" stroke-width="0.15"/>
<path d="M178.088 129.181V137.152L174.853 137.126V129.154L178.088 129.181Z" fill="#C0BEAD" stroke="black" stroke-width="0.15"/>
<path d="M178.085 129.181V137.126L215.576 134.151V126.206L178.085 129.181Z" fill="#C0BEAD" stroke="black" stroke-width="0.15"/>
<path d="M212.42 126.167L174.762 129.2L178.043 129.227L215.701 126.195L212.42 126.167Z" fill="#C0BEAD" stroke="black" stroke-width="0.15"/>
<path d="M115.249 128.531V136.503L112.014 136.476V128.504L115.249 128.531Z" fill="#C0BEAD" stroke="black" stroke-width="0.15"/>
<path d="M115.247 128.531V136.476L152.737 133.501V125.557L115.247 128.531Z" fill="#C0BEAD" stroke="black" stroke-width="0.15"/>
<path d="M149.582 125.517L111.924 128.55L115.205 128.577L152.862 125.545L149.582 125.517Z" fill="#C0BEAD" stroke="black" stroke-width="0.15"/>
<path d="M121.792 108.851L332.698 110.6V127.131L121.792 125.382L121.792 108.851Z" fill="#C0BEAD" stroke="black" stroke-width="0.15"/>
<path d="M332.696 127.13V110.599L333.51 110.534V127.064L332.696 127.13Z" fill="#C0BEAD" stroke="black" stroke-width="0.15"/>
<path d="M113.056 109.499L323.963 111.247V127.778L113.056 126.029L113.056 109.499Z" fill="#C0BEAD" stroke="black" stroke-width="0.15"/>
<path d="M323.961 127.777V111.247L324.775 111.181V127.712L323.961 127.777Z" fill="#C0BEAD" stroke="black" stroke-width="0.15"/>
<path d="M315.226 128.506V111.976L113.015 110.299V126.83L315.226 128.506Z" fill="#C0BEAD" stroke="black" stroke-width="0.15"/>
<path d="M315.227 128.506V111.975L316.041 111.91V128.44L315.227 128.506Z" fill="#C0BEAD" stroke="black" stroke-width="0.15"/>
<path d="M306.814 129.155V112.624L113.015 111.017V127.548L306.814 129.155Z" fill="#C0BEAD" stroke="black" stroke-width="0.15"/>
<path d="M306.813 129.152V112.621L307.627 112.556V129.086L306.813 129.152Z" fill="#C0BEAD" stroke="black" stroke-width="0.15"/>
<path d="M295.813 130.043V113.512L113.015 111.997V128.527L295.813 130.043Z" fill="#C0BEAD" stroke="black" stroke-width="0.15"/>
<path d="M295.815 130.043V113.512L296.629 113.447V129.977L295.815 130.043Z" fill="#C0BEAD" stroke="black" stroke-width="0.15"/>
<path d="M115.241 109.728V112.045L295.901 113.543V111.226L115.241 109.728Z" fill="#C0BEAD" stroke="black" stroke-width="0.15"/>
<path d="M295.863 113.551V111.234L333.521 108.202V110.52L295.863 113.551Z" fill="#C0BEAD" stroke="black" stroke-width="0.15"/>
<path d="M152.899 106.695L115.241 109.727L220.695 110.601L265.65 110.974L295.899 111.225L333.554 108.201L311.079 108.007L258.352 107.569L152.899 106.695Z" fill="#C0BEAD" stroke="black" stroke-width="0.15"/>
<path d="M115.241 109.73L178.131 110.252V32.3332L115.241 31.811V109.73Z" fill="#C0BEAD" stroke="black" stroke-width="0.15"/>
<path d="M178.131 110.249V32.3303L192.488 32.4699L196.856 32.5123L201.831 32.5607L215.582 32.6943V107.215L201.831 108.329L196.856 108.732L192.488 109.086L178.131 110.249Z" fill="#C0BEAD"/>
<path d="M196.856 32.5123V108.732M196.856 32.5123L201.831 32.5607M196.856 32.5123L192.488 32.4699M196.856 108.732L201.831 108.329M196.856 108.732L192.488 109.086M201.831 108.329L215.582 107.215V32.6943L201.831 32.5607M201.831 108.329V32.5607M192.488 32.4699L178.131 32.3303V110.249L192.488 109.086M192.488 32.4699V109.086" stroke="black" stroke-width="0.15"/>
<path d="M215.582 32.6943V107.215L206.219 107.974V32.6033L215.582 32.6943Z" fill="#C0BEAD"/>
<path d="M187.494 109.491L178.131 110.249V109.491V32.3303L187.494 32.4213V109.491Z" fill="#C0BEAD"/>
<path d="M187.494 109.491L178.131 110.249V109.491M187.494 109.491V32.4213L178.131 32.3303V109.491M187.494 109.491H178.131M215.582 107.215V32.6943L206.219 32.6033V107.974L215.582 107.215Z" stroke="black" stroke-width="0.15"/>
<path d="M206.24 88.3058L187.595 89.8022L194.976 89.8643L213.62 88.3679L206.24 88.3058Z" fill="#C0BEAD"/>
<path d="M263.952 106.605L213.62 106.182L194.976 107.678L202.357 107.74L245.308 108.101L263.952 106.605Z" fill="#C0BEAD"/>
<path d="M206.24 88.3058L187.595 89.8022L194.976 89.8643L213.62 88.3679L206.24 88.3058Z" stroke="black" stroke-width="0.15"/>
<path d="M263.952 106.605L213.62 106.182L194.976 107.678L202.357 107.74L245.308 108.101L263.952 106.605Z" stroke="black" stroke-width="0.15"/>
<path d="M263.952 108.525L245.308 110.022V108.099L263.952 106.603V108.525Z" fill="#C0BEAD"/>
<path d="M213.62 88.3658L194.976 89.8622V107.676L213.62 106.18V88.3658Z" fill="#C0BEAD"/>
<path d="M263.952 108.525L245.308 110.022V108.099L263.952 106.603V108.525Z" stroke="black" stroke-width="0.15"/>
<path d="M213.62 88.3658L194.976 89.8622V107.676L213.62 106.18V88.3658Z" stroke="black" stroke-width="0.15"/>
<path d="M263.952 96.4536L213.62 96.0304L194.976 97.5268L245.308 97.95L263.952 96.4536Z" fill="#C0BEAD" stroke="black" stroke-width="0.15"/>
<path d="M263.948 106.606L245.304 108.103V97.9516L263.948 96.4552V106.606Z" fill="#C0BEAD" stroke="black" stroke-width="0.15"/>
<path d="M245.308 97.9499L194.976 97.5266V107.678L245.308 108.101V97.9499Z" fill="#C0BEAD" stroke="black" stroke-width="0.15"/>
<path d="M187.595 109.535V89.7991L194.976 89.8611V107.675L202.357 107.737L245.308 108.098V110.021L202.357 109.66L194.976 109.597L187.595 109.535Z" fill="#C0BEAD" stroke="black" stroke-width="0.15"/>
<path d="M206.219 32.6033L215.582 32.6943V78.7985C212.461 78.3072 206.219 68.3803 206.219 32.6033Z" fill="#C0BEAD"/>
<path d="M178.131 32.3303L187.494 32.4213C187.494 67.4703 181.252 80.7472 178.131 83.0046V32.3303Z" fill="#C0BEAD"/>
<path d="M206.219 32.6033L215.582 32.6943V78.7985C212.461 78.3072 206.219 68.3803 206.219 32.6033Z" stroke="black" stroke-width="0.15"/>
<path d="M178.131 32.3303L187.494 32.4213C187.494 67.4703 181.252 80.7472 178.131 83.0046V32.3303Z" stroke="black" stroke-width="0.15"/>
<path d="M187.494 109.493L178.131 110.251V109.493H187.494Z" fill="#C0BEAD" stroke="black" stroke-width="0.15"/>
<path d="M112.856 148.09H109.58V21.6546L112.007 21.412H115.283V147.848L112.856 148.09Z" fill="#C0BEAD"/>
<path d="M109.58 21.6546H112.856M109.58 21.6546V148.09H112.856M109.58 21.6546L112.007 21.412H115.283M112.856 148.09V21.6546M112.856 148.09L115.283 147.848V21.412M112.856 21.6546L115.283 21.412" stroke="black" stroke-width="0.15"/>
<path d="M112.857 246.325H109.58V117.507L112.008 117.259H115.285V246.078L112.857 246.325Z" fill="#C0BEAD"/>
<path d="M109.58 117.507H112.857M109.58 117.507V246.325H112.857M109.58 117.507L112.008 117.259H115.285M112.857 246.325V117.507M112.857 246.325L115.285 246.078V117.259M112.857 117.507L115.285 117.259" stroke="black" stroke-width="0.15"/>
<path d="M175.717 246.325H172.44V117.507L174.867 117.259H178.145V246.078L175.717 246.325Z" fill="#C0BEAD"/>
<path d="M172.44 117.507H175.717M172.44 117.507V246.325H175.717M172.44 117.507L174.867 117.259H178.145M175.717 246.325V117.507M175.717 246.325L178.145 246.078V117.259M175.717 117.507L178.145 117.259" stroke="black" stroke-width="0.15"/>
<path d="M127.655 109.85L126.24 109.849V31.9301H127.655L129.071 31.931V109.851L127.655 109.85Z" fill="#C0BEAD"/>
<path d="M127.655 109.85V31.9301M127.655 109.85L126.24 109.849V31.9301H127.655M127.655 109.85L129.071 109.851V31.931L127.655 31.9301" stroke="black" stroke-width="0.15"/>
<path d="M127.653 31.9301V109.85L129.069 109.851V31.931L127.653 31.9301Z" fill="#C0BEAD" stroke="black" stroke-width="0.15"/>
<path d="M143.432 109.929L142.017 109.928V32.0089H143.432L144.848 32.0099V109.93L143.432 109.929Z" fill="#C0BEAD"/>
<path d="M143.432 109.929V32.0089M143.432 109.929L142.017 109.928V32.0089H143.432M143.432 109.929L144.848 109.93V32.0099L143.432 32.0089" stroke="black" stroke-width="0.15"/>
<path d="M143.431 32.0089V109.929L144.846 109.93V32.0099L143.431 32.0089Z" fill="#C0BEAD" stroke="black" stroke-width="0.15"/>
<path d="M157.669 110.087L156.253 110.086V32.167H157.669L159.084 32.1679V110.088L157.669 110.087Z" fill="#C0BEAD"/>
<path d="M157.669 110.087V32.167M157.669 110.087L156.253 110.086V32.167H157.669M157.669 110.087L159.084 110.088V32.1679L157.669 32.167" stroke="black" stroke-width="0.15"/>
<path d="M157.667 32.1669V110.087L159.083 110.088V32.1678L157.667 32.1669Z" fill="#C0BEAD" stroke="black" stroke-width="0.15"/>
<path d="M112.856 148.091H109.58V21.655H112.856V148.091Z" fill="#C0BEAD" stroke="black" stroke-width="0.15"/>
<path d="M175.731 246.324H172.44V117.532H175.731V246.324Z" fill="#C0BEAD" stroke="black" stroke-width="0.15"/>
<path d="M112.871 246.324H109.58V117.532H112.871V246.324Z" fill="#C0BEAD" stroke="black" stroke-width="0.15"/>
<path d="M175.704 22.1405L112.855 21.6116L150.508 18.5784L292.059 19.5896L252.223 22.7844L215.581 22.4764L175.704 22.1405Z" fill="#C0BEAD"/>
<path d="M252.223 22.7844L215.581 22.4764L175.704 22.1405L112.855 21.6116L150.508 18.5784L292.059 19.5896L252.223 22.7846" stroke="black" stroke-width="0.15"/>
<path d="M292.059 19.5945L252.223 22.7895V32.9406L292.059 29.7456V19.5945Z" fill="#C0BEAD" stroke="black" stroke-width="0.15"/>
<path d="M175.704 148.733H172.428V4.50194L174.855 4.25928H178.13V148.49L175.704 148.733Z" fill="#C0BEAD"/>
<path d="M172.428 4.50194H175.704M172.428 4.50194V148.733H175.704M172.428 4.50194L174.855 4.25928H178.13M175.704 148.733V4.50194M175.704 148.733L178.13 148.49V4.25928M175.704 4.50194L178.13 4.25928" stroke="black" stroke-width="0.15"/>
<path d="M175.704 148.739H172.428V4.50842H175.704V148.739Z" fill="#C0BEAD" stroke="black" stroke-width="0.15"/>
<path d="M112.855 21.655V31.7658L172.428 32.2672V22.1564L112.855 21.655Z" fill="#C0BEAD"/>
<path d="M175.704 22.1839V32.2947L215.581 32.6307L252.223 32.9387V22.8279L215.581 22.5199L175.704 22.1839Z" fill="#C0BEAD"/>
<path d="M112.855 21.655V31.7658L172.428 32.2672V22.1564L112.855 21.655Z" stroke="black" stroke-width="0.15"/>
<path d="M175.704 22.1839V32.2947L215.581 32.6307L252.223 32.9387V22.8279L215.581 22.5199L175.704 22.1839Z" stroke="black" stroke-width="0.15"/>
<path d="M176.873 32.3303V46.2459L216.75 46.5819L253.392 46.8899V32.9743L216.75 32.6662L176.873 32.3303Z" fill="#C0BEAD" stroke="black" stroke-width="0.15"/>
<path d="M252.227 246.406H248.951L248.951 33.0188H252.227L254.653 32.7761L254.653 246.163L252.227 246.406Z" fill="#C0BEAD"/>
<path d="M252.227 246.406H248.951L248.951 33.0188H252.227M252.227 246.406L252.227 33.0188M252.227 246.406L254.653 246.163L254.653 32.7761L252.227 33.0188" stroke="black" stroke-width="0.15"/>
<path d="M252.227 246.407H248.951L248.951 33.0162H252.227L252.227 246.407Z" fill="#C0BEAD" stroke="black" stroke-width="0.15"/>
<path d="M310.776 31.6148V21.3827L272.805 21.0679V31.3L310.776 31.6148Z" fill="#C0BEAD" stroke="black" stroke-width="0.15"/>
<path d="M272.805 21.0683L310.776 21.3831L311.63 21.2535L273.659 20.9387L272.805 21.0683Z" fill="#C0BEAD" stroke="black" stroke-width="0.15"/>
<path d="M310.778 31.6286V21.3809L311.592 21.3154V31.5631L310.778 31.6286Z" fill="#C0BEAD" stroke="black" stroke-width="0.15"/>
<path d="M175.098 22.1688V32.2063L135.342 35.4417L95.5862 38.6772L93.7258 38.6542V28.6168L133.482 25.3813L173.237 22.1459L175.098 22.1688Z" fill="#C0BEAD"/>
<path d="M175.098 22.1688V32.2063L135.342 35.4417L95.5862 38.6772M175.098 22.1688L173.237 22.1459L133.482 25.3813L93.7258 28.6168M175.098 22.1688L135.342 25.4043L95.5862 28.6398M95.5862 28.6398L93.7258 28.6168M95.5862 28.6398V38.6772M93.7258 28.6168V38.6542L95.5862 38.6772" stroke="black" stroke-width="0.15"/>
<path d="M103.228 28.0445L296.749 53.726L304.324 26.1802L305.647 21.3714L306.536 21.2096L290.521 12.9592L289.712 12.8379L178.129 17.3843V22.2207L172.427 22.1398V17.6167L150.749 18.4999L112.935 21.6141L102.055 27.9232L103.228 28.0445Z" fill="#C0BEAD"/>
<path d="M309.986 31.6036L342.288 62.5426L311.592 27.0542V31.5631L310.783 31.6036H309.986Z" fill="#C0BEAD"/>
<path d="M103.228 28.0445L296.749 53.726L304.324 26.1802L305.647 21.3714L306.536 21.2096L290.521 12.9592L289.712 12.8379L178.129 17.3843V22.2207L172.427 22.1398V17.6167L150.749 18.4999L112.935 21.6141L102.055 27.9232L103.228 28.0445Z" stroke="black" stroke-width="0.15"/>
<path d="M309.986 31.6036L342.288 62.5426L311.592 27.0542V31.5631L310.783 31.6036H309.986Z" stroke="black" stroke-width="0.15"/>
<path d="M102.704 28.0062L174.443 4.51176M176.527 4.42948L306.052 21.3331L216.322 1.19324M290.32 12.9209L217.995 1.30294M172.468 4.95355L137.939 19.5685L212.345 1.71809" stroke="black" stroke-width="0.15"/>
<path d="M296.628 53.8444L344.877 156.408M342.208 62.5397L398.222 144.599" stroke="black" stroke-width="0.15"/>
<path d="M102.478 28.071L99.5488 162.6L97.7139 246.326M100.394 38.3009L76.0687 155.684M76.0686 155.684L57.3103 246.381" stroke="black" stroke-width="0.15"/>
<path d="M311.142 84.8536C304.079 81.9345 297.217 82.3204 295.814 85.7155L294.607 100.113L316.972 98.9726C319.174 98.6484 320.785 97.7452 321.388 96.2864C322.791 92.8913 318.204 87.7727 311.142 84.8536Z" fill="#C0BEAD"/>
<path d="M321.318 96.2577C320.73 97.6803 319.153 98.5757 316.961 98.8984C314.056 99.3262 310.107 98.7402 306.088 97.0789C302.565 95.6227 299.663 93.6192 297.818 91.5603C295.969 89.497 295.198 87.3998 295.883 85.7441C296.567 84.0884 298.593 83.1471 301.36 82.9916C304.12 82.8364 307.59 83.4667 311.113 84.9229C314.636 86.3791 317.538 88.3827 319.383 90.4415C321.232 92.5048 322.003 94.602 321.318 96.2577Z" fill="#C0BEAD" stroke="black" stroke-width="0.15"/>
<path d="M319.996 95.6444C319.472 96.9144 318.062 97.7154 316.101 98.0042C313.502 98.387 309.967 97.8627 306.369 96.3755C303.215 95.0719 300.618 93.2784 298.966 91.4359C297.311 89.5889 296.624 87.7142 297.235 86.236C297.846 84.7578 299.656 83.9154 302.132 83.7761C304.603 83.6372 307.709 84.2013 310.862 85.5049C314.016 86.8085 316.614 88.602 318.265 90.4445C319.92 92.2915 320.608 94.1662 319.996 95.6444Z" fill="#C0BEAD" stroke="black" stroke-width="0.15"/>
<path d="M295.814 85.7155C297.217 82.3204 304.079 81.9345 311.142 84.8536C318.204 87.7727 322.791 92.8913 321.388 96.2864C320.785 97.7452 319.174 98.6484 316.972 98.9726L294.607 100.113M294.607 100.113L295.618 87.3737M294.607 100.113L301.604 94.7748M294.607 100.113L297.479 91.2967M294.607 100.113L306.659 97.3631" stroke="black" stroke-width="0.15"/>
<path d="M304.517 97.4442L306.135 108.607M318.794 108.607L316.974 99.0619M296.348 99.0619L293.153 108.607M299.947 108.202L298.936 99.9517" stroke="black" stroke-width="0.15"/>
<path d="M67.9551 112.541L131.062 112.927L131.062 115.374L131.063 117.821L67.9563 117.435L67.9557 114.988L67.9551 112.541Z" fill="#C0BEAD" stroke="black" stroke-width="0.15"/>
<path d="M131.088 115.351L131.088 112.843L172.445 110.21V114.872L168.606 115.311L167.646 115.421L166.34 115.526L144.735 116.987L139.737 117.284L131.089 117.798L131.088 115.351Z" fill="#C0BEAD" stroke="black" stroke-width="0.15"/>
<path d="M113.809 109.716L67.9431 112.553L128.345 113.007L172.418 110.21L113.809 109.716Z" fill="#C0BEAD" stroke="black" stroke-width="0.15"/>
<path d="M128.355 109.73H124.668L127.399 109.471H131.086V246.353H128.355V109.73Z" fill="#C0BEAD"/>
<path d="M128.355 109.73H124.668L127.399 109.471H131.086M128.355 109.73L131.086 109.471M128.355 109.73V246.353H131.086V109.471" stroke="black" stroke-width="0.15"/>
<path d="M128.355 109.728H124.668V246.351H128.355V109.728Z" fill="#C0BEAD" stroke="black" stroke-width="0.15"/>
<path d="M255.82 192.979L166.275 110.622L163.56 110.783L253.105 193.14L255.82 192.979Z" fill="#C0BEAD" stroke="black" stroke-width="0.15"/>
<path d="M253.079 193.144L163.533 110.787L163.506 115.696L252.365 197.343L253.079 193.144Z" fill="#C0BEAD"/>
<path d="M255.794 192.982L253.079 193.144M253.079 193.144L163.533 110.787L163.506 115.696L252.365 197.343L253.079 193.144Z" stroke="black" stroke-width="0.15"/>
<path d="M169.013 115.806V120.77L145.126 122.19V117.226L139.805 117.198L163.693 115.777L169.013 115.806Z" fill="#C0BEAD"/>
<path d="M145.126 117.226L169.013 115.806M145.126 117.226V122.19L169.013 120.77V115.806M145.126 117.226L139.805 117.198L163.693 115.777L169.013 115.806" stroke="black" stroke-width="0.15"/>
<path d="M169.012 115.806L145.124 117.226V122.191L169.012 120.77V115.806Z" fill="#C0BEAD" stroke="black" stroke-width="0.15"/>
<path d="M176.806 122.998V127.962L152.918 129.383V124.419L147.57 124.384L171.458 122.963L176.806 122.998Z" fill="#C0BEAD"/>
<path d="M152.918 124.419L176.806 122.998M152.918 124.419V129.383L176.806 127.962V122.998M152.918 124.419L147.57 124.384L171.458 122.963L176.806 122.998" stroke="black" stroke-width="0.15"/>
<path d="M176.806 122.997L152.918 124.418V129.382L176.806 127.962V122.997Z" fill="#C0BEAD" stroke="black" stroke-width="0.15"/>
<path d="M184.65 130.182V135.147L160.762 136.567V131.603L155.332 131.571L179.219 130.15L184.65 130.182Z" fill="#C0BEAD"/>
<path d="M160.762 131.603L184.65 130.182M160.762 131.603V136.567L184.65 135.147V130.182M160.762 131.603L155.332 131.571L179.219 130.15L184.65 130.182" stroke="black" stroke-width="0.15"/>
<path d="M184.649 130.182L160.761 131.602V136.567L184.649 135.146V130.182Z" fill="#C0BEAD" stroke="black" stroke-width="0.15"/>
<path d="M192.463 137.362V142.326L168.576 143.747V138.782L163.228 138.755L187.115 137.334L192.463 137.362Z" fill="#C0BEAD"/>
<path d="M168.576 138.782L192.463 137.362M168.576 138.782V143.747L192.463 142.326V137.362M168.576 138.782L163.228 138.755L187.115 137.334L192.463 137.362" stroke="black" stroke-width="0.15"/>
<path d="M192.464 137.361L168.576 138.782V143.746L192.464 142.325V137.361Z" fill="#C0BEAD" stroke="black" stroke-width="0.15"/>
<path d="M200.229 144.549V149.513L176.341 150.934V145.97L170.911 145.94L194.799 144.52L200.229 144.549Z" fill="#C0BEAD"/>
<path d="M176.341 145.97L200.229 144.549M176.341 145.97V150.934L200.229 149.513V144.549M176.341 145.97L170.911 145.94L194.799 144.52L200.229 144.549" stroke="black" stroke-width="0.15"/>
<path d="M200.228 144.55L176.341 145.97V150.934L200.228 149.514V144.55Z" fill="#C0BEAD" stroke="black" stroke-width="0.15"/>
<path d="M208.095 151.761V156.725L184.207 158.146V153.181L178.859 153.126L202.747 151.705L208.095 151.761Z" fill="#C0BEAD"/>
<path d="M184.207 153.181L208.095 151.761M184.207 153.181V158.146L208.095 156.725V151.761M184.207 153.181L178.859 153.126L202.747 151.705L208.095 151.761" stroke="black" stroke-width="0.15"/>
<path d="M208.096 151.761L184.208 153.181V158.146L208.096 156.725V151.761Z" fill="#C0BEAD" stroke="black" stroke-width="0.15"/>
<path d="M215.886 158.949V163.913L191.998 165.334V160.369L186.65 160.313L210.538 158.892L215.886 158.949Z" fill="#C0BEAD"/>
<path d="M191.998 160.369L215.886 158.949M191.998 160.369V165.334L215.886 163.913V158.949M191.998 160.369L186.65 160.313L210.538 158.892L215.886 158.949" stroke="black" stroke-width="0.15"/>
<path d="M215.887 158.949L191.999 160.37V165.334L215.887 163.914V158.949Z" fill="#C0BEAD" stroke="black" stroke-width="0.15"/>
<path d="M223.705 166.104V171.068L199.817 172.489V167.525L194.497 167.497L218.385 166.076L223.705 166.104Z" fill="#C0BEAD"/>
<path d="M199.817 167.525L223.705 166.104M199.817 167.525V172.489L223.705 171.068V166.104M199.817 167.525L194.497 167.497L218.385 166.076L223.705 166.104" stroke="black" stroke-width="0.15"/>
<path d="M223.704 166.103L199.816 167.524V172.488L223.704 171.067V166.103Z" fill="#C0BEAD" stroke="black" stroke-width="0.15"/>
<path d="M231.49 173.291V178.255L207.602 179.676V174.712L202.281 174.684L226.169 173.263L231.49 173.291Z" fill="#C0BEAD"/>
<path d="M207.602 174.712L231.49 173.291M207.602 174.712V179.676L231.49 178.255V173.291M207.602 174.712L202.281 174.684L226.169 173.263L231.49 173.291" stroke="black" stroke-width="0.15"/>
<path d="M231.488 173.29L207.6 174.711V179.675L231.488 178.255V173.29Z" fill="#C0BEAD" stroke="black" stroke-width="0.15"/>
<path d="M239.364 180.476V185.44L215.476 186.861V181.897L210.128 181.868L234.016 180.447L239.364 180.476Z" fill="#C0BEAD"/>
<path d="M215.476 181.897L239.364 180.476M215.476 181.897V186.861L239.364 185.44V180.476M215.476 181.897L210.128 181.868L234.016 180.447L239.364 180.476" stroke="black" stroke-width="0.15"/>
<path d="M239.365 180.476L215.477 181.896V186.861L239.365 185.44V180.476Z" fill="#C0BEAD" stroke="black" stroke-width="0.15"/>
<path d="M247.097 187.661V192.625L223.209 194.046V189.082L217.861 189.053L241.748 187.633L247.097 187.661Z" fill="#C0BEAD"/>
<path d="M223.209 189.082L247.097 187.661M223.209 189.082V194.046L247.097 192.625V187.661M223.209 189.082L217.861 189.053L241.748 187.633L247.097 187.661" stroke="black" stroke-width="0.15"/>
<path d="M247.097 187.661L223.209 189.082V194.046L247.097 192.626V187.661Z" fill="#C0BEAD" stroke="black" stroke-width="0.15"/>
<path d="M229.242 199.679L139.697 117.314V114.87V112.426L142.412 112.265L231.957 194.63L229.242 194.792V196.014V197.236V199.679Z" fill="#C0BEAD"/>
<path d="M139.697 112.426L229.242 194.792M139.697 112.426L142.412 112.265L231.957 194.63M139.697 112.426V114.87V117.314L229.242 199.679V197.236V196.014V194.792M229.242 194.792L231.957 194.63M231.957 194.63L231.971 195.851L231.985 197.071" stroke="black" stroke-width="0.15"/>
<path d="M229.242 194.792L139.697 112.426V114.87V117.314L229.242 199.679V197.236V196.014V194.792Z" fill="#C0BEAD"/>
<path d="M139.697 112.426L229.242 194.792M139.697 112.426L142.412 112.265M139.697 112.426V114.87V117.314L229.242 199.679V197.236V196.014V194.792M229.242 194.792L231.957 194.63L231.971 195.851L231.985 197.071" stroke="black" stroke-width="0.15"/>
<path d="M324.856 188.862H321.706L323.598 188.621H327.189V246.38H324.856V188.862Z" fill="#C0BEAD"/>
<path d="M324.856 188.862H321.706L323.598 188.621H327.189M324.856 188.862L327.189 188.621M324.856 188.862V246.38H327.189V188.621" stroke="black" stroke-width="0.15"/>
<path d="M324.856 188.863H321.706V246.381H324.856V188.863Z" fill="#C0BEAD" stroke="black" stroke-width="0.15"/>
<path d="M220.616 197.409L220.616 194.962L229.265 194.448V196.895L220.616 197.409Z" fill="#C0BEAD"/>
<path d="M261.765 194.962L261.764 192.515L255.868 192.866V195.313L261.765 194.962Z" fill="#C0BEAD"/>
<path d="M220.616 197.409L220.616 194.962L229.265 194.448V196.895L220.616 197.409Z" stroke="black" stroke-width="0.15"/>
<path d="M261.765 194.962L261.764 192.515L255.868 192.866V195.313L261.765 194.962Z" stroke="black" stroke-width="0.15"/>
<path d="M220.604 194.964L261.752 192.517L324.859 192.903L324.86 197.797L283.712 200.244L220.605 199.858L220.604 194.964Z" fill="#C0BEAD"/>
<path d="M273.453 192.517L306.506 192.719M220.604 194.964L261.752 192.517L324.859 192.903M220.604 194.964L220.605 199.858L283.712 200.244M220.604 194.964L283.71 195.35M283.71 195.35L324.859 192.903M283.71 195.35L283.712 200.244M324.859 192.903L324.86 197.797L283.712 200.244" stroke="black" stroke-width="0.15"/>
<path d="M220.605 199.857L220.604 194.963L283.711 195.35L324.859 192.902L324.86 197.797L283.712 200.244L220.605 199.857Z" fill="#C0BEAD"/>
<path d="M283.711 195.35L324.859 192.902L324.86 197.797L283.712 200.244M283.711 195.35L220.604 194.963L220.605 199.857L283.712 200.244M283.711 195.35L283.712 200.244" stroke="black" stroke-width="0.15"/>
<path d="M281.007 191.439H277.332L280.055 191.199H283.73V246.38H281.007V191.439Z" fill="#C0BEAD"/>
<path d="M281.007 191.439H277.332L280.055 191.199H283.73M281.007 191.439L283.73 191.199M281.007 191.439V246.38H283.73V191.199" stroke="black" stroke-width="0.15"/>
<path d="M281.007 191.438H277.332V246.379H281.007V191.438Z" fill="#C0BEAD" stroke="black" stroke-width="0.15"/>
<path d="M224.279 191.768H220.604L223.326 191.528H227.002V246.353H224.279V191.768Z" fill="#C0BEAD"/>
<path d="M224.279 191.768H220.604L223.326 191.528H227.002M224.279 191.768L227.002 191.528M224.279 191.768V246.353H227.002V191.528" stroke="black" stroke-width="0.15"/>
<path d="M224.279 191.767H220.604V246.352H224.279V191.767Z" fill="#C0BEAD" stroke="black" stroke-width="0.15"/>
<path d="M71.2534 109.73H67.5667L70.2976 109.471H73.9843V246.38H71.2534V109.73Z" fill="#C0BEAD"/>
<path d="M71.2534 109.73H67.5667L70.2976 109.471H73.9843M71.2534 109.73L73.9843 109.471M71.2534 109.73V246.38H73.9843V109.471" stroke="black" stroke-width="0.15"/>
<path d="M71.2534 109.73H67.5667V246.381H71.2534V109.73Z" fill="#C0BEAD" stroke="black" stroke-width="0.15"/>
<path d="M115.346 231.57L124.56 228.554L131.965 226.131L138.328 224.049L144.34 222.081L150.724 219.991L158.129 217.568L166.521 214.821L173.251 212.619L181.03 210.073L187.502 207.955L192.987 206.16L203.436 202.74L207.962 201.259L212.048 199.921L215.751 198.71L219.124 197.606L227.05 195.011L277.322 195.313V200.25L165.534 236.452L115.346 236.344V231.57Z" fill="#C0BEAD"/>
<path d="M115.346 231.57L227.05 195.011L277.322 195.313M115.346 231.57V236.344L165.534 236.452M115.346 231.57H165.534M165.534 231.57L277.322 195.313M165.534 231.57V236.452M277.322 195.313V200.25L165.534 236.452M124.56 228.554H174.831M131.965 226.131H182.304M138.328 224.049H188.724M144.34 222.081H194.792M150.724 219.991H201.233M158.129 217.568H208.705M166.521 214.821H217.174M173.251 212.619H223.965M181.03 210.073H231.814M187.502 207.955H238.345M192.987 206.16H243.88M198.472 204.419H249.248M203.436 202.74H254.424M207.962 201.259H258.99M212.048 199.921H263.114M215.751 198.71H266.85M219.124 197.606H270.383M223.285 196.247H274.442" stroke="black" stroke-width="0.15"/>
<path d="M277.319 195.314L165.532 231.571V236.452L277.319 200.25V195.314Z" fill="#C0BEAD" stroke="black" stroke-width="0.15"/>
<path d="M115.345 236.346V231.572H165.533V236.453L115.345 236.346Z" fill="#C0BEAD" stroke="black" stroke-width="0.15"/>
<path d="M124.561 228.554H174.833L182.305 226.131H131.966L124.561 228.554Z" fill="#C0BEAD"/>
<path d="M138.329 224.048H188.726L194.793 222.08H144.341L138.329 224.048Z" fill="#C0BEAD"/>
<path d="M150.725 219.991H201.234L208.707 217.568H158.13L150.725 219.991Z" fill="#C0BEAD"/>
<path d="M166.523 214.821H217.175L223.966 212.618H173.252L166.523 214.821Z" fill="#C0BEAD"/>
<path d="M181.031 210.073H231.815L238.346 207.954H187.503L181.031 210.073Z" fill="#C0BEAD"/>
<path d="M192.988 206.159H243.881L249.249 204.418H198.474L192.988 206.159Z" fill="#C0BEAD"/>
<path d="M203.438 202.739H254.425L258.991 201.258H207.963L203.438 202.739Z" fill="#C0BEAD"/>
<path d="M212.049 199.921H263.115L266.851 198.709H215.752L212.049 199.921Z" fill="#C0BEAD"/>
<path d="M219.125 197.605H270.384L274.443 196.247H223.286L219.125 197.605Z" fill="#C0BEAD"/>
<path d="M124.561 228.554H174.833L182.305 226.131H131.966L124.561 228.554Z" stroke="black" stroke-width="0.15"/>
<path d="M138.329 224.048H188.726L194.793 222.08H144.341L138.329 224.048Z" stroke="black" stroke-width="0.15"/>
<path d="M150.725 219.991H201.234L208.707 217.568H158.13L150.725 219.991Z" stroke="black" stroke-width="0.15"/>
<path d="M166.523 214.821H217.175L223.966 212.618H173.252L166.523 214.821Z" stroke="black" stroke-width="0.15"/>
<path d="M181.031 210.073H231.815L238.346 207.954H187.503L181.031 210.073Z" stroke="black" stroke-width="0.15"/>
<path d="M192.988 206.159H243.881L249.249 204.418H198.474L192.988 206.159Z" stroke="black" stroke-width="0.15"/>
<path d="M203.438 202.739H254.425L258.991 201.258H207.963L203.438 202.739Z" stroke="black" stroke-width="0.15"/>
<path d="M212.049 199.921H263.115L266.851 198.709H215.752L212.049 199.921Z" stroke="black" stroke-width="0.15"/>
<path d="M219.125 197.605H270.384L274.443 196.247H223.286L219.125 197.605Z" stroke="black" stroke-width="0.15"/>
<path d="M168.683 226.6H165.532L167.425 226.359H171.016V246.38H168.683V226.6Z" fill="#C0BEAD"/>
<path d="M168.683 226.6H165.532L167.425 226.359H171.016M168.683 226.6L171.016 226.359M168.683 226.6V246.38H171.016V226.359" stroke="black" stroke-width="0.15"/>
<path d="M168.683 226.601H165.532V246.381H168.683V226.601Z" fill="#C0BEAD" stroke="black" stroke-width="0.15"/>
<path fill-rule="evenodd" clip-rule="evenodd" d="M120.773 226.359H117.181L115.289 226.6V246.327H115.292V234.424H120.773V226.359Z" fill="#C0BEAD"/>
<path d="M117.181 226.359V226.284L117.172 226.285L117.181 226.359ZM120.773 226.359H120.848V226.284H120.773V226.359ZM115.289 226.6L115.28 226.526L115.214 226.534V226.6H115.289ZM115.289 246.327H115.214V246.402H115.289V246.327ZM115.292 246.327V246.402H115.367V246.327H115.292ZM115.292 234.424V234.349H115.217V234.424H115.292ZM120.773 234.424V234.499H120.848V234.424H120.773ZM117.181 226.434H120.773V226.284H117.181V226.434ZM115.299 226.674L117.191 226.434L117.172 226.285L115.28 226.526L115.299 226.674ZM115.364 246.327V226.6H115.214V246.327H115.364ZM115.289 246.402H115.292V246.252H115.289V246.402ZM115.217 234.424V246.327H115.367V234.424H115.217ZM120.773 234.349H115.292V234.499H120.773V234.349ZM120.698 226.359V234.424H120.848V226.359H120.698ZM115.289 226.675H118.439V226.525H115.289V226.675ZM120.765 226.285L118.432 226.525L118.447 226.675L120.781 226.434L120.765 226.285ZM118.514 234.424V226.6H118.364V234.424H118.514Z" fill="black"/>
<path d="M120.776 246.325H118.445" stroke="black" stroke-width="0.15"/>
<path d="M118.439 226.6H115.289V246.325H118.439V226.6Z" fill="#C0BEAD" stroke="black" stroke-width="0.15"/>
<path d="M40.7529 251.028V60.6747M40.7529 29.5215L12.6751 48.5732M40.7529 29.5215L67.5381 48.5732M40.7529 29.5215V37.6164M40.7529 37.6164L74.4318 63.4547M40.7529 37.6164L5.99673 63.4547M40.7529 37.6164V48.5732M40.7529 48.5732L0.32373 78.2545M40.7529 48.5732L79.0995 78.2545M40.7529 48.5732V60.6747M40.7529 60.6747L12.6751 80.7893M40.7529 60.6747L67.5381 80.7893M5.99673 98.778L40.7529 72.9397L74.4318 98.778M40.7529 102.458L12.6751 121.509M40.7529 102.458L67.5381 121.509M40.7529 102.458V110.552M40.7529 110.552L74.4318 136.391M40.7529 110.552L5.99673 136.391M40.7529 110.552V121.509M40.7529 121.509L0.32373 151.191M40.7529 121.509L79.0995 151.191M40.7529 121.509V133.611M40.7529 133.611L12.6751 153.725M40.7529 133.611L67.5381 153.725M5.99673 171.714L40.7529 145.876L74.4318 171.714M40.7529 165.582L12.6751 184.633M40.7529 165.582L67.5381 184.633M40.7529 165.582V173.677M40.7529 173.677L74.4318 199.515M40.7529 173.677L5.99673 199.515M40.7529 173.677V184.633M40.7529 184.633L0.32373 214.315M40.7529 184.633L79.0995 214.315M40.7529 184.633V196.735M40.7529 196.735L12.6751 216.849M40.7529 196.735L67.5381 216.849M5.99673 234.838L40.7529 209L74.4318 234.838" stroke="black" stroke-width="0.251412" stroke-linecap="round" stroke-linejoin="round"/>
<path d="M75.1127 247.676V57.3224M75.1127 26.1692L47.0349 45.2209M75.1127 26.1692L101.898 45.2209M75.1127 26.1692V34.2641M75.1127 34.2641L108.792 60.1024M75.1127 34.2641L40.3566 60.1024M75.1127 34.2641V45.2209M75.1127 45.2209L34.6836 74.9023M75.1127 45.2209L113.459 74.9023M75.1127 45.2209V57.3224M75.1127 57.3224L47.0349 77.437M75.1127 57.3224L101.898 77.437M40.3566 95.4257L75.1127 69.5874L108.792 95.4257M75.1127 99.1053L47.0349 118.157M75.1127 99.1053L101.898 118.157M75.1127 99.1053V107.2M75.1127 107.2L108.792 133.039M75.1127 107.2L40.3566 133.039M75.1127 107.2V118.157M75.1127 118.157L34.6836 147.838M75.1127 118.157L113.459 147.838M75.1127 118.157V130.258M75.1127 130.258L47.0349 150.373M75.1127 130.258L101.898 150.373M40.3566 168.362L75.1127 142.523L108.792 168.362M75.1127 162.229L47.0349 181.281M75.1127 162.229L101.898 181.281M75.1127 162.229V170.324M75.1127 170.324L108.792 196.163M75.1127 170.324L40.3566 196.163M75.1127 170.324V181.281M75.1127 181.281L34.6836 210.962M75.1127 181.281L113.459 210.962M75.1127 181.281V193.382M75.1127 193.382L47.0349 213.497M75.1127 193.382L101.898 213.497M40.3566 231.486L75.1127 205.648L108.792 231.486" stroke="black" stroke-width="0.251412" stroke-linecap="round" stroke-linejoin="round"/>
<path d="M349.99 245.162V54.8082M349.99 23.655L321.912 42.7067M349.99 23.655L376.775 42.7067M349.99 23.655V31.75M349.99 31.75L383.669 57.5883M349.99 31.75L315.234 57.5883M349.99 31.75V42.7067M349.99 42.7067L309.561 72.3881M349.99 42.7067L388.336 72.3881M349.99 42.7067V54.8082M349.99 54.8082L321.912 74.9229M349.99 54.8082L376.775 74.9229M315.234 92.9116L349.99 67.0732L383.669 92.9116M349.99 96.5911L321.912 115.643M349.99 96.5911L376.775 115.643M349.99 96.5911V104.686M349.99 104.686L383.669 130.524M349.99 104.686L315.234 130.524M349.99 104.686V115.643M349.99 115.643L309.561 145.324M349.99 115.643L388.336 145.324M349.99 115.643V127.744M349.99 127.744L321.912 147.859M349.99 127.744L376.775 147.859M315.234 165.848L349.99 140.009L383.669 165.848M349.99 159.715L321.912 178.767M349.99 159.715L376.775 178.767M349.99 159.715V167.81M349.99 167.81L383.669 193.648M349.99 167.81L315.234 193.648M349.99 167.81V178.767M349.99 178.767L309.561 208.448M349.99 178.767L388.336 208.448M349.99 178.767V190.868M349.99 190.868L321.912 210.983M349.99 190.868L376.775 210.983M315.234 228.972L349.99 203.133L383.669 228.972" stroke="black" stroke-width="0.251412" stroke-linecap="round" stroke-linejoin="round"/>
<path d="M303.059 246V55.6465M303.059 24.4933L274.981 43.545M303.059 24.4933L329.844 43.545M303.059 24.4933V32.5882M303.059 32.5882L336.738 58.4265M303.059 32.5882L268.303 58.4265M303.059 32.5882V43.545M303.059 43.545L262.63 73.2264M303.059 43.545L341.406 73.2264M303.059 43.545V55.6465M303.059 55.6465L274.981 75.7611M303.059 55.6465L329.844 75.7611M268.303 93.7498L303.059 67.9115L336.738 93.7498M303.059 97.4294L274.981 116.481M303.059 97.4294L329.844 116.481M303.059 97.4294V105.524M303.059 105.524L336.738 131.363M303.059 105.524L268.303 131.363M303.059 105.524V116.481M303.059 116.481L262.63 146.162M303.059 116.481L341.406 146.162M303.059 116.481V128.583M303.059 128.583L274.981 148.697M303.059 128.583L329.844 148.697M268.303 166.686L303.059 140.848L336.738 166.686M303.059 160.553L274.981 179.605M303.059 160.553L329.844 179.605M303.059 160.553V168.648M303.059 168.648L336.738 194.487M303.059 168.648L268.303 194.487M303.059 168.648V179.605M303.059 179.605L262.63 209.286M303.059 179.605L341.406 209.286M303.059 179.605V191.707M303.059 191.707L274.981 211.821M303.059 191.707L329.844 211.821M268.303 229.81L303.059 203.972L336.738 229.81" stroke="black" stroke-width="0.251412" stroke-linecap="round" stroke-linejoin="round"/>
</svg>
