<svg width="130" height="251" viewBox="0 0 130 251" fill="none" xmlns="http://www.w3.org/2000/svg">
<path d="M19.4352 50.9922C11.3535 48.7885 9.33301 40.0533 9.33301 35.9611C9.33301 33.2468 10.2219 28.9745 13.179 27.0483C13.3895 26.9112 13.6104 26.786 13.8422 26.6741C14.2641 26.4704 14.722 26.3108 15.2186 26.2037C15.3383 26.1778 15.4603 26.1551 15.5845 26.1354C16.6818 25.9622 17.9572 26.0362 19.4352 26.4393C27.517 28.6429 29.5375 37.3782 29.5375 41.4703C29.5375 44.147 28.673 48.3389 25.8132 50.3018C25.5204 50.5027 25.2067 50.6803 24.8709 50.8305C24.3625 51.0579 23.8034 51.2226 23.1893 51.3106C22.114 51.4646 20.8701 51.3835 19.4352 50.9922Z" fill="#C0BEAD"/>
<path d="M19.4352 26.4393C27.517 28.6429 29.5375 37.3782 29.5375 41.4703C29.5375 44.147 28.673 48.3389 25.8132 50.3018L29.4862 48.2407C32.4433 46.3145 33.3322 42.0421 33.3322 39.3278C33.3322 35.2357 31.3118 26.5004 23.23 24.2967C21.5845 23.8481 20.1904 23.8072 19.0133 24.0611C18.237 24.2287 17.5551 24.5245 16.9579 24.9161L13.8422 26.6741C14.2641 26.4704 14.722 26.3108 15.2186 26.2037C15.3383 26.1778 15.4603 26.1551 15.5845 26.1354C16.6818 25.9622 17.9572 26.0362 19.4352 26.4393Z" fill="#C0BEAD"/>
<path d="M24.8709 50.8305C24.3625 51.0579 23.8034 51.2226 23.1893 51.3106C22.114 51.4646 20.8701 51.3835 19.4352 50.9922C11.3535 48.7885 9.33301 40.0533 9.33301 35.9611C9.33301 33.2468 10.2219 28.9745 13.179 27.0483M24.8709 50.8305L25.8132 50.3018M24.8709 50.8305C25.2067 50.6803 25.5204 50.5027 25.8132 50.3018M13.179 27.0483L13.8422 26.6741M13.179 27.0483C13.3895 26.9112 13.6104 26.786 13.8422 26.6741M25.8132 50.3018C28.673 48.3389 29.5375 44.147 29.5375 41.4703C29.5375 37.3782 27.517 28.6429 19.4352 26.4393C17.9572 26.0362 16.6818 25.9622 15.5845 26.1354C15.4603 26.1551 15.3383 26.1778 15.2186 26.2037C14.722 26.3108 14.2641 26.4704 13.8422 26.6741M25.8132 50.3018L29.4862 48.2407C32.4433 46.3145 33.3322 42.0421 33.3322 39.3278C33.3322 35.2357 31.3118 26.5004 23.23 24.2967C21.5845 23.8481 20.1904 23.8072 19.0133 24.0611C18.237 24.2287 17.5551 24.5245 16.9579 24.9161L13.8422 26.6741" stroke="black" stroke-width="0.15"/>
<path d="M10.8703 129.77C2.78851 127.566 0.768066 118.831 0.768066 114.739C0.768066 112.025 1.65699 107.752 4.61409 105.826C4.82453 105.689 5.04544 105.564 5.27725 105.452C5.69911 105.248 6.15706 105.089 6.65366 104.982C6.77338 104.956 6.89534 104.933 7.01958 104.913C8.11689 104.74 9.39222 104.814 10.8703 105.217C18.9521 107.421 20.9725 116.156 20.9725 120.248C20.9725 122.925 20.1081 127.117 17.2482 129.08C16.9555 129.281 16.6418 129.458 16.306 129.608C15.7976 129.836 15.2385 130.001 14.6244 130.089C13.549 130.243 12.3052 130.161 10.8703 129.77Z" fill="#C0BEAD"/>
<path d="M10.8703 105.217C18.9521 107.421 20.9725 116.156 20.9725 120.248C20.9725 122.925 20.1081 127.117 17.2482 129.08L20.9212 127.019C23.8783 125.092 24.7673 120.82 24.7673 118.106C24.7673 114.014 22.7468 105.278 14.665 103.075C13.0196 102.626 11.6254 102.585 10.4484 102.839C9.67204 103.007 8.99015 103.302 8.39295 103.694L5.27725 105.452C5.69911 105.248 6.15706 105.089 6.65366 104.982C6.77338 104.956 6.89534 104.933 7.01958 104.913C8.11689 104.74 9.39222 104.814 10.8703 105.217Z" fill="#C0BEAD"/>
<path d="M16.306 129.608C15.7976 129.836 15.2385 130.001 14.6244 130.089C13.549 130.243 12.3052 130.161 10.8703 129.77C2.78851 127.566 0.768066 118.831 0.768066 114.739C0.768066 112.025 1.65699 107.752 4.61409 105.826M16.306 129.608L17.2482 129.08M16.306 129.608C16.6418 129.458 16.9555 129.281 17.2482 129.08M4.61409 105.826L5.27725 105.452M4.61409 105.826C4.82453 105.689 5.04544 105.564 5.27725 105.452M17.2482 129.08C20.1081 127.117 20.9725 122.925 20.9725 120.248C20.9725 116.156 18.9521 107.421 10.8703 105.217C9.39222 104.814 8.11689 104.74 7.01958 104.913C6.89534 104.933 6.77338 104.956 6.65366 104.982C6.15706 105.089 5.69911 105.248 5.27725 105.452M17.2482 129.08L20.9212 127.019C23.8783 125.092 24.7673 120.82 24.7673 118.106C24.7673 114.014 22.7468 105.278 14.665 103.075C13.0196 102.626 11.6254 102.585 10.4484 102.839C9.67204 103.007 8.99015 103.302 8.39295 103.694L5.27725 105.452" stroke="black" stroke-width="0.15"/>
<path d="M70.3462 225.673L37.415 206.71L70.8007 186.68L103.755 205.629L70.3462 225.673Z" fill="#C0BEAD"/>
<path d="M44.3808 235.639L70.3962 250.62L70.3462 225.673L37.415 206.71L44.3808 235.639Z" fill="#C0BEAD"/>
<path d="M70.3962 250.62L96.7887 234.786L103.755 205.629L70.3462 225.673L70.3962 250.62Z" fill="#C0BEAD"/>
<path d="M70.3962 250.62L44.3808 235.639L37.415 206.71M70.3962 250.62L96.7887 234.786L103.755 205.629M70.3962 250.62L70.3462 225.673M37.415 206.71L70.3462 225.673M37.415 206.71L70.8007 186.68L103.755 205.629M70.3462 225.673L103.755 205.629" stroke="black" stroke-width="0.15"/>
<path d="M70.4272 216.595L39.6246 198.858L70.8524 180.122L101.676 197.847L70.4272 216.595Z" fill="#C0BEAD"/>
<path d="M32.3508 203.87L70.3708 225.764V220.86L32.3508 198.966V203.87Z" fill="#C0BEAD"/>
<path d="M70.3708 225.764L108.942 202.623V197.719L70.3708 220.86V225.764Z" fill="#C0BEAD"/>
<path fill-rule="evenodd" clip-rule="evenodd" d="M32.3508 198.966L70.3708 220.86L108.942 197.719L70.8956 175.841L32.3508 198.966ZM70.4272 216.595L39.6246 198.858L70.8524 180.122L101.676 197.847L70.4272 216.595Z" fill="#C0BEAD"/>
<path d="M70.3708 225.764L32.3508 203.87V198.966M70.3708 225.764L108.942 202.623V197.719M70.3708 225.764V220.86M32.3508 198.966L70.3708 220.86M32.3508 198.966L70.8956 175.841L108.942 197.719M70.3708 220.86L108.942 197.719M39.6246 198.858L70.4272 216.595L101.676 197.847L70.8524 180.122L39.6246 198.858Z" stroke="black" stroke-width="0.15"/>
<path d="M70.8446 180.129L39.6165 198.864L42.9888 200.806L70.8479 184.092L98.2975 199.877L101.669 197.854L70.8446 180.129Z" fill="#C0BEAD" stroke="black" stroke-width="0.15"/>
<path d="M70.2374 21.3177L66.2879 23.4097L70.2389 25.6894L74.1389 23.6255L70.2374 21.3177Z" fill="#C0BEAD"/>
<path d="M66.2879 200.033L70.2389 202.695V116.182V25.6894L66.2879 23.4097V154.688V159.891V200.033Z" fill="#C0BEAD"/>
<path d="M54.2154 116.779L50.3181 117.446L54.2692 118.151L58.1692 117.484L54.2154 116.779Z" fill="#C0BEAD"/>
<path d="M54.2692 149.277L58.1692 147.518V117.484L54.2692 118.151V149.277Z" fill="#C0BEAD"/>
<path d="M24.7331 117.991L21.1519 120.031L50.3181 145.788V140.585L24.7331 117.991Z" fill="#C0BEAD"/>
<path d="M54.2692 118.151L50.3181 117.446V140.585V145.788L54.2692 149.277V118.151Z" fill="#C0BEAD"/>
<path d="M21.1519 120.031C21.1519 122.088 20.8863 123.292 20.4402 124.773L66.2879 165.14V159.891L54.2692 149.277L50.3181 145.788L21.1519 120.031Z" fill="#C0BEAD"/>
<path d="M58.1692 147.518L54.2692 149.277L66.2879 159.891V154.688L58.1692 147.518Z" fill="#C0BEAD"/>
<path d="M116.005 78.9618H112.386L114.011 82.7988H117.522L116.005 78.9618Z" fill="#C0BEAD"/>
<path d="M114.011 82.7988L112.386 78.9618L74.1389 112.738L70.2389 116.182L70.2415 121.451L74.1389 118.01L94.0747 100.404L114.011 82.7988Z" fill="#C0BEAD"/>
<path d="M117.522 82.7988H114.011L94.0747 100.404L74.1389 118.01L70.2415 121.451H74.1389L117.522 82.7988Z" fill="#C0BEAD"/>
<path d="M70.2389 202.695L74.1389 200.249V121.451H70.2415L70.2389 116.182V202.695Z" fill="#C0BEAD"/>
<path d="M74.1389 23.6255L70.2389 25.6894V116.182L74.1389 112.738V23.6255Z" fill="#C0BEAD"/>
<path d="M70.2389 202.695L66.2879 200.033V159.891M70.2389 202.695L74.1389 200.249V121.451M70.2389 202.695V116.182M66.2879 23.4097L70.2374 21.3177L74.1389 23.6255M66.2879 23.4097L70.2389 25.6893M66.2879 23.4097V154.688M74.1389 23.6255L70.2389 25.6893M74.1389 23.6255V112.738M70.2389 25.6893V116.182M21.1519 120.031C21.1519 122.088 20.8863 123.292 20.4402 124.773L66.2879 165.14V159.891M21.1519 120.031L24.7331 117.991L50.3181 140.585M21.1519 120.031L50.3181 145.788M58.1692 147.518L54.2692 149.277M58.1692 147.518V117.484M58.1692 147.518L66.2879 154.688M54.2692 149.277V118.151M54.2692 149.277L50.3181 145.788M54.2692 149.277L66.2879 159.891M50.3181 117.446L54.2154 116.779L58.1692 117.484M50.3181 117.446L54.2692 118.151M50.3181 117.446V140.585M58.1692 117.484L54.2692 118.151M50.3181 145.788V140.585M50.3181 145.788L66.2879 159.891M66.2879 154.688V159.891M70.2415 121.451H74.1389M70.2415 121.451L70.2389 116.182M70.2415 121.451L74.1389 118.01L94.0747 100.404L114.011 82.7988M112.386 78.9618H116.005L117.522 82.7988M112.386 78.9618L114.011 82.7988M112.386 78.9618L74.1389 112.738M117.522 82.7988H114.011M117.522 82.7988L74.1389 121.451M70.2389 116.182L74.1389 112.738" stroke="black" stroke-width="0.15"/>
<path d="M102.266 49.7778H98.6472L100.271 53.6148H103.783L102.266 49.7778Z" fill="#C0BEAD"/>
<path d="M100.271 53.6148L98.6472 49.7778L74.139 69.8173L70.239 73.2614L70.2416 78.5303L74.139 75.0885L100.271 53.6148Z" fill="#C0BEAD"/>
<path d="M103.783 53.6148H100.271L74.139 75.0885L70.2416 78.5303H74.139L103.783 53.6148Z" fill="#C0BEAD"/>
<path d="M70.2416 78.5303H74.139L103.783 53.6148M70.2416 78.5303L70.239 73.2614L74.139 69.8173L98.6472 49.7778M70.2416 78.5303L74.139 75.0885L100.271 53.6148M98.6472 49.7778H102.266L103.783 53.6148M98.6472 49.7778L100.271 53.6148M103.783 53.6148H100.271" stroke="black" stroke-width="0.15"/>
<path d="M33.2691 40.5724L29.6879 42.6129L50.317 60.4089L54.2681 63.8981L66.2867 74.5118V69.3088L58.168 62.1391L50.317 55.2059L33.2691 40.5724Z" fill="#C0BEAD"/>
<path d="M28.5149 47.4684L66.2867 79.7612V74.5118L54.2681 63.8981L50.317 60.4089L29.6879 42.6129C29.7639 44.5587 29.2286 46.2984 28.5149 47.4684Z" fill="#C0BEAD"/>
<path d="M29.6879 42.6129L33.2691 40.5724L50.317 55.2059L58.168 62.1391L66.2867 69.3088V74.5118M29.6879 42.6129L50.317 60.4089L54.2681 63.8981L66.2867 74.5118M29.6879 42.6129C29.7639 44.5587 29.2286 46.2984 28.5149 47.4684L66.2867 79.7612V74.5118" stroke="black" stroke-width="0.15"/>
<path d="M106.956 59.557C98.8744 57.3533 96.854 48.6181 96.854 44.5259C96.854 41.8116 97.7429 37.5393 100.7 35.6131C100.91 35.476 101.131 35.3508 101.363 35.2389C101.785 35.0353 102.243 34.8756 102.74 34.7685C102.859 34.7427 102.981 34.7199 103.106 34.7003C104.203 34.5271 105.478 34.6011 106.956 35.0041C115.038 37.2078 117.058 45.943 117.058 50.0352C117.058 52.7119 116.194 56.9037 113.334 58.8666C113.041 59.0675 112.728 59.2451 112.392 59.3953C111.884 59.6227 111.324 59.7874 110.71 59.8754C109.635 60.0294 108.391 59.9483 106.956 59.557Z" fill="#C0BEAD"/>
<path d="M106.956 35.0041C115.038 37.2078 117.058 45.943 117.058 50.0352C117.058 52.7119 116.194 56.9037 113.334 58.8666L117.007 56.8055C119.964 54.8793 120.853 50.607 120.853 47.8926C120.853 43.8005 118.833 35.0652 110.751 32.8616C109.106 32.4129 107.711 32.372 106.534 32.626C105.758 32.7935 105.076 33.0893 104.479 33.481L101.363 35.2389C101.785 35.0353 102.243 34.8756 102.74 34.7685C102.859 34.7427 102.981 34.7199 103.106 34.7003C104.203 34.5271 105.478 34.6011 106.956 35.0041Z" fill="#C0BEAD"/>
<path d="M112.392 59.3953C111.884 59.6227 111.324 59.7874 110.71 59.8754C109.635 60.0294 108.391 59.9483 106.956 59.557C98.8744 57.3533 96.854 48.6181 96.854 44.5259C96.854 41.8116 97.7429 37.5393 100.7 35.6131M112.392 59.3953L113.334 58.8666M112.392 59.3953C112.728 59.2451 113.041 59.0675 113.334 58.8666M100.7 35.6131L101.363 35.2389M100.7 35.6131C100.91 35.476 101.131 35.3508 101.363 35.2389M113.334 58.8666C116.194 56.9037 117.058 52.7119 117.058 50.0352C117.058 45.943 115.038 37.2078 106.956 35.0041C105.478 34.6011 104.203 34.5271 103.106 34.7003C102.981 34.7199 102.859 34.7427 102.74 34.7685C102.243 34.8756 101.785 35.0353 101.363 35.2389M113.334 58.8666L117.007 56.8055C119.964 54.8793 120.853 50.607 120.853 47.8926C120.853 43.8005 118.833 35.0652 110.751 32.8616C109.106 32.4129 107.711 32.372 106.534 32.626C105.758 32.7935 105.076 33.0893 104.479 33.481L101.363 35.2389" stroke="black" stroke-width="0.15"/>
<path d="M50.2148 120.224C42.133 118.02 40.1125 109.285 40.1125 105.193C40.1125 102.478 41.0015 98.2061 43.9586 96.2799C44.169 96.1428 44.3899 96.0176 44.6217 95.9057C45.0436 95.7021 45.5015 95.5424 45.9981 95.4353C46.1179 95.4095 46.2398 95.3867 46.3641 95.3671C47.4614 95.1939 48.7367 95.2679 50.2148 95.6709C58.2966 97.8746 60.317 106.61 60.317 110.702C60.317 113.379 59.4525 117.571 56.5927 119.533C56.3 119.734 55.9863 119.912 55.6505 120.062C55.1421 120.29 54.5829 120.454 53.9689 120.542C52.8935 120.696 51.6497 120.615 50.2148 120.224Z" fill="#C0BEAD"/>
<path d="M50.2148 95.6709C58.2966 97.8746 60.317 106.61 60.317 110.702C60.317 113.379 59.4525 117.571 56.5927 119.533L60.2657 117.472C63.2228 115.546 64.1117 111.274 64.1117 108.559C64.1117 104.467 62.0913 95.7321 54.0095 93.5284C52.3641 93.0797 50.9699 93.0388 49.7929 93.2928C49.0165 93.4603 48.3346 93.7561 47.7374 94.1478L44.6217 95.9057C45.0436 95.7021 45.5015 95.5424 45.9981 95.4353C46.1179 95.4095 46.2398 95.3867 46.3641 95.3671C47.4614 95.1939 48.7367 95.2679 50.2148 95.6709Z" fill="#C0BEAD"/>
<path d="M55.6505 120.062C55.1421 120.29 54.5829 120.454 53.9689 120.542C52.8935 120.696 51.6497 120.615 50.2148 120.224C42.133 118.02 40.1125 109.285 40.1125 105.193C40.1125 102.478 41.0015 98.2061 43.9586 96.2799M55.6505 120.062L56.5927 119.533M55.6505 120.062C55.9863 119.912 56.3 119.734 56.5927 119.533M43.9586 96.2799L44.6217 95.9057M43.9586 96.2799C44.169 96.1428 44.3899 96.0176 44.6217 95.9057M56.5927 119.533C59.4525 117.571 60.317 113.379 60.317 110.702C60.317 106.61 58.2966 97.8746 50.2148 95.6709C48.7367 95.2679 47.4614 95.1939 46.3641 95.3671C46.2398 95.3867 46.1179 95.4095 45.9981 95.4353C45.5015 95.5424 45.0436 95.7021 44.6217 95.9057M56.5927 119.533L60.2657 117.472C63.2228 115.546 64.1117 111.274 64.1117 108.559C64.1117 104.467 62.0913 95.7321 54.0095 93.5284C52.3641 93.0797 50.9699 93.0388 49.7929 93.2928C49.0165 93.4603 48.3346 93.7561 47.7374 94.1478L44.6217 95.9057" stroke="black" stroke-width="0.15"/>
<path d="M68.415 27.7069C60.3332 25.5032 58.3127 16.768 58.3127 12.6758C58.3127 9.96153 59.2017 5.68918 62.1588 3.76299C62.3692 3.62592 62.5901 3.50072 62.8219 3.38882C63.2438 3.18517 63.7017 3.02553 64.1983 2.91838C64.3181 2.89255 64.44 2.86977 64.5643 2.85016C65.6616 2.67696 66.9369 2.75096 68.415 3.15398C76.4968 5.35767 78.5172 14.0929 78.5172 18.1851C78.5172 20.8618 77.6527 25.0536 74.7929 27.0165C74.5002 27.2174 74.1865 27.395 73.8507 27.5452C73.3423 27.7726 72.7831 27.9373 72.1691 28.0253C71.0937 28.1793 69.8499 28.0982 68.415 27.7069Z" fill="#C0BEAD"/>
<path d="M68.415 3.15398C76.4968 5.35767 78.5172 14.0929 78.5172 18.1851C78.5172 20.8618 77.6527 25.0536 74.7929 27.0165L78.4659 24.9554C81.423 23.0292 82.3119 18.7569 82.3119 16.0425C82.3119 11.9504 80.2915 3.21515 72.2097 1.01147C70.5643 0.562807 69.1701 0.521906 67.9931 0.775867C67.2167 0.943379 66.5348 1.23918 65.9376 1.63086L62.8219 3.38882C63.2438 3.18517 63.7017 3.02553 64.1983 2.91838C64.3181 2.89255 64.44 2.86977 64.5643 2.85016C65.6616 2.67696 66.9369 2.75096 68.415 3.15398Z" fill="#C0BEAD"/>
<path d="M73.8507 27.5452C73.3423 27.7726 72.7831 27.9373 72.1691 28.0253C71.0937 28.1793 69.8499 28.0982 68.415 27.7069C60.3332 25.5032 58.3127 16.768 58.3127 12.6758C58.3127 9.96153 59.2017 5.68918 62.1588 3.76299M73.8507 27.5452L74.7929 27.0165M73.8507 27.5452C74.1865 27.395 74.5002 27.2174 74.7929 27.0165M62.1588 3.76299L62.8219 3.38882M62.1588 3.76299C62.3692 3.62592 62.5901 3.50072 62.8219 3.38882M74.7929 27.0165C77.6527 25.0536 78.5172 20.8618 78.5172 18.1851C78.5172 14.0929 76.4968 5.35767 68.415 3.15398C66.9369 2.75096 65.6616 2.67696 64.5643 2.85016C64.44 2.86977 64.3181 2.89255 64.1983 2.91838C63.7017 3.02553 63.2438 3.18517 62.8219 3.38882M74.7929 27.0165L78.4659 24.9554C81.423 23.0292 82.3119 18.7569 82.3119 16.0425C82.3119 11.9504 80.2915 3.21515 72.2097 1.01147C70.5643 0.562807 69.1701 0.521906 67.9931 0.775867C67.2167 0.943379 66.5348 1.23918 65.9376 1.63086L62.8219 3.38882" stroke="black" stroke-width="0.15"/>
<path d="M115.7 93.1025C107.618 90.8988 105.597 82.1636 105.597 78.0714C105.597 75.3571 106.486 71.0848 109.443 69.1586C109.654 69.0215 109.875 68.8963 110.107 68.7844C110.528 68.5807 110.986 68.4211 111.483 68.314C111.603 68.2881 111.725 68.2653 111.849 68.2457C112.946 68.0725 114.222 68.1465 115.7 68.5496C123.781 70.7532 125.802 79.4885 125.802 83.5806C125.802 86.2573 124.937 90.4492 122.078 92.4121C121.785 92.613 121.471 92.7906 121.135 92.9408C120.627 93.1682 120.068 93.3329 119.454 93.4209C118.378 93.5749 117.135 93.4937 115.7 93.1025Z" fill="#C0BEAD"/>
<path d="M115.7 68.5496C123.781 70.7532 125.802 79.4885 125.802 83.5806C125.802 86.2573 124.937 90.4492 122.078 92.4121L125.751 90.351C128.708 88.4248 129.597 84.1524 129.597 81.4381C129.597 77.346 127.576 68.6107 119.494 66.407C117.849 65.9584 116.455 65.9175 115.278 66.1714C114.501 66.3389 113.819 66.6347 113.222 67.0264L110.107 68.7844C110.528 68.5807 110.986 68.4211 111.483 68.314C111.603 68.2881 111.725 68.2653 111.849 68.2457C112.946 68.0725 114.222 68.1465 115.7 68.5496Z" fill="#C0BEAD"/>
<path d="M121.135 92.9408C120.627 93.1682 120.068 93.3329 119.454 93.4209C118.378 93.5749 117.135 93.4937 115.7 93.1025C107.618 90.8988 105.597 82.1636 105.597 78.0714C105.597 75.3571 106.486 71.0848 109.443 69.1586M121.135 92.9408L122.078 92.4121M121.135 92.9408C121.471 92.7906 121.785 92.613 122.078 92.4121M109.443 69.1586L110.107 68.7844M109.443 69.1586C109.654 69.0215 109.875 68.8963 110.107 68.7844M122.078 92.4121C124.937 90.4492 125.802 86.2573 125.802 83.5806C125.802 79.4885 123.781 70.7532 115.7 68.5496C114.222 68.1465 112.946 68.0725 111.849 68.2457C111.725 68.2653 111.603 68.2881 111.483 68.314C110.986 68.4211 110.528 68.5807 110.107 68.7844M122.078 92.4121L125.751 90.351C128.708 88.4248 129.597 84.1524 129.597 81.4381C129.597 77.346 127.576 68.6107 119.494 66.407C117.849 65.9584 116.455 65.9175 115.278 66.1714C114.501 66.3389 113.819 66.6347 113.222 67.0264L110.107 68.7844" stroke="black" stroke-width="0.15"/>
<path d="M102.555 51.2768V49.4909L103.471 49.0133C104.675 49.8088 106.903 51.0297 108.209 51.0056C108.952 49.4589 102.555 47.9077 102.555 45.9191C102.555 44.8223 102.421 42.9937 103.471 42.3945C103.505 42.3748 103.541 42.3565 103.578 42.3396L104.581 41.8257C105.003 41.6663 105.582 41.6749 106.378 41.9384L106.379 41.2652L107.145 40.6962L108.66 41.5358V43.0602C109.137 43.3517 109.657 43.697 110.226 44.1021V46.1112L109.31 46.5888C108.264 45.8246 106.402 44.5958 105.342 44.2774C105.159 44.9835 105.585 45.5791 107.299 46.3344C109.325 47.2274 111.577 48.79 110.901 51.4689C110.752 52.0631 110.427 52.4705 109.985 52.7181L109.588 52.9196L109.191 53.1212C108.875 53.3311 108.491 53.4583 108.064 53.51V53.9503L107.298 54.5192L106.381 54.3783V53.3855C105.091 53.0821 103.686 52.3368 102.555 51.2768Z" fill="#C0BEAD"/>
<path d="M102.555 49.4909V51.2768C103.686 52.3368 105.091 53.0821 106.381 53.3855V54.3783L107.298 54.5192M102.555 49.4909C104.131 50.5326 107.463 52.3037 108.184 51.0535C108.193 51.0375 108.202 51.0216 108.209 51.0056M102.555 49.4909L103.471 49.0133C104.675 49.8088 106.903 51.0297 108.209 51.0056M109.31 44.5797V46.5888M109.31 44.5797L110.226 44.1021M109.31 44.5797C108.799 44.216 108.327 43.9005 107.891 43.6288L107.894 42.1047M109.31 46.5888L110.226 46.1112V44.1021M109.31 46.5888C108.264 45.8246 106.402 44.5958 105.342 44.2774M110.226 44.1021C109.657 43.697 109.137 43.3517 108.66 43.0602V41.5358M103.471 42.3945C102.421 42.9937 102.555 44.8223 102.555 45.9191C102.555 47.9077 108.952 49.4589 108.209 51.0056M103.471 42.3945L104.581 41.8257C105.003 41.6663 105.582 41.6749 106.378 41.9384M103.471 42.3945C104.034 42.0734 104.937 42.1053 106.383 42.7919L106.378 41.9384M105.342 44.2774C105.159 44.9835 105.585 45.5791 107.299 46.3344C109.325 47.2274 111.577 48.79 110.901 51.4689C110.752 52.0631 110.427 52.4705 109.985 52.7181L109.588 52.9196L109.191 53.1212M105.342 44.2774C104.957 44.1617 104.677 44.1661 104.581 44.3564C104.131 45.2494 104.356 45.9191 106.383 46.812C108.409 47.705 110.661 49.2677 109.985 51.9465C109.88 52.365 109.688 52.6909 109.429 52.9335C109.355 53.0028 109.276 53.0653 109.191 53.1212M109.191 53.1212C108.875 53.3311 108.491 53.4583 108.064 53.51M107.894 42.1047L106.379 41.2652M107.894 42.1047L108.66 41.5358M106.379 41.2652L107.145 40.6962L108.66 41.5358M106.379 41.2652L106.378 41.9384M107.298 54.5192V53.5266C107.564 53.5444 107.821 53.5393 108.064 53.51M107.298 54.5192L108.064 53.9503V53.51" stroke="black" stroke-width="0.15"/>
<path d="M102.555 49.491V51.2769C103.686 52.3369 105.091 53.0822 106.381 53.3856V54.3784L107.298 54.5193V53.5267C107.564 53.5445 107.821 53.5394 108.064 53.5101C108.491 53.4584 108.875 53.3312 109.191 53.1213C109.276 53.0654 109.355 53.0029 109.429 52.9336C109.688 52.691 109.88 52.3651 109.985 51.9466C110.661 49.2677 108.409 47.7051 106.383 46.8121C104.356 45.9192 104.131 45.2495 104.581 44.3565C104.677 44.1662 104.957 44.1618 105.342 44.2775C106.402 44.5959 108.264 45.8247 109.31 46.5889V44.5798C108.799 44.2161 108.327 43.9006 107.891 43.6289L107.894 42.1048L106.379 41.2652L106.378 41.9385L106.383 42.792C105.025 42.1474 104.146 42.0798 103.578 42.3397L103.471 42.3946C103.506 42.3749 103.541 42.3566 103.578 42.3397L104.581 41.8258C105.003 41.6664 105.582 41.675 106.378 41.9385L106.379 41.2652L107.145 40.6963L108.66 41.5358V43.0603C109.137 43.3518 109.658 43.6971 110.226 44.1022V46.1113L109.31 46.5889C108.264 45.8247 106.402 44.5959 105.342 44.2775C105.159 44.9836 105.585 45.5792 107.299 46.3345C109.325 47.2275 111.577 48.7901 110.901 51.4689C110.752 52.0632 110.428 52.4706 109.985 52.7182L109.588 52.9197L109.191 53.1213C108.875 53.3312 108.491 53.4584 108.064 53.5101V53.9504L107.298 54.5193L106.381 54.3784V53.3856C105.091 53.0822 103.686 52.3369 102.555 51.2769V49.491L103.471 49.0134C104.675 49.8089 106.903 51.0298 108.209 51.0056C108.202 51.0216 108.193 51.0376 108.184 51.0536C107.463 52.3038 104.131 50.5327 102.555 49.491Z" fill="#C0BEAD"/>
<path d="M102.555 49.491V51.2769C103.686 52.3369 105.091 53.0822 106.381 53.3856V54.3784L107.298 54.5193M102.555 49.491C104.131 50.5327 107.463 52.3038 108.184 51.0536C108.193 51.0376 108.202 51.0216 108.209 51.0056C106.903 51.0298 104.675 49.8089 103.471 49.0134L102.555 49.491ZM109.31 44.5798V46.5889M109.31 44.5798L110.226 44.1022M109.31 44.5798C108.799 44.2161 108.327 43.9006 107.891 43.6289L107.894 42.1048M109.31 46.5889L110.226 46.1113V44.1022M109.31 46.5889C108.264 45.8247 106.402 44.5959 105.342 44.2775M110.226 44.1022C109.658 43.6971 109.137 43.3518 108.66 43.0603V41.5358M105.342 44.2775C105.159 44.9836 105.585 45.5792 107.299 46.3345C109.325 47.2275 111.577 48.7901 110.901 51.4689C110.752 52.0632 110.428 52.4706 109.985 52.7182L109.588 52.9197L109.191 53.1213M105.342 44.2775C104.957 44.1618 104.677 44.1662 104.581 44.3565C104.131 45.2495 104.356 45.9192 106.383 46.8121C108.409 47.7051 110.661 49.2677 109.985 51.9466C109.88 52.3651 109.688 52.691 109.429 52.9336C109.355 53.0029 109.276 53.0654 109.191 53.1213M109.191 53.1213C108.875 53.3312 108.491 53.4584 108.064 53.5101M107.894 42.1048L106.379 41.2652M107.894 42.1048L108.66 41.5358M106.379 41.2652L107.145 40.6963L108.66 41.5358M106.379 41.2652L106.378 41.9385M107.298 54.5193V53.5267C107.564 53.5445 107.821 53.5394 108.064 53.5101M107.298 54.5193L108.064 53.9504V53.5101M106.378 41.9385C105.582 41.675 105.003 41.6664 104.581 41.8258L103.471 42.3946C104.034 42.0735 104.937 42.1054 106.383 42.792L106.378 41.9385Z" stroke="black" stroke-width="0.15"/>
<path d="M110.825 84.9919V83.206L111.741 82.7284C112.944 83.5239 115.172 84.7448 116.479 84.7206C117.221 83.1739 110.825 81.6227 110.825 79.6342C110.825 78.5374 110.69 76.7088 111.741 76.1096C111.775 76.0899 111.811 76.0716 111.848 76.0546L112.851 75.5408C113.273 75.3814 113.852 75.39 114.647 75.6535L114.649 74.9802L115.415 74.4113L116.929 75.2508V76.7753C117.406 77.0668 117.927 77.4121 118.496 77.8172V79.8263L117.58 80.3039C116.533 79.5397 114.671 78.3109 113.611 77.9925C113.429 78.6986 113.854 79.2942 115.569 80.0495C117.595 80.9425 119.847 82.5051 119.171 85.1839C119.021 85.7782 118.697 86.1856 118.255 86.4332L117.858 86.6347L117.461 86.8363C117.144 87.0462 116.761 87.1734 116.333 87.2251V87.6654L115.567 88.2343L114.651 88.0934V87.1006C113.36 86.7972 111.956 86.0519 110.825 84.9919Z" fill="#C0BEAD"/>
<path d="M110.825 83.206V84.9919C111.956 86.0519 113.36 86.7972 114.651 87.1006V88.0934L115.567 88.2343M110.825 83.206C112.401 84.2477 115.733 86.0188 116.454 84.7686C116.463 84.7526 116.471 84.7366 116.479 84.7206M110.825 83.206L111.741 82.7284C112.944 83.5239 115.172 84.7448 116.479 84.7206M117.58 78.2948V80.3039M117.58 78.2948L118.496 77.8172M117.58 78.2948C117.069 77.9311 116.597 77.6156 116.161 77.3439L116.163 75.8198M117.58 80.3039L118.496 79.8263V77.8172M117.58 80.3039C116.533 79.5397 114.671 78.3109 113.611 77.9925M118.496 77.8172C117.927 77.4121 117.406 77.0668 116.929 76.7753V75.2508M111.741 76.1096C110.69 76.7088 110.825 78.5374 110.825 79.6342C110.825 81.6227 117.221 83.1739 116.479 84.7206M111.741 76.1096L112.851 75.5408C113.273 75.3814 113.852 75.39 114.647 75.6535M111.741 76.1096C112.304 75.7885 113.207 75.8204 114.652 76.507L114.647 75.6535M113.611 77.9925C113.429 78.6986 113.854 79.2942 115.569 80.0495C117.595 80.9425 119.847 82.5051 119.171 85.1839C119.021 85.7782 118.697 86.1856 118.255 86.4332L117.858 86.6347L117.461 86.8363M113.611 77.9925C113.226 77.8768 112.947 77.8812 112.851 78.0715C112.401 78.9645 112.626 79.6342 114.652 80.5271C116.679 81.4201 118.93 82.9827 118.255 85.6616C118.149 86.0801 117.957 86.406 117.699 86.6486C117.625 86.7179 117.545 86.7804 117.461 86.8363M117.461 86.8363C117.144 87.0462 116.761 87.1734 116.333 87.2251M116.163 75.8198L114.649 74.9802M116.163 75.8198L116.929 75.2508M114.649 74.9802L115.415 74.4113L116.929 75.2508M114.649 74.9802L114.647 75.6535M115.567 88.2343V87.2417C115.834 87.2595 116.091 87.2544 116.333 87.2251M115.567 88.2343L116.333 87.6654V87.2251" stroke="black" stroke-width="0.15"/>
<path d="M110.825 83.206V84.9919C111.956 86.0519 113.361 86.7972 114.651 87.1006V88.0934L115.568 88.2343V87.2418C115.834 87.2596 116.091 87.2545 116.334 87.2251C116.761 87.1734 117.145 87.0463 117.461 86.8363C117.546 86.7804 117.625 86.7179 117.699 86.6486C117.958 86.406 118.15 86.0801 118.255 85.6616C118.931 82.9828 116.679 81.4201 114.653 80.5272C112.626 79.6342 112.401 78.9645 112.851 78.0716C112.947 77.8812 113.227 77.8768 113.612 77.9925C114.672 78.311 116.534 79.5397 117.58 80.3039V78.2948C117.069 77.9311 116.597 77.6156 116.161 77.3439L116.164 75.8198L114.649 74.9803L114.648 75.6535L114.653 76.507C113.295 75.8624 112.416 75.7949 111.848 76.0547L111.741 76.1096C111.776 76.0899 111.811 76.0716 111.848 76.0547L112.851 75.5408C113.273 75.3814 113.852 75.39 114.648 75.6535L114.649 74.9803L115.415 74.4113L116.93 75.2509V76.7753C117.407 77.0668 117.928 77.4121 118.496 77.8172V79.8263L117.58 80.3039C116.534 79.5397 114.672 78.311 113.612 77.9925C113.429 78.6986 113.855 79.2942 115.569 80.0495C117.595 80.9425 119.847 82.5052 119.171 85.184C119.022 85.7782 118.698 86.1857 118.255 86.4332L117.858 86.6348L117.461 86.8363C117.145 87.0463 116.761 87.1734 116.334 87.2251V87.6654L115.568 88.2343L114.651 88.0934V87.1006C113.361 86.7972 111.956 86.0519 110.825 84.9919V83.206L111.741 82.7284C112.945 83.524 115.173 84.7448 116.479 84.7207C116.472 84.7367 116.463 84.7527 116.454 84.7687C115.733 86.0188 112.401 84.2478 110.825 83.206Z" fill="#C0BEAD"/>
<path d="M110.825 83.206V84.9919C111.956 86.0519 113.361 86.7972 114.651 87.1006V88.0934L115.568 88.2343M110.825 83.206C112.401 84.2478 115.733 86.0188 116.454 84.7687C116.463 84.7527 116.472 84.7367 116.479 84.7207C115.173 84.7448 112.945 83.524 111.741 82.7284L110.825 83.206ZM117.58 78.2948V80.3039M117.58 78.2948L118.496 77.8172M117.58 78.2948C117.069 77.9311 116.597 77.6156 116.161 77.3439L116.164 75.8198M117.58 80.3039L118.496 79.8263V77.8172M117.58 80.3039C116.534 79.5397 114.672 78.3109 113.612 77.9925M118.496 77.8172C117.928 77.4121 117.407 77.0668 116.93 76.7753V75.2509M113.612 77.9925C113.429 78.6986 113.855 79.2942 115.569 80.0495C117.595 80.9425 119.847 82.5052 119.171 85.184C119.022 85.7782 118.698 86.1857 118.255 86.4332L117.858 86.6348L117.461 86.8363M113.612 77.9925C113.227 77.8768 112.947 77.8812 112.851 78.0716C112.401 78.9645 112.626 79.6342 114.653 80.5272C116.679 81.4201 118.931 82.9828 118.255 85.6616C118.15 86.0801 117.958 86.406 117.699 86.6486C117.625 86.7179 117.546 86.7804 117.461 86.8363M117.461 86.8363C117.145 87.0463 116.761 87.1734 116.334 87.2251M116.164 75.8198L114.649 74.9803M116.164 75.8198L116.93 75.2509M114.649 74.9803L115.415 74.4113L116.93 75.2509M114.649 74.9803L114.648 75.6535M115.568 88.2343V87.2418C115.834 87.2596 116.091 87.2545 116.334 87.2251M115.568 88.2343L116.334 87.6654V87.2251M114.648 75.6535C113.852 75.39 113.273 75.3814 112.851 75.5408L111.741 76.1096C112.304 75.7885 113.207 75.8204 114.653 76.507L114.648 75.6535Z" stroke="black" stroke-width="0.15"/>
<path d="M45.3029 111.709V109.924L46.2191 109.446C47.4227 110.242 49.6506 111.462 50.9573 111.438C51.6996 109.892 45.3029 108.34 45.3029 106.352C45.3029 105.255 45.1687 103.426 46.2191 102.827C46.2535 102.808 46.2892 102.789 46.3263 102.772L47.3294 102.258C47.7509 102.099 48.3302 102.108 49.1257 102.371L49.1272 101.698L49.8932 101.129L51.4076 101.968V103.493C51.8847 103.784 52.4055 104.13 52.9739 104.535V106.544L52.0578 107.021C51.0117 106.257 49.1497 105.029 48.0896 104.71C47.9074 105.416 48.3326 106.012 50.0468 106.767C52.0733 107.66 54.3249 109.223 53.6494 111.902C53.4996 112.496 53.1755 112.903 52.7333 113.151L52.3363 113.352L51.9394 113.554C51.6227 113.764 51.2392 113.891 50.8116 113.943V114.383L50.0455 114.952L49.1294 114.811V113.818C47.8386 113.515 46.4339 112.769 45.3029 111.709Z" fill="#C0BEAD"/>
<path d="M45.3029 109.924V111.709C46.4339 112.769 47.8386 113.515 49.1294 113.818V114.811L50.0455 114.952M45.3029 109.924C46.8791 110.965 50.2115 112.736 50.932 111.486C50.9412 111.47 50.9496 111.454 50.9573 111.438M45.3029 109.924L46.2191 109.446C47.4227 110.242 49.6506 111.462 50.9573 111.438M52.0578 105.012V107.021M52.0578 105.012L52.9739 104.535M52.0578 105.012C51.5474 104.649 51.0754 104.333 50.639 104.061L50.6416 102.537M52.0578 107.021L52.9739 106.544V104.535M52.0578 107.021C51.0117 106.257 49.1497 105.029 48.0896 104.71M52.9739 104.535C52.4055 104.13 51.8847 103.784 51.4076 103.493V101.968M46.2191 102.827C45.1687 103.426 45.3029 105.255 45.3029 106.352C45.3029 108.34 51.6996 109.892 50.9573 111.438M46.2191 102.827L47.3294 102.258C47.7509 102.099 48.3302 102.108 49.1257 102.371M46.2191 102.827C46.7819 102.506 47.6848 102.538 49.1307 103.225L49.1257 102.371M48.0896 104.71C47.9074 105.416 48.3326 106.012 50.0468 106.767C52.0733 107.66 54.3249 109.223 53.6494 111.902C53.4996 112.496 53.1755 112.903 52.7333 113.151L52.3363 113.352L51.9394 113.554M48.0896 104.71C47.7046 104.594 47.4254 104.599 47.3294 104.789C46.8791 105.682 47.1042 106.352 49.1307 107.245C51.1571 108.138 53.4088 109.7 52.7333 112.379C52.6277 112.798 52.4358 113.124 52.1769 113.366C52.103 113.435 52.0237 113.498 51.9394 113.554M51.9394 113.554C51.6227 113.764 51.2392 113.891 50.8116 113.943M50.6416 102.537L49.1272 101.698M50.6416 102.537L51.4076 101.968M49.1272 101.698L49.8932 101.129L51.4076 101.968M49.1272 101.698L49.1257 102.371M50.0455 114.952V113.959C50.3123 113.977 50.5691 113.972 50.8116 113.943M50.0455 114.952L50.8116 114.383V113.943" stroke="black" stroke-width="0.15"/>
<path d="M45.303 109.924V111.709C46.434 112.769 47.8386 113.515 49.1295 113.818V114.811L50.0456 114.952V113.959C50.3124 113.977 50.5691 113.972 50.8116 113.943C51.2393 113.891 51.6228 113.764 51.9395 113.554C52.0238 113.498 52.1031 113.435 52.177 113.366C52.4358 113.124 52.6278 112.798 52.7333 112.379C53.4088 109.7 51.1572 108.138 49.1307 107.245C47.1043 106.352 46.8791 105.682 47.3294 104.789C47.4254 104.599 47.7046 104.594 48.0896 104.71C49.1497 105.028 51.0117 106.257 52.0579 107.021V105.012C51.5475 104.649 51.0755 104.333 50.6391 104.061L50.6416 102.537L49.1272 101.698L49.1258 102.371L49.1307 103.225C47.7733 102.58 46.8945 102.512 46.3263 102.772L46.2191 102.827C46.2536 102.807 46.2893 102.789 46.3263 102.772L47.3294 102.258C47.751 102.099 48.3303 102.108 49.1258 102.371L49.1272 101.698L49.8932 101.129L51.4076 101.968V103.493C51.8848 103.784 52.4056 104.13 52.974 104.535V106.544L52.0579 107.021C51.0117 106.257 49.1497 105.028 48.0896 104.71C47.9074 105.416 48.3327 106.012 50.0469 106.767C52.0733 107.66 54.325 109.223 53.6495 111.902C53.4996 112.496 53.1756 112.903 52.7333 113.151L52.3364 113.352L51.9395 113.554C51.6228 113.764 51.2393 113.891 50.8116 113.943V114.383L50.0456 114.952L49.1295 114.811V113.818C47.8386 113.515 46.434 112.769 45.303 111.709V109.924L46.2191 109.446C47.4228 110.241 49.6507 111.462 50.9574 111.438C50.9497 111.454 50.9413 111.47 50.932 111.486C50.2115 112.736 46.8791 110.965 45.303 109.924Z" fill="#C0BEAD"/>
<path d="M45.303 109.924V111.709C46.434 112.769 47.8386 113.515 49.1295 113.818V114.811L50.0456 114.952M45.303 109.924C46.8791 110.965 50.2115 112.736 50.932 111.486C50.9413 111.47 50.9497 111.454 50.9574 111.438C49.6507 111.462 47.4228 110.241 46.2191 109.446L45.303 109.924ZM52.0579 105.012V107.021M52.0579 105.012L52.974 104.535M52.0579 105.012C51.5475 104.649 51.0755 104.333 50.6391 104.061L50.6416 102.537M52.0579 107.021L52.974 106.544V104.535M52.0579 107.021C51.0117 106.257 49.1497 105.028 48.0896 104.71M52.974 104.535C52.4056 104.13 51.8848 103.784 51.4076 103.493V101.968M48.0896 104.71C47.9074 105.416 48.3327 106.012 50.0469 106.767C52.0733 107.66 54.325 109.223 53.6495 111.902C53.4996 112.496 53.1756 112.903 52.7333 113.151L52.3364 113.352L51.9395 113.554M48.0896 104.71C47.7046 104.594 47.4254 104.599 47.3294 104.789C46.8791 105.682 47.1043 106.352 49.1307 107.245C51.1572 108.138 53.4088 109.7 52.7333 112.379C52.6278 112.798 52.4358 113.124 52.177 113.366C52.1031 113.435 52.0238 113.498 51.9395 113.554M51.9395 113.554C51.6228 113.764 51.2393 113.891 50.8116 113.943M50.6416 102.537L49.1272 101.698M50.6416 102.537L51.4076 101.968M49.1272 101.698L49.8932 101.129L51.4076 101.968M49.1272 101.698L49.1258 102.371M50.0456 114.952V113.959C50.3124 113.977 50.5691 113.972 50.8116 113.943M50.0456 114.952L50.8116 114.383V113.943M49.1258 102.371C48.3303 102.108 47.751 102.099 47.3294 102.258L46.2191 102.827C46.7819 102.506 47.6848 102.538 49.1307 103.225L49.1258 102.371Z" stroke="black" stroke-width="0.15"/>
<path d="M5.86274 121.251V119.465L6.77889 118.988C7.98254 119.783 10.2104 121.004 11.5171 120.98C12.2594 119.433 5.86274 117.882 5.86274 115.894C5.86274 114.797 5.72853 112.968 6.77889 112.369C6.81333 112.349 6.84905 112.331 6.88609 112.314L7.88919 111.8C8.31074 111.641 8.89006 111.65 9.68553 111.913L9.68699 111.24L10.453 110.671L11.9674 111.51V113.035C12.4445 113.326 12.9653 113.672 13.5338 114.077V116.086L12.6176 116.563C11.5715 115.799 9.7095 114.57 8.6494 114.252C8.46719 114.958 8.89246 115.554 10.6066 116.309C12.6331 117.202 14.8847 118.765 14.2092 121.443C14.0594 122.038 13.7353 122.445 13.2931 122.693L12.8962 122.894L12.4992 123.096C12.1825 123.306 11.799 123.433 11.3714 123.485V123.925L10.6054 124.494L9.68921 124.353V123.36C8.3984 123.057 6.99374 122.311 5.86274 121.251Z" fill="#C0BEAD"/>
<path d="M5.86274 119.465V121.251C6.99374 122.311 8.3984 123.057 9.68921 123.36V124.353L10.6054 124.494M5.86274 119.465C7.43887 120.507 10.7713 122.278 11.4918 121.028C11.501 121.012 11.5095 120.996 11.5171 120.98M5.86274 119.465L6.77889 118.988C7.98254 119.783 10.2104 121.004 11.5171 120.98M12.6176 114.554V116.563M12.6176 114.554L13.5338 114.077M12.6176 114.554C12.1072 114.191 11.6353 113.875 11.1988 113.603L11.2014 112.079M12.6176 116.563L13.5338 116.086V114.077M12.6176 116.563C11.5715 115.799 9.7095 114.57 8.6494 114.252M13.5338 114.077C12.9653 113.672 12.4445 113.326 11.9674 113.035V111.51M6.77889 112.369C5.72853 112.968 5.86274 114.797 5.86274 115.894C5.86274 117.882 12.2594 119.433 11.5171 120.98M6.77889 112.369L7.88919 111.8C8.31074 111.641 8.89006 111.65 9.68553 111.913M6.77889 112.369C7.34169 112.048 8.2446 112.08 9.69049 112.766L9.68553 111.913M8.6494 114.252C8.46719 114.958 8.89246 115.554 10.6066 116.309C12.6331 117.202 14.8847 118.765 14.2092 121.443C14.0594 122.038 13.7353 122.445 13.2931 122.693L12.8962 122.894L12.4992 123.096M8.6494 114.252C8.2644 114.136 7.98517 114.141 7.88919 114.331C7.43887 115.224 7.66403 115.894 9.69049 116.787C11.717 117.68 13.9686 119.242 13.2931 121.921C13.1876 122.34 12.9956 122.666 12.7367 122.908C12.6629 122.977 12.5835 123.04 12.4992 123.096M12.4992 123.096C12.1825 123.306 11.799 123.433 11.3714 123.485M11.2014 112.079L9.68699 111.24M11.2014 112.079L11.9674 111.51M9.68699 111.24L10.453 110.671L11.9674 111.51M9.68699 111.24L9.68553 111.913M10.6054 124.494V123.501C10.8722 123.519 11.1289 123.514 11.3714 123.485M10.6054 124.494L11.3714 123.925V123.485" stroke="black" stroke-width="0.15"/>
<path d="M5.86279 119.466V121.251C6.9938 122.311 8.39846 123.057 9.68927 123.36V124.353L10.6054 124.494V123.501C10.8722 123.519 11.1289 123.514 11.3714 123.485C11.7991 123.433 12.1826 123.306 12.4993 123.096C12.5836 123.04 12.6629 122.977 12.7368 122.908C12.9956 122.666 13.1876 122.34 13.2931 121.921C13.9686 119.242 11.717 117.68 9.69055 116.787C7.66409 115.894 7.43892 115.224 7.88925 114.331C7.98523 114.141 8.26446 114.136 8.64945 114.252C9.70955 114.57 11.5716 115.799 12.6177 116.563V114.554C12.1073 114.191 11.6353 113.875 11.1989 113.603L11.2014 112.079L9.68705 111.24L9.68559 111.913L9.69055 112.767C8.33315 112.122 7.4543 112.054 6.88614 112.314L6.77894 112.369C6.81339 112.349 6.8491 112.331 6.88614 112.314L7.88925 111.8C8.31079 111.641 8.89011 111.65 9.68559 111.913L9.68705 111.24L10.4531 110.671L11.9674 111.51V113.035C12.4446 113.326 12.9654 113.672 13.5338 114.077V116.086L12.6177 116.563C11.5716 115.799 9.70955 114.57 8.64945 114.252C8.46724 114.958 8.89251 115.554 10.6067 116.309C12.6332 117.202 14.8848 118.765 14.2093 121.443C14.0595 122.038 13.7354 122.445 13.2931 122.693L12.8962 122.894L12.4993 123.096C12.1826 123.306 11.7991 123.433 11.3714 123.485V123.925L10.6054 124.494L9.68927 124.353V123.36C8.39846 123.057 6.9938 122.311 5.86279 121.251V119.466L6.77894 118.988C7.98259 119.783 10.2105 121.004 11.5172 120.98C11.5095 120.996 11.5011 121.012 11.4919 121.028C10.7713 122.278 7.43893 120.507 5.86279 119.466Z" fill="#C0BEAD"/>
<path d="M5.86279 119.466V121.251C6.9938 122.311 8.39846 123.057 9.68927 123.36V124.353L10.6054 124.494M5.86279 119.466C7.43893 120.507 10.7713 122.278 11.4919 121.028C11.5011 121.012 11.5095 120.996 11.5172 120.98C10.2105 121.004 7.98259 119.783 6.77894 118.988L5.86279 119.466ZM12.6177 114.554V116.563M12.6177 114.554L13.5338 114.077M12.6177 114.554C12.1073 114.191 11.6353 113.875 11.1989 113.603L11.2014 112.079M12.6177 116.563L13.5338 116.086V114.077M12.6177 116.563C11.5716 115.799 9.70955 114.57 8.64945 114.252M13.5338 114.077C12.9654 113.672 12.4446 113.326 11.9674 113.035V111.51M8.64945 114.252C8.46724 114.958 8.89251 115.554 10.6067 116.309C12.6332 117.202 14.8848 118.765 14.2093 121.443C14.0595 122.038 13.7354 122.445 13.2931 122.693L12.8962 122.894L12.4993 123.096M8.64945 114.252C8.26446 114.136 7.98523 114.141 7.88925 114.331C7.43892 115.224 7.66409 115.894 9.69055 116.787C11.717 117.68 13.9686 119.242 13.2931 121.921C13.1876 122.34 12.9956 122.666 12.7368 122.908C12.6629 122.977 12.5836 123.04 12.4993 123.096M12.4993 123.096C12.1826 123.306 11.7991 123.433 11.3714 123.485M11.2014 112.079L9.68705 111.24M11.2014 112.079L11.9674 111.51M9.68705 111.24L10.4531 110.671L11.9674 111.51M9.68705 111.24L9.68559 111.913M10.6054 124.494V123.501C10.8722 123.519 11.1289 123.514 11.3714 123.485M10.6054 124.494L11.3714 123.925V123.485M9.68559 111.913C8.89011 111.65 8.31079 111.641 7.88925 111.8L6.77894 112.369C7.34175 112.048 8.24466 112.08 9.69055 112.767L9.68559 111.913Z" stroke="black" stroke-width="0.15"/>
<path d="M14.7685 43.0071V41.2212L15.6846 40.7436C16.8883 41.5392 19.1162 42.7601 20.4229 42.7359C21.1652 41.1892 14.7685 39.638 14.7685 37.6495C14.7685 36.5527 14.6343 34.724 15.6846 34.1248C15.7191 34.1052 15.7548 34.0868 15.7918 34.0699L16.795 33.5561C17.2165 33.3966 17.7958 33.4053 18.5913 33.6687L18.5928 32.9955L19.3588 32.4265L20.8732 33.2661V34.7905C21.3503 35.082 21.8711 35.4274 22.4395 35.8324V37.8415L21.5234 38.3191C20.4773 37.5549 18.6153 36.3262 17.5552 36.0077C17.3729 36.7138 17.7982 37.3094 19.5124 38.0648C21.5389 38.9577 23.7905 40.5204 23.115 43.1992C22.9652 43.7934 22.6411 44.2009 22.1989 44.4485L21.8019 44.65L21.405 44.8515C21.0883 45.0615 20.7048 45.1886 20.2771 45.2404V45.6806L19.5111 46.2496L18.595 46.1086V45.1159C17.3042 44.8125 15.8995 44.0672 14.7685 43.0071Z" fill="#C0BEAD"/>
<path d="M14.7685 41.2212V43.0071C15.8995 44.0672 17.3042 44.8125 18.595 45.1159V46.1086L19.5111 46.2496M14.7685 41.2212C16.3446 42.263 19.677 44.034 20.3976 42.7839C20.4068 42.7679 20.4152 42.7519 20.4229 42.7359M14.7685 41.2212L15.6846 40.7436C16.8883 41.5392 19.1162 42.7601 20.4229 42.7359M21.5234 36.31V38.3191M21.5234 36.31L22.4395 35.8324M21.5234 36.31C21.013 35.9463 20.541 35.6308 20.1046 35.3592L20.1071 33.835M21.5234 38.3191L22.4395 37.8415V35.8324M21.5234 38.3191C20.4773 37.5549 18.6153 36.3262 17.5552 36.0077M22.4395 35.8324C21.8711 35.4274 21.3503 35.082 20.8732 34.7905V33.2661M15.6846 34.1248C14.6343 34.724 14.7685 36.5527 14.7685 37.6495C14.7685 39.638 21.1652 41.1892 20.4229 42.7359M15.6846 34.1248L16.795 33.5561C17.2165 33.3966 17.7958 33.4053 18.5913 33.6687M15.6846 34.1248C16.2475 33.8037 17.1504 33.8356 18.5963 34.5222L18.5913 33.6687M17.5552 36.0077C17.3729 36.7138 17.7982 37.3094 19.5124 38.0648C21.5389 38.9577 23.7905 40.5204 23.115 43.1992C22.9652 43.7934 22.6411 44.2009 22.1989 44.4485L21.8019 44.65L21.405 44.8515M17.5552 36.0077C17.1702 35.8921 16.8909 35.8965 16.795 36.0868C16.3446 36.9797 16.5698 37.6494 18.5963 38.5424C20.6227 39.4353 22.8743 40.998 22.1989 43.6768C22.0933 44.0954 21.9013 44.4213 21.6425 44.6639C21.5686 44.7331 21.4893 44.7956 21.405 44.8515M21.405 44.8515C21.0883 45.0615 20.7048 45.1886 20.2771 45.2404M20.1071 33.835L18.5928 32.9955M20.1071 33.835L20.8732 33.2661M18.5928 32.9955L19.3588 32.4265L20.8732 33.2661M18.5928 32.9955L18.5913 33.6687M19.5111 46.2496V45.257C19.7779 45.2748 20.0346 45.2697 20.2771 45.2404M19.5111 46.2496L20.2771 45.6806V45.2404" stroke="black" stroke-width="0.15"/>
<path d="M14.7686 41.2211V43.007C15.8996 44.067 17.3042 44.8123 18.595 45.1157V46.1085L19.5112 46.2494V45.2568C19.778 45.2746 20.0347 45.2695 20.2772 45.2402C20.7049 45.1885 21.0883 45.0613 21.405 44.8514C21.4894 44.7955 21.5687 44.733 21.6426 44.6637C21.9014 44.4211 22.0934 44.0952 22.1989 43.6767C22.8744 40.9978 20.6228 39.4352 18.5963 38.5422C16.5698 37.6493 16.3447 36.9796 16.795 36.0866C16.891 35.8963 17.1702 35.8919 17.5552 36.0076C18.6153 36.326 20.4773 37.5548 21.5234 38.319V36.3099C21.013 35.9462 20.5411 35.6307 20.1046 35.359L20.1072 33.8349L18.5928 32.9953L18.5913 33.6686L18.5963 34.5221C17.2389 33.8775 16.3601 33.81 15.7919 34.0698L15.6847 34.1247C15.7191 34.105 15.7549 34.0867 15.7919 34.0698L16.795 33.5559C17.2166 33.3965 17.7959 33.4051 18.5913 33.6686L18.5928 32.9953L19.3588 32.4264L20.8732 33.2659V34.7904C21.3503 35.0819 21.8711 35.4272 22.4396 35.8323V37.8414L21.5234 38.319C20.4773 37.5548 18.6153 36.326 17.5552 36.0076C17.373 36.7137 17.7983 37.3093 19.5125 38.0646C21.5389 38.9576 23.7905 40.5202 23.1151 43.199C22.9652 43.7933 22.6411 44.2007 22.1989 44.4483L21.802 44.6498L21.405 44.8514C21.0883 45.0613 20.7049 45.1885 20.2772 45.2402V45.6805L19.5112 46.2494L18.595 46.1085V45.1157C17.3042 44.8123 15.8996 44.067 14.7686 43.007V41.2211L15.6847 40.7435C16.8884 41.539 19.1163 42.7599 20.423 42.7357C20.4153 42.7517 20.4068 42.7677 20.3976 42.7837C19.6771 44.0339 16.3447 42.2628 14.7686 41.2211Z" fill="#C0BEAD"/>
<path d="M14.7686 41.2211V43.007C15.8996 44.067 17.3042 44.8123 18.595 45.1157V46.1085L19.5112 46.2494M14.7686 41.2211C16.3447 42.2628 19.6771 44.0339 20.3976 42.7837C20.4068 42.7677 20.4153 42.7517 20.423 42.7357C19.1163 42.7599 16.8884 41.539 15.6847 40.7435L14.7686 41.2211ZM21.5234 36.3099V38.319M21.5234 36.3099L22.4396 35.8323M21.5234 36.3099C21.013 35.9462 20.5411 35.6307 20.1046 35.359L20.1072 33.8349M21.5234 38.319L22.4396 37.8414V35.8323M21.5234 38.319C20.4773 37.5548 18.6153 36.326 17.5552 36.0076M22.4396 35.8323C21.8711 35.4272 21.3503 35.0819 20.8732 34.7904V33.2659M17.5552 36.0076C17.373 36.7137 17.7983 37.3093 19.5125 38.0646C21.5389 38.9576 23.7905 40.5202 23.1151 43.199C22.9652 43.7933 22.6411 44.2007 22.1989 44.4483L21.802 44.6498L21.405 44.8514M17.5552 36.0076C17.1702 35.8919 16.891 35.8963 16.795 36.0866C16.3447 36.9796 16.5698 37.6493 18.5963 38.5422C20.6228 39.4352 22.8744 40.9978 22.1989 43.6767C22.0934 44.0952 21.9014 44.4211 21.6426 44.6637C21.5687 44.733 21.4894 44.7955 21.405 44.8514M21.405 44.8514C21.0883 45.0613 20.7049 45.1885 20.2772 45.2402M20.1072 33.8349L18.5928 32.9953M20.1072 33.8349L20.8732 33.2659M18.5928 32.9953L19.3588 32.4264L20.8732 33.2659M18.5928 32.9953L18.5913 33.6686M19.5112 46.2494V45.2568C19.778 45.2746 20.0347 45.2695 20.2772 45.2402M19.5112 46.2494L20.2772 45.6805V45.2402M18.5913 33.6686C17.7959 33.4051 17.2166 33.3965 16.795 33.5559L15.6847 34.1247C16.2475 33.8036 17.1504 33.8355 18.5963 34.5221L18.5913 33.6686Z" stroke="black" stroke-width="0.15"/>
<path d="M63.1147 18.834V17.0481L64.0308 16.5705C65.2345 17.3661 67.4624 18.587 68.7691 18.5628C69.5114 17.0161 63.1147 15.4649 63.1147 13.4764C63.1147 12.3796 62.9805 10.5509 64.0308 9.95173C64.0653 9.93208 64.101 9.91375 64.138 9.89681L65.1411 9.38296C65.5627 9.22355 66.142 9.23217 66.9375 9.49565L66.9389 8.8224L67.705 8.25345L69.2193 9.093V10.6174C69.6965 10.9089 70.2173 11.2543 70.7857 11.6593V13.6684L69.8696 14.146C68.8235 13.3818 66.9615 12.1531 65.9014 11.8346C65.7191 12.5407 66.1444 13.1363 67.8586 13.8917C69.8851 14.7846 72.1367 16.3473 71.4612 19.0261C71.3114 19.6203 70.9873 20.0278 70.545 20.2754L70.1481 20.4769L69.7512 20.6784C69.4345 20.8884 69.051 21.0155 68.6233 21.0673V21.5075L67.8573 22.0765L66.9412 21.9356V20.9428C65.6504 20.6394 64.2457 19.8941 63.1147 18.834Z" fill="#C0BEAD"/>
<path d="M63.1147 17.0481V18.834C64.2457 19.8941 65.6504 20.6394 66.9412 20.9428V21.9356L67.8573 22.0765M63.1147 17.0481C64.6908 18.0899 68.0232 19.8609 68.7438 18.6108C68.753 18.5948 68.7614 18.5788 68.7691 18.5628M63.1147 17.0481L64.0308 16.5705C65.2345 17.3661 67.4624 18.587 68.7691 18.5628M69.8696 12.1369V14.146M69.8696 12.1369L70.7857 11.6593M69.8696 12.1369C69.3592 11.7732 68.8872 11.4577 68.4508 11.1861L68.4533 9.66194M69.8696 14.146L70.7857 13.6684V11.6593M69.8696 14.146C68.8235 13.3818 66.9615 12.1531 65.9014 11.8346M70.7857 11.6593C70.2173 11.2543 69.6965 10.9089 69.2193 10.6174V9.093M64.0308 9.95173C62.9805 10.5509 63.1147 12.3796 63.1147 13.4764C63.1147 15.4649 69.5114 17.0161 68.7691 18.5628M64.0308 9.95173L65.1411 9.38296C65.5627 9.22355 66.142 9.23217 66.9375 9.49565M64.0308 9.95173C64.5936 9.63065 65.4966 9.66255 66.9424 10.3491L66.9375 9.49565M65.9014 11.8346C65.7191 12.5407 66.1444 13.1363 67.8586 13.8917C69.8851 14.7846 72.1367 16.3473 71.4612 19.0261C71.3114 19.6203 70.9873 20.0278 70.545 20.2754L70.1481 20.4769L69.7512 20.6784M65.9014 11.8346C65.5164 11.719 65.2371 11.7234 65.1411 11.9137C64.6908 12.8066 64.916 13.4763 66.9424 14.3693C68.9689 15.2622 71.2205 16.8249 70.545 19.5037C70.4395 19.9223 70.2475 20.2482 69.9887 20.4908C69.9148 20.56 69.8355 20.6225 69.7512 20.6784M69.7512 20.6784C69.4345 20.8884 69.051 21.0155 68.6233 21.0673M68.4533 9.66194L66.9389 8.8224M68.4533 9.66194L69.2193 9.093M66.9389 8.8224L67.705 8.25345L69.2193 9.093M66.9389 8.8224L66.9375 9.49565M67.8573 22.0765V21.0839C68.1241 21.1017 68.3808 21.0966 68.6233 21.0673M67.8573 22.0765L68.6233 21.5075V21.0673" stroke="black" stroke-width="0.15"/>
<path d="M63.115 17.0481V18.834C64.246 19.894 65.6507 20.6393 66.9415 20.9427V21.9355L67.8576 22.0764V21.0839C68.1244 21.1017 68.3811 21.0966 68.6236 21.0672C69.0513 21.0155 69.4348 20.8884 69.7515 20.6784C69.8358 20.6225 69.9151 20.56 69.989 20.4908C70.2478 20.2481 70.4398 19.9222 70.5453 19.5037C71.2208 16.8249 68.9692 15.2622 66.9427 14.3693C64.9163 13.4763 64.6911 12.8066 65.1414 11.9137C65.2374 11.7233 65.5167 11.7189 65.9016 11.8346C66.9617 12.1531 68.8237 13.3818 69.8699 14.146V12.1369C69.3595 11.7732 68.8875 11.4577 68.4511 11.186L68.4536 9.6619L66.9392 8.82237L66.9378 9.49561L66.9427 10.3491C65.5853 9.70454 64.7065 9.63698 64.1383 9.89678L64.0311 9.9517C64.0656 9.93205 64.1013 9.91372 64.1383 9.89678L65.1414 9.38293C65.563 9.22352 66.1423 9.23214 66.9378 9.49561L66.9392 8.82237L67.7053 8.25342L69.2196 9.09297V10.6174C69.6968 10.9089 70.2176 11.2542 70.786 11.6593V13.6684L69.8699 14.146C68.8237 13.3818 66.9617 12.1531 65.9016 11.8346C65.7194 12.5407 66.1447 13.1363 67.8589 13.8916C69.8854 14.7846 72.137 16.3473 71.4615 19.0261C71.3117 19.6203 70.9876 20.0278 70.5453 20.2753L70.1484 20.4769L69.7515 20.6784C69.4348 20.8884 69.0513 21.0155 68.6236 21.0672V21.5075L67.8576 22.0764L66.9415 21.9355V20.9427C65.6507 20.6393 64.246 19.894 63.115 18.834V17.0481L64.0311 16.5705C65.2348 17.3661 67.4627 18.5869 68.7694 18.5628C68.7617 18.5788 68.7533 18.5948 68.7441 18.6108C68.0235 19.8609 64.6911 18.0899 63.115 17.0481Z" fill="#C0BEAD"/>
<path d="M63.115 17.0481V18.834C64.246 19.894 65.6507 20.6393 66.9415 20.9427V21.9355L67.8576 22.0764M63.115 17.0481C64.6911 18.0899 68.0235 19.8609 68.7441 18.6108C68.7533 18.5948 68.7617 18.5788 68.7694 18.5628C67.4627 18.5869 65.2348 17.3661 64.0311 16.5705L63.115 17.0481ZM69.8699 12.1369V14.146M69.8699 12.1369L70.786 11.6593M69.8699 12.1369C69.3595 11.7732 68.8875 11.4577 68.4511 11.186L68.4536 9.6619M69.8699 14.146L70.786 13.6684V11.6593M69.8699 14.146C68.8237 13.3818 66.9617 12.1531 65.9016 11.8346M70.786 11.6593C70.2176 11.2542 69.6968 10.9089 69.2196 10.6174V9.09297M65.9016 11.8346C65.7194 12.5407 66.1447 13.1363 67.8589 13.8916C69.8854 14.7846 72.137 16.3473 71.4615 19.0261C71.3117 19.6203 70.9876 20.0278 70.5453 20.2753L70.1484 20.4769L69.7515 20.6784M65.9016 11.8346C65.5167 11.7189 65.2374 11.7233 65.1414 11.9137C64.6911 12.8066 64.9163 13.4763 66.9427 14.3693C68.9692 15.2622 71.2208 16.8249 70.5453 19.5037C70.4398 19.9222 70.2478 20.2481 69.989 20.4908C69.9151 20.56 69.8358 20.6225 69.7515 20.6784M69.7515 20.6784C69.4348 20.8884 69.0513 21.0155 68.6236 21.0672M68.4536 9.6619L66.9392 8.82237M68.4536 9.6619L69.2196 9.09297M66.9392 8.82237L67.7053 8.25342L69.2196 9.09297M66.9392 8.82237L66.9378 9.49561M67.8576 22.0764V21.0839C68.1244 21.1017 68.3811 21.0966 68.6236 21.0672M67.8576 22.0764L68.6236 21.5075V21.0672M66.9378 9.49561C66.1423 9.23214 65.563 9.22352 65.1414 9.38293L64.0311 9.9517C64.5939 9.63062 65.4969 9.66252 66.9427 10.3491L66.9378 9.49561Z" stroke="black" stroke-width="0.15"/>
</svg>
