<svg width="460" height="270" viewBox="0 0 460 270" fill="none" xmlns="http://www.w3.org/2000/svg">
<g clip-path="url(#clip0_521_19647)">
<rect width="460" height="270" fill="white"/>
<g filter="url(#filter0_f_521_19647)">
<path d="M276 246H92.5L249.5 173H433L276 246Z" fill="black" fill-opacity="0.2"/>
</g>
<path d="M246.967 210.813H126.121L137.444 205.594V197.893V189.8H136.488V188.409L159.133 177.971H172.237L207.103 161.315H208.744L212.033 159.744L218.838 166.049L236.163 128.607L237.061 126.667L241.128 117.877L245.337 115.937L268.737 105.151L271.637 103.814H275.833H341.303H345.499L369.001 154.562L342.701 166.685L338.493 168.625L332.806 171.246L310.656 181.456L307.984 182.688L258.672 205.417L246.967 210.813Z" fill="#D9D9D9"/>
<path d="M338.493 168.625L307.984 182.688L246.967 210.813H126.121L137.444 205.594M338.493 168.625L342.701 166.685M338.493 168.625H332.148M218.404 168.625H236.163H237.061H245.337M218.404 168.625L219.924 167.054M218.404 168.625L217.916 168.858L216.627 169.474M314.991 117.877H311.311H257.414M314.991 117.877L319.199 115.937L342.599 105.151L345.499 103.814M314.991 117.877L319.96 128.607M241.128 117.877H245.337M241.128 117.877L245.337 115.937L268.737 105.151L271.637 103.814H275.833H341.303H345.499M241.128 117.877L237.061 126.667L236.163 128.607M345.499 103.814L369.001 154.562L342.701 166.685M245.337 117.877H257.414M245.337 117.877V124.221M272.934 105.151L249.544 115.937H251.956M272.934 105.151H338.452L336.08 106.264M272.934 105.151V106.264M272.934 106.264L251.956 115.937M272.934 106.264H336.08M251.956 115.937H315.448L317.752 114.857M336.08 106.264L329.679 109.265M319.96 128.607L324.168 126.667L342.701 166.685M319.96 128.607H237.061H236.163M236.163 128.607L218.838 166.049M245.337 168.625H257.414M245.337 168.625V162.281M257.414 168.625V162.281M257.414 168.625H259.629M257.414 117.877V124.221M245.337 143.251H257.414M245.337 143.251V149.595M245.337 143.251V136.908M257.414 143.251V149.595M257.414 143.251V136.908M245.337 130.564H257.414M245.337 130.564V136.908M245.337 130.564V124.221M257.414 130.564V136.908M257.414 130.564V124.221M245.337 155.938H257.414M245.337 155.938V149.595M245.337 155.938V162.281M257.414 155.938V149.595M257.414 155.938V162.281M257.414 149.595H245.337M245.337 162.281H257.414M257.414 136.908H245.337M245.337 124.221H257.414M259.629 168.625V130.066H260.585M259.629 168.625H277.997M259.629 168.625L260.585 168.184M331.892 154.373H283.683L279.959 156.089M331.892 154.373L326.206 156.994L324.627 157.721M331.892 154.373L332.148 154.926M277.997 171.246V168.625M277.997 171.246L281.721 169.53L283.582 168.671M277.997 171.246H278.55M332.806 171.246H308.492M308.492 171.246V158.449M308.492 171.246H305.928M276.588 157.643L277.997 156.994L279.406 156.344L279.959 156.089M276.588 157.643V158.449H277.997M276.588 157.643L324.627 157.721M324.627 157.721V158.449M324.627 158.449H323.049H308.492M324.627 158.449L332.148 154.926M332.148 154.926V168.625M308.492 158.449H290.779M290.779 158.449V160.149V161.007M290.779 158.449H285.444H283.683H283.582M279.959 156.089V143.704M277.997 158.449H283.582M277.997 158.449V161.015M277.997 168.625V168.184M326.206 157.71V171.246L332.148 168.625M277.997 164.286V163.582M277.997 164.286H283.582M277.997 164.286V168.184M290.779 164.286V163.582M290.779 164.286H285.444H283.582M290.779 164.286V165.609M290.779 163.582H277.997M290.779 163.582V161.007M277.997 163.582L281.721 161.865L283.582 161.007M277.997 163.582V161.015M283.582 168.671V164.286M283.582 168.671L284.144 168.668M283.582 161.007V158.449M283.582 161.007H290.779M279.406 142.748V143.704H279.959M279.406 142.748H320.051M279.406 142.748L279.959 142.493M320.051 143.704V142.748M320.051 143.704L325.737 141.083V140.127M320.051 143.704H279.959M320.051 142.748L325.737 140.127M325.737 140.127H285.092L279.959 142.493M279.406 134.348H320.051L325.737 131.727H285.092L279.959 134.093M279.406 134.348V135.304H279.959M279.406 134.348L279.959 134.093M325.737 132.683L320.051 135.304H279.959M279.959 134.093V130.066H276.156M279.959 135.304V142.493M317.752 114.857V113.46M317.752 114.857H310.304V113.46M317.752 114.857L322.935 112.427M317.752 113.46H310.304M317.752 113.46L322.935 111.03M310.304 113.46L315.487 111.03H317.047M322.935 112.427L324.495 111.695M322.935 112.427V111.728M322.935 111.03H317.047M322.935 111.03V111.728M324.495 111.695V110.298M324.495 111.695L329.679 109.265M324.495 111.695L322.935 111.728M324.495 110.298H317.047M324.495 110.298L329.679 107.868M317.047 110.298L322.231 107.868H329.679M317.047 110.298V111.03M329.679 107.868V109.265M160.542 194.947L163.925 187.636M160.542 194.947L155.334 197.347M160.542 194.947H176.797M215.948 194.947L255.351 176.784V169.474M215.948 194.947V187.636M215.948 194.947H177.293M215.948 187.636L255.351 169.474M215.948 187.636H178.608M255.351 169.474H216.627M163.925 187.636L164.865 185.604M163.925 187.636H176.797M207.103 161.315L206.638 162.321M207.103 161.315H208.808M207.103 161.315L172.237 177.971M178.608 187.636L181.124 184.969M178.608 187.636L189.519 182.466L192.035 179.799M178.608 187.636L177.293 186.418M178.608 187.636H177.293M181.124 184.969L192.035 179.799M181.124 184.969L177.293 181.42M173.233 177.659L184.144 172.489L185.157 173.428M173.233 177.659L172.939 177.971M173.233 177.659L173.57 177.971M192.035 179.799L189.212 177.185M185.157 173.428L188.052 176.11L189.212 177.185M185.157 173.428L200.825 165.943M174.773 184.083L167.335 187.636L169.2 183.606M174.773 184.083L173.613 183.008L172.577 182.049M174.773 184.083L176.797 185.958M189.212 177.185L204.881 169.7M219.924 167.054L210.236 171.682M219.924 167.054L218.838 166.049M200.825 165.943L203.721 168.625L204.881 169.7M200.825 165.943L202.345 164.372M204.881 169.7L208.716 173.253M208.716 173.253L210.236 171.682M208.716 173.253L216.627 169.474M210.236 171.682L202.345 164.372M202.345 164.372L206.638 162.321M206.638 162.321L212.033 159.744L218.838 166.049M310.656 181.456L305.928 171.246M251.044 188.945L303.028 164.983M251.044 188.945H240.154M251.044 188.945L251.603 190.152M303.028 164.983H292.137L290.779 165.609M303.028 164.983L305.928 171.246M240.154 188.945L278.55 171.246M240.154 188.945V190.152H241.11M290.779 165.609L284.144 168.668M278.55 171.246L284.144 168.668M251.603 190.152L258.672 205.417H241.11V190.152M251.603 190.152H241.11M260.585 168.184V130.066M260.585 168.184H277.997M260.585 168.184L276.156 161.007M260.585 130.066H276.156M276.156 161.007V130.066M276.156 161.007L277.997 161.015M136.488 188.409H155.761M136.488 188.409L159.133 177.971H172.237M136.488 188.409V189.8H138.199M155.761 188.409L178.407 177.971M155.761 188.409V189.8M178.407 177.971V179.362L176.797 180.104M178.407 177.971H173.57M155.761 189.8L164.865 185.604M155.761 189.8H155.334M176.18 180.388L172.577 182.049M176.18 180.388L176.797 180.104M176.18 180.388L176.797 180.96M172.577 182.049L169.2 183.606M169.2 183.606L164.865 185.604M172.237 177.971H172.939M172.939 177.971H173.57M154.906 189.8H154.151M154.906 189.8H155.334M154.906 189.8V205.594M154.151 189.8V197.893M154.151 189.8H138.626M155.334 189.8V197.347M155.334 197.347V203.542V205.396L154.906 205.594M154.151 197.893V205.594H154.906M154.151 197.893L138.626 205.048M137.444 189.8V197.893V205.594M137.444 205.594H138.199M138.199 205.594V189.8M138.199 205.594L138.626 205.396V205.048M138.199 189.8H138.626M138.626 189.8V205.048M177.293 179.875V181.42M176.797 180.104V180.96M176.797 187.636V185.958M176.797 187.636V194.947M176.797 185.958V180.96M177.293 181.42V186.418M177.293 186.418V187.636M177.293 187.636V194.947M177.293 194.947V195.669H176.797V194.947" stroke="black" stroke-width="0.100646"/>
<path d="M131.301 210.842H125.996L131.321 199.334L183.777 85.9689L186.393 80.3145L188.281 84.3934L190.168 88.4724L192.056 92.5514L193.943 96.6304L195.83 100.709L197.718 104.788L199.605 108.867L201.493 112.946L203.38 117.025L205.267 121.104L207.155 125.183L209.042 129.262L210.93 133.341L212.817 137.42L214.705 141.499L216.592 145.578L218.479 149.657L220.367 153.736L222.254 157.815L224.142 161.894L226.029 165.973L227.916 170.052L229.804 174.131L231.691 178.21L233.579 182.289L235.466 186.368L237.353 190.447L239.241 194.526L241.128 198.605L243.016 202.684L244.903 206.763L246.79 210.842H241.075L214.692 153.343V151.18V145.578H211.129L186.885 92.743L186.384 91.6506L185.879 92.743L161.462 145.578H158.069V151.18V152.919L136.619 199.334L131.301 210.842Z" fill="#909090" stroke="black" stroke-width="0.100646"/>
<path d="M214.688 153.432L241.071 210.93H239.765L214.688 155.974V153.432Z" fill="#CCCCCC"/>
<path d="M185.876 92.8317L161.458 145.667H162.599L186.377 93.9301L209.985 145.667H211.125L186.882 92.8317L186.381 91.7393L185.876 92.8317Z" fill="#CCCCCC"/>
<path d="M132.603 210.93H131.298L136.616 199.422L158.066 153.008V155.529L137.892 199.422L132.603 210.93Z" fill="#CCCCCC"/>
<path d="M214.688 153.432L241.071 210.93H239.765L214.688 155.974V153.432Z" stroke="black" stroke-width="0.100646"/>
<path d="M185.876 92.8317L161.458 145.667H162.599L186.377 93.9301L209.985 145.667H211.125L186.882 92.8317L186.381 91.7393L185.876 92.8317Z" stroke="black" stroke-width="0.100646"/>
<path d="M132.603 210.93H131.298L136.616 199.422L158.066 153.008V155.529L137.892 199.422L132.603 210.93Z" stroke="black" stroke-width="0.100646"/>
<path d="M216.594 210.966H214.694V156.01L239.771 210.966H216.594Z" fill="#F5F5F5"/>
<path d="M158.071 197.904V210.966H132.609L137.898 199.458L158.071 155.565V197.904Z" fill="#F5F5F5"/>
<path d="M216.594 210.966H214.694V156.01L239.771 210.966H216.594Z" stroke="black" stroke-width="0.100646"/>
<path d="M158.071 197.904V210.966H132.609L137.898 199.458L158.071 155.565V197.904Z" stroke="black" stroke-width="0.100646"/>
<path d="M162.603 145.599L186.381 93.8621L209.989 145.599H162.603Z" fill="#F5F5F5" stroke="black" stroke-width="0.100646"/>
<path d="M171.189 210.819H163.691H161.816H159.942V197.757V151.157H161.816H184.311H186.199H188.086H210.889H212.789V210.819H188.086H186.186H184.311H182.437H178.688H171.189Z" fill="#E0E0E0"/>
<path d="M186.186 210.819H184.311H182.437H178.688H171.189H163.691H161.816H159.942V197.757V151.157H161.816H184.311H186.199M186.186 210.819H188.086H212.789V151.157H210.889H188.086H186.199M186.186 210.819L186.205 197.757M186.199 197.757V151.157M161.816 152.896H184.311V197.757V208.941H161.816V197.757V180.919V152.896ZM188.086 152.896H210.889V197.757V208.941H188.086V197.982V152.896Z" stroke="black" stroke-width="0.100646"/>
<path d="M184.311 152.953H161.816V180.975V197.813V208.998H184.311V197.813V152.953Z" fill="#F5F5F5"/>
<path d="M210.888 152.953H188.085V198.039V208.998H210.888V197.813V152.953Z" fill="#F5F5F5"/>
<path d="M184.311 152.953H161.816V180.975V197.813V208.998H184.311V197.813V152.953Z" stroke="black" stroke-width="0.100646"/>
<path d="M210.888 152.953H188.085V198.039V208.998H210.888V197.813V152.953Z" stroke="black" stroke-width="0.100646"/>
<path d="M159.943 210.873H158.068V197.811V155.472V152.95V151.211V145.609H161.461H162.601H209.987H211.128H214.691V151.211V153.374V155.916V210.873H212.79V151.211H210.89H188.087H186.2H184.312H161.817H159.943V197.811V210.873Z" fill="#CCCCCC" stroke="black" stroke-width="0.100646"/>
<path d="M212.796 198.578V226.601L214.394 225.863V210.903V197.841L212.796 198.578Z" fill="#E0E0E0"/>
<path d="M93.1912 199.395V226.601L94.7884 225.863V225.314V199.395H93.5992H93.1912Z" fill="#E0E0E0"/>
<path d="M153.506 199.395V226.601L155.103 225.863V210.903V199.395H153.506Z" fill="#E0E0E0"/>
<path d="M212.796 198.578V226.601L214.394 225.863V210.903V197.841L212.796 198.578Z" stroke="black" stroke-width="0.100646"/>
<path d="M93.1912 199.395V226.601L94.7884 225.863V225.314V199.395H93.5992H93.1912Z" stroke="black" stroke-width="0.100646"/>
<path d="M153.506 199.395V226.601L155.103 225.863V210.903V199.395H153.506Z" stroke="black" stroke-width="0.100646"/>
<path d="M93.1892 198.578H212.794L214.392 197.841H212.794H210.894H188.091H186.204H184.316H161.821H159.947H158.072H138.613H137.34H132.043H94.7864H93.5973L92 198.578H93.1892Z" fill="#EBEBEB" stroke="black" stroke-width="0.100646"/>
<path d="M212.794 198.578V226.601H211.859V199.395H210.894H188.091H186.21H184.316H161.821H159.947H158.072H155.101H153.504V226.601H152.524V210.903V199.395H137.899H136.622H131.324H94.7864H93.5973H93.1892V226.601H92V198.578H212.794Z" fill="#D6D6D6" stroke="black" stroke-width="0.100646"/>
<path d="M92 226.68H93.1892H152.524H153.504H211.859H212.794V229.672H226.55V235.059H240.306V240.446H254.061V245.832H240.306H212.794H211.859V229.672H155.101H153.504V245.832H152.524V229.672H111.582H109.985V235.082H108.795V229.672H94.7864H93.1892V245.832H92V229.672V226.68Z" fill="#D6D6D6"/>
<path d="M367.291 158.338V173.763H365.95V158.957L367.291 158.338Z" fill="#D6D6D6"/>
<path d="M304.536 187.314V202.739H303.188V187.936L304.536 187.314Z" fill="#D6D6D6"/>
<path d="M153.504 226.68H211.859H212.794V229.672M153.504 226.68H152.524H93.1892H92V229.672M153.504 226.68L155.101 225.943M212.794 229.672V235.059V245.832M212.794 229.672H226.55M212.794 229.672H211.859M92 229.672V245.832H93.1892V229.672M92 229.672H93.1892M227.383 229.672H226.55M226.55 229.672V235.059H240.306M240.306 235.059H241.139M240.306 235.059V240.446H254.061M254.061 240.446H254.895M254.061 240.446V245.832H240.306H212.794M212.794 245.832H211.859V229.672M93.1892 229.672H94.7864H108.795M152.524 229.672V245.832H153.504V229.672M152.524 229.672H153.504M152.524 229.672H111.582H109.985M153.504 229.672H155.101H211.859M109.985 229.672V235.082H108.795V229.672M109.985 229.672H108.795M367.291 158.338V173.763H365.95V158.957L367.291 158.338ZM304.536 187.314V202.739H303.188V187.936L304.536 187.314Z" stroke="black" stroke-width="0.100646"/>
<path d="M93.1912 229.672V245.832L94.7884 245.098V229.672H93.1912Z" fill="#E0E0E0"/>
<path d="M153.506 229.672V245.832L155.103 245.098V229.672H153.506Z" fill="#E0E0E0"/>
<path d="M111.584 234.348L109.987 235.082V229.672H111.584V234.348Z" fill="#E0E0E0"/>
<path d="M367.293 158.338V173.763H365.952V158.957L367.293 158.338Z" fill="#E0E0E0"/>
<path d="M93.1912 229.672V245.832L94.7884 245.098V229.672H93.1912Z" stroke="black" stroke-width="0.100646"/>
<path d="M153.506 229.672V245.832L155.103 245.098V229.672H153.506Z" stroke="black" stroke-width="0.100646"/>
<path d="M111.584 234.348L109.987 235.082V229.672H111.584V234.348Z" stroke="black" stroke-width="0.100646"/>
<path d="M367.293 158.338V173.763H365.952V158.957L367.293 158.338Z" stroke="black" stroke-width="0.100646"/>
<path d="M188.282 84.4528L186.395 80.3739L194.025 76.8505L201.656 73.3271L209.287 69.8038L216.918 66.2804L224.549 62.757L232.18 59.2337L239.811 55.7103L247.442 52.1869L255.073 48.6636L262.704 45.1402L270.335 41.6168L277.966 38.0935L285.597 34.5701L293.228 31.0467L300.859 27.5234L308.49 24L310.377 28.079L312.264 32.1579L314.152 36.2369L316.039 40.3159L317.927 44.3949L319.814 48.4738L321.702 52.5528L323.589 56.6318L325.476 60.7108L327.364 64.7897L329.251 68.8687L331.139 72.9477L333.026 77.0267L334.913 81.1056L336.801 85.1846L338.688 89.2636L340.576 93.3426L342.463 97.4215L344.35 101.501L346.238 105.579L348.125 109.658L350.013 113.737L351.9 117.816L353.788 121.895L355.675 125.974L357.562 130.053L359.45 134.132L361.337 138.211L363.225 142.29L365.112 146.369L366.999 150.448L368.887 154.527L361.256 158.051L353.625 161.574L345.994 165.097L338.363 168.621L330.732 172.144L323.101 175.667L315.47 179.191L307.839 182.714L300.208 186.237L292.577 189.761L284.946 193.284L277.315 196.808L269.685 200.331L262.054 203.854L254.423 207.378L246.792 210.901L244.904 206.822L243.017 202.743L241.129 198.664L239.242 194.585L237.355 190.506L235.467 186.427L233.58 182.348L231.692 178.269L229.805 174.19L227.918 170.111L226.03 166.032L224.143 161.953L222.255 157.874L220.368 153.795L218.481 149.716L216.593 145.637L214.706 141.558L212.818 137.48L210.931 133.401L209.043 129.322L207.156 125.243L205.269 121.164L203.381 117.085L201.494 113.006L199.606 108.927L197.719 104.848L195.832 100.769L193.944 96.6898L192.057 92.6108L190.169 88.5318L188.282 84.4528Z" fill="#707070"/>
<path d="M188.304 84.4209L186.416 80.3419L194.047 76.8185L201.678 73.2951L203.562 77.3661L203.566 77.3644L211.197 73.841L213.084 77.92L205.453 81.4434L197.822 84.9668L195.938 80.8958L195.935 80.8975L188.304 84.4209Z" fill="#7A7A7A"/>
<path d="M218.787 70.3694L216.9 66.2904L224.531 62.7671L232.162 59.2437L234.045 63.3147L234.049 63.313L241.68 59.7896L243.568 63.8686L235.937 67.392L228.306 70.9153L226.422 66.8443L226.418 66.8461L218.787 70.3694Z" fill="#7A7A7A"/>
<path d="M249.281 56.262L247.394 52.183L255.025 48.6596L262.656 45.1362L264.54 49.2072L264.543 49.2055L272.174 45.6822L274.062 49.7611L266.431 53.2845L258.8 56.8079L256.916 52.7369L256.912 52.7386L249.281 56.262Z" fill="#7A7A7A"/>
<path d="M279.846 42.2118L277.959 38.1328L285.59 34.6094L293.221 31.0861L295.105 35.157L295.108 35.1553L302.739 31.632L304.627 35.7109L296.996 39.2343L289.365 42.7577L287.481 38.6867L287.477 38.6884L279.846 42.2118Z" fill="#7A7A7A"/>
<path d="M237.365 190.522L235.478 186.443L243.109 182.92L250.739 179.396L252.623 183.467L252.627 183.465L260.258 179.942L262.145 184.021L254.518 187.543L256.378 191.561L256.381 191.559L264.012 188.036L265.9 192.115L258.269 195.638L250.638 199.162L248.754 195.091L248.75 195.093L241.119 198.616L239.232 194.537L246.859 191.015L245 186.997L244.996 186.999L237.365 190.522Z" fill="#7A7A7A"/>
<path d="M267.848 176.47L265.961 172.391L273.592 168.868L281.223 165.345L283.107 169.416L283.11 169.414L290.741 165.891L292.629 169.97L285.002 173.491L286.861 177.51L286.865 177.508L294.496 173.985L296.383 178.064L288.752 181.587L281.121 185.11L279.237 181.039L279.234 181.041L271.603 184.564L269.715 180.486L277.343 176.964L275.483 172.945L275.479 172.947L267.848 176.47Z" fill="#7A7A7A"/>
<path d="M298.343 162.363L296.455 158.284L304.086 154.761L311.717 151.237L313.601 155.308L313.604 155.307L321.235 151.783L323.123 155.862L315.496 159.384L317.355 163.402L317.359 163.401L324.99 159.877L326.877 163.956L319.246 167.48L311.615 171.003L309.732 166.932L309.728 166.934L302.097 170.457L300.209 166.378L307.837 162.856L305.977 158.838L305.973 158.84L298.343 162.363Z" fill="#7A7A7A"/>
<path d="M328.908 148.313L327.02 144.234L334.651 140.71L342.282 137.187L344.166 141.258L344.17 141.256L351.8 137.733L353.688 141.812L346.061 145.334L347.92 149.352L347.924 149.35L355.555 145.827L357.442 149.906L349.811 153.429L342.18 156.953L340.297 152.882L340.293 152.883L332.662 156.407L330.775 152.328L338.402 148.806L336.542 144.788L336.539 144.789L328.908 148.313Z" fill="#7A7A7A"/>
<path d="M244.874 206.778L242.986 202.699L250.617 199.175L258.248 195.652L260.132 199.723L260.136 199.721L267.767 196.198L269.654 200.277L262.023 203.8L254.392 207.323L252.508 203.252L252.505 203.254L244.874 206.778Z" fill="#7A7A7A"/>
<path d="M275.357 192.726L273.47 188.647L281.101 185.124L288.732 181.6L290.615 185.671L290.619 185.67L298.25 182.146L300.137 186.225L292.506 189.749L284.876 193.272L282.992 189.201L282.988 189.203L275.357 192.726Z" fill="#7A7A7A"/>
<path d="M305.851 178.619L303.964 174.54L311.595 171.016L319.226 167.493L321.109 171.564L321.113 171.562L328.744 168.039L330.631 172.118L323.001 175.641L315.37 179.165L313.486 175.094L313.482 175.095L305.851 178.619Z" fill="#7A7A7A"/>
<path d="M336.416 164.568L334.529 160.49L342.16 156.966L349.791 153.443L351.674 157.514L351.678 157.512L359.309 153.989L361.197 158.068L353.566 161.591L345.935 165.114L344.051 161.043L344.047 161.045L336.416 164.568Z" fill="#7A7A7A"/>
<path d="M192.036 92.5968L190.148 88.5178L197.779 84.9944L205.41 81.471L207.294 85.542L207.298 85.5403L214.929 82.0169L216.816 86.0959L209.185 89.6193L209.168 89.627L211.048 93.6896L211.052 93.6879L218.683 90.1645L220.57 94.2435L212.939 97.7669L205.308 101.29L203.425 97.2193L203.421 97.221L195.79 100.744L193.903 96.6654L201.534 93.142L201.55 93.1343L199.67 89.0717L199.667 89.0734L192.036 92.5968Z" fill="#7A7A7A"/>
<path d="M222.519 78.5453L220.632 74.4663L228.263 70.943L235.894 67.4196L237.777 71.4906L237.781 71.4889L245.412 67.9655L247.299 72.0445L239.668 75.5679L239.652 75.5756L241.532 79.6382L241.535 79.6365L249.166 76.1131L251.054 80.1921L243.423 83.7154L235.792 87.2388L233.908 83.1678L233.904 83.1695L226.273 86.6929L224.386 82.6139L232.017 79.0906L232.034 79.0829L230.154 75.0202L230.15 75.022L222.519 78.5453Z" fill="#7A7A7A"/>
<path d="M253.013 64.4379L251.126 60.3589L258.757 56.8355L266.388 53.3122L268.271 57.3831L268.275 57.3814L275.906 53.8581L277.793 57.937L270.163 61.4604L270.146 61.4681L272.026 65.5307L272.029 65.529L279.66 62.0056L281.548 66.0846L273.917 69.608L266.286 73.1314L264.402 69.0604L264.398 69.0621L256.768 72.5855L254.88 68.5065L262.511 64.9831L262.528 64.9754L260.648 60.9128L260.644 60.9145L253.013 64.4379Z" fill="#7A7A7A"/>
<path d="M283.578 50.3877L281.691 46.3087L289.322 42.7853L296.953 39.262L298.837 43.3329L298.84 43.3312L306.471 39.8079L308.359 43.8869L300.728 47.4102L300.711 47.4179L302.591 51.4805L302.595 51.4788L310.225 47.9555L312.113 52.0344L304.482 55.5578L296.851 59.0812L294.967 55.0102L294.964 55.0119L287.333 58.5353L285.445 54.4563L293.076 50.9329L293.093 50.9252L291.213 46.8626L291.209 46.8643L283.578 50.3877Z" fill="#7A7A7A"/>
<path d="M199.574 108.906L197.687 104.827L205.318 101.304L212.949 97.7803L214.833 101.851L214.836 101.85L222.467 98.3262L224.355 102.405L216.724 105.929L209.093 109.452L207.209 105.381L207.205 105.383L199.574 108.906Z" fill="#7A7A7A"/>
<path d="M230.058 94.8545L228.17 90.7756L235.801 87.2522L243.432 83.7288L245.316 87.7998L245.32 87.7981L252.951 84.2747L254.838 88.3537L247.207 91.8771L239.576 95.4004L237.692 91.3295L237.689 91.3312L230.058 94.8545Z" fill="#7A7A7A"/>
<path d="M260.552 80.7471L258.664 76.6681L266.295 73.1447L273.926 69.6214L275.81 73.6923L275.814 73.6906L283.445 70.1673L285.332 74.2463L277.701 77.7696L270.07 81.293L268.187 77.222L268.183 77.2237L260.552 80.7471Z" fill="#7A7A7A"/>
<path d="M291.117 66.6969L289.23 62.6179L296.861 59.0945L304.491 55.5712L306.375 59.6422L306.379 59.6404L314.01 56.1171L315.897 60.1961L308.266 63.7194L300.635 67.2428L298.752 63.1718L298.748 63.1735L291.117 66.6969Z" fill="#7A7A7A"/>
<path d="M203.38 117.082L201.493 113.003L209.124 109.479L216.755 105.956L218.639 110.027L218.642 110.025L226.273 106.502L228.161 110.581L220.53 114.104L220.465 114.134L222.341 118.189L222.345 118.187L229.976 114.663L231.863 118.742L224.232 122.266L224.216 122.273L226.096 126.336L226.099 126.334L233.73 122.811L235.618 126.89L227.987 130.413L220.356 133.937L218.472 129.866L218.468 129.867L210.837 133.391L208.95 129.312L216.581 125.788L216.598 125.781L214.718 121.718L214.714 121.72L207.083 125.243L205.196 121.164L212.827 117.641L212.891 117.611L211.015 113.557L211.011 113.558L203.38 117.082Z" fill="#7A7A7A"/>
<path d="M233.864 103.03L231.976 98.9512L239.607 95.4278L247.238 91.9045L249.122 95.9754L249.126 95.9737L256.757 92.4504L258.644 96.5293L251.013 100.053L250.949 100.082L252.825 104.137L252.828 104.135L260.459 100.612L262.347 104.691L254.716 108.214L254.699 108.222L256.579 112.285L256.583 112.283L264.214 108.76L266.101 112.839L258.47 116.362L250.839 119.885L248.955 115.814L248.952 115.816L241.321 119.339L239.433 115.26L247.064 111.737L247.081 111.729L245.201 107.667L245.197 107.668L237.567 111.192L235.679 107.113L243.31 103.589L243.375 103.56L241.498 99.5051L241.495 99.5068L233.864 103.03Z" fill="#7A7A7A"/>
<path d="M264.358 88.9227L262.47 84.8438L270.101 81.3204L277.732 77.797L279.616 81.868L279.62 81.8663L287.251 78.3429L289.138 82.4219L281.507 85.9453L281.443 85.975L283.319 90.0296L283.322 90.0279L290.953 86.5045L292.841 90.5835L285.21 94.1069L285.193 94.1146L287.073 98.1772L287.077 98.1755L294.708 94.6521L296.595 98.7311L288.964 102.254L281.333 105.778L279.45 101.707L279.446 101.709L271.815 105.232L269.927 101.153L277.558 97.6296L277.575 97.6219L275.695 93.5593L275.692 93.561L268.061 97.0844L266.173 93.0054L273.804 89.482L273.869 89.4522L271.992 85.3977L271.989 85.3994L264.358 88.9227Z" fill="#7A7A7A"/>
<path d="M294.923 74.8725L293.035 70.7936L300.666 67.2702L308.297 63.7468L310.181 67.8178L310.185 67.8161L317.816 64.2927L319.703 68.3717L312.072 71.8951L312.008 71.9249L313.884 75.9794L313.888 75.9777L321.519 72.4543L323.406 76.5333L315.775 80.0567L315.758 80.0644L317.638 84.127L317.642 84.1253L325.273 80.6019L327.16 84.6809L319.529 88.2043L311.898 91.7277L310.015 87.6567L310.011 87.6584L302.38 91.1818L300.493 87.1028L308.123 83.5794L308.14 83.5717L306.26 79.5091L306.257 79.5108L298.626 83.0342L296.738 78.9552L304.369 75.4318L304.434 75.402L302.558 71.3475L302.554 71.3492L294.923 74.8725Z" fill="#7A7A7A"/>
<path d="M214.622 141.552L212.734 137.473L220.365 133.95L227.996 130.427L229.88 134.498L229.884 134.496L237.515 130.973L239.402 135.052L231.771 138.575L224.14 142.098L222.256 138.027L222.253 138.029L214.622 141.552Z" fill="#7A7A7A"/>
<path d="M245.105 127.501L243.218 123.422L250.849 119.899L258.48 116.375L260.363 120.446L260.367 120.445L267.998 116.921L269.885 121L262.255 124.524L254.624 128.047L252.74 123.976L252.736 123.978L245.105 127.501Z" fill="#7A7A7A"/>
<path d="M275.599 113.394L273.712 109.315L281.343 105.791L288.974 102.268L290.857 106.339L290.861 106.337L298.492 102.814L300.38 106.893L292.749 110.416L285.118 113.939L283.234 109.868L283.23 109.87L275.599 113.394Z" fill="#7A7A7A"/>
<path d="M306.164 99.3434L304.277 95.2644L311.908 91.741L319.539 88.2176L321.423 92.2886L321.426 92.2869L329.057 88.7635L330.945 92.8425L323.314 96.3659L315.683 99.8893L313.799 95.8183L313.795 95.82L306.164 99.3434Z" fill="#7A7A7A"/>
<path d="M218.428 149.728L216.54 145.649L224.171 142.126L231.802 138.602L233.686 142.673L233.69 142.672L241.321 139.148L243.208 143.227L235.577 146.751L227.946 150.274L226.062 146.203L226.059 146.205L218.428 149.728Z" fill="#7A7A7A"/>
<path d="M248.911 135.677L247.024 131.598L254.655 128.074L262.286 124.551L264.169 128.622L264.173 128.62L271.804 125.097L273.691 129.176L266.06 132.699L258.429 136.223L256.546 132.152L256.542 132.153L248.911 135.677Z" fill="#7A7A7A"/>
<path d="M279.405 121.569L277.518 117.49L285.149 113.967L292.78 110.443L294.663 114.514L294.667 114.513L302.298 110.989L304.185 115.068L296.554 118.592L288.924 122.115L287.04 118.044L287.036 118.046L279.405 121.569Z" fill="#7A7A7A"/>
<path d="M309.97 107.519L308.083 103.44L315.714 99.9167L323.345 96.3933L325.228 100.464L325.232 100.463L332.863 96.9392L334.751 101.018L327.12 104.542L319.489 108.065L317.605 103.994L317.601 103.996L309.97 107.519Z" fill="#7A7A7A"/>
<path d="M222.264 157.876L220.376 153.797L228.007 150.273L235.638 146.75L237.522 150.821L237.526 150.819L245.157 147.296L247.044 151.375L239.413 154.898L239.396 154.906L241.276 158.969L241.28 158.967L248.911 155.443L250.798 159.522L243.167 163.046L235.536 166.569L233.653 162.498L233.649 162.5L226.018 166.023L224.131 161.944L231.762 158.421L231.778 158.413L229.898 154.351L229.895 154.352L222.264 157.876Z" fill="#7A7A7A"/>
<path d="M252.747 143.824L250.86 139.745L258.491 136.222L266.122 132.699L268.005 136.77L268.009 136.768L275.64 133.244L277.527 137.323L269.896 140.847L269.88 140.854L271.76 144.917L271.763 144.915L279.394 141.392L281.282 145.471L273.651 148.994L266.02 152.518L264.136 148.447L264.132 148.448L256.501 151.972L254.614 147.893L262.245 144.369L262.262 144.362L260.382 140.299L260.378 140.301L252.747 143.824Z" fill="#7A7A7A"/>
<path d="M283.241 129.717L281.354 125.638L288.985 122.114L296.616 118.591L298.499 122.662L298.503 122.66L306.134 119.137L308.021 123.216L300.391 126.739L300.374 126.747L302.254 130.81L302.257 130.808L309.888 127.285L311.776 131.364L304.145 134.887L296.514 138.41L294.63 134.339L294.626 134.341L286.995 137.864L285.108 133.785L292.739 130.262L292.756 130.254L290.876 126.192L290.872 126.193L283.241 129.717Z" fill="#7A7A7A"/>
<path d="M313.806 115.667L311.919 111.588L319.55 108.064L327.181 104.541L329.064 108.612L329.068 108.61L336.699 105.087L338.587 109.166L330.956 112.689L330.939 112.697L332.819 116.759L332.822 116.758L340.453 113.234L342.341 117.313L334.71 120.837L327.079 124.36L325.195 120.289L325.192 120.291L317.561 123.814L315.673 119.735L323.304 116.212L323.321 116.204L321.441 112.142L321.437 112.143L313.806 115.667Z" fill="#7A7A7A"/>
<path d="M229.802 174.185L227.915 170.106L235.546 166.583L243.177 163.059L245.061 167.13L245.064 167.128L252.695 163.605L254.583 167.684L246.952 171.207L239.321 174.731L237.437 170.66L237.433 170.662L229.802 174.185Z" fill="#7A7A7A"/>
<path d="M260.286 160.133L258.398 156.054L266.029 152.531L273.66 149.008L275.544 153.079L275.548 153.077L283.179 149.554L285.066 153.633L277.435 157.156L269.804 160.679L267.92 156.608L267.917 156.61L260.286 160.133Z" fill="#7A7A7A"/>
<path d="M290.78 146.026L288.892 141.947L296.523 138.424L304.154 134.9L306.038 138.971L306.042 138.97L313.673 135.446L315.56 139.525L307.929 143.049L300.298 146.572L298.414 142.501L298.411 142.503L290.78 146.026Z" fill="#7A7A7A"/>
<path d="M321.345 131.976L319.458 127.897L327.088 124.373L334.719 120.85L336.603 124.921L336.607 124.919L344.238 121.396L346.125 125.475L338.494 128.998L330.863 132.522L328.98 128.451L328.976 128.452L321.345 131.976Z" fill="#7A7A7A"/>
<path d="M233.608 182.361L231.721 178.282L239.352 174.758L246.983 171.235L248.866 175.306L248.87 175.304L256.501 171.781L258.389 175.86L250.758 179.383L243.127 182.906L241.243 178.835L241.239 178.837L233.608 182.361Z" fill="#7A7A7A"/>
<path d="M264.092 168.309L262.204 164.23L269.835 160.707L277.466 157.183L279.35 161.254L279.354 161.253L286.985 157.729L288.872 161.808L281.241 165.332L273.61 168.855L271.726 164.784L271.723 164.786L264.092 168.309Z" fill="#7A7A7A"/>
<path d="M294.586 154.202L292.698 150.123L300.329 146.599L307.96 143.076L309.844 147.147L309.848 147.145L317.479 143.622L319.366 147.701L311.735 151.224L304.104 154.748L302.22 150.677L302.217 150.678L294.586 154.202Z" fill="#7A7A7A"/>
<path d="M325.151 140.151L323.263 136.072L330.894 132.549L338.525 129.026L340.409 133.097L340.413 133.095L348.044 129.572L349.931 133.651L342.3 137.174L334.669 140.697L332.786 136.626L332.782 136.628L325.151 140.151Z" fill="#7A7A7A"/>
<path d="M216.593 145.637L214.706 141.558M216.593 145.637L218.481 149.716M216.593 145.637L224.224 142.114M338.688 89.2636L336.801 85.1846M338.688 89.2636L340.576 93.3426M338.688 89.2636L331.057 92.787M201.494 113.006L199.606 108.927M201.494 113.006L203.381 117.085M201.494 113.006L209.125 109.482M323.589 56.6318L321.702 52.5528M323.589 56.6318L325.476 60.7108M323.589 56.6318L315.958 60.1552M353.788 121.895L351.9 117.816M353.788 121.895L355.675 125.974M353.788 121.895L346.157 125.419M231.692 178.269L229.805 174.19M231.692 178.269L233.58 182.348M231.692 178.269L239.323 174.746M239.242 194.585L237.355 190.506M239.242 194.585L241.129 198.664M239.242 194.585L246.873 191.062M361.337 138.211L359.45 134.132M361.337 138.211L363.225 142.29M361.337 138.211L353.706 141.735M346.238 105.579L344.35 101.501M346.238 105.579L348.125 109.658M346.238 105.579L338.607 109.103M224.143 161.953L222.255 157.874M224.143 161.953L226.03 166.032M224.143 161.953L231.774 158.43M209.043 129.322L207.156 125.243M209.043 129.322L210.931 133.401M209.043 129.322L216.674 125.798M331.139 72.9477L329.251 68.8687M331.139 72.9477L333.026 77.0267M331.139 72.9477L323.508 76.4711M316.039 40.3159L314.152 36.2369M316.039 40.3159L317.927 44.3949M316.039 40.3159L308.408 43.8393M193.944 96.6898L192.057 92.6108M193.944 96.6898L195.832 100.769M193.944 96.6898L201.575 93.1664M190.169 88.5318L188.282 84.4528M190.169 88.5318L192.057 92.6108M190.169 88.5318L197.8 85.0085M312.264 32.1579L310.377 28.079M312.264 32.1579L314.152 36.2369M312.264 32.1579L304.634 35.6813M319.814 48.4738L317.927 44.3949M319.814 48.4738L321.702 52.5528M319.814 48.4738L312.183 51.9972M197.719 104.848L195.832 100.769M197.719 104.848L199.606 108.927M197.719 104.848L205.35 101.324M205.269 121.164L203.381 117.085M205.269 121.164L207.156 125.243M205.269 121.164L212.9 117.64M327.364 64.7897L325.476 60.7108M327.364 64.7897L329.251 68.8687M327.364 64.7897L319.733 68.3131M334.913 81.1056L333.026 77.0267M334.913 81.1056L336.801 85.1846M334.913 81.1056L327.282 84.629M212.818 137.48L210.931 133.401M212.818 137.48L214.706 141.558M212.818 137.48L220.449 133.956M220.368 153.795L218.481 149.716M220.368 153.795L222.255 157.874M220.368 153.795L227.999 150.272M342.463 97.4215L340.576 93.3426M342.463 97.4215L344.35 101.501M342.463 97.4215L334.832 100.945M350.013 113.737L348.125 109.658M350.013 113.737L351.9 117.816M350.013 113.737L342.382 117.261M227.918 170.111L226.03 166.032M227.918 170.111L229.805 174.19M227.918 170.111L235.549 166.588M235.467 186.427L233.58 182.348M235.467 186.427L237.355 190.506M235.467 186.427L243.098 182.904M357.562 130.053L355.675 125.974M357.562 130.053L359.45 134.132M357.562 130.053L349.931 133.577M365.112 146.369L363.225 142.29M365.112 146.369L366.999 150.448M365.112 146.369L357.481 149.893M243.017 202.743L241.129 198.664M243.017 202.743L244.904 206.822M243.017 202.743L250.648 199.22M188.282 84.4528L186.395 80.3739L194.025 76.8505L201.656 73.3271M188.282 84.4528L195.913 80.9295M310.377 28.079L308.49 24L300.859 27.5234L293.228 31.0467M310.377 28.079L302.746 31.6023M314.152 36.2369L306.521 39.7603M192.057 92.6108L199.688 89.0874M195.832 100.769L203.463 97.2454M317.927 44.3949L310.296 47.9182M321.702 52.5528L314.071 56.0762M199.606 108.927L207.237 105.403M203.381 117.085L211.012 113.561M325.476 60.7108L317.845 64.2341M329.251 68.8687L321.62 72.3921M207.156 125.243L214.787 121.719M210.931 133.401L218.562 129.877M333.026 77.0267L325.395 80.55M336.801 85.1846L329.17 88.708M214.706 141.558L222.337 138.035M218.481 149.716L226.111 146.193M340.576 93.3426L332.945 96.8659M344.35 101.501L336.72 105.024M222.255 157.874L229.886 154.351M226.03 166.032L233.661 162.509M348.125 109.658L340.494 113.182M351.9 117.816L344.269 121.34M229.805 174.19L237.436 170.667M233.58 182.348L241.211 178.825M355.675 125.974L348.044 129.498M359.45 134.132L351.819 137.656M237.355 190.506L244.986 186.983M241.129 198.664L248.76 195.141M363.225 142.29L355.594 145.814M366.999 150.448L368.887 154.527L361.256 158.051M366.999 150.448L351.738 157.495M244.904 206.822L246.792 210.901L254.423 207.378M244.904 206.822L275.428 192.729M247.442 52.1869L239.811 55.7103L232.18 59.2337M247.442 52.1869L255.073 48.6636L262.704 45.1402M247.442 52.1869L249.329 56.2659M216.918 66.2804L209.287 69.8038L201.656 73.3271M216.918 66.2804L224.549 62.757L232.18 59.2337M216.918 66.2804L218.806 70.3594M201.656 73.3271L203.544 77.4061M232.18 59.2337L234.068 63.3126M277.966 38.0935L270.335 41.6168L262.704 45.1402M277.966 38.0935L285.597 34.5701L293.228 31.0467M277.966 38.0935L279.853 42.1724M262.704 45.1402L264.591 49.2192M293.228 31.0467L295.115 35.1257M254.423 207.378L262.054 203.854L269.685 200.331M254.423 207.378L252.535 203.299M269.685 200.331L277.315 196.808L284.946 193.284M269.685 200.331L267.797 196.252M284.946 193.284L292.577 189.761L300.208 186.237M284.946 193.284L283.059 189.205M300.208 186.237L307.839 182.714L315.47 179.191M300.208 186.237L298.321 182.159M315.47 179.191L323.101 175.667L330.732 172.144M315.47 179.191L313.583 175.112M330.732 172.144L338.363 168.621L345.994 165.097M330.732 172.144L328.845 168.065M345.994 165.097L353.625 161.574L361.256 158.051M345.994 165.097L344.107 161.018M361.256 158.051L359.368 153.972M195.913 80.9295L197.8 85.0085M195.913 80.9295L203.544 77.4061M199.688 89.0874L201.575 93.1664M199.688 89.0874L207.319 85.5641M197.8 85.0085L205.431 81.4851M201.575 93.1664L209.206 89.643M203.463 97.2454L205.35 101.324M203.463 97.2454L211.093 93.722M205.35 101.324L212.981 97.801M207.237 105.403L209.125 109.482M207.237 105.403L214.868 101.88M209.125 109.482L216.756 105.959M211.012 113.561L212.9 117.64M211.012 113.561L218.643 110.038M212.9 117.64L220.531 114.117M214.787 121.719L216.674 125.798M214.787 121.719L222.418 118.196M216.674 125.798L224.305 122.275M218.562 129.877L220.449 133.956M218.562 129.877L226.193 126.354M220.449 133.956L228.08 130.433M222.337 138.035L224.224 142.114M222.337 138.035L229.968 134.512M224.224 142.114L231.855 138.591M226.111 146.193L227.999 150.272M226.111 146.193L233.742 142.67M227.999 150.272L235.63 146.749M229.886 154.351L231.774 158.43M229.886 154.351L237.517 150.828M231.774 158.43L239.405 154.907M233.661 162.509L235.549 166.588M233.661 162.509L241.292 158.986M235.549 166.588L243.179 163.065M237.436 170.667L239.323 174.746M237.436 170.667L245.067 167.144M239.323 174.746L246.954 171.223M241.211 178.825L243.098 182.904M241.211 178.825L248.842 175.302M243.098 182.904L250.729 179.38M244.986 186.983L246.873 191.062M244.986 186.983L252.617 183.459M246.873 191.062L254.504 187.538M248.76 195.141L250.648 199.22M248.76 195.141L256.391 191.617M250.648 199.22L258.279 195.696M203.544 77.4061L211.175 73.8827M205.431 81.4851L207.319 85.5641M205.431 81.4851L213.062 77.9617M207.319 85.5641L214.95 82.0407M209.206 89.643L211.093 93.722M209.206 89.643L216.837 86.1197M211.093 93.722L218.724 90.1986M212.981 97.801L214.868 101.88M212.981 97.801L220.612 94.2776M214.868 101.88L222.499 98.3566M216.756 105.959L218.643 110.038M216.756 105.959L224.387 102.436M218.643 110.038L226.274 106.515M220.531 114.117L222.418 118.196M220.531 114.117L228.161 110.594M222.418 118.196L230.049 114.672M224.305 122.275L226.193 126.354M224.305 122.275L231.936 118.751M226.193 126.354L233.824 122.83M228.08 130.433L229.968 134.512M228.08 130.433L235.711 126.909M229.968 134.512L237.599 130.988M231.855 138.591L233.742 142.67M231.855 138.591L239.486 135.067M233.742 142.67L241.373 139.146M235.63 146.749L237.517 150.828M235.63 146.749L243.261 143.225M237.517 150.828L245.148 147.304M239.405 154.907L241.292 158.986M239.405 154.907L247.036 151.383M241.292 158.986L248.923 155.462M243.179 163.065L245.067 167.144M243.179 163.065L250.81 159.541M245.067 167.144L252.698 163.62M246.954 171.223L248.842 175.302M246.954 171.223L254.585 167.699M248.842 175.302L256.473 171.778M250.729 179.38L252.617 183.459M250.729 179.38L258.36 175.857M252.617 183.459L260.247 179.936M254.504 187.538L256.391 191.617M254.504 187.538L262.135 184.015M256.391 191.617L264.022 188.094M258.279 195.696L260.166 199.775M258.279 195.696L265.91 192.173M211.175 73.8827L213.062 77.9617M211.175 73.8827L218.806 70.3594M213.062 77.9617L220.693 74.4384M214.95 82.0407L216.837 86.1197M214.95 82.0407L222.581 78.5173M216.837 86.1197L224.468 82.5963M218.724 90.1986L220.612 94.2776M218.724 90.1986L226.355 86.6753M220.612 94.2776L228.243 90.7542M222.499 98.3566L224.387 102.436M222.499 98.3566L230.13 94.8332M224.387 102.436L232.018 98.9122M226.274 106.515L228.161 110.594M226.274 106.515L233.905 102.991M228.161 110.594L235.792 107.07M230.049 114.672L231.936 118.751M230.049 114.672L237.68 111.149M231.936 118.751L239.567 115.228M233.824 122.83L235.711 126.909M233.824 122.83L241.455 119.307M235.711 126.909L243.342 123.386M237.599 130.988L239.486 135.067M237.599 130.988L245.229 127.465M239.486 135.067L247.117 131.544M241.373 139.146L243.261 143.225M241.373 139.146L249.004 135.623M243.261 143.225L250.892 139.702M245.148 147.304L247.036 151.383M245.148 147.304L252.779 143.781M247.036 151.383L254.667 147.86M248.923 155.462L250.81 159.541M248.923 155.462L256.554 151.939M250.81 159.541L258.441 156.018M252.698 163.62L254.585 167.699M252.698 163.62L260.329 160.097M254.585 167.699L262.216 164.176M258.36 175.857L256.473 171.778M258.36 175.857L265.991 172.334M256.473 171.778L264.104 168.255M260.247 179.936L262.135 184.015M260.247 179.936L267.878 176.413M262.135 184.015L269.766 180.492M264.022 188.094L265.91 192.173M264.022 188.094L271.653 184.571M265.91 192.173L273.541 188.65M218.806 70.3594L226.437 66.836M226.437 66.836L234.068 63.3126M226.437 66.836L228.324 70.915M234.068 63.3126L241.699 59.7893M241.699 59.7893L249.329 56.2659M241.699 59.7893L243.586 63.8683M249.329 56.2659L256.96 52.7425M256.96 52.7425L264.591 49.2192M256.96 52.7425L258.848 56.8215M264.591 49.2192L272.222 45.6958M272.222 45.6958L279.853 42.1724M272.222 45.6958L274.11 49.7748M279.853 42.1724L287.484 38.6491M287.484 38.6491L295.115 35.1257M287.484 38.6491L289.372 42.728M295.115 35.1257L302.746 31.6023M302.746 31.6023L304.634 35.6813M304.634 35.6813L297.003 39.2047M297.003 39.2047L289.372 42.728M297.003 39.2047L298.89 43.2837M289.372 42.728L281.741 46.2514M281.741 46.2514L274.11 49.7748M281.741 46.2514L283.628 50.3304M274.11 49.7748L266.479 53.2981M266.479 53.2981L258.848 56.8215M266.479 53.2981L268.366 57.3771M258.848 56.8215L251.217 60.3449M251.217 60.3449L243.586 63.8683M251.217 60.3449L253.104 64.4239M243.586 63.8683L235.955 67.3916M235.955 67.3916L228.324 70.915M235.955 67.3916L237.842 71.4706M228.324 70.915L220.693 74.4384M220.693 74.4384L222.581 78.5173M222.581 78.5173L237.842 71.4706M224.468 82.5963L232.099 79.0729M224.468 82.5963L226.355 86.6753M232.099 79.0729L230.211 74.994M232.099 79.0729L239.73 75.5496M237.842 71.4706L245.473 67.9472M239.73 75.5496L247.361 72.0262M239.73 75.5496L241.617 79.6285M245.473 67.9472L247.361 72.0262M245.473 67.9472L253.104 64.4239M247.361 72.0262L254.992 68.5028M253.104 64.4239L260.735 60.9005M254.992 68.5028L262.623 64.9795M254.992 68.5028L256.879 72.5818M260.735 60.9005L262.623 64.9795M260.735 60.9005L268.366 57.3771M262.623 64.9795L270.254 61.4561M268.366 57.3771L275.997 53.8538M270.254 61.4561L277.885 57.9327M270.254 61.4561L272.141 65.5351M275.997 53.8538L277.885 57.9327M275.997 53.8538L283.628 50.3304M277.885 57.9327L285.516 54.4094M283.628 50.3304L291.259 46.807M285.516 54.4094L293.146 50.886M285.516 54.4094L287.403 58.4883M291.259 46.807L293.146 50.886M291.259 46.807L298.89 43.2837M293.146 50.886L300.777 47.3626M298.89 43.2837L306.521 39.7603M300.777 47.3626L308.408 43.8393M300.777 47.3626L302.665 51.4416M306.521 39.7603L308.408 43.8393M226.355 86.6753L233.986 83.1519M228.243 90.7542L230.13 94.8332M228.243 90.7542L235.874 87.2309M230.13 94.8332L237.761 91.3099M232.018 98.9122L233.905 102.991M232.018 98.9122L239.649 95.3888M233.905 102.991L241.536 99.4678M235.792 107.07L237.68 111.149M235.792 107.07L243.423 103.547M237.68 111.149L245.311 107.626M239.567 115.228L241.455 119.307M239.567 115.228L247.198 111.705M241.455 119.307L249.086 115.784M243.342 123.386L245.229 127.465M243.342 123.386L250.973 119.863M245.229 127.465L252.86 123.942M247.117 131.544L249.004 135.623M247.117 131.544L254.748 128.021M249.004 135.623L256.635 132.1M250.892 139.702L252.779 143.781M250.892 139.702L258.523 136.179M252.779 143.781L260.41 140.258M254.667 147.86L256.554 151.939M254.667 147.86L262.297 144.337M256.554 151.939L264.185 148.416M258.441 156.018L260.329 160.097M258.441 156.018L266.072 152.494M260.329 160.097L267.96 156.573M262.216 164.176L264.104 168.255M262.216 164.176L269.847 160.652M264.104 168.255L271.735 164.731M265.991 172.334L267.878 176.413M265.991 172.334L273.622 168.81M267.878 176.413L275.509 172.889M269.766 180.492L271.653 184.571M269.766 180.492L277.397 176.968M271.653 184.571L279.284 181.047M273.541 188.65L275.428 192.729M273.541 188.65L281.172 185.126M275.428 192.729L283.059 189.205M233.986 83.1519L235.874 87.2309M233.986 83.1519L241.617 79.6285M235.874 87.2309L243.505 83.7075M237.761 91.3099L239.649 95.3888M237.761 91.3099L245.392 87.7865M239.649 95.3888L247.279 91.8655M241.536 99.4678L243.423 103.547M241.536 99.4678L249.167 95.9444M243.423 103.547L251.054 100.023M245.311 107.626L247.198 111.705M245.311 107.626L252.942 104.102M247.198 111.705L254.829 108.181M249.086 115.784L250.973 119.863M249.086 115.784L256.717 112.26M250.973 119.863L258.604 116.339M252.86 123.942L254.748 128.021M252.86 123.942L260.491 120.418M254.748 128.021L262.379 124.497M256.635 132.1L258.523 136.179M256.635 132.1L264.266 128.576M258.523 136.179L266.154 132.655M260.41 140.258L262.297 144.337M260.41 140.258L268.041 136.734M262.297 144.337L269.928 140.813M264.185 148.416L266.072 152.494M264.185 148.416L271.816 144.892M266.072 152.494L273.703 148.971M267.96 156.573L269.847 160.652M267.96 156.573L275.591 153.05M269.847 160.652L277.478 157.129M271.735 164.731L273.622 168.81M271.735 164.731L279.365 161.208M273.622 168.81L281.253 165.287M275.509 172.889L277.397 176.968M275.509 172.889L283.14 169.366M277.397 176.968L285.028 173.445M279.284 181.047L281.172 185.126M279.284 181.047L286.915 177.524M281.172 185.126L288.803 181.603M283.059 189.205L298.321 182.159M241.617 79.6285L249.248 76.1052M243.505 83.7075L245.392 87.7865M243.505 83.7075L251.136 80.1841M245.392 87.7865L253.023 84.2631M247.279 91.8655L249.167 95.9444M247.279 91.8655L254.91 88.3421M249.167 95.9444L256.798 92.4211M251.054 100.023L252.942 104.102M251.054 100.023L258.685 96.5001M252.942 104.102L260.573 100.579M254.829 108.181L256.717 112.26M254.829 108.181L262.46 104.658M256.717 112.26L264.347 108.737M258.604 116.339L260.491 120.418M258.604 116.339L266.235 112.816M260.491 120.418L268.122 116.895M262.379 124.497L264.266 128.576M262.379 124.497L270.01 120.974M264.266 128.576L271.897 125.053M266.154 132.655L268.041 136.734M266.154 132.655L273.785 129.132M268.041 136.734L275.672 133.211M269.928 140.813L271.816 144.892M269.928 140.813L277.559 137.29M271.816 144.892L279.447 141.369M273.703 148.971L275.591 153.05M273.703 148.971L281.334 145.448M275.591 153.05L283.222 149.527M277.478 157.129L279.365 161.208M277.478 157.129L285.109 153.606M279.365 161.208L286.996 157.685M281.253 165.287L283.14 169.366M281.253 165.287L288.884 161.764M283.14 169.366L290.771 165.843M285.028 173.445L286.915 177.524M285.028 173.445L292.659 169.922M286.915 177.524L294.546 174.001M288.803 181.603L290.69 185.682M288.803 181.603L296.433 178.08M249.248 76.1052L251.136 80.1841M249.248 76.1052L264.51 69.0584M251.136 80.1841L258.767 76.6608M253.023 84.2631L254.91 88.3421M253.023 84.2631L260.654 80.7398M254.91 88.3421L262.541 84.8187M256.798 92.4211L258.685 96.5001M256.798 92.4211L264.429 88.8977M258.685 96.5001L266.316 92.9767M260.573 100.579L262.46 104.658M260.573 100.579L268.204 97.0557M262.46 104.658L270.091 101.135M264.347 108.737L266.235 112.816M264.347 108.737L271.978 105.214M266.235 112.816L273.866 109.293M268.122 116.895L270.01 120.974M268.122 116.895L275.753 113.372M270.01 120.974L277.641 117.451M271.897 125.053L273.785 129.132M271.897 125.053L279.528 121.529M273.785 129.132L281.416 125.608M275.672 133.211L277.559 137.29M275.672 133.211L283.303 129.687M277.559 137.29L285.19 133.766M279.447 141.369L281.334 145.448M279.447 141.369L287.078 137.845M281.334 145.448L288.965 141.924M283.222 149.527L285.109 153.606M283.222 149.527L290.853 146.003M285.109 153.606L292.74 150.082M286.996 157.685L288.884 161.764M286.996 157.685L294.627 154.161M288.884 161.764L296.515 158.24M290.771 165.843L292.659 169.922M290.771 165.843L298.402 162.319M292.659 169.922L300.29 166.398M294.546 174.001L296.433 178.08M294.546 174.001L302.177 170.477M296.433 178.08L304.064 174.556M298.321 182.159L305.952 178.635M258.767 76.6608L260.654 80.7398M258.767 76.6608L266.398 73.1374M260.654 80.7398L268.285 77.2164M262.541 84.8187L264.429 88.8977M262.541 84.8187L270.172 81.2954M264.429 88.8977L272.06 85.3743M266.316 92.9767L268.204 97.0557M266.316 92.9767L273.947 89.4533M268.204 97.0557L275.835 93.5323M270.091 101.135L271.978 105.214M270.091 101.135L277.722 97.6113M271.978 105.214L279.609 101.69M273.866 109.293L275.753 113.372M273.866 109.293L281.497 105.769M275.753 113.372L283.384 109.848M277.641 117.451L279.528 121.529M277.641 117.451L285.272 113.927M279.528 121.529L287.159 118.006M281.416 125.608L283.303 129.687M281.416 125.608L289.046 122.085M283.303 129.687L290.934 126.164M285.19 133.766L287.078 137.845M285.19 133.766L292.821 130.243M287.078 137.845L294.709 134.322M288.965 141.924L290.853 146.003M288.965 141.924L296.596 138.401M290.853 146.003L298.484 142.48M292.74 150.082L294.627 154.161M292.74 150.082L300.371 146.559M294.627 154.161L302.258 150.638M296.515 158.24L298.402 162.319M296.515 158.24L304.146 154.717M298.402 162.319L306.033 158.796M300.29 166.398L302.177 170.477M300.29 166.398L307.921 162.875M302.177 170.477L309.808 166.954M304.064 174.556L305.952 178.635M304.064 174.556L311.695 171.033M305.952 178.635L321.214 171.588M264.51 69.0584L266.398 73.1374M264.51 69.0584L272.141 65.5351M266.398 73.1374L274.028 69.614M268.285 77.2164L270.172 81.2954M268.285 77.2164L275.916 73.693M270.172 81.2954L277.803 77.772M272.06 85.3743L273.947 89.4533M272.06 85.3743L279.691 81.851M273.947 89.4533L281.578 85.9299M275.835 93.5323L277.722 97.6113M275.835 93.5323L283.466 90.0089M277.722 97.6113L285.353 94.0879M279.609 101.69L281.497 105.769M279.609 101.69L287.24 98.1669M281.497 105.769L289.128 102.246M283.384 109.848L285.272 113.927M283.384 109.848L291.015 106.325M285.272 113.927L292.903 110.404M287.159 118.006L289.046 122.085M287.159 118.006L294.79 114.483M289.046 122.085L296.677 118.562M290.934 126.164L292.821 130.243M290.934 126.164L298.565 122.641M292.821 130.243L300.452 126.72M294.709 134.322L296.596 138.401M294.709 134.322L302.34 130.799M296.596 138.401L304.227 134.878M298.484 142.48L300.371 146.559M298.484 142.48L306.114 138.957M300.371 146.559L308.002 143.036M302.258 150.638L304.146 154.717M302.258 150.638L309.889 147.115M304.146 154.717L311.777 151.194M306.033 158.796L307.921 162.875M306.033 158.796L313.664 155.273M307.921 162.875L315.552 159.351M309.808 166.954L311.695 171.033M309.808 166.954L317.439 163.43M311.695 171.033L319.326 167.509M272.141 65.5351L279.772 62.0117M274.028 69.614L275.916 73.693M274.028 69.614L281.659 66.0907M275.916 73.693L283.547 70.1697M277.803 77.772L279.691 81.851M277.803 77.772L285.434 74.2486M279.691 81.851L287.322 78.3276M281.578 85.9299L283.466 90.0089M281.578 85.9299L289.209 82.4066M283.466 90.0089L291.096 86.4856M285.353 94.0879L287.24 98.1669M285.353 94.0879L292.984 90.5645M287.24 98.1669L294.871 94.6435M289.128 102.246L291.015 106.325M289.128 102.246L296.759 98.7225M291.015 106.325L298.646 102.801M292.903 110.404L294.79 114.483M292.903 110.404L300.534 106.88M294.79 114.483L302.421 110.959M296.677 118.562L298.565 122.641M296.677 118.562L304.308 115.038M298.565 122.641L306.196 119.117M300.452 126.72L302.34 130.799M300.452 126.72L308.083 123.196M302.34 130.799L309.971 127.275M304.227 134.878L306.114 138.957M304.227 134.878L311.858 131.354M306.114 138.957L313.745 135.433M308.002 143.036L309.889 147.115M308.002 143.036L315.633 139.512M309.889 147.115L317.52 143.591M311.777 151.194L313.664 155.273M311.777 151.194L319.408 147.67M313.664 155.273L321.295 151.749M315.552 159.351L317.439 163.43M315.552 159.351L323.182 155.828M317.439 163.43L325.07 159.907M319.326 167.509L321.214 171.588M319.326 167.509L326.957 163.986M321.214 171.588L351.738 157.495M279.772 62.0117L281.659 66.0907M279.772 62.0117L287.403 58.4883M281.659 66.0907L289.29 62.5673M283.547 70.1697L285.434 74.2486M283.547 70.1697L291.178 66.6463M285.434 74.2486L293.065 70.7253M287.322 78.3276L289.209 82.4066M287.322 78.3276L294.953 74.8042M289.209 82.4066L296.84 78.8832M291.096 86.4856L292.984 90.5645M291.096 86.4856L298.727 82.9622M292.984 90.5645L300.615 87.0412M294.871 94.6435L296.759 98.7225M294.871 94.6435L302.502 91.1201M296.759 98.7225L304.39 95.1991M298.646 102.801L300.534 106.88M298.646 102.801L306.277 99.2781M300.534 106.88L308.164 103.357M302.421 110.959L304.308 115.038M302.421 110.959L310.052 107.436M304.308 115.038L311.939 111.515M306.196 119.117L308.083 123.196M306.196 119.117L313.827 115.594M308.083 123.196L315.714 119.673M309.971 127.275L311.858 131.354M309.971 127.275L317.602 123.752M311.858 131.354L319.489 127.831M313.745 135.433L315.633 139.512M313.745 135.433L321.376 131.91M315.633 139.512L323.264 135.989M317.52 143.591L319.408 147.67M317.52 143.591L325.151 140.068M319.408 147.67L327.039 144.147M321.295 151.749L323.182 155.828M321.295 151.749L328.926 148.226M323.182 155.828L330.813 152.305M325.07 159.907L326.957 163.986M325.07 159.907L332.701 156.384M326.957 163.986L334.588 160.463M287.403 58.4883L295.034 54.965M289.29 62.5673L291.178 66.6463M289.29 62.5673L296.921 59.0439M291.178 66.6463L298.809 63.1229M293.065 70.7253L294.953 74.8042M293.065 70.7253L300.696 67.2019M294.953 74.8042L302.584 71.2809M296.84 78.8832L298.727 82.9622M296.84 78.8832L304.471 75.3598M298.727 82.9622L306.358 79.4388M300.615 87.0412L302.502 91.1201M300.615 87.0412L308.246 83.5178M302.502 91.1201L310.133 87.5968M304.39 95.1991L306.277 99.2781M304.39 95.1991L312.021 91.6757M306.277 99.2781L313.908 95.7547M308.164 103.357L310.052 107.436M308.164 103.357L315.795 99.8337M310.052 107.436L317.683 103.913M311.939 111.515L313.827 115.594M311.939 111.515L319.57 107.992M313.827 115.594L321.458 112.071M315.714 119.673L317.602 123.752M315.714 119.673L323.345 116.15M317.602 123.752L325.233 120.229M319.489 127.831L321.376 131.91M319.489 127.831L327.12 124.308M321.376 131.91L329.007 128.387M323.264 135.989L325.151 140.068M323.264 135.989L330.895 132.465M325.151 140.068L332.782 136.544M327.039 144.147L328.926 148.226M327.039 144.147L334.67 140.623M328.926 148.226L336.557 144.702M330.813 152.305L332.701 156.384M330.813 152.305L338.444 148.781M332.701 156.384L340.332 152.86M334.588 160.463L336.476 164.542M334.588 160.463L342.219 156.939M295.034 54.965L296.921 59.0439M295.034 54.965L302.665 51.4416M296.921 59.0439L304.552 55.5206M298.809 63.1229L300.696 67.2019M298.809 63.1229L306.44 59.5996M300.696 67.2019L308.327 63.6785M302.584 71.2809L304.471 75.3598M302.584 71.2809L310.214 67.7575M304.471 75.3598L312.102 71.8365M306.358 79.4388L308.246 83.5178M306.358 79.4388L313.989 75.9155M308.246 83.5178L315.877 79.9944M310.133 87.5968L312.021 91.6757M310.133 87.5968L317.764 84.0734M312.021 91.6757L319.652 88.1524M313.908 95.7547L315.795 99.8337M313.908 95.7547L321.539 92.2314M315.795 99.8337L323.426 96.3103M317.683 103.913L319.57 107.992M317.683 103.913L325.314 100.389M319.57 107.992L327.201 104.468M321.458 112.071L323.345 116.15M321.458 112.071L329.089 108.547M323.345 116.15L330.976 112.626M325.233 120.229L326.176 122.268L327.12 124.308M325.233 120.229L332.863 116.705M327.12 124.308L334.751 120.784M329.007 128.387L330.895 132.465M329.007 128.387L336.638 124.863M330.895 132.465L338.526 128.942M332.782 136.544L334.67 140.623M332.782 136.544L340.413 133.021M334.67 140.623L342.3 137.1M336.557 144.702L338.444 148.781M336.557 144.702L344.188 141.179M338.444 148.781L346.075 145.258M340.332 152.86L342.219 156.939M340.332 152.86L347.963 149.337M342.219 156.939L349.85 153.416M302.665 51.4416L310.296 47.9182M304.552 55.5206L306.44 59.5996M304.552 55.5206L312.183 51.9972M306.44 59.5996L314.071 56.0762M308.327 63.6785L310.214 67.7575M308.327 63.6785L315.958 60.1552M310.214 67.7575L317.845 64.2341M312.102 71.8365L313.989 75.9155M312.102 71.8365L319.733 68.3131M313.989 75.9155L321.62 72.3921M315.877 79.9944L317.764 84.0734M315.877 79.9944L323.508 76.4711M317.764 84.0734L325.395 80.55M319.652 88.1524L321.539 92.2314M319.652 88.1524L327.282 84.629M321.539 92.2314L329.17 88.708M323.426 96.3103L325.314 100.389M323.426 96.3103L331.057 92.787M325.314 100.389L332.945 96.8659M327.201 104.468L329.089 108.547M327.201 104.468L334.832 100.945M329.089 108.547L336.72 105.024M330.976 112.626L332.863 116.705M330.976 112.626L338.607 109.103M332.863 116.705L340.494 113.182M334.751 120.784L336.638 124.863M334.751 120.784L342.382 117.261M336.638 124.863L344.269 121.34M338.526 128.942L340.413 133.021M338.526 128.942L346.157 125.419M340.413 133.021L348.044 129.498M342.3 137.1L344.188 141.179M342.3 137.1L349.931 133.577M344.188 141.179L351.819 137.656M346.075 145.258L347.963 149.337M346.075 145.258L353.706 141.735M347.963 149.337L355.594 145.814M349.85 153.416L351.738 157.495M349.85 153.416L357.481 149.893M310.296 47.9182L312.183 51.9972M314.071 56.0762L315.958 60.1552M317.845 64.2341L319.733 68.3131M321.62 72.3921L323.508 76.4711M325.395 80.55L327.282 84.629M329.17 88.708L331.057 92.787M332.945 96.8659L334.832 100.945M336.72 105.024L338.607 109.103M340.494 113.182L342.382 117.261M344.269 121.34L346.157 125.419M348.044 129.498L349.931 133.577M351.819 137.656L353.706 141.735M355.594 145.814L357.481 149.893" stroke="black" stroke-width="0.100646"/>
<path d="M125.999 210.902H131.304H132.61H152.524V226.6H153.504L155.101 225.863V210.902H156.198H158.072H159.947H161.821H163.696H171.194H178.693H182.442H184.316H186.191H188.091H189.991H193.792H201.393H208.994H211.859V226.6H212.794L214.392 225.863V210.902H214.695H216.595H239.772H241.078H246.793L214.392 225.863L212.794 226.6H211.859H153.504H152.524H93.1892L94.7864 225.863V225.314L110.393 218.108L125.999 210.902Z" fill="#EBEBEB"/>
<path d="M245.196 214.632L212.794 229.592H226.55H227.383L260.63 214.242L261.464 213.857L246.793 213.894L245.196 214.632Z" fill="#EBEBEB"/>
<path d="M260.63 219.244L226.55 234.979H240.306H241.139L274.386 219.628L275.219 219.244H260.63Z" fill="#EBEBEB"/>
<path d="M240.306 240.366L274.386 224.63H288.975L288.142 225.015L254.895 240.366H254.061H240.306Z" fill="#EBEBEB"/>
<path d="M92 226.6H93.1892M93.1892 226.6H152.524M93.1892 226.6L94.7864 225.863V225.314L110.393 218.108L125.999 210.902H131.304H132.61H152.524V226.6M214.392 225.863L212.794 226.6H211.859M214.392 225.863L246.793 210.902H241.078H239.772H216.595H214.695H214.392V225.863ZM211.859 226.6H153.504M211.859 226.6V210.902H208.994H201.393H193.792H189.991H188.091H186.191H184.316H182.442H178.693H171.194H163.696H161.821H159.947H158.072H156.198H155.101V225.863L153.504 226.6M152.524 226.6H153.504M212.794 229.592L245.196 214.632L246.793 213.894L261.464 213.857L260.63 214.242L227.383 229.592H226.55H212.794ZM226.55 234.979L260.63 219.244H275.219L274.386 219.628L241.139 234.979H240.306H226.55ZM240.306 240.366L274.386 224.63H288.975L288.142 225.015L254.895 240.366H254.061H240.306Z" stroke="black" stroke-width="0.100646"/>
<path d="M212.797 226.658L214.394 225.92L246.796 210.96L254.427 207.436L262.058 203.913L269.689 200.39L277.32 196.866L284.951 193.343L292.582 189.82L300.213 186.296L307.843 182.773L315.474 179.25L323.105 175.726L330.736 172.203L338.367 168.679L345.998 165.156L353.629 161.633L361.26 158.109L368.891 154.586V157.578V173.003L367.294 173.741V158.316L365.953 158.935L362.28 160.63L306.135 186.554V201.979L304.538 202.717V187.291L303.19 187.914L246.796 213.952L245.199 214.689L212.797 229.65V226.658Z" fill="#E0E0E0"/>
<path d="M226.553 229.65H227.386L260.633 214.299V219.301L226.553 235.037V229.65Z" fill="#E0E0E0"/>
<path d="M240.308 235.037H241.141L274.388 219.686V224.688L240.308 240.423V235.037Z" fill="#E0E0E0"/>
<path d="M254.064 240.423H254.897L288.144 225.072V230.074L254.064 245.81V240.423Z" fill="#E0E0E0"/>
<path d="M246.796 210.96L214.394 225.92L212.797 226.658V229.65L245.199 214.689L246.796 213.952M246.796 210.96V213.952M246.796 210.96L254.427 207.436L262.058 203.913L269.689 200.39L277.32 196.866L284.951 193.343L292.582 189.82L300.213 186.296L307.843 182.773L315.474 179.25L323.105 175.726L330.736 172.203L338.367 168.679L345.998 165.156L353.629 161.633L361.26 158.109L368.891 154.586V157.578M367.294 158.316L368.891 157.578M367.294 158.316V173.741L368.891 173.003V157.578M367.294 158.316L365.953 158.935L362.28 160.63L306.135 186.554M246.796 213.952L303.19 187.914L304.538 187.291M261.466 213.914L260.633 214.299M260.633 214.299L227.386 229.65H226.553V235.037L260.633 219.301V214.299ZM275.222 219.301L274.388 219.686M274.388 219.686L241.141 235.037H240.308V240.423L274.388 224.688V219.686ZM288.977 224.688L288.144 225.072M288.144 225.072L254.897 240.423H254.064V245.81L288.144 230.074V225.072ZM304.538 187.291V202.717L306.135 201.979V186.554M304.538 187.291L306.135 186.554" stroke="black" stroke-width="0.100646"/>
</g>
<defs>
<filter id="filter0_f_521_19647" x="88.5" y="169" width="348.5" height="81" filterUnits="userSpaceOnUse" color-interpolation-filters="sRGB">
<feFlood flood-opacity="0" result="BackgroundImageFix"/>
<feBlend mode="normal" in="SourceGraphic" in2="BackgroundImageFix" result="shape"/>
<feGaussianBlur stdDeviation="2" result="effect1_foregroundBlur_521_19647"/>
</filter>
<clipPath id="clip0_521_19647">
<rect width="460" height="270" fill="white"/>
</clipPath>
</defs>
</svg>
