<svg width="460" height="270" viewBox="0 0 460 270" fill="none" xmlns="http://www.w3.org/2000/svg">
<g clip-path="url(#clip0_550_4884)">
<rect width="460" height="270" fill="white"/>
<path d="M169.5 213.5L95 208.5L123 193.5L234 178L345 193.5L375.5 208.5L298.5 213.5L276 206.5L253 203L234 201.5L214 203L191.5 206.5L169.5 213.5Z" fill="black" fill-opacity="0.2"/>
<path d="M58.1729 96.2533L64.5907 94.2659L72.2092 94.7627V196.04V205.273L65.7914 207.261L58.1729 206.764V197.531V96.2533Z" fill="#9B9B9B"/>
<path d="M58.1729 96.2533L64.5907 94.2659L72.2092 94.7627M58.1729 96.2533L65.7914 96.7502M58.1729 96.2533V206.764L65.7914 207.261M65.7914 96.7502L72.2092 94.7627M65.7914 96.7502V207.261M72.2092 94.7627V205.273L65.7914 207.261M58.1729 197.531L65.7914 198.027L72.2092 196.04" stroke="black" stroke-width="0.0828105"/>
<path d="M65.7922 96.7501L72.21 94.7627V196.04V205.273L65.7922 207.261V198.027V96.7501Z" fill="#7E7E7E"/>
<path d="M65.7922 198.027L72.21 196.04M65.7922 96.7501L72.21 94.7627V205.273L65.7922 207.261V96.7501Z" stroke="black" stroke-width="0.0828105"/>
<path d="M65.7914 207.261L58.1729 206.764V197.53L65.7914 198.027V207.261Z" fill="#E0E0E0" stroke="black" stroke-width="0.0828105"/>
<path d="M72.21 205.274L65.7922 207.261V198.028L72.21 196.04V205.274Z" fill="#EAEAEA" stroke="black" stroke-width="0.0828105"/>
<path d="M409.497 95.591L403.079 93.6035L395.461 94.1004V195.378V204.611L401.878 206.598L409.497 206.102V196.868V95.591Z" fill="#9B9B9B"/>
<path d="M409.497 95.591L403.079 93.6035L395.461 94.1004M409.497 95.591L401.878 96.0878M409.497 95.591V206.102L401.878 206.598M401.878 96.0878L395.461 94.1004M401.878 96.0878V206.598M395.461 94.1004V204.611L401.878 206.598M409.497 196.868L401.878 197.365L395.461 195.378" stroke="black" stroke-width="0.0828105"/>
<path d="M395.46 204.611L401.878 206.598V197.365L395.46 195.377V204.611Z" fill="#EAEAEA" stroke="black" stroke-width="0.0828105"/>
<path d="M401.878 206.598L409.497 206.101V196.868L401.878 197.365V206.598Z" fill="#E0E0E0" stroke="black" stroke-width="0.0828105"/>
<path d="M330.437 192.251L300.206 182.179V90.8313L330.437 100.904V192.251Z" fill="#9C9C9C" stroke="black" stroke-width="0.0828105"/>
<path d="M300.206 182.179V90.8313L303.985 92.0904L307.764 93.3495L311.543 94.6086L315.322 95.8677L317.245 96.5087V187.856L315.322 187.215L311.543 185.956L307.764 184.697L303.985 183.438L300.206 182.179Z" fill="#B4B4B4"/>
<path d="M315.322 95.8677V187.215M315.322 95.8677L311.543 94.6086M315.322 95.8677L317.245 96.5087V187.856L315.322 187.215M315.322 187.215L311.543 185.956M307.764 184.697V93.3495M307.764 184.697L311.543 185.956M307.764 184.697L303.985 183.438M307.764 93.3495L311.543 94.6086M307.764 93.3495L303.985 92.0904M311.543 94.6086V185.956M303.985 183.438L300.206 182.179V90.8313L303.985 92.0904M303.985 183.438V92.0904" stroke="black" stroke-width="0.0828105"/>
<path d="M300.206 90.8313V182.179L303.985 183.438V92.0904L300.206 90.8313Z" fill="#939393"/>
<path d="M315.322 187.215V95.8677L317.245 96.5087V187.856L315.322 187.215Z" fill="#939393"/>
<path d="M307.764 93.3495V184.697L311.543 185.956V94.6086L307.764 93.3495Z" fill="#939393"/>
<path d="M300.206 90.8313V182.179L303.985 183.438V92.0904L300.206 90.8313Z" stroke="black" stroke-width="0.0828105"/>
<path d="M315.322 187.215V95.8677L317.245 96.5087V187.856L315.322 187.215Z" stroke="black" stroke-width="0.0828105"/>
<path d="M307.764 93.3495V184.697L311.543 185.956V94.6086L307.764 93.3495Z" stroke="black" stroke-width="0.0828105"/>
<path d="M233.697 174.477L197.419 177.714L167.188 182.179V90.8315L197.419 86.3667L233.697 83.1292L269.975 86.3667L300.206 90.8315V182.179L269.975 177.714L233.697 174.477Z" fill="#939393"/>
<path d="M233.697 83.1292L197.419 86.3667M233.697 83.1292L269.975 86.3667M233.697 83.1292V174.477M233.697 174.477L197.419 177.714M233.697 174.477L269.975 177.714M197.419 177.714V86.3667M197.419 177.714L167.188 182.179M197.419 86.3667L167.188 90.8315V182.179M269.975 177.714V86.3667M269.975 177.714L300.206 182.179V90.8315L269.975 86.3667M167.188 182.179L169.575 182.34M167.054 183.175L169.575 182.34M167.054 184.923L169.575 184.088L169.575 182.34" stroke="black" stroke-width="0.0828105"/>
<path d="M197.418 121.161V138.882L226.443 136.292V118.571L197.418 121.161Z" fill="#323232"/>
<path d="M269.974 121.161V138.882L240.949 136.292V118.571L269.974 121.161Z" fill="#323232"/>
<path d="M197.418 121.161V138.882L226.443 136.292V118.571L197.418 121.161Z" stroke="black" stroke-width="0.0828105"/>
<path d="M269.974 121.161V138.882L240.949 136.292V118.571L269.974 121.161Z" stroke="black" stroke-width="0.0828105"/>
<path d="M197.418 97.4357V115.157L226.443 112.567V94.8455L197.418 97.4357Z" fill="#323232"/>
<path d="M269.974 97.4357V115.157L240.949 112.567V94.8455L269.974 97.4357Z" fill="#323232"/>
<path d="M197.418 97.4357V115.157L226.443 112.567V94.8455L197.418 97.4357Z" stroke="black" stroke-width="0.0828105"/>
<path d="M269.974 97.4357V115.157L240.949 112.567V94.8455L269.974 97.4357Z" stroke="black" stroke-width="0.0828105"/>
<path d="M167.187 124.567V144.572L191.704 140.951V120.946L167.187 124.567Z" fill="#323232"/>
<path d="M300.206 124.567V144.572L275.467 140.919V120.914L300.206 124.567Z" fill="#323232"/>
<path d="M167.187 124.567V144.572L191.704 140.951V120.946L167.187 124.567Z" stroke="black" stroke-width="0.0828105"/>
<path d="M300.206 124.567V144.572L275.467 140.919V120.914L300.206 124.567Z" stroke="black" stroke-width="0.0828105"/>
<path d="M167.187 101.298V121.303L191.704 117.682V97.6767L167.187 101.298Z" fill="#323232"/>
<path d="M300.206 101.298V121.303L275.384 117.637V97.6318L300.206 101.298Z" fill="#323232"/>
<path d="M167.187 101.298V121.303L191.704 117.682V97.6767L167.187 101.298Z" stroke="black" stroke-width="0.0828105"/>
<path d="M300.206 101.298V121.303L275.384 117.637V97.6318L300.206 101.298Z" stroke="black" stroke-width="0.0828105"/>
<path d="M233.697 174.476L197.419 177.714L167.188 182.179V147.547L197.419 143.082L233.697 139.845L269.975 143.082L300.206 147.547V182.179L269.975 177.714L233.697 174.476Z" fill="#727272"/>
<path d="M233.697 139.845L197.419 143.082M233.697 139.845L269.975 143.082M233.697 139.845V174.476M233.697 174.476L197.419 177.714M233.697 174.476L269.975 177.714M197.419 177.714V143.082M197.419 177.714L167.188 182.179M197.419 143.082L167.188 147.547V182.179M269.975 177.714V143.082M269.975 177.714L300.206 182.179V147.547L269.975 143.082M167.188 182.179L169.575 182.339M167.054 183.175L169.575 182.339M167.054 184.923L169.575 184.087L169.575 182.339" stroke="black" stroke-width="0.0828105"/>
<path d="M197.419 177.714L233.697 174.477L269.975 177.714L300.206 182.179L330.438 192.252L401.769 187.453V197.009L330.438 201.808L300.206 191.735L269.975 187.27L233.697 184.033L197.419 187.27L167.188 191.735V184.879V183.131V182.179L197.419 177.714Z" fill="#AFAFAF"/>
<path d="M233.697 174.477L197.419 177.714M233.697 174.477L269.975 177.714M233.697 174.477V184.033M197.419 177.714L167.188 182.179M197.419 177.714V187.27M269.975 177.714L300.206 182.179M269.975 177.714V187.27M330.438 192.252L401.769 187.453V197.009L330.438 201.808M330.438 192.252L300.206 182.179M330.438 192.252V201.808M167.188 182.179V191.735L197.419 187.27M167.188 182.179L169.575 182.34M300.206 182.179V191.735M197.419 187.27L233.697 184.033M233.697 184.033L269.975 187.27M269.975 187.27L300.206 191.735M300.206 191.735L330.438 201.808M167.054 183.175L169.575 182.34M167.054 184.923L169.575 184.088L169.575 182.34" stroke="black" stroke-width="0.0828105"/>
<path d="M197.419 177.714L233.697 174.477L269.975 177.714L300.206 182.179L330.438 192.252V201.808L300.206 191.735L269.975 187.27L233.697 184.033L197.419 187.27L167.188 191.735V184.879V183.131V182.179L197.419 177.714Z" fill="#9B9B9B"/>
<path d="M233.697 174.477L197.419 177.714M233.697 174.477L269.975 177.714M233.697 174.477V184.033M197.419 177.714L167.188 182.179M197.419 177.714V187.27M269.975 177.714L300.206 182.179M269.975 177.714V187.27M167.188 182.179V191.735L197.419 187.27M167.188 182.179L169.575 182.34M300.206 182.179L330.438 192.252V201.808L300.206 191.735M300.206 182.179V191.735M197.419 187.27L233.697 184.033M233.697 184.033L269.975 187.27M269.975 187.27L300.206 191.735M167.054 183.175L169.575 182.34M167.054 184.923L169.575 184.088L169.575 182.34" stroke="black" stroke-width="0.0828105"/>
<path d="M197.419 177.714L233.697 174.477L269.975 177.714L300.206 182.179V191.735L269.975 187.27L233.697 184.033L197.419 187.27L167.188 191.735V184.879V183.131V182.179L197.419 177.714Z" fill="#888888"/>
<path d="M233.697 174.477L197.419 177.714M233.697 174.477L269.975 177.714M233.697 174.477V184.033M197.419 177.714L167.188 182.179M197.419 177.714V187.27M269.975 177.714L300.206 182.179V191.735L269.975 187.27M269.975 177.714V187.27M167.188 182.179V191.735L197.419 187.27M167.188 182.179L169.575 182.34M197.419 187.27L233.697 184.033M233.697 184.033L269.975 187.27M167.054 183.175L169.575 182.34M167.054 184.923L169.575 184.088L169.575 182.34" stroke="black" stroke-width="0.0828105"/>
<path d="M197.418 177.714L233.696 174.477L269.974 177.714V187.27L233.696 184.033L197.418 187.27V177.714Z" fill="#747474"/>
<path d="M233.696 174.477L197.418 177.714V187.27L233.696 184.033M233.696 174.477L269.974 177.714V187.27L233.696 184.033M233.696 174.477V184.033" stroke="black" stroke-width="0.0828105"/>
<path d="M401.77 187.453L330.438 192.252V201.808L401.77 197.009V187.453Z" fill="#AFAFAF" stroke="black" stroke-width="0.0828105"/>
<path d="M104.775 174.476L104.776 128.803L104.777 105.966L104.777 83.1292L108.177 83.5488L111.577 83.9684L114.977 84.388L118.377 84.8076L121.524 85.1959L124.67 85.5843L127.817 85.9726L130.964 86.361V177.708L127.817 177.32L124.67 176.932L121.524 176.543L118.377 176.155L114.976 175.735L111.576 175.316L108.176 174.896L104.775 174.476Z" fill="#9C9C9C"/>
<path d="M118.377 176.155V84.8076M118.377 176.155L114.976 175.735M118.377 176.155L121.524 176.543M118.377 84.8076L114.977 84.388M118.377 84.8076L121.524 85.1959M111.577 83.9684L111.576 175.316M111.577 83.9684L108.177 83.5488M111.577 83.9684L114.977 84.388M111.576 175.316L108.176 174.896M111.576 175.316L114.976 175.735M124.67 176.932V85.5843M124.67 176.932L121.524 176.543M124.67 176.932L127.817 177.32M124.67 85.5843L121.524 85.1959M124.67 85.5843L127.817 85.9726M108.177 83.5488L104.777 83.1292L104.777 105.966L104.776 128.803L104.775 174.476L108.176 174.896M108.177 83.5488L108.176 174.896M114.976 175.735L114.977 84.388M121.524 85.1959V176.543M127.817 177.32L130.964 177.708V86.361L127.817 85.9726M127.817 177.32V85.9726" stroke="black" stroke-width="0.0828105"/>
<path d="M104.776 128.803L104.775 174.476L108.176 174.896L108.177 83.5488L104.777 83.1292L104.777 105.966L104.776 128.803Z" fill="#929292"/>
<path d="M118.377 84.8076V176.155L121.524 176.543V85.1959L118.377 84.8076Z" fill="#929292"/>
<path d="M111.576 175.316L111.577 83.9684L114.977 84.388L114.976 175.735L111.576 175.316Z" fill="#929292"/>
<path d="M124.67 85.5843V176.932L127.817 177.32V85.9726L124.67 85.5843Z" fill="#929292"/>
<path d="M104.776 128.803L104.775 174.476L108.176 174.896L108.177 83.5488L104.777 83.1292L104.777 105.966L104.776 128.803Z" stroke="black" stroke-width="0.0828105"/>
<path d="M118.377 84.8076V176.155L121.524 176.543V85.1959L118.377 84.8076Z" stroke="black" stroke-width="0.0828105"/>
<path d="M111.576 175.316L111.577 83.9684L114.977 84.388L114.976 175.735L111.576 175.316Z" stroke="black" stroke-width="0.0828105"/>
<path d="M124.67 85.5843V176.932L127.817 177.32V85.9726L124.67 85.5843Z" stroke="black" stroke-width="0.0828105"/>
<path d="M167.187 92.3199V136.504V174.438V182.178L139.286 178.735V88.8765L167.187 92.3199Z" fill="#323232"/>
<path d="M139.286 178.735L167.187 182.178V174.438M139.286 178.735V88.8765L167.187 92.3199V136.504V174.438M139.286 178.735L159.45 175.629L167.187 174.438" stroke="black" stroke-width="0.0828105"/>
<path d="M167.187 182.178L139.286 178.735V170.885L167.187 168.025V174.438V182.178Z" fill="#212121" stroke="black" stroke-width="0.0828105"/>
<path d="M63.1007 188.289L104.775 174.477L108.825 174.968L112.875 175.459L116.925 175.951L120.975 176.442L125.025 176.934L129.075 177.425L133.125 177.917L137.175 178.408L141.225 178.9L145.275 179.391L149.325 179.883L153.375 180.374L157.425 180.865L161.475 181.357L165.525 181.848L169.575 182.34L136.822 193.248L132.215 192.938L127.607 192.628L122.999 192.318L118.392 192.008L113.784 191.698L109.177 191.388L104.569 191.078L99.9615 190.768L95.3539 190.458L90.7463 190.148L86.1387 189.839L81.5311 189.529L76.9235 189.219L72.3159 188.909L67.7083 188.599L63.1007 188.289Z" fill="#6A6A6A"/>
<path d="M99.9615 190.768L137.175 178.408M99.9615 190.768L95.3539 190.458M99.9615 190.768L104.569 191.078M137.175 178.408L133.125 177.917M137.175 178.408L141.225 178.9M81.5311 189.529L120.975 176.442M81.5311 189.529L76.9235 189.219M81.5311 189.529L86.1387 189.839M120.975 176.442L116.925 175.951M120.975 176.442L125.025 176.934M118.392 192.008L153.375 180.374M118.392 192.008L113.784 191.698M118.392 192.008L122.999 192.318M153.375 180.374L149.325 179.883M153.375 180.374L157.425 180.865M72.3159 188.909L112.875 175.459M72.3159 188.909L67.7083 188.599M72.3159 188.909L76.9235 189.219M112.875 175.459L108.825 174.968M112.875 175.459L116.925 175.951M90.7463 190.148L129.075 177.425M90.7463 190.148L86.1387 189.839M90.7463 190.148L95.3539 190.458M129.075 177.425L125.025 176.934M129.075 177.425L133.125 177.917M109.177 191.388L145.275 179.391M109.177 191.388L104.569 191.078M109.177 191.388L113.784 191.698M145.275 179.391L141.225 178.9M145.275 179.391L149.325 179.883M127.607 192.628L161.475 181.357M127.607 192.628L122.999 192.318M127.607 192.628L132.215 192.938M161.475 181.357L157.425 180.865M161.475 181.357L165.525 181.848M67.7083 188.599L63.1007 188.289L104.775 174.477L108.825 174.968M67.7083 188.599L108.825 174.968M116.925 175.951L76.9235 189.219M86.1387 189.839L125.025 176.934M133.125 177.917L95.3539 190.458M104.569 191.078L141.225 178.9M113.784 191.698L149.325 179.883M157.425 180.865L122.999 192.318M132.215 192.938L136.822 193.248L169.575 182.34L165.525 181.848M132.215 192.938L165.525 181.848" stroke="black" stroke-width="0.0828105"/>
<path d="M169.575 182.34L136.822 193.248L132.214 192.938L165.525 181.848L169.575 182.34Z" fill="#797878"/>
<path d="M137.174 178.408L99.9612 190.768L95.3536 190.458L133.124 177.916L137.174 178.408Z" fill="#797878"/>
<path d="M120.974 176.442L81.5308 189.528L76.9232 189.218L116.924 175.951L120.974 176.442Z" fill="#797878"/>
<path d="M153.375 180.374L118.392 192.008L113.784 191.698L149.325 179.882L153.375 180.374Z" fill="#797878"/>
<path d="M112.874 175.459L72.3156 188.908L67.708 188.598L108.824 174.968L112.874 175.459Z" fill="#797878"/>
<path d="M129.074 177.425L90.746 190.148L86.1384 189.838L125.024 176.934L129.074 177.425Z" fill="#797878"/>
<path d="M145.275 179.391L109.176 191.388L104.569 191.078L141.225 178.899L145.275 179.391Z" fill="#797878"/>
<path d="M161.475 181.357L127.607 192.628L125.303 192.473L122.999 192.318L157.425 180.865L161.475 181.357Z" fill="#797878"/>
<path d="M169.575 182.34L136.822 193.248L132.214 192.938L165.525 181.848L169.575 182.34Z" stroke="black" stroke-width="0.0828105"/>
<path d="M137.174 178.408L99.9612 190.768L95.3536 190.458L133.124 177.916L137.174 178.408Z" stroke="black" stroke-width="0.0828105"/>
<path d="M120.974 176.442L81.5308 189.528L76.9232 189.218L116.924 175.951L120.974 176.442Z" stroke="black" stroke-width="0.0828105"/>
<path d="M153.375 180.374L118.392 192.008L113.784 191.698L149.325 179.882L153.375 180.374Z" stroke="black" stroke-width="0.0828105"/>
<path d="M112.874 175.459L72.3156 188.908L67.708 188.598L108.824 174.968L112.874 175.459Z" stroke="black" stroke-width="0.0828105"/>
<path d="M129.074 177.425L90.746 190.148L86.1384 189.838L125.024 176.934L129.074 177.425Z" stroke="black" stroke-width="0.0828105"/>
<path d="M145.275 179.391L109.176 191.388L104.569 191.078L141.225 178.899L145.275 179.391Z" stroke="black" stroke-width="0.0828105"/>
<path d="M161.475 181.357L127.607 192.628L125.303 192.473L122.999 192.318L157.425 180.865L161.475 181.357Z" stroke="black" stroke-width="0.0828105"/>
<path d="M63.1007 190.036L63.1011 188.288L134.432 193.087L136.823 193.248L167.054 183.175L169.575 182.34L169.575 184.087L167.054 184.923L136.822 194.996L134.431 194.835L132.04 194.674L65.6224 190.206L63.1007 190.036Z" fill="#393939"/>
<path d="M167.188 182.179L169.575 182.34M136.822 194.996L134.431 194.835L132.04 194.674L65.6224 190.206L63.1007 190.036L63.1011 188.288L134.432 193.087L136.823 193.248M136.822 194.996L136.823 193.248M136.822 194.996L167.054 184.923L169.575 184.087L169.575 182.34M136.823 193.248L167.054 183.175L169.575 182.34" stroke="black" stroke-width="0.0828105"/>
<path d="M136.956 201.808L65.6251 197.009L65.6217 190.206L132.04 194.674L134.431 194.835L136.822 194.996L167.053 184.923L167.187 184.879V191.735L136.956 201.808Z" fill="#A7A7A7" stroke="black" stroke-width="0.0828105"/>
<path d="M167.188 191.735L136.822 201.837V194.996L167.054 184.923L167.188 184.879V191.735Z" fill="#9B9B9B" stroke="black" stroke-width="0.0828105"/>
<path d="M136.956 201.807L65.6251 197.009L65.6217 190.206L132.04 194.674L134.431 194.835L136.822 194.996" stroke="black" stroke-width="0.0828105"/>
<path d="M233.697 83.1289L197.419 86.3664L164.419 92.444L103.512 83.5005L172.953 75.2629L233.697 73.3164L292.158 75.2613L362.619 83.1289L401.769 96.1053L330.438 100.904L300.206 90.8313L269.975 86.3664L233.697 83.1289Z" fill="#303030"/>
<path d="M233.697 83.1289L197.419 86.3664M233.697 83.1289L269.975 86.3664M233.697 83.1289V73.3164M233.697 73.3164L172.953 75.2629M233.697 73.3164L292.158 75.2613M197.419 86.3664L172.953 75.2629M197.419 86.3664L164.419 92.444L103.512 83.5005L172.953 75.2629M269.975 86.3664L292.158 75.2613M269.975 86.3664L300.206 90.8313M292.158 75.2613L362.619 83.1289M300.206 90.8313L330.438 100.904L401.769 96.1053L362.619 83.1289M300.206 90.8313L362.619 83.1289" stroke="black" stroke-width="0.0828105"/>
<path d="M330.329 100.891L323.912 98.9033L316.293 99.4002V200.677L322.711 202.665L330.329 202.168V100.891Z" fill="#9B9B9B"/>
<path d="M330.329 100.891L323.912 98.9033L316.293 99.4002M330.329 100.891L322.711 101.388M330.329 100.891V202.168L322.711 202.665M322.711 101.388L316.293 99.4002M322.711 101.388V202.665M316.293 99.4002V200.677L322.711 202.665" stroke="black" stroke-width="0.0828105"/>
<path d="M316.293 99.4001L322.711 101.388V202.665L316.293 200.677V99.4001Z" fill="#7E7E7E" stroke="black" stroke-width="0.0828105"/>
<path d="M322.711 211.898L330.329 211.401V202.168L322.711 202.665V211.898Z" fill="#E0E0E0" stroke="black" stroke-width="0.0828105"/>
<path d="M316.293 209.911L322.711 211.899V202.665L316.293 200.678V209.911Z" fill="#EAEAEA" stroke="black" stroke-width="0.0828105"/>
<path d="M289.214 201.05L295.632 203.038V193.887L289.214 191.9V201.05Z" fill="#EAEAEA" stroke="black" stroke-width="0.0828105"/>
<path d="M295.633 203.037L303.251 202.458V193.307L295.633 193.887V203.037Z" fill="#D6D6D6" stroke="black" stroke-width="0.0828105"/>
<path d="M296.544 90.3743L289.215 90.5813V191.9L295.633 193.887L303.251 193.308V91.9063L300.518 90.9539L296.544 90.3743Z" fill="#929292"/>
<path d="M303.251 91.9063L295.633 92.5687M303.251 91.9063L300.518 90.9539L296.544 90.3743L289.215 90.5813M303.251 91.9063V193.308L295.633 193.887M295.633 92.5687L289.215 90.5813M295.633 92.5687V193.887M289.215 90.5813V191.9L295.633 193.887" stroke="black" stroke-width="0.0828105"/>
<path d="M289.214 90.5806L295.632 92.568V193.887L289.214 191.899V90.5806Z" fill="#7E7E7E" stroke="black" stroke-width="0.0828105"/>
<path d="M193.982 86.8543L200.607 86.0676L208.225 88.1379V189.208L201.393 189.912L193.982 187.925V86.8543Z" fill="#888888"/>
<path d="M193.982 86.8543L200.607 86.0676L208.225 88.1379M193.982 86.8543L201.393 88.8418M193.982 86.8543V187.925L201.393 189.912M208.225 88.1379L201.393 88.8418M208.225 88.1379V189.208L201.393 189.912M201.393 88.8418V189.912" stroke="black" stroke-width="0.0828105"/>
<path d="M208.225 88.1379L201.394 88.8418V189.912L208.225 189.208V88.1379Z" fill="#7E7E7E" stroke="black" stroke-width="0.0828105"/>
<path d="M201.393 189.912L193.982 187.925V195.336L201.393 197.324V189.912Z" fill="#CCCCCC" stroke="black" stroke-width="0.0828105"/>
<path d="M208.225 189.208L201.394 189.912V197.324L208.225 196.62V189.208Z" fill="#EAEAEA" stroke="black" stroke-width="0.0828105"/>
<path d="M259.155 196.62L265.986 197.324V189.912L259.155 189.208V196.62Z" fill="#EAEAEA" stroke="black" stroke-width="0.0828105"/>
<path d="M265.987 197.324L273.398 195.336V187.925L265.987 189.912V197.324Z" fill="#CCCCCC" stroke="black" stroke-width="0.0828105"/>
<path d="M273.398 86.8543L266.773 86.0676L259.155 88.1379V189.208L265.987 189.912L273.398 187.925V86.8543Z" fill="#888888"/>
<path d="M273.398 86.8543L266.773 86.0676L259.155 88.1379M273.398 86.8543L265.987 88.8418M273.398 86.8543V187.925L265.987 189.912M259.155 88.1379L265.987 88.8418M259.155 88.1379V189.208L265.987 189.912M265.987 88.8418V189.912" stroke="black" stroke-width="0.0828105"/>
<path d="M259.155 88.1379L265.986 88.8418V189.912L259.155 189.208V88.1379Z" fill="#7E7E7E" stroke="black" stroke-width="0.0828105"/>
<path d="M237.955 194.591H229.716V188.339H237.955V194.591Z" fill="#EAEAEA" stroke="black" stroke-width="0.0828105"/>
<path d="M230.585 83.4177H237.21L237.955 86.6059V188.339H229.716V86.6059L230.585 83.4177Z" fill="#7E7E7E"/>
<path d="M229.716 86.6059L230.585 83.4177H237.21L237.955 86.6059M229.716 86.6059H237.955M229.716 86.6059V188.339H237.955V86.6059" stroke="black" stroke-width="0.0828105"/>
<path d="M171.873 203.452L178.456 201.961V194.177L171.873 195.668V203.452Z" fill="#EAEAEA" stroke="black" stroke-width="0.0828105"/>
<path d="M171.872 203.452L164.253 202.251V194.467L171.872 195.668V203.452Z" fill="#D6D6D6" stroke="black" stroke-width="0.0828105"/>
<path d="M164.253 91.8642L170.837 90.2908L178.455 91.5743V194.177L171.872 195.667L164.253 194.466V91.8642Z" fill="#929292"/>
<path d="M164.253 91.8642L170.837 90.2908L178.455 91.5743M164.253 91.8642L171.872 93.0649M164.253 91.8642V194.466L171.872 195.667M178.455 91.5743L171.872 93.0649M178.455 91.5743V194.177L171.872 195.667M171.872 93.0649V195.667" stroke="black" stroke-width="0.0828105"/>
<path d="M171.873 93.0651L178.456 91.5745V194.177L171.873 195.667V93.0651Z" fill="#7E7E7E" stroke="black" stroke-width="0.0828105"/>
<path d="M328.425 100.954L412.519 95.437V88.1911L406.143 86.1504L314.637 92.1554V99.4013L321.014 101.441L328.425 100.954Z" fill="#393939"/>
<path d="M321.014 101.441L328.425 100.954L412.519 95.437V88.1911M321.014 101.441L314.637 99.4013V92.1554M321.014 101.441V94.1948M412.519 88.1911L406.143 86.1504L314.637 92.1554M412.519 88.1911L321.014 94.1948M321.014 94.1948L314.637 92.1554" stroke="black" stroke-width="0.0828105"/>
<path d="M406.143 86.1504L412.519 88.1911L321.014 94.1948L314.637 92.1554L406.143 86.1504Z" fill="#6A6A6A" stroke="black" stroke-width="0.0828105"/>
<path d="M314.637 99.4019L321.014 101.441V94.1954L314.637 92.156V99.4019Z" fill="#575757" stroke="black" stroke-width="0.0828105"/>
<path d="M137.754 87.7241L98.0048 81.3891V75.0128L104.547 73.4607L184.045 86.1305V92.507L177.503 94.0591L171.913 93.1682L137.754 87.7241Z" fill="#434343"/>
<path d="M177.503 94.0591L171.913 93.1682L137.754 87.7241L98.0048 81.3891V75.0128M177.503 94.0591L184.045 92.507V86.1305M177.503 94.0591V87.6826M98.0048 75.0128L177.503 87.6826M98.0048 75.0128L104.547 73.4607L184.045 86.1305M184.045 86.1305L177.503 87.6826" stroke="black" stroke-width="0.0828105"/>
<path d="M184.045 86.1305L177.503 87.6826L98.0048 75.0128L104.547 73.4607L184.045 86.1305Z" fill="#6A6A6A" stroke="black" stroke-width="0.0828105"/>
<path d="M184.045 92.5069L177.503 94.0589V87.6824L184.045 86.1304V92.5069Z" fill="#575757" stroke="black" stroke-width="0.0828105"/>
<path d="M329.708 87.7241L369.457 81.3891V75.0128L362.915 73.4607L283.417 86.1305V92.507L289.959 94.0591L295.549 93.1682L329.708 87.7241Z" fill="#434343"/>
<path d="M289.959 94.0591L295.549 93.1682L329.708 87.7241L369.457 81.3891M289.959 94.0591L283.417 92.507V86.1305M289.959 94.0591V87.6826M369.457 81.3892V75.0128M369.457 75.0128L289.959 87.6826M369.457 75.0128L362.915 73.4607L283.417 86.1305M283.417 86.1305L289.959 87.6826" stroke="black" stroke-width="0.0828105"/>
<path d="M283.417 86.1305L289.959 87.6826L369.457 75.0128L362.915 73.4607L283.417 86.1305Z" fill="#6A6A6A" stroke="black" stroke-width="0.0828105"/>
<path d="M283.418 92.5069L289.96 94.0589V87.6824L283.418 86.1304V92.5069Z" fill="#575757" stroke="black" stroke-width="0.0828105"/>
<path d="M201.436 88.9451L172.204 80.8066L150.176 74.6759V69.2157L156.967 68.4045L211.849 83.6838V89.144L205.059 89.9538L201.436 88.9451Z" fill="#4D4D4D"/>
<path d="M150.176 69.2157V74.6759L172.204 80.8066L201.436 88.9451L205.059 89.9538M150.176 69.2157L205.059 84.3703M150.176 69.2157L156.967 68.4045L211.849 83.6838M205.059 84.3703V89.9538M205.059 84.3703L211.849 83.6838M205.059 89.9538L211.849 89.144V83.6838" stroke="black" stroke-width="0.0828105"/>
<path d="M150.176 69.2157L205.059 84.3703L211.849 83.6838L156.967 68.4045L150.176 69.2157Z" fill="#6A6A6A" stroke="black" stroke-width="0.0828105"/>
<path d="M205.058 84.3704V89.9538L211.849 89.1441V83.6838L205.058 84.3704Z" fill="#575757" stroke="black" stroke-width="0.0828105"/>
<path d="M265.179 88.9451L294.411 80.8066L316.438 74.6759V69.2157L309.648 68.4045L254.765 83.6838V89.144L261.556 89.9538L265.179 88.9451Z" fill="#4D4D4D"/>
<path d="M316.438 69.2157V74.6759L294.411 80.8066L265.179 88.9451L261.556 89.9538M316.438 69.2157L261.556 84.3703M316.438 69.2157L309.648 68.4045L254.765 83.6838M261.556 84.3703V89.9538M261.556 84.3703L254.765 83.6838M261.556 89.9538L254.765 89.144V83.6838" stroke="black" stroke-width="0.0828105"/>
<path d="M316.438 69.2157L261.556 84.3703L254.765 83.6838L309.648 68.4045L316.438 69.2157Z" fill="#6A6A6A" stroke="black" stroke-width="0.0828105"/>
<path d="M261.556 84.3704V89.9538L254.766 89.1441V83.6838L261.556 84.3704Z" fill="#575757" stroke="black" stroke-width="0.0828105"/>
<path d="M238.907 90.498H228.514V83.3349L231.868 65.2822H236.215L238.907 83.3349V90.498Z" fill="#6A6A6A"/>
<path d="M228.514 83.3349V90.498H238.907V83.3349M228.514 83.3349L231.868 65.2822H236.215L238.907 83.3349M228.514 83.3349H238.907" stroke="black" stroke-width="0.0828105"/>
<path d="M228.514 90.4981H238.907V83.335H228.514V90.4981Z" fill="#575757" stroke="black" stroke-width="0.0828105"/>
<path d="M409.952 72.2251V64.9376L403.576 62.8259L323.912 84.1651V91.4526L330.288 93.5642L395.543 76.1303V86.6537L401.878 88.8068L409.952 88.1857V72.2251Z" fill="#EAEAEA"/>
<path d="M409.952 72.2251V64.9376M409.952 72.2251V88.1857L401.878 88.8068M409.952 72.2251L401.878 74.4133M330.288 93.5642V86.2768M330.288 93.5642L323.912 91.4526V84.1651M330.288 93.5642L395.543 76.1303M409.952 64.9376L330.288 86.2768M409.952 64.9376L403.576 62.8259L323.912 84.1651M330.288 86.2768L323.912 84.1651M401.878 88.8068V74.4133M401.878 88.8068L395.543 86.6537V76.1303M401.878 74.4133L395.543 76.1303" stroke="black" stroke-width="0.0828105"/>
<path d="M409.952 64.9376V72.2251L401.878 74.4133L395.543 76.1303L330.288 93.5642V86.2768L409.952 64.9376Z" fill="#D6D6D6"/>
<path d="M409.952 64.9376V72.2251L401.878 74.4133L395.543 76.1303L330.288 93.5642V86.2768L409.952 64.9376ZM409.952 64.9376L403.576 62.8259" stroke="black" stroke-width="0.0828105"/>
<path d="M401.878 74.4133V88.8068L395.543 86.6537V76.1303L401.878 74.4133Z" fill="#7E7E7E" stroke="black" stroke-width="0.0828105"/>
<path d="M409.952 88.1857V72.2251L401.878 74.4134V88.8068L409.952 88.1857Z" fill="#9B9B9B" stroke="black" stroke-width="0.0828105"/>
<path d="M107.198 63.7091V57.3741L113.822 55.7593L170.837 77.6212V83.9148L164.254 85.5296L107.198 63.7091Z" fill="#EAEAEA"/>
<path d="M107.198 57.3741V63.7091L164.254 85.5296M107.198 57.3741L113.822 55.7593L170.837 77.6212M107.198 57.3741L164.254 79.236M164.254 85.5296V79.236M164.254 85.5296L170.837 83.9148V77.6212M164.254 79.236L170.837 77.6212" stroke="black" stroke-width="0.0828105"/>
<path d="M107.198 57.3741V63.7091L164.254 85.5296V79.236L107.198 57.3741Z" fill="#C3C3C3"/>
<path d="M107.198 57.3741V63.7091L164.254 85.5296V79.236L107.198 57.3741ZM107.198 57.3741L113.822 55.7593" stroke="black" stroke-width="0.0828105"/>
<path d="M360.39 63.7501V57.4151L353.765 55.8003L296.75 77.6623V83.9559L303.334 85.5707L360.39 63.7501Z" fill="#EAEAEA"/>
<path d="M360.39 57.4151V63.7501L303.334 85.5707M360.39 57.4151L353.765 55.8003L296.75 77.6623M360.39 57.4151L303.334 79.2771M303.334 85.5707V79.2771M303.334 85.5707L296.75 83.9559V77.6623M303.334 79.2771L296.75 77.6623" stroke="black" stroke-width="0.0828105"/>
<path d="M360.39 57.4151V63.7501L303.334 85.5707V79.2771L360.39 57.4151Z" fill="#C3C3C3"/>
<path d="M360.39 57.4151V63.7501L303.334 85.5707V79.2771L360.39 57.4151ZM360.39 57.4151L353.765 55.8003" stroke="black" stroke-width="0.0828105"/>
<path d="M158.333 60.6036V55.1795L165.123 54.2686L200.773 74.9712V80.6023L193.983 81.3062L158.333 60.6036Z" fill="#EAEAEA"/>
<path d="M158.333 55.1795V60.6036L193.983 81.3062M158.333 55.1795L165.123 54.2686L200.773 74.9712M158.333 55.1795L193.983 75.6751M193.983 81.3062V75.6751M193.983 81.3062L200.773 80.6023V74.9712M193.983 75.6751L200.773 74.9712" stroke="black" stroke-width="0.0828105"/>
<path d="M158.333 55.1795V60.6036L193.983 81.3062V75.6751L158.333 55.1795Z" fill="#AFAFAF"/>
<path d="M158.333 55.1795V60.6036L193.983 81.3062V75.6751L158.333 55.1795ZM158.333 55.1795L165.123 54.2686" stroke="black" stroke-width="0.0828105"/>
<path d="M308.716 60.6036V55.1795L301.926 54.2686L266.276 74.9712V80.6023L273.066 81.3062L308.716 60.6036Z" fill="#EAEAEA"/>
<path d="M308.716 55.1795V60.6036L273.066 81.3062M308.716 55.1795L301.926 54.2686L266.276 74.9712M308.716 55.1795L273.066 75.6751M273.066 81.3062V75.6751M273.066 81.3062L266.276 80.6023V74.9712M273.066 75.6751L266.276 74.9712" stroke="black" stroke-width="0.0828105"/>
<path d="M308.716 55.1795V60.6036L273.066 81.3062V75.6751L308.716 55.1795Z" fill="#AFAFAF"/>
<path d="M308.716 55.1795V60.6036L273.066 81.3062V75.6751L308.716 55.1795ZM308.716 55.1795L301.926 54.2686" stroke="black" stroke-width="0.0828105"/>
<path d="M229.508 81.1407V74.0604L231.827 50.1282H236.257L238.037 74.0604V81.1407H229.508Z" fill="#EAEAEA"/>
<path d="M229.508 74.0604V81.1407H238.037V74.0604M229.508 74.0604H238.037M229.508 74.0604L231.827 50.1282H236.257L238.037 74.0604" stroke="black" stroke-width="0.0828105"/>
<path d="M330.439 192.251V100.904L332.668 100.754L334.898 100.604L337.127 100.454L339.356 100.304L341.585 100.154L343.814 100.004L346.043 99.8542L347.349 99.7664V191.114L346.043 191.201L343.814 191.351L341.585 191.501L339.356 191.651L337.127 191.801L334.898 191.951L332.668 192.101L330.439 192.251Z" fill="#E5E5E5"/>
<path d="M339.356 100.304V191.651M339.356 100.304L337.127 100.454M339.356 100.304L341.585 100.154M339.356 191.651L337.127 191.801M339.356 191.651L341.585 191.501M334.898 100.604V191.951M334.898 100.604L332.668 100.754M334.898 100.604L337.127 100.454M334.898 191.951L332.668 192.101M334.898 191.951L337.127 191.801M343.814 191.351V100.004M343.814 191.351L346.043 191.201M343.814 191.351L341.585 191.501M343.814 100.004L346.043 99.8542M343.814 100.004L341.585 100.154M346.043 99.8542V191.201M346.043 99.8542L347.349 99.7664V191.114L346.043 191.201M332.668 192.101L330.439 192.251V100.904L332.668 100.754M332.668 192.101V100.754M337.127 100.454V191.801M341.585 191.501V100.154" stroke="black" stroke-width="0.0828105"/>
<path d="M330.439 100.904V192.251L332.668 192.101V100.754L330.439 100.904Z" fill="#DBDBDB"/>
<path d="M339.356 191.651V100.304L341.585 100.154V191.501L339.356 191.651Z" fill="#DBDBDB"/>
<path d="M334.898 191.951V100.604L337.127 100.454V191.801L334.898 191.951Z" fill="#DBDBDB"/>
<path d="M343.814 100.004V191.351L346.043 191.201V99.8542L343.814 100.004Z" fill="#DBDBDB"/>
<path d="M330.439 100.904V192.251L332.668 192.101V100.754L330.439 100.904Z" stroke="black" stroke-width="0.0828105"/>
<path d="M339.356 191.651V100.304L341.585 100.154V191.501L339.356 191.651Z" stroke="black" stroke-width="0.0828105"/>
<path d="M334.898 191.951V100.604L337.127 100.454V191.801L334.898 191.951Z" stroke="black" stroke-width="0.0828105"/>
<path d="M343.814 100.004V191.351L346.043 191.201V99.8542L343.814 100.004Z" stroke="black" stroke-width="0.0828105"/>
<path d="M347.927 191.058V99.7104L350.156 99.5604L352.385 99.4104L354.614 99.2605L356.843 99.1105L359.072 98.9606L361.301 98.8106L363.531 98.6606L364.837 98.5728V189.92L363.531 190.008L361.301 190.158L359.072 190.308L356.843 190.458L354.614 190.608L352.385 190.758L350.156 190.908L347.927 191.058Z" fill="#E5E5E5"/>
<path d="M356.843 99.1105V190.458M356.843 99.1105L354.614 99.2605M356.843 99.1105L359.072 98.9606M356.843 190.458L354.614 190.608M356.843 190.458L359.072 190.308M352.385 99.4104V190.758M352.385 99.4104L350.156 99.5604M352.385 99.4104L354.614 99.2605M352.385 190.758L350.156 190.908M352.385 190.758L354.614 190.608M361.301 190.158V98.8106M361.301 190.158L363.531 190.008M361.301 190.158L359.072 190.308M361.301 98.8106L363.531 98.6606M361.301 98.8106L359.072 98.9606M363.531 98.6606V190.008M363.531 98.6606L364.837 98.5728V189.92L363.531 190.008M350.156 190.908L347.927 191.058V99.7104L350.156 99.5604M350.156 190.908V99.5604M354.614 99.2605V190.608M359.072 190.308V98.9606" stroke="black" stroke-width="0.0828105"/>
<path d="M347.927 99.7104V191.058L350.156 190.908V99.5604L347.927 99.7104Z" fill="#DBDBDB"/>
<path d="M356.843 190.458V99.1105L359.072 98.9606V190.308L356.843 190.458Z" fill="#DBDBDB"/>
<path d="M352.385 190.758V99.4105L354.614 99.2605V190.608L352.385 190.758Z" fill="#DBDBDB"/>
<path d="M361.301 98.8106V190.158L363.531 190.008V98.6606L361.301 98.8106Z" fill="#DBDBDB"/>
<path d="M347.927 99.7104V191.058L350.156 190.908V99.5604L347.927 99.7104Z" stroke="black" stroke-width="0.0828105"/>
<path d="M356.843 190.458V99.1105L359.072 98.9606V190.308L356.843 190.458Z" stroke="black" stroke-width="0.0828105"/>
<path d="M352.385 190.758V99.4105L354.614 99.2605V190.608L352.385 190.758Z" stroke="black" stroke-width="0.0828105"/>
<path d="M361.301 98.8106V190.158L363.531 190.008V98.6606L361.301 98.8106Z" stroke="black" stroke-width="0.0828105"/>
<path d="M365.897 189.898V98.5509L368.126 98.401L370.355 98.251L372.584 98.1011L374.813 97.9511L377.042 97.8011L379.272 97.6512L381.501 97.5012L382.807 97.4133V188.761L381.501 188.848L379.272 188.998L377.042 189.148L374.813 189.298L372.584 189.448L370.355 189.598L368.126 189.748L365.897 189.898Z" fill="#E5E5E5"/>
<path d="M374.813 97.9511V189.298M374.813 97.9511L372.584 98.1011M374.813 97.9511L377.042 97.8011M374.813 189.298L372.584 189.448M374.813 189.298L377.042 189.148M370.355 98.251V189.598M370.355 98.251L368.126 98.401M370.355 98.251L372.584 98.1011M370.355 189.598L368.126 189.748M370.355 189.598L372.584 189.448M379.272 188.998V97.6512M379.272 188.998L381.501 188.848M379.272 188.998L377.042 189.148M379.272 97.6512L381.501 97.5012M379.272 97.6512L377.042 97.8011M381.501 97.5012V188.848M381.501 97.5012L382.807 97.4133V188.761L381.501 188.848M368.126 189.748L365.897 189.898V98.5509L368.126 98.401M368.126 189.748V98.401M372.584 98.1011V189.448M377.042 189.148V97.8011" stroke="black" stroke-width="0.0828105"/>
<path d="M365.897 98.551V189.898L368.126 189.748V98.401L365.897 98.551Z" fill="#DBDBDB"/>
<path d="M374.813 189.298V97.9511L377.042 97.8011V189.148L374.813 189.298Z" fill="#DBDBDB"/>
<path d="M370.355 189.598V98.251L372.584 98.1011V189.448L370.355 189.598Z" fill="#DBDBDB"/>
<path d="M379.272 97.6512V188.998L381.501 188.848V97.5012L379.272 97.6512Z" fill="#DBDBDB"/>
<path d="M365.897 98.551V189.898L368.126 189.748V98.401L365.897 98.551Z" stroke="black" stroke-width="0.0828105"/>
<path d="M374.813 189.298V97.9511L377.042 97.8011V189.148L374.813 189.298Z" stroke="black" stroke-width="0.0828105"/>
<path d="M370.355 189.598V98.251L372.584 98.1011V189.448L370.355 189.598Z" stroke="black" stroke-width="0.0828105"/>
<path d="M379.272 97.6512V188.998L381.501 188.848V97.5012L379.272 97.6512Z" stroke="black" stroke-width="0.0828105"/>
<path d="M384.942 188.655V97.308L387.171 97.1581L389.4 97.0081L391.629 96.8581L393.858 96.7082L396.087 96.5582L398.316 96.4082L400.546 96.2583L401.852 96.1704V187.518L400.546 187.606L398.316 187.755L396.087 187.905L393.858 188.055L391.629 188.205L389.4 188.355L387.171 188.505L384.942 188.655Z" fill="#E5E5E5"/>
<path d="M393.858 96.7082V188.055M393.858 96.7082L391.629 96.8581M393.858 96.7082L396.087 96.5582M393.858 188.055L391.629 188.205M393.858 188.055L396.087 187.905M389.4 97.0081V188.355M389.4 97.0081L387.171 97.1581M389.4 97.0081L391.629 96.8581M389.4 188.355L387.171 188.505M389.4 188.355L391.629 188.205M398.316 187.755V96.4082M398.316 187.755L400.546 187.606M398.316 187.755L396.087 187.905M398.316 96.4082L400.546 96.2583M398.316 96.4082L396.087 96.5582M400.546 96.2583V187.606M400.546 96.2583L401.852 96.1704V187.518L400.546 187.606M387.171 188.505L384.942 188.655V97.308L387.171 97.1581M387.171 188.505V97.1581M391.629 96.8581V188.205M396.087 187.905V96.5582" stroke="black" stroke-width="0.0828105"/>
<path d="M384.942 97.308V188.655L387.171 188.505V97.1581L384.942 97.308Z" fill="#DBDBDB"/>
<path d="M393.858 188.055V96.7082L396.087 96.5582V187.905L393.858 188.055Z" fill="#DBDBDB"/>
<path d="M389.4 188.355V97.0081L391.629 96.8582V188.205L389.4 188.355Z" fill="#DBDBDB"/>
<path d="M398.316 96.4083V187.755L400.546 187.606V96.2583L398.316 96.4083Z" fill="#DBDBDB"/>
<path d="M384.942 97.308V188.655L387.171 188.505V97.1581L384.942 97.308Z" stroke="black" stroke-width="0.0828105"/>
<path d="M393.858 188.055V96.7082L396.087 96.5582V187.905L393.858 188.055Z" stroke="black" stroke-width="0.0828105"/>
<path d="M389.4 188.355V97.0081L391.629 96.8582V188.205L389.4 188.355Z" stroke="black" stroke-width="0.0828105"/>
<path d="M398.316 96.4083V187.755L400.546 187.606V96.2583L398.316 96.4083Z" stroke="black" stroke-width="0.0828105"/>
<path d="M382.791 97.3737L384.669 97.2473L385.683 97.5579V188.905L383.805 189.031L382.791 188.721V97.3737V97.3737Z" fill="#929292"/>
<path d="M382.791 97.3737L383.805 97.6842M383.805 97.6842V189.031M383.805 97.6842L385.683 97.5579M385.683 97.5579L384.669 97.2473L382.791 97.3737V188.721L383.805 189.031M385.683 97.5579V188.905L383.805 189.031" stroke="black" stroke-width="0.0828105"/>
<path d="M382.791 188.721V97.3736L383.805 97.6841V189.031L382.791 188.721Z" fill="#757575"/>
<path d="M382.791 97.3735V188.721L383.805 189.031V97.6841L382.791 97.3735" stroke="black" stroke-width="0.0828105"/>
<path d="M347.347 99.7748L349.225 99.6484L350.239 99.959V191.306L348.361 191.433L347.347 191.122V99.7748V99.7748Z" fill="#929292"/>
<path d="M347.347 99.7748L348.361 100.085M348.361 100.085V191.433M348.361 100.085L350.239 99.959M350.239 99.959L349.225 99.6484L347.347 99.7748V191.122L348.361 191.433M350.239 99.959V191.306L348.361 191.433" stroke="black" stroke-width="0.0828105"/>
<path d="M347.347 191.122V99.7747L348.361 100.085V191.432L347.347 191.122Z" fill="#757575"/>
<path d="M347.347 99.7747V191.122L348.361 191.432V100.085L347.347 99.7747" stroke="black" stroke-width="0.0828105"/>
<path d="M364.903 98.5328L366.781 98.4065L367.795 98.717V190.064L365.917 190.191L364.903 189.88V98.5329V98.5328Z" fill="#929292"/>
<path d="M364.903 98.5328L365.917 98.8434M365.917 98.8434V190.191M365.917 98.8434L367.795 98.717M367.795 98.717L366.781 98.4065L364.903 98.5328V189.88L365.917 190.191M367.795 98.717V190.064L365.917 190.191" stroke="black" stroke-width="0.0828105"/>
<path d="M364.903 189.88V98.5328L365.917 98.8433V190.19L364.903 189.88Z" fill="#757575"/>
<path d="M364.903 98.5327V189.88L365.917 190.19V98.8433L364.903 98.5327" stroke="black" stroke-width="0.0828105"/>
<path d="M330.439 121.199V119.684L331.433 119.966L348.384 118.826V120.341L331.433 121.482L330.439 121.199Z" fill="#929292"/>
<path d="M401.771 114.885L402.764 115.168V116.683L388.754 117.625L386.933 117.748L385.69 117.831V116.316L386.933 116.233V115.883L401.771 114.885Z" fill="#929292"/>
<path d="M353.27 120.013L350.248 120.216V118.736L353.27 118.497L365.94 117.645V119.16L353.27 120.013Z" fill="#929292"/>
<path d="M377.451 118.386L372.855 118.695L368.259 119.004L367.803 119.035V117.535L372.855 117.18L383.827 116.442V117.957L377.451 118.386Z" fill="#929292"/>
<path d="M331.433 121.482L330.439 121.199V119.684L331.433 119.966M331.433 121.482V119.966M331.433 121.482L348.384 120.341V118.826L331.433 119.966M402.764 115.168L401.771 114.885L386.933 115.883V116.233M402.764 115.168V116.683L388.754 117.625L386.933 117.748L385.69 117.831V116.316L386.933 116.233M402.764 115.168L386.933 116.233M353.27 118.497V118.148M353.27 118.497L350.248 118.736V120.216L353.27 120.013L365.94 119.16V117.645L353.27 118.497ZM372.855 117.18V116.831M372.855 117.18L367.803 117.535V119.035L368.259 119.004L372.855 118.695L377.451 118.386L383.827 117.957V116.442L372.855 117.18Z" stroke="black" stroke-width="0.0828105"/>
<path d="M330.439 119.684L331.433 119.966L348.384 118.826L347.349 118.546L330.439 119.684Z" fill="#BFBFBF"/>
<path d="M402.764 115.168L401.771 114.885L386.933 115.883L385.69 115.967V116.316L386.933 116.233L388.63 116.118L402.764 115.168Z" fill="#BFBFBF"/>
<path d="M350.248 118.701L353.27 118.497L365.94 117.645L364.905 117.365L353.27 118.148L350.248 118.351V118.701Z" fill="#BFBFBF"/>
<path d="M379.645 116.723L372.855 117.18L367.803 117.52V117.17L372.855 116.831L382.792 116.162L383.827 116.442L379.645 116.723Z" fill="#BFBFBF"/>
<path d="M330.439 119.684L331.433 119.966L348.384 118.826L347.349 118.546L330.439 119.684Z" stroke="black" stroke-width="0.0828105"/>
<path d="M402.764 115.168L401.771 114.885L386.933 115.883L385.69 115.967V116.316L386.933 116.233L388.63 116.118L402.764 115.168Z" stroke="black" stroke-width="0.0828105"/>
<path d="M350.248 118.701L353.27 118.497L365.94 117.645L364.905 117.365L353.27 118.148L350.248 118.351V118.701Z" stroke="black" stroke-width="0.0828105"/>
<path d="M379.645 116.723L372.855 117.18L367.803 117.52V117.17L372.855 116.831L382.792 116.162L383.827 116.442L379.645 116.723Z" stroke="black" stroke-width="0.0828105"/>
<path d="M330.439 119.684V121.199L331.433 121.482V119.967L330.439 119.684Z" fill="#757575" stroke="black" stroke-width="0.0828105"/>
<path d="M330.439 147.506V145.99L331.433 146.273L348.384 145.132V146.648L331.433 147.788L330.439 147.506Z" fill="#929292"/>
<path d="M401.771 141.191L402.764 141.474V142.989L388.754 143.932L386.933 144.054L385.69 144.138V142.623L386.933 142.539V142.19L401.771 141.191Z" fill="#929292"/>
<path d="M353.27 146.319L350.248 146.522V145.042L353.27 144.804L365.94 143.951V145.467L353.27 146.319Z" fill="#929292"/>
<path d="M377.451 144.692L372.855 145.001L368.259 145.311L367.803 145.341V143.841L372.855 143.486L383.827 142.748V144.263L377.451 144.692Z" fill="#929292"/>
<path d="M331.433 147.788L330.439 147.506V145.99L331.433 146.273M331.433 147.788V146.273M331.433 147.788L348.384 146.648V145.132L331.433 146.273M402.764 141.474L401.771 141.191L386.933 142.19V142.539M402.764 141.474V142.989L388.754 143.932L386.933 144.054L385.69 144.138V142.623L386.933 142.539M402.764 141.474L386.933 142.539M353.27 144.804V144.454M353.27 144.804L350.248 145.042V146.522L353.27 146.319L365.94 145.467V143.951L353.27 144.804ZM372.855 143.486V143.137M372.855 143.486L367.803 143.841V145.341L368.259 145.311L372.855 145.001L377.451 144.692L383.827 144.263V142.748L372.855 143.486Z" stroke="black" stroke-width="0.0828105"/>
<path d="M330.439 145.99L331.433 146.273L348.384 145.132L347.349 144.853L330.439 145.99Z" fill="#BFBFBF"/>
<path d="M402.764 141.474L401.771 141.191L386.933 142.19L385.69 142.273V142.623L386.933 142.539L388.63 142.425L402.764 141.474Z" fill="#BFBFBF"/>
<path d="M350.248 145.007L353.27 144.804L365.94 143.951L364.905 143.672L353.27 144.454L350.248 144.658V145.007Z" fill="#BFBFBF"/>
<path d="M379.645 143.029L372.855 143.486L367.803 143.826V143.477L372.855 143.137L382.792 142.468L383.827 142.748L379.645 143.029Z" fill="#BFBFBF"/>
<path d="M330.439 145.99L331.433 146.273L348.384 145.132L347.349 144.853L330.439 145.99Z" stroke="black" stroke-width="0.0828105"/>
<path d="M402.764 141.474L401.771 141.191L386.933 142.19L385.69 142.273V142.623L386.933 142.539L388.63 142.425L402.764 141.474Z" stroke="black" stroke-width="0.0828105"/>
<path d="M350.248 145.007L353.27 144.804L365.94 143.951L364.905 143.672L353.27 144.454L350.248 144.658V145.007Z" stroke="black" stroke-width="0.0828105"/>
<path d="M379.645 143.029L372.855 143.486L367.803 143.826V143.477L372.855 143.137L382.792 142.468L383.827 142.748L379.645 143.029Z" stroke="black" stroke-width="0.0828105"/>
<path d="M330.439 145.99V147.506L331.433 147.788V146.273L330.439 145.99Z" fill="#757575" stroke="black" stroke-width="0.0828105"/>
<path d="M330.439 173.81V172.295L331.433 172.578L348.384 171.437V172.952L331.433 174.093L330.439 173.81Z" fill="#929292"/>
<path d="M401.771 167.496L402.764 167.779V169.294L388.754 170.236L386.933 170.359L385.69 170.442V168.927L386.933 168.844V168.494L401.771 167.496Z" fill="#929292"/>
<path d="M353.27 172.624L350.248 172.827V171.347L353.27 171.108L365.94 170.256V171.771L353.27 172.624Z" fill="#929292"/>
<path d="M377.451 170.997L372.855 171.306L368.259 171.615L367.803 171.646V170.146L372.855 169.791L383.827 169.053V170.568L377.451 170.997Z" fill="#929292"/>
<path d="M331.433 174.093L330.439 173.81V172.295L331.433 172.578M331.433 174.093V172.578M331.433 174.093L348.384 172.952V171.437L331.433 172.578M402.764 167.779L401.771 167.496L386.933 168.494V168.844M402.764 167.779V169.294L388.754 170.236L386.933 170.359L385.69 170.442V168.927L386.933 168.844M402.764 167.779L386.933 168.844M353.27 171.108V170.759M353.27 171.108L350.248 171.347V172.827L353.27 172.624L365.94 171.771V170.256L353.27 171.108ZM372.855 169.791V169.442M372.855 169.791L367.803 170.146V171.646L368.259 171.615L372.855 171.306L377.451 170.997L383.827 170.568V169.053L372.855 169.791Z" stroke="black" stroke-width="0.0828105"/>
<path d="M330.439 172.295L331.433 172.578L348.384 171.437L347.349 171.157L330.439 172.295Z" fill="#BFBFBF"/>
<path d="M402.764 167.779L401.771 167.496L386.933 168.494L385.69 168.578V168.927L386.933 168.844L388.63 168.73L402.764 167.779Z" fill="#BFBFBF"/>
<path d="M350.248 171.312L353.27 171.108L365.94 170.256L364.905 169.976L353.27 170.759L350.248 170.962V171.312Z" fill="#BFBFBF"/>
<path d="M379.645 169.334L372.855 169.791L367.803 170.131V169.781L372.855 169.442L382.792 168.773L383.827 169.053L379.645 169.334Z" fill="#BFBFBF"/>
<path d="M330.439 172.295L331.433 172.578L348.384 171.437L347.349 171.157L330.439 172.295Z" stroke="black" stroke-width="0.0828105"/>
<path d="M402.764 167.779L401.771 167.496L386.933 168.494L385.69 168.578V168.927L386.933 168.844L388.63 168.73L402.764 167.779Z" stroke="black" stroke-width="0.0828105"/>
<path d="M350.248 171.312L353.27 171.108L365.94 170.256L364.905 169.976L353.27 170.759L350.248 170.962V171.312Z" stroke="black" stroke-width="0.0828105"/>
<path d="M379.645 169.334L372.855 169.791L367.803 170.131V169.781L372.855 169.442L382.792 168.773L383.827 169.053L379.645 169.334Z" stroke="black" stroke-width="0.0828105"/>
<path d="M330.439 172.295V173.81L331.433 174.093V172.578L330.439 172.295Z" fill="#757575" stroke="black" stroke-width="0.0828105"/>
<path d="M382.791 97.3737L384.669 97.2473L385.683 97.5579L383.805 97.6842L382.791 97.3737Z" fill="#BFBFBF" stroke="black" stroke-width="0.0828105"/>
<path d="M347.352 99.7744L349.225 99.6484L350.239 99.959L348.361 100.085L347.352 99.7744Z" fill="#BFBFBF"/>
<path d="M347.347 99.7748L349.225 99.6484L350.239 99.959L348.361 100.085L347.347 99.7727" stroke="black" stroke-width="0.0828105"/>
<path d="M364.903 98.5328L366.781 98.4065L367.795 98.717L365.917 98.8434L364.903 98.5328Z" fill="#BFBFBF" stroke="black" stroke-width="0.0828105"/>
<path d="M139.882 87.4618V178.809L138.764 179.188L130.962 178.225V86.8781L132.08 86.499L139.882 87.4618Z" fill="#858585"/>
<path d="M139.882 87.4618V178.809L138.764 179.188M139.882 87.4618L132.08 86.499L130.962 86.8781M139.882 87.4618L138.764 87.8409M138.764 179.188V87.8409M138.764 179.188L130.962 178.225V86.8781M138.764 87.8409L130.962 86.8781" stroke="black" stroke-width="0.0828105"/>
<path d="M136.843 100.891L143.261 98.9033L150.879 99.4002V200.677L144.461 202.665L136.843 202.168V100.891Z" fill="#9B9B9B"/>
<path d="M136.843 100.891L143.261 98.9033L150.879 99.4002M136.843 100.891L144.461 101.388M136.843 100.891V202.168L144.461 202.665M144.461 101.388L150.879 99.4002M144.461 101.388V202.665M150.879 99.4002V200.677L144.461 202.665" stroke="black" stroke-width="0.0828105"/>
<path d="M150.88 99.4001L144.462 101.388V202.665L150.88 200.677V99.4001Z" fill="#7E7E7E" stroke="black" stroke-width="0.0828105"/>
<path d="M144.461 211.898L136.843 211.401V202.168L144.461 202.665V211.898Z" fill="#E0E0E0" stroke="black" stroke-width="0.0828105"/>
<path d="M150.88 209.911L144.462 211.899V202.665L150.88 200.678V209.911Z" fill="#EAEAEA" stroke="black" stroke-width="0.0828105"/>
<path d="M104.776 158.162L130.964 161.342L129.536 161.83L103.347 158.65L104.776 158.162Z" fill="#929292" stroke="black" stroke-width="0.0828105"/>
<path d="M129.535 162.783L130.964 162.294V161.342L129.535 161.83V162.783Z" fill="#757575" stroke="black" stroke-width="0.0828105"/>
<path d="M103.347 158.65V159.603L129.536 162.782V161.83L103.347 158.65Z" fill="#BFBFBF" stroke="black" stroke-width="0.0828105"/>
<path d="M104.776 133.186L130.964 136.366L129.536 136.854L103.347 133.675L104.776 133.186Z" fill="#929292" stroke="black" stroke-width="0.0828105"/>
<path d="M129.535 137.807L130.964 137.319V136.366L129.535 136.855V137.807Z" fill="#757575" stroke="black" stroke-width="0.0828105"/>
<path d="M103.347 133.675V134.627L129.536 137.807V136.854L103.347 133.675Z" fill="#BFBFBF" stroke="black" stroke-width="0.0828105"/>
<path d="M104.776 108.179L130.964 111.359L129.536 111.847L103.347 108.667L104.776 108.179Z" fill="#929292" stroke="black" stroke-width="0.0828105"/>
<path d="M129.535 112.8L130.964 112.311V111.359L129.535 111.847V112.8Z" fill="#757575" stroke="black" stroke-width="0.0828105"/>
<path d="M103.347 108.667V109.62L129.536 112.799V111.847L103.347 108.667Z" fill="#BFBFBF" stroke="black" stroke-width="0.0828105"/>
<path d="M117.944 84.6602L118.958 84.7759L118.957 109.876L118.149 110.456L117.135 110.331L117.136 84.9416L117.944 84.6602Z" fill="#757575"/>
<path d="M118.956 176.123L118.148 176.405L117.134 176.289L117.134 161.26L118.148 161.398L118.956 161.508L118.956 176.123Z" fill="#757575"/>
<path d="M117.135 111.284L118.149 111.399L118.957 111.491L118.957 134.926L118.149 135.464L117.135 135.34L117.135 111.284Z" fill="#757575"/>
<path d="M117.135 136.292L118.149 136.431L118.957 136.541L118.956 159.893L118.148 160.432L117.134 160.308L117.135 136.292Z" fill="#757575"/>
<path d="M118.958 84.7759L117.944 84.6602L117.136 84.9416M118.958 84.7759L118.15 85.0573M118.958 84.7759L118.957 109.876L118.149 110.456M117.136 84.9416L118.15 85.0573M117.136 84.9416L117.135 110.331L118.149 110.456M118.148 176.405L118.956 176.123L118.956 161.508L118.148 161.398M118.148 176.405L117.134 176.289L117.134 161.26L118.148 161.398M118.148 176.405L118.148 161.398M118.15 85.0573L118.149 110.456M118.149 111.399L117.135 111.284L117.135 135.34L118.149 135.464M118.149 111.399L118.957 111.491L118.957 134.926L118.149 135.464M118.149 111.399L118.149 135.464M118.149 136.431L117.135 136.292L117.134 160.308L118.148 160.432M118.149 136.431L118.957 136.541L118.956 159.893L118.148 160.432M118.149 136.431L118.148 160.432" stroke="black" stroke-width="0.0828105"/>
<path d="M117.134 176.288L118.148 176.404L118.148 161.398L117.134 161.259L117.134 176.288Z" fill="#BFBFBF"/>
<path d="M117.136 84.9412L118.15 85.0569L118.149 110.455L117.135 110.331L117.136 84.9412Z" fill="#BFBFBF"/>
<path d="M118.149 111.399L117.135 111.283L117.135 135.34L118.149 135.464L118.149 111.399Z" fill="#BFBFBF"/>
<path d="M118.149 136.43L117.135 136.292L117.134 160.307L118.148 160.431L118.149 136.43Z" fill="#BFBFBF"/>
<path d="M117.134 176.288L118.148 176.404L118.148 161.398L117.134 161.259L117.134 176.288Z" stroke="black" stroke-width="0.0828105"/>
<path d="M117.136 84.9412L118.15 85.0569L118.149 110.455L117.135 110.331L117.136 84.9412Z" stroke="black" stroke-width="0.0828105"/>
<path d="M118.149 111.399L117.135 111.283L117.135 135.34L118.149 135.464L118.149 111.399Z" stroke="black" stroke-width="0.0828105"/>
<path d="M118.149 136.43L117.135 136.292L117.134 160.307L118.148 160.431L118.149 136.43Z" stroke="black" stroke-width="0.0828105"/>
<path d="M144.503 101.4L53.8668 96.0171V88.7711L60.2432 86.7305L158.291 92.6012V99.8471L151.914 101.887L144.503 101.4Z" fill="#393939"/>
<path d="M151.914 101.887L144.503 101.4L53.8668 96.0171V88.7711M151.914 101.887L158.291 99.8471V92.6012M151.914 101.887V94.6407M53.8668 88.7711L60.2432 86.7305L158.291 92.6012M53.8668 88.7711L151.914 94.6407M151.914 94.6407L158.291 92.6012" stroke="black" stroke-width="0.0828105"/>
<path d="M60.2432 86.7305L53.8668 88.7711L151.914 94.6407L158.291 92.6012L60.2432 86.7305Z" fill="#6A6A6A" stroke="black" stroke-width="0.0828105"/>
<path d="M158.291 99.8467L151.915 101.886V94.6403L158.291 92.6008V99.8467Z" fill="#575757" stroke="black" stroke-width="0.0828105"/>
<path d="M58.4626 89.0905V72.3938L65.8328 74.3913V89.5035L58.4626 89.0905Z" fill="#9B9B9B" stroke="black" stroke-width="0.0828105"/>
<path d="M65.8333 74.3911V89.5033L72.2511 87.3917V76.1305L65.8333 74.3911Z" fill="#7E7E7E" stroke="black" stroke-width="0.0828105"/>
<path d="M58.4626 72.3938V65.1063L64.8391 62.9946L143.343 84.4113V91.6988L136.967 93.8104L72.2506 76.1307L65.8328 74.3913L58.4626 72.3938Z" fill="#EAEAEA"/>
<path d="M136.967 93.8104V86.523M136.967 93.8104L143.343 91.6988V84.4113M136.967 93.8104L72.2506 76.1307L65.8328 74.3913L58.4626 72.3938V65.1063M58.4626 65.1063L136.967 86.523M58.4626 65.1063L64.8391 62.9946L143.343 84.4113M136.967 86.523L143.343 84.4113" stroke="black" stroke-width="0.0828105"/>
<path d="M58.4626 65.1063V72.3938L65.8328 74.3913L72.2506 76.1307L136.967 93.8104V86.523L58.4626 65.1063Z" fill="#D6D6D6"/>
<path d="M58.4626 65.1063V72.3938L65.8328 74.3913L72.2506 76.1307L136.967 93.8104V86.523L58.4626 65.1063ZM58.4626 65.1063L64.8391 62.9946" stroke="black" stroke-width="0.0828105"/>
<path d="M164.171 77.3726L136.967 84.8256L52.832 61.9699L98.295 52.5295L147.36 47.5609L233.897 44L319.647 47.5609L368.92 52.5295L414.962 61.9699L330.827 84.8256L303.624 77.3726L273.853 73.8532L233.897 72.2798L193.941 73.8532L164.171 77.3726Z" fill="#E0E0E0"/>
<path d="M164.171 77.3726L136.967 84.8256L52.832 61.9699L98.295 52.5295M164.171 77.3726L193.941 73.8532M164.171 77.3726L98.295 52.5295M193.941 73.8532L233.897 72.2798M193.941 73.8532L147.36 47.5609M233.897 72.2798L273.853 73.8532M233.897 72.2798V44M273.853 73.8532L303.624 77.3726M273.853 73.8532L319.647 47.5609M303.624 77.3726L330.827 84.8256L414.962 61.9699L368.92 52.5295M303.624 77.3726L368.92 52.5295M98.295 52.5295L147.36 47.5609M368.92 52.5295L319.647 47.5609M147.36 47.5609L233.897 44M233.897 44L319.647 47.5609" stroke="black" stroke-width="0.0828105"/>
<path d="M164.171 78.9875L136.967 86.4405L52.832 63.5848V61.97L136.967 84.8257L164.171 77.3727L193.941 73.8533L233.897 72.2799L273.853 73.8533L303.624 77.3727L330.827 84.8257L414.962 61.97V63.5848L330.827 86.4405L303.624 78.9875L273.853 75.4681L233.897 73.8947L193.941 75.4681L164.171 78.9875Z" fill="#9B9B9B"/>
<path d="M136.967 86.4405L164.171 78.9875M136.967 86.4405L52.832 63.5848V61.97L136.967 84.8257M136.967 86.4405V84.8257M164.171 78.9875L193.941 75.4681M164.171 78.9875V77.3727M193.941 75.4681L233.897 73.8947M193.941 75.4681V73.8533M233.897 73.8947L273.853 75.4681M233.897 73.8947V72.2799M273.853 75.4681L303.624 78.9875M273.853 75.4681V73.8533M303.624 78.9875L330.827 86.4405M303.624 78.9875V77.3727M330.827 86.4405L414.962 63.5848V61.97L330.827 84.8257M330.827 86.4405V84.8257M136.967 84.8257L164.171 77.3727M164.171 77.3727L193.941 73.8533M193.941 73.8533L233.897 72.2799M233.897 72.2799L273.853 73.8533M273.853 73.8533L303.624 77.3727M303.624 77.3727L330.827 84.8257" stroke="black" stroke-width="0.0828105"/>
<path d="M178.456 145.865L194.024 143.584L198.703 144.909V147.348L183.135 149.629L178.456 150.314V147.876V145.865Z" fill="#686868"/>
<path d="M198.703 144.909L194.024 143.584L178.456 145.865V147.876M198.703 144.909L183.135 147.19L178.456 147.876M198.703 144.909V147.348L183.135 149.629L178.456 150.314V147.876" stroke="black" stroke-width="0.0828105"/>
<path d="M198.703 147.347L183.135 149.628L178.456 150.314V147.875L183.135 147.19L198.703 144.909V147.347Z" fill="#494949" stroke="black" stroke-width="0.0828105"/>
<path d="M289.256 145.865L273.398 143.584L268.719 144.909V147.348L284.577 149.629L289.256 150.314V147.876V145.865Z" fill="#686868"/>
<path d="M268.719 144.909L273.398 143.584L289.256 145.865V147.876M268.719 144.909L284.577 147.19L289.256 147.876M268.719 144.909V147.348L284.577 149.629L289.256 150.314V147.876" stroke="black" stroke-width="0.0828105"/>
<path d="M268.719 147.347L284.577 149.628L289.256 150.314V147.875L284.577 147.19L268.719 144.909V147.347Z" fill="#494949" stroke="black" stroke-width="0.0828105"/>
<path d="M99.7386 180.661L103.826 169.493L105.669 169.292L101.735 180.043L99.7386 180.661Z" fill="#D9D9D9"/>
<path d="M100.784 155.378L98.7881 155.996L103.498 168.614L105.494 167.996L100.784 155.378Z" fill="#D9D9D9"/>
<path d="M119.176 167.82L119.746 167.758V166.843L121.742 166.225V167.14L121.22 167.302L122.598 181.397L120.602 182.014L119.176 167.82Z" fill="#D9D9D9"/>
<path d="M119.746 167.758L119.176 167.82L120.602 182.014L122.598 181.397L121.22 167.302M119.746 167.758L121.742 167.14V166.225L119.746 166.843V167.758ZM99.7386 180.661L103.826 169.493L105.669 169.292L101.735 180.043L99.7386 180.661ZM98.7881 155.996L100.784 155.378L105.494 167.996L103.498 168.614L98.7881 155.996Z" stroke="black" stroke-width="0.0828105"/>
<path d="M98.0759 155.212L96.0798 155.83L98.7887 155.996L100.785 155.378L98.0759 155.212Z" fill="#A9A9A9"/>
<path d="M116.425 167.206L103.498 168.614L105.494 167.996L121.743 166.226L119.747 166.844L116.425 167.206Z" fill="#A9A9A9"/>
<path d="M98.0759 155.212L96.0798 155.83L98.7887 155.996L100.785 155.378L98.0759 155.212Z" stroke="black" stroke-width="0.0828105"/>
<path d="M116.425 167.206L103.498 168.614L105.494 167.996L121.743 166.226L119.747 166.844L116.425 167.206Z" stroke="black" stroke-width="0.0828105"/>
<path d="M97.0303 180.495L101.117 169.327L96.0798 155.83L98.7887 155.997L103.498 168.614L116.425 167.206L119.747 166.844V167.759L119.177 167.821L120.602 182.015L118.179 181.858L116.753 168.085L105.67 169.293L103.826 169.494L99.7392 180.662L97.0303 180.495Z" fill="#BCBCBC" stroke="black" stroke-width="0.0828105"/>
<path d="M87.0519 160.251L97.2696 156.972L102.117 169.28L117.943 167.665L107.725 170.944L91.8994 172.56L87.0519 160.251Z" fill="#D9D9D9"/>
<path d="M91.8994 172.56L87.0519 160.251L97.2696 156.972L102.117 169.28M91.8994 172.56L102.117 169.28M91.8994 172.56L107.725 170.944L117.943 167.665L102.117 169.28" stroke="black" stroke-width="0.0828105"/>
<path d="M87.6684 185.081L91.7555 173.913L93.5989 173.712L89.6644 184.463L87.6684 185.081Z" fill="#D9D9D9"/>
<path d="M88.7139 159.798L86.7179 160.416L91.4273 173.034L93.4233 172.416L88.7139 159.798Z" fill="#D9D9D9"/>
<path d="M107.106 172.241L107.676 172.178V171.263L109.672 170.646V171.561L109.149 171.722L110.528 185.817L108.532 186.435L107.106 172.241Z" fill="#D9D9D9"/>
<path d="M107.676 172.178L107.106 172.241L108.532 186.435L110.528 185.817L109.149 171.722M107.676 172.178L109.672 171.561V170.646L107.676 171.263V172.178ZM87.6684 185.081L91.7555 173.913L93.5989 173.712L89.6644 184.463L87.6684 185.081ZM86.7179 160.416L88.7139 159.798L93.4233 172.416L91.4273 173.034L86.7179 160.416Z" stroke="black" stroke-width="0.0828105"/>
<path d="M86.0057 159.632L84.0096 160.25L86.7185 160.416L88.7145 159.799L86.0057 159.632Z" fill="#A9A9A9"/>
<path d="M104.355 171.626L91.4279 173.034L93.424 172.416L109.673 170.646L107.677 171.264L104.355 171.626Z" fill="#A9A9A9"/>
<path d="M86.0057 159.632L84.0096 160.25L86.7185 160.416L88.7145 159.799L86.0057 159.632Z" stroke="black" stroke-width="0.0828105"/>
<path d="M104.355 171.626L91.4279 173.034L93.424 172.416L109.673 170.646L107.677 171.264L104.355 171.626Z" stroke="black" stroke-width="0.0828105"/>
<path d="M84.9601 184.916L89.0472 173.747L84.0096 160.25L86.7185 160.417L91.4279 173.035L104.355 171.626L107.677 171.264V172.179L107.106 172.241L108.532 186.435L106.108 186.278L104.683 172.505L93.5995 173.713L91.7561 173.914L87.669 185.082L84.9601 184.916Z" fill="#BCBCBC" stroke="black" stroke-width="0.0828105"/>
<path d="M127.775 221.462L56.7654 216.245L46 219.474L117.01 224.691L127.775 221.462Z" fill="#797878" stroke="black" stroke-width="0.0828105"/>
<path d="M117.01 224.691L127.775 221.462V223.656L117.01 226.886L46 221.669V219.474L117.01 224.691Z" fill="#6A6A6A" stroke="black" stroke-width="0.0828105"/>
<path d="M117.01 224.691L46 219.474V221.669L117.01 226.886V224.691Z" fill="#555555" stroke="black" stroke-width="0.0828105"/>
<path d="M121.313 215.233L132.078 212.004L128.973 211.775L118.208 215.005L121.313 215.233Z" fill="#797878" stroke="black" stroke-width="0.0828105"/>
<path d="M121.313 223.41V215.253L127.772 213.315V221.472L121.313 223.41Z" fill="#6A6A6A" stroke="black" stroke-width="0.0828105"/>
<path d="M121.313 223.41L118.208 223.182V215.025L121.313 215.254V223.41Z" fill="#555555" stroke="black" stroke-width="0.0828105"/>
<path d="M53.4139 210.182L64.1792 206.952L61.0738 206.724L50.3085 209.953L53.4139 210.182Z" fill="#797878" stroke="black" stroke-width="0.0828105"/>
<path d="M53.4142 218.359V210.202L59.7906 208.289V216.446L53.4142 218.359Z" fill="#6A6A6A" stroke="black" stroke-width="0.0828105"/>
<path d="M53.4139 218.359L50.3085 218.131V209.974L53.4139 210.202V218.359Z" fill="#555555" stroke="black" stroke-width="0.0828105"/>
<path d="M85.0469 212.58L95.8123 209.351L92.7069 209.123L81.9415 212.352L85.0469 212.58Z" fill="#797878" stroke="black" stroke-width="0.0828105"/>
<path d="M85.0472 220.757V212.601L91.6307 210.625V218.782L85.0472 220.757Z" fill="#6A6A6A" stroke="black" stroke-width="0.0828105"/>
<path d="M85.0469 220.758L81.9415 220.529V212.373L85.0469 212.601V220.758Z" fill="#555555" stroke="black" stroke-width="0.0828105"/>
<path d="M132.083 209.869L61.0726 204.652L50.3073 207.882L121.317 213.099L132.083 209.869Z" fill="#797878" stroke="black" stroke-width="0.0828105"/>
<path d="M121.317 213.099L132.083 209.869V212.064L121.317 215.293L50.3073 210.076V207.882L121.317 213.099Z" fill="#6A6A6A"/>
<path d="M121.317 213.099L132.083 209.869V212.064L121.317 215.293M121.317 213.099L50.3073 207.882V210.076L121.317 215.293M121.317 213.099V215.293" stroke="black" stroke-width="0.0828105"/>
<path d="M121.317 213.099L50.3073 207.882V210.076L121.317 215.293V213.099Z" fill="#555555" stroke="black" stroke-width="0.0828105"/>
<path d="M125.958 203.557L136.723 200.327L133.618 200.099L122.852 203.329L125.958 203.557Z" fill="#797878" stroke="black" stroke-width="0.0828105"/>
<path d="M125.958 211.734V203.577L132.086 201.739V209.895L125.958 211.734Z" fill="#6A6A6A" stroke="black" stroke-width="0.0828105"/>
<path d="M125.958 211.734L122.852 211.506V203.349L125.958 203.577V211.734Z" fill="#555555" stroke="black" stroke-width="0.0828105"/>
<path d="M58.0507 199.084L68.8161 195.855L65.7107 195.626L54.9453 198.856L58.0507 199.084Z" fill="#797878" stroke="black" stroke-width="0.0828105"/>
<path d="M58.051 207.261V199.105L65.7938 196.782V204.939L58.051 207.261Z" fill="#6A6A6A" stroke="black" stroke-width="0.0828105"/>
<path d="M58.0507 207.261L54.9453 207.033V198.876L58.0507 199.105V207.261Z" fill="#555555" stroke="black" stroke-width="0.0828105"/>
<path d="M89.6838 201.487L100.449 198.257L97.3437 198.029L86.5784 201.258L89.6838 201.487Z" fill="#797878" stroke="black" stroke-width="0.0828105"/>
<path d="M89.6417 209.581V201.424L97.2327 199.147V207.304L89.6417 209.581Z" fill="#6A6A6A" stroke="black" stroke-width="0.0828105"/>
<path d="M89.6838 209.664L86.5784 209.436V201.279L89.6838 201.507V209.664Z" fill="#555555" stroke="black" stroke-width="0.0828105"/>
<path d="M136.719 198.732L65.7093 193.515L54.944 196.744L125.954 201.961L136.719 198.732Z" fill="#797878" stroke="black" stroke-width="0.0828105"/>
<path d="M125.954 201.961L136.719 198.732V200.926L125.954 204.156L54.944 198.939V196.744L125.954 201.961Z" fill="#6A6A6A"/>
<path d="M125.954 201.961L136.719 198.732V200.926L125.954 204.156M125.954 201.961L54.944 196.744V198.939L125.954 204.156M125.954 201.961V204.156" stroke="black" stroke-width="0.0828105"/>
<path d="M125.954 201.961L54.944 196.744V198.939L125.954 204.156V201.961Z" fill="#555555" stroke="black" stroke-width="0.0828105"/>
</g>
<defs>
<clipPath id="clip0_550_4884">
<rect width="460" height="270" fill="white"/>
</clipPath>
</defs>
</svg>
