<svg width="460" height="270" viewBox="0 0 460 270" fill="none" xmlns="http://www.w3.org/2000/svg">
<g clip-path="url(#clip0_552_7883)">
<rect width="460" height="270" fill="white"/>
<path d="M356.403 174.829C348.976 177 422.184 185.288 459.954 189.16V206.156H407.441L230.286 154.31L219.812 151.215L302.224 133.076C337.296 133.711 415.486 135.218 447.67 136.171C452.651 136.318 456.718 136.571 460.001 136.902V145.321C459.086 145.408 458.187 145.454 457.335 145.454C446.099 145.454 424.866 142.36 416.724 142.36C408.583 142.36 400.87 143.122 390.015 142.36C379.161 141.598 352.88 145.454 342.835 145.454C332.789 145.454 333.551 160.499 330.075 165.926C326.6 171.354 365.687 172.116 356.403 174.829Z" fill="#F7F7F7" stroke="black" stroke-width="0.0952187"/>
<path d="M407.522 129.548C414.197 129.548 443.152 132.105 456.795 133.383L459.952 138.798C443.453 138.046 408.717 136.542 401.771 136.542C393.089 136.542 356.331 136.88 345.169 136.542C334.006 136.204 300.405 138.798 286.988 138.798C276.253 138.798 245.005 146.244 230.723 149.967C225.762 149.027 214.013 146.898 206.707 145.905C197.574 144.664 163.973 125.035 153.938 125.035C145.91 125.035 125.11 119.921 115.714 117.364H185.96C191.823 117.364 239.368 120.372 262.407 121.876H300.405H331.413C337.163 121.876 364.337 125.035 373.695 125.035C383.054 125.035 399.178 129.548 407.522 129.548Z" fill="#B2B2B2" stroke="black" stroke-width="0.0952187"/>
<path d="M0.145142 269.999V117.364H115.718C125.114 119.921 145.914 125.035 153.942 125.035C163.977 125.035 197.577 144.664 206.711 145.905C214.017 146.898 225.766 149.027 230.727 149.967C241.288 152.336 262.907 157.254 264.892 157.976C267.372 158.879 319.916 177.493 334.912 181.329C346.909 184.397 358.477 186.668 362.762 187.42C374.902 190.617 403.218 197.01 419.365 197.01C435.511 197.01 453.153 198.514 459.956 199.266V269.999H0.145142Z" fill="#DFDFDF" stroke="black" stroke-width="0.0952187"/>
<path d="M257.662 213.914L92.6478 212.676L0 221.682V229.52L90.1721 230.196L257.662 213.914Z" fill="black" fill-opacity="0.2"/>
<g filter="url(#filter0_f_552_7883)">
<path d="M282.467 150.009L287.137 148.524L301.864 151.666L301.728 151.709L297.213 153.145L292.699 154.581L291.871 154.844L286.36 153.668L286.752 152.044L282.467 150.009Z" fill="#717168" fill-opacity="0.2"/>
<path d="M318.072 157.605L322.743 156.12L309.293 153.251L304.623 154.736L302.605 155.378L300.27 156.12L299.102 156.491L311.873 159.216L316.543 157.731L317.393 157.46L318.072 157.605Z" fill="#717168" fill-opacity="0.2"/>
</g>
<path d="M289.33 143.662V147.542L295.461 145.622V141.741L289.33 143.662Z" fill="#E0E0E0" stroke="#E0E0E0" stroke-width="0.18994"/>
<path d="M289.333 143.662L284.367 143.503L290.499 141.582L295.464 141.742L289.333 143.662Z" fill="#D7D7D7" stroke="black" stroke-width="0.00794118"/>
<path d="M289.333 143.663V147.543L284.372 146.486V143.505L289.333 143.663Z" fill="#F5F5F5" stroke="black" stroke-width="0.00794118"/>
<path d="M292.901 141.336V147.549L293.258 147.437L293.615 147.325L299.033 145.628V139.415L292.901 141.336Z" fill="#D6D6D6"/>
<path d="M299.033 145.628L293.615 147.325L293.258 147.437L292.901 147.549V141.336L299.033 139.415V145.628" stroke="black" stroke-width="0.00794118"/>
<path d="M292.903 141.337L299.035 139.417L295.898 138.748L289.767 140.669L292.903 141.337Z" fill="#E0E0E0"/>
<path d="M289.767 140.669L295.898 138.748L299.035 139.417L292.903 141.337L289.767 140.669" stroke="black" stroke-width="0.00794118"/>
<path d="M292.903 141.34V147.88L289.604 147.177L289.336 146.629V143.686L289.767 140.672L292.903 141.34Z" fill="#EBEBEB" stroke="black" stroke-width="0.00794118"/>
<path d="M296.486 148.916C296.057 149.05 295.95 149.582 295.95 149.832C295.95 150.03 296.018 150.365 296.262 150.426L292.695 149.657C292.538 149.616 292.383 149.466 292.383 149.071C292.383 148.473 292.74 148.212 292.919 148.156C292.973 148.139 293.043 148.13 293.116 148.144L294.9 148.52L296.685 148.897C296.628 148.887 296.562 148.892 296.486 148.916Z" fill="#EBEBEB" stroke="black" stroke-width="0.00794118"/>
<path d="M293.95 148.375C293.521 148.509 293.414 149.041 293.414 149.291C293.414 149.489 293.482 149.825 293.726 149.885L293.28 149.789C293.123 149.748 292.968 149.597 292.968 149.203C292.968 148.605 293.327 148.33 293.506 148.274C293.56 148.257 293.63 148.248 293.703 148.262L294.149 148.356C294.092 148.346 294.026 148.351 293.95 148.375Z" fill="#D7D7D7" stroke="black" stroke-width="0.00794118"/>
<path d="M296.009 148.82C295.58 148.954 295.473 149.486 295.473 149.735C295.473 149.934 295.541 150.269 295.785 150.33L295.339 150.233C295.183 150.193 295.027 150.042 295.027 149.647C295.027 149.049 295.386 148.774 295.565 148.718C295.619 148.701 295.69 148.693 295.762 148.706L296.208 148.8C296.151 148.791 296.085 148.796 296.009 148.82Z" fill="#D7D7D7" stroke="black" stroke-width="0.00794118"/>
<path d="M296.488 148.914C296.06 149.048 295.953 149.58 295.953 149.829C295.953 150.028 296.021 150.363 296.265 150.424C296.327 150.439 296.401 150.437 296.488 150.409C296.917 150.275 297.024 149.743 297.024 149.494C297.024 149.289 296.951 148.938 296.687 148.894C296.63 148.885 296.564 148.89 296.488 148.914Z" fill="#E0E0E0"/>
<path d="M296.47 142.687V148.9L296.827 148.788L297.184 148.676L302.601 146.979V140.766L296.47 142.687Z" fill="#E0E0E0"/>
<path d="M302.601 146.979L297.184 148.676L296.827 148.788L296.47 148.9V142.687L302.601 140.766V146.979" stroke="black" stroke-width="0.00794118"/>
<path d="M296.467 142.69L292.9 141.929L299.031 140.009L302.598 140.769L296.467 142.69Z" fill="#EBEBEB" stroke="black" stroke-width="0.00794118"/>
<path d="M292.9 139.004L293.139 138.929L293.426 138.99L293.187 139.065L292.9 139.004Z" fill="#9B9B9B" stroke="black" stroke-width="0.00794118"/>
<path d="M298.788 137.149L299.027 137.074L299.314 137.135L299.075 137.21L298.788 137.149Z" fill="#9B9B9B" stroke="black" stroke-width="0.00794118"/>
<path d="M293.19 139.068V141.99L293.429 141.915V138.993L293.19 139.068Z" fill="#D7D7D7" stroke="black" stroke-width="0.00794118"/>
<path d="M299.073 137.213V140.135L299.313 140.06V137.138L299.073 137.213Z" fill="#D7D7D7" stroke="black" stroke-width="0.00794118"/>
<path d="M296.467 142.692V148.905L292.9 148.145V141.932L296.467 142.692Z" fill="#F5F5F5" stroke="black" stroke-width="0.00794118"/>
<path d="M293.387 147.758L295.956 148.305C295.985 148.311 296.013 148.288 296.013 148.258V147.196C296.013 147.174 295.997 147.154 295.975 147.15L293.406 146.603C293.377 146.596 293.349 146.619 293.349 146.649V147.711C293.349 147.733 293.365 147.753 293.387 147.758Z" fill="#EBEBEB" stroke="#777777" stroke-width="0.047485"/>
<path d="M293.387 146.03L295.956 146.577C295.985 146.583 296.013 146.561 296.013 146.531V143.327C296.013 143.305 295.997 143.285 295.975 143.281L293.406 142.733C293.377 142.727 293.349 142.75 293.349 142.78V145.984C293.349 146.006 293.365 146.025 293.387 146.03Z" fill="#EBEBEB" stroke="#777777" stroke-width="0.047485"/>
<path d="M289.911 146.151V141.714C289.911 141.684 289.939 141.661 289.968 141.668L292.455 142.198C292.477 142.202 292.493 142.222 292.493 142.244V146.681C292.493 146.711 292.465 146.734 292.435 146.727L289.948 146.197C289.927 146.193 289.911 146.173 289.911 146.151Z" fill="white" stroke="#9D9D9D" stroke-width="0.047485"/>
<path d="M292.152 142.534L290.236 142.126C290.206 142.119 290.179 142.142 290.179 142.172V143.842C290.179 143.864 290.194 143.883 290.216 143.888L291.171 144.092C291.18 144.093 291.188 144.093 291.196 144.09L291.674 143.927C291.683 143.925 291.691 143.924 291.7 143.926L292.132 144.018C292.162 144.024 292.19 144.002 292.19 143.972V142.581C292.19 142.558 292.174 142.539 292.152 142.534Z" fill="#BFBFBF" stroke="black" stroke-width="0.00794118"/>
<path d="M283.099 147.216L283.923 146.961C283.923 146.656 284.07 146.222 284.518 145.945C283.412 146.051 283.099 146.771 283.099 147.216Z" fill="#B1B1B1" stroke="black" stroke-width="0.00794118"/>
<path d="M287.336 148.265C287.336 147.67 286.942 146.397 285.364 146.061C284.952 145.973 284.621 145.984 284.357 146.058L284.274 146.084C284.301 146.074 284.328 146.066 284.357 146.058L286.037 145.532C286.314 145.435 286.597 145.434 287.053 145.531C288.63 145.867 289.025 147.14 289.025 147.735C289.025 148.155 288.901 148.809 288.228 149.05L286.465 149.602C287.139 149.361 287.336 148.685 287.336 148.265Z" fill="#282828"/>
<path d="M285.366 146.056C286.943 146.393 287.337 147.666 287.337 148.26C287.337 148.855 286.943 149.959 285.366 149.623C283.788 149.287 283.394 148.014 283.394 147.42C283.394 146.825 283.788 145.72 285.366 146.056Z" fill="#444444" stroke="black" stroke-width="0.00794118"/>
<mask id="mask0_552_7883" style="mask-type:alpha" maskUnits="userSpaceOnUse" x="283" y="146" width="4" height="4">
<path d="M285.364 146.593C286.472 146.828 286.749 147.721 286.749 148.138C286.749 148.555 286.472 149.33 285.364 149.094C284.256 148.858 283.979 147.966 283.979 147.549C283.979 147.132 284.256 146.357 285.364 146.593Z" fill="#B9B9B9" stroke="#B9B9B9" stroke-width="0.18994"/>
</mask>
<g mask="url(#mask0_552_7883)">
<path d="M285.364 146.593C286.472 146.828 286.749 147.721 286.749 148.138C286.749 148.555 286.472 149.33 285.364 149.094C284.256 148.858 283.979 147.966 283.979 147.549C283.979 147.132 284.256 146.357 285.364 146.593Z" fill="#6E6E6E" stroke="#6E6E6E" stroke-width="0.18994"/>
<path d="M285.591 146.538C286.699 146.774 286.976 147.667 286.976 148.084C286.976 148.5 286.699 149.275 285.591 149.04C284.483 148.804 284.206 147.911 284.206 147.494C284.206 147.077 284.483 146.303 285.591 146.538Z" fill="#D1D1D1" stroke="#D1D1D1" stroke-width="0.18994"/>
</g>
<path d="M285.56 147.345C286.01 147.441 286.123 147.804 286.123 147.973C286.123 148.093 286.067 148.285 285.874 148.354L285.585 148.444C285.777 148.375 285.834 148.183 285.834 148.063C285.834 147.894 285.721 147.531 285.27 147.436C285.153 147.411 285.058 147.414 284.983 147.435L285.248 147.352C285.328 147.324 285.43 147.318 285.56 147.345Z" fill="#282828"/>
<path d="M285.281 147.441C285.731 147.536 285.843 147.897 285.843 148.066C285.843 148.235 285.731 148.548 285.281 148.453C284.831 148.357 284.719 147.996 284.719 147.827C284.719 147.659 284.831 147.345 285.281 147.441Z" fill="#6D6D6D" stroke="black" stroke-width="0.00794118"/>
<path d="M288.793 148.43L289.617 148.175C289.617 147.402 289.01 145.726 286.579 145.208C285.578 144.995 284.886 145.11 284.419 145.373C284.787 145.33 285.228 145.351 285.755 145.464C288.185 145.981 288.793 147.657 288.793 148.43Z" fill="#B1B1B1" stroke="black" stroke-width="0.00794118"/>
<path d="M285.756 145.462C288.186 145.98 288.793 147.656 288.793 148.429L288.414 148.348C288.414 147.768 287.882 146.495 285.756 146.042C285.261 145.937 284.852 145.913 284.517 145.945C283.41 146.051 283.097 146.77 283.097 147.215L282.718 147.134C282.718 146.529 283.09 145.529 284.419 145.372C284.787 145.329 285.229 145.35 285.756 145.462Z" fill="#CDCDCD" stroke="black" stroke-width="0.00794118"/>
<path d="M288.913 147.389L288.913 148.25L292.212 148.953L292.212 148.092L288.913 147.389Z" fill="#C3C3C3" stroke="black" stroke-width="0.00794118"/>
<path d="M289.604 147.18L288.914 147.392L292.213 148.095L292.903 147.883L289.604 147.18Z" fill="#DBDBDB"/>
<path d="M292.213 148.957L288.914 148.254L288.224 148.466L291.523 149.169L292.213 148.957Z" fill="#DBDBDB"/>
<path d="M289.604 147.18L288.914 147.392L292.213 148.095L292.903 147.883L289.604 147.18Z" stroke="black" stroke-width="0.00794118"/>
<path d="M292.213 148.957L288.914 148.254L288.224 148.466L291.523 149.169L292.213 148.957Z" stroke="black" stroke-width="0.00794118"/>
<path d="M292.9 139.006V141.928L293.187 141.99V139.068L292.9 139.006Z" fill="#EBEBEB" stroke="black" stroke-width="0.00794118"/>
<path d="M298.788 137.151V140.073L299.075 140.135V137.212L298.788 137.151Z" fill="#EBEBEB" stroke="black" stroke-width="0.00794118"/>
<path d="M304.459 147.797L302.092 148.539L300.908 148.909L296.479 147.966L303.581 145.741L308.01 146.685L306.826 147.055L304.459 147.797Z" fill="#9E9E9E" stroke="black" stroke-width="0.00794118"/>
<path d="M300.908 150.429V148.912L296.479 147.968V149.485L300.908 150.429Z" fill="#7F7F7F" stroke="black" stroke-width="0.00794118"/>
<path d="M304.457 147.797L302.09 148.538L300.906 148.909V150.426L308.008 148.201V146.684L306.824 147.055L304.457 147.797Z" fill="#8F8F8F" stroke="black" stroke-width="0.00794118"/>
<path d="M299.347 150.308L299.059 151.012L300.512 150.557L299.347 150.308Z" fill="#818181" stroke="black" stroke-width="0.00794118"/>
<path d="M302.377 152.375C302.377 151.921 302.076 150.948 300.871 150.692C300.556 150.625 300.303 150.633 300.101 150.689L300.038 150.709C300.059 150.702 300.08 150.695 300.101 150.689L301.586 150.224C301.797 150.15 302.07 150.133 302.418 150.207C303.623 150.464 303.925 151.436 303.925 151.89C303.925 152.212 303.774 152.728 303.259 152.912L301.712 153.396C302.227 153.213 302.377 152.696 302.377 152.375Z" fill="#282828" stroke="#282828" stroke-width="0.18994"/>
<path d="M300.864 150.697C302.069 150.954 302.37 151.926 302.37 152.38C302.37 152.834 302.069 153.679 300.864 153.422C299.659 153.165 299.358 152.192 299.358 151.738C299.358 151.284 299.659 150.44 300.864 150.697Z" fill="#444444" stroke="#444444" stroke-width="0.18994"/>
<mask id="mask1_552_7883" style="mask-type:alpha" maskUnits="userSpaceOnUse" x="299" y="150" width="4" height="4">
<path d="M300.866 151.105C301.713 151.285 301.924 151.967 301.924 152.285C301.924 152.604 301.713 153.196 300.866 153.016C300.02 152.836 299.808 152.154 299.808 151.835C299.808 151.517 300.02 150.925 300.866 151.105Z" fill="#B9B9B9" stroke="#B9B9B9" stroke-width="0.18994"/>
</mask>
<g mask="url(#mask1_552_7883)">
<path d="M300.866 151.105C301.713 151.285 301.924 151.967 301.924 152.285C301.924 152.604 301.713 153.196 300.866 153.016C300.02 152.836 299.808 152.154 299.808 151.835C299.808 151.517 300.02 150.925 300.866 151.105Z" fill="#6E6E6E" stroke="#6E6E6E" stroke-width="0.18994"/>
<path d="M301.043 151.064C301.889 151.244 302.101 151.926 302.101 152.244C302.101 152.563 301.889 153.155 301.043 152.975C300.197 152.795 299.985 152.113 299.985 151.794C299.985 151.476 300.197 150.884 301.043 151.064Z" fill="#D1D1D1" stroke="#D1D1D1" stroke-width="0.18994"/>
</g>
<path d="M301.023 151.683C301.368 151.756 301.454 152.033 301.454 152.163C301.454 152.254 301.411 152.401 301.264 152.454L301.043 152.523C301.19 152.47 301.233 152.323 301.233 152.232C301.233 152.102 301.147 151.825 300.802 151.752C300.712 151.733 300.64 151.736 300.582 151.752L300.785 151.688C300.846 151.667 300.924 151.662 301.023 151.683Z" fill="#282828"/>
<path d="M300.564 151.757L300.785 151.688C300.846 151.667 300.924 151.662 301.023 151.683C301.368 151.756 301.454 152.033 301.454 152.163C301.454 152.254 301.411 152.401 301.264 152.454L301.043 152.523C301.19 152.47 301.233 152.323 301.233 152.232C301.233 152.102 301.147 151.825 300.802 151.752C300.703 151.731 300.625 151.736 300.564 151.757" stroke="#282828" stroke-width="0.18994"/>
<path d="M300.799 151.751C301.142 151.824 301.228 152.1 301.228 152.229C301.228 152.358 301.142 152.597 300.799 152.525C300.455 152.452 300.369 152.176 300.369 152.047C300.369 151.918 300.455 151.678 300.799 151.751Z" fill="#6D6D6D" stroke="#6D6D6D" stroke-width="0.18994"/>
<path d="M309.056 150.32C309.056 149.866 308.755 148.894 307.55 148.637C307.235 148.57 306.982 148.578 306.78 148.634L306.717 148.654C306.738 148.647 306.759 148.64 306.78 148.634L308.265 148.169C308.477 148.096 308.749 148.078 309.097 148.152C310.302 148.409 310.604 149.381 310.604 149.836C310.604 150.157 310.453 150.673 309.938 150.857L308.391 151.342C308.906 151.158 309.056 150.641 309.056 150.32Z" fill="#282828" stroke="#282828" stroke-width="0.18994"/>
<path d="M307.543 148.642C308.748 148.899 309.049 149.871 309.049 150.326C309.049 150.78 308.748 151.624 307.543 151.367C306.338 151.11 306.037 150.138 306.037 149.684C306.037 149.229 306.338 148.385 307.543 148.642Z" fill="#444444" stroke="#444444" stroke-width="0.18994"/>
<mask id="mask2_552_7883" style="mask-type:alpha" maskUnits="userSpaceOnUse" x="306" y="148" width="3" height="4">
<path d="M307.543 149.05C308.389 149.23 308.601 149.912 308.601 150.23C308.601 150.549 308.389 151.141 307.543 150.961C306.696 150.781 306.485 150.099 306.485 149.78C306.485 149.462 306.696 148.87 307.543 149.05Z" fill="#B9B9B9" stroke="#B9B9B9" stroke-width="0.18994"/>
</mask>
<g mask="url(#mask2_552_7883)">
<path d="M307.543 149.05C308.389 149.23 308.601 149.912 308.601 150.23C308.601 150.549 308.389 151.141 307.543 150.961C306.696 150.781 306.485 150.099 306.485 149.78C306.485 149.462 306.696 148.87 307.543 149.05Z" fill="#6E6E6E" stroke="#6E6E6E" stroke-width="0.18994"/>
<path d="M307.72 149.009C308.566 149.189 308.778 149.871 308.778 150.19C308.778 150.508 308.566 151.1 307.72 150.92C306.873 150.74 306.662 150.058 306.662 149.739C306.662 149.421 306.873 148.829 307.72 149.009Z" fill="#D1D1D1" stroke="#D1D1D1" stroke-width="0.18994"/>
</g>
<path d="M305.243 152.968C305.243 152.514 304.942 151.541 303.737 151.284C303.422 151.217 303.169 151.225 302.967 151.282L302.904 151.301C302.924 151.294 302.945 151.288 302.967 151.282L304.451 150.817C304.663 150.743 304.936 150.725 305.284 150.8C306.489 151.056 306.79 152.029 306.79 152.483C306.79 152.804 306.639 153.32 306.125 153.504L304.578 153.989C305.092 153.805 305.243 153.289 305.243 152.968Z" fill="#282828" stroke="#282828" stroke-width="0.18994"/>
<path d="M303.73 151.289C304.935 151.546 305.236 152.519 305.236 152.973C305.236 153.427 304.935 154.271 303.73 154.014C302.525 153.758 302.223 152.785 302.223 152.331C302.223 151.877 302.525 151.033 303.73 151.289Z" fill="#444444" stroke="#444444" stroke-width="0.18994"/>
<mask id="mask3_552_7883" style="mask-type:alpha" maskUnits="userSpaceOnUse" x="302" y="151" width="3" height="3">
<path d="M303.731 151.692C304.577 151.872 304.789 152.554 304.789 152.873C304.789 153.191 304.577 153.783 303.731 153.603C302.885 153.423 302.673 152.741 302.673 152.422C302.673 152.104 302.885 151.512 303.731 151.692Z" fill="#B9B9B9" stroke="#B9B9B9" stroke-width="0.18994"/>
</mask>
<g mask="url(#mask3_552_7883)">
<path d="M303.731 151.692C304.577 151.872 304.789 152.554 304.789 152.873C304.789 153.191 304.577 153.783 303.731 153.603C302.885 153.423 302.673 152.741 302.673 152.422C302.673 152.104 302.885 151.512 303.731 151.692Z" fill="#6E6E6E" stroke="#6E6E6E" stroke-width="0.18994"/>
<path d="M303.908 151.651C304.754 151.831 304.966 152.513 304.966 152.832C304.966 153.15 304.754 153.742 303.908 153.562C303.062 153.382 302.85 152.7 302.85 152.381C302.85 152.063 303.062 151.471 303.908 151.651Z" fill="#D1D1D1" stroke="#D1D1D1" stroke-width="0.18994"/>
</g>
<path d="M303.889 152.276C304.233 152.349 304.319 152.626 304.319 152.755C304.319 152.847 304.276 152.994 304.129 153.046L303.908 153.115C304.055 153.063 304.098 152.916 304.098 152.824C304.098 152.695 304.012 152.418 303.668 152.345C303.578 152.326 303.506 152.328 303.448 152.344L303.651 152.281C303.712 152.26 303.789 152.255 303.889 152.276Z" fill="#282828"/>
<path d="M303.43 152.35L303.651 152.281C303.712 152.26 303.789 152.255 303.889 152.276C304.233 152.349 304.319 152.626 304.319 152.755C304.319 152.847 304.276 152.994 304.129 153.046L303.908 153.115C304.055 153.063 304.098 152.916 304.098 152.824C304.098 152.695 304.012 152.418 303.668 152.345C303.568 152.324 303.49 152.329 303.43 152.35" stroke="#282828" stroke-width="0.18994"/>
<path d="M303.664 152.344C304.008 152.417 304.094 152.693 304.094 152.822C304.094 152.951 304.008 153.19 303.664 153.117C303.321 153.044 303.235 152.768 303.235 152.639C303.235 152.511 303.321 152.271 303.664 152.344Z" fill="#6D6D6D" stroke="#6D6D6D" stroke-width="0.18994"/>
<path d="M311.927 150.912C311.927 150.457 311.626 149.485 310.421 149.228C310.106 149.161 309.853 149.169 309.651 149.226L309.588 149.245C309.608 149.238 309.629 149.232 309.651 149.226L311.135 148.761C311.347 148.687 311.62 148.669 311.968 148.743C313.173 149 313.474 149.973 313.474 150.427C313.474 150.748 313.324 151.264 312.809 151.448L311.262 151.933C311.776 151.749 311.927 151.233 311.927 150.912Z" fill="#282828" stroke="#282828" stroke-width="0.18994"/>
<path d="M310.414 149.233C311.619 149.49 311.92 150.463 311.92 150.917C311.92 151.371 311.619 152.215 310.414 151.958C309.209 151.702 308.908 150.729 308.908 150.275C308.908 149.821 309.209 148.977 310.414 149.233Z" fill="#444444" stroke="#444444" stroke-width="0.18994"/>
<mask id="mask4_552_7883" style="mask-type:alpha" maskUnits="userSpaceOnUse" x="309" y="149" width="3" height="3">
<path d="M310.414 149.635C311.26 149.815 311.472 150.497 311.472 150.816C311.472 151.134 311.26 151.726 310.414 151.546C309.567 151.366 309.356 150.684 309.356 150.366C309.356 150.047 309.567 149.455 310.414 149.635Z" fill="#B9B9B9" stroke="#B9B9B9" stroke-width="0.18994"/>
</mask>
<g mask="url(#mask4_552_7883)">
<path d="M310.414 149.635C311.26 149.815 311.472 150.497 311.472 150.816C311.472 151.134 311.26 151.726 310.414 151.546C309.567 151.366 309.356 150.684 309.356 150.366C309.356 150.047 309.567 149.455 310.414 149.635Z" fill="#6E6E6E" stroke="#6E6E6E" stroke-width="0.18994"/>
<path d="M310.591 149.594C311.437 149.774 311.649 150.456 311.649 150.775C311.649 151.093 311.437 151.685 310.591 151.505C309.744 151.325 309.533 150.643 309.533 150.325C309.533 150.006 309.744 149.414 310.591 149.594Z" fill="#D1D1D1" stroke="#D1D1D1" stroke-width="0.18994"/>
</g>
<path d="M299.345 150.308L308.813 147.342L314.718 148.6L315.12 149.451L305.652 152.417L305.25 151.567L300.51 150.557L299.345 150.308Z" fill="#9E9E9E"/>
<path d="M305.25 151.567L314.718 148.6M305.25 151.567L305.652 152.417L315.12 149.451L314.718 148.6M305.25 151.567L300.51 150.557L299.345 150.308L308.813 147.342L314.718 148.6" stroke="black" stroke-width="0.00794118"/>
<path d="M314.724 148.603L305.255 151.569L305.657 152.42L315.126 149.453L314.724 148.603Z" fill="#ABABAB" stroke="black" stroke-width="0.00794118"/>
<path d="M321.417 151.71L311.948 154.677V153.832V152.987L321.417 150.021V151.71Z" fill="#D9D9D9" stroke="black" stroke-width="0.00794118"/>
<path d="M306.263 151.779L306.142 151.754V151.89V153.443L306.263 153.469L311.939 154.678V152.989L306.263 151.779Z" fill="#ACACAC"/>
<path d="M306.263 151.916V153.364M306.142 151.754L306.263 151.779L311.939 152.989V154.678L306.263 153.469L306.142 153.443V151.89V151.754Z" stroke="black" stroke-width="0.00794118"/>
<path d="M306.26 153.36V151.912L309.415 152.585V154.032L306.26 153.36Z" fill="#CCCCCC" stroke="black" stroke-width="0.00794118"/>
<path d="M309.421 152.588V154.036L311.862 153.271V153.11L309.421 152.588Z" fill="#7D7D7D" stroke="black" stroke-width="0.00794118"/>
<path d="M311.862 154.555L309.421 154.034L311.862 153.269V154.555Z" fill="#8D8D8D" stroke="black" stroke-width="0.00794118"/>
<path d="M317.291 154.956C317.291 154.502 316.99 153.529 315.785 153.273C315.471 153.206 315.218 153.214 315.015 153.27L314.952 153.29C314.973 153.283 314.994 153.276 315.015 153.27L316.5 152.805C316.712 152.731 316.984 152.714 317.332 152.788C318.537 153.045 318.839 154.017 318.839 154.471C318.839 154.793 318.688 155.309 318.174 155.493L316.626 155.977C317.141 155.794 317.291 155.277 317.291 154.956Z" fill="#282828" stroke="#282828" stroke-width="0.18994"/>
<path d="M315.778 153.278C316.983 153.535 317.284 154.507 317.284 154.961C317.284 155.415 316.983 156.26 315.778 156.003C314.573 155.746 314.272 154.774 314.272 154.319C314.272 153.865 314.573 153.021 315.778 153.278Z" fill="#444444" stroke="#444444" stroke-width="0.18994"/>
<mask id="mask5_552_7883" style="mask-type:alpha" maskUnits="userSpaceOnUse" x="314" y="153" width="3" height="3">
<path d="M315.78 153.683C316.626 153.863 316.838 154.545 316.838 154.863C316.838 155.182 316.626 155.774 315.78 155.594C314.934 155.414 314.722 154.732 314.722 154.413C314.722 154.095 314.934 153.503 315.78 153.683Z" fill="#B9B9B9" stroke="#B9B9B9" stroke-width="0.18994"/>
</mask>
<g mask="url(#mask5_552_7883)">
<path d="M315.78 153.683C316.626 153.863 316.838 154.545 316.838 154.863C316.838 155.182 316.626 155.774 315.78 155.594C314.934 155.414 314.722 154.732 314.722 154.413C314.722 154.095 314.934 153.503 315.78 153.683Z" fill="#6E6E6E" stroke="#6E6E6E" stroke-width="0.18994"/>
<path d="M315.957 153.642C316.803 153.822 317.015 154.504 317.015 154.822C317.015 155.141 316.803 155.733 315.957 155.553C315.111 155.373 314.899 154.691 314.899 154.372C314.899 154.054 315.111 153.462 315.957 153.642Z" fill="#D1D1D1" stroke="#D1D1D1" stroke-width="0.18994"/>
</g>
<path d="M315.938 154.264C316.282 154.337 316.368 154.614 316.368 154.744C316.368 154.835 316.325 154.982 316.178 155.035L315.957 155.104C316.104 155.051 316.147 154.904 316.147 154.813C316.147 154.683 316.061 154.406 315.716 154.333C315.627 154.314 315.554 154.317 315.497 154.333L315.7 154.269C315.76 154.248 315.838 154.243 315.938 154.264Z" fill="#282828"/>
<path d="M315.479 154.338L315.7 154.269C315.76 154.248 315.838 154.243 315.938 154.264C316.282 154.337 316.368 154.614 316.368 154.744C316.368 154.835 316.325 154.982 316.178 155.035L315.957 155.104C316.104 155.051 316.147 154.904 316.147 154.813C316.147 154.683 316.061 154.406 315.716 154.333C315.617 154.312 315.539 154.317 315.479 154.338" stroke="#282828" stroke-width="0.18994"/>
<path d="M315.713 154.332C316.057 154.405 316.142 154.681 316.142 154.81C316.142 154.939 316.057 155.178 315.713 155.106C315.369 155.033 315.283 154.757 315.283 154.628C315.283 154.499 315.369 154.259 315.713 154.332Z" fill="#6D6D6D" stroke="#6D6D6D" stroke-width="0.18994"/>
<path d="M323.971 152.896C323.971 152.442 323.669 151.469 322.464 151.213C322.15 151.146 321.897 151.154 321.694 151.21L321.631 151.23C321.652 151.223 321.673 151.216 321.694 151.21L323.179 150.745C323.391 150.672 323.663 150.654 324.012 150.728C325.217 150.985 325.518 151.957 325.518 152.411C325.518 152.733 325.367 153.249 324.853 153.433L323.305 153.918C323.82 153.734 323.971 153.217 323.971 152.896Z" fill="#282828" stroke="#282828" stroke-width="0.18994"/>
<path d="M322.457 151.218C323.662 151.475 323.963 152.447 323.963 152.901C323.963 153.356 323.662 154.2 322.457 153.943C321.252 153.686 320.951 152.714 320.951 152.259C320.951 151.805 321.252 150.961 322.457 151.218Z" fill="#444444" stroke="#444444" stroke-width="0.18994"/>
<mask id="mask6_552_7883" style="mask-type:alpha" maskUnits="userSpaceOnUse" x="321" y="151" width="3" height="3">
<path d="M322.457 151.622C323.303 151.802 323.515 152.484 323.515 152.803C323.515 153.121 323.303 153.713 322.457 153.533C321.611 153.353 321.399 152.671 321.399 152.352C321.399 152.034 321.611 151.442 322.457 151.622Z" fill="#B9B9B9" stroke="#B9B9B9" stroke-width="0.18994"/>
</mask>
<g mask="url(#mask6_552_7883)">
<path d="M322.457 151.622C323.303 151.802 323.515 152.484 323.515 152.803C323.515 153.121 323.303 153.713 322.457 153.533C321.611 153.353 321.399 152.671 321.399 152.352C321.399 152.034 321.611 151.442 322.457 151.622Z" fill="#6E6E6E" stroke="#6E6E6E" stroke-width="0.18994"/>
<path d="M322.634 151.581C323.48 151.761 323.692 152.443 323.692 152.762C323.692 153.08 323.48 153.672 322.634 153.492C321.787 153.312 321.576 152.63 321.576 152.312C321.576 151.993 321.787 151.401 322.634 151.581Z" fill="#D1D1D1" stroke="#D1D1D1" stroke-width="0.18994"/>
</g>
<path d="M320.161 155.545C320.161 155.091 319.86 154.118 318.655 153.861C318.34 153.794 318.087 153.802 317.885 153.859L317.822 153.879C317.842 153.871 317.863 153.865 317.885 153.859L319.369 153.394C319.581 153.32 319.854 153.302 320.202 153.377C321.407 153.633 321.708 154.606 321.708 155.06C321.708 155.381 321.557 155.898 321.043 156.081L319.496 156.566C320.01 156.382 320.161 155.866 320.161 155.545Z" fill="#282828" stroke="#282828" stroke-width="0.18994"/>
<path d="M318.648 153.867C319.853 154.123 320.154 155.096 320.154 155.55C320.154 156.004 319.853 156.848 318.648 156.591C317.443 156.335 317.141 155.362 317.141 154.908C317.141 154.454 317.443 153.61 318.648 153.867Z" fill="#444444" stroke="#444444" stroke-width="0.18994"/>
<mask id="mask7_552_7883" style="mask-type:alpha" maskUnits="userSpaceOnUse" x="317" y="154" width="3" height="3">
<path d="M318.65 154.271C319.497 154.451 319.708 155.133 319.708 155.452C319.708 155.77 319.497 156.362 318.65 156.182C317.804 156.002 317.592 155.32 317.592 155.002C317.592 154.683 317.804 154.091 318.65 154.271Z" fill="#B9B9B9" stroke="#B9B9B9" stroke-width="0.18994"/>
</mask>
<g mask="url(#mask7_552_7883)">
<path d="M318.65 154.271C319.497 154.451 319.708 155.133 319.708 155.452C319.708 155.77 319.497 156.362 318.65 156.182C317.804 156.002 317.592 155.32 317.592 155.002C317.592 154.683 317.804 154.091 318.65 154.271Z" fill="#6E6E6E" stroke="#6E6E6E" stroke-width="0.18994"/>
<path d="M318.827 154.23C319.673 154.41 319.885 155.092 319.885 155.411C319.885 155.729 319.673 156.321 318.827 156.141C317.981 155.961 317.769 155.279 317.769 154.961C317.769 154.642 317.981 154.05 318.827 154.23Z" fill="#D1D1D1" stroke="#D1D1D1" stroke-width="0.18994"/>
</g>
<path d="M318.807 154.853C319.151 154.926 319.237 155.203 319.237 155.332C319.237 155.424 319.194 155.571 319.047 155.623L318.826 155.692C318.973 155.64 319.016 155.493 319.016 155.401C319.016 155.272 318.93 154.995 318.586 154.922C318.496 154.903 318.424 154.905 318.366 154.921L318.569 154.858C318.63 154.837 318.707 154.832 318.807 154.853Z" fill="#282828"/>
<path d="M318.348 154.927L318.569 154.858C318.63 154.837 318.707 154.832 318.807 154.853C319.151 154.926 319.237 155.203 319.237 155.332C319.237 155.424 319.194 155.571 319.047 155.623L318.826 155.692C318.973 155.64 319.016 155.493 319.016 155.401C319.016 155.272 318.93 154.995 318.586 154.922C318.486 154.901 318.408 154.906 318.348 154.927" stroke="#282828" stroke-width="0.18994"/>
<path d="M318.582 154.921C318.926 154.994 319.012 155.27 319.012 155.399C319.012 155.528 318.926 155.767 318.582 155.694C318.239 155.621 318.153 155.345 318.153 155.217C318.153 155.088 318.239 154.848 318.582 154.921Z" fill="#6D6D6D" stroke="#6D6D6D" stroke-width="0.18994"/>
<path d="M326.844 153.48C326.844 153.025 326.543 152.053 325.338 151.796C325.023 151.729 324.77 151.737 324.568 151.794L324.505 151.813C324.525 151.806 324.546 151.8 324.568 151.794L326.052 151.329C326.264 151.255 326.537 151.237 326.885 151.312C328.09 151.568 328.391 152.541 328.391 152.995C328.391 153.316 328.24 153.832 327.726 154.016L326.179 154.501C326.693 154.317 326.844 153.801 326.844 153.48Z" fill="#282828" stroke="#282828" stroke-width="0.18994"/>
<path d="M325.331 151.801C326.536 152.058 326.837 153.031 326.837 153.485C326.837 153.939 326.536 154.783 325.331 154.526C324.126 154.27 323.824 153.297 323.824 152.843C323.824 152.389 324.126 151.545 325.331 151.801Z" fill="#444444" stroke="#444444" stroke-width="0.18994"/>
<mask id="mask8_552_7883" style="mask-type:alpha" maskUnits="userSpaceOnUse" x="324" y="152" width="3" height="3">
<path d="M325.331 152.205C326.177 152.385 326.389 153.067 326.389 153.385C326.389 153.704 326.177 154.296 325.331 154.116C324.485 153.936 324.273 153.254 324.273 152.935C324.273 152.617 324.485 152.025 325.331 152.205Z" fill="#B9B9B9" stroke="#B9B9B9" stroke-width="0.18994"/>
</mask>
<g mask="url(#mask8_552_7883)">
<path d="M325.331 152.205C326.177 152.385 326.389 153.067 326.389 153.385C326.389 153.704 326.177 154.296 325.331 154.116C324.485 153.936 324.273 153.254 324.273 152.935C324.273 152.617 324.485 152.025 325.331 152.205Z" fill="#6E6E6E" stroke="#6E6E6E" stroke-width="0.18994"/>
<path d="M325.508 152.164C326.354 152.344 326.566 153.026 326.566 153.344C326.566 153.663 326.354 154.255 325.508 154.075C324.661 153.895 324.45 153.213 324.45 152.894C324.45 152.576 324.661 151.984 325.508 152.164Z" fill="#D1D1D1" stroke="#D1D1D1" stroke-width="0.18994"/>
</g>
<path d="M311.545 147.591L302.076 150.557L319.866 154.349L329.335 151.382L311.545 147.591Z" fill="#D9D9D9" stroke="black" stroke-width="0.00794118"/>
<path d="M319.185 154.522L319.867 154.667V155.348L319.526 155.275L319.185 154.862V154.522Z" fill="#BCBCBC" stroke="black" stroke-width="0.00794118"/>
<path d="M319.866 154.666L319.747 154.641L302.195 150.909L302.076 150.884V150.803V150.642V150.553L319.747 154.319L319.866 154.344V154.425V154.505V154.586V154.666Z" fill="#BCBCBC" stroke="black" stroke-width="0.00794118"/>
<path d="M319.746 154.403L302.194 150.671V150.832L302.359 150.867L319.746 154.564V154.403Z" fill="#838383" stroke="black" stroke-width="0.00794118"/>
<path d="M319.634 154.033L303.296 150.552L303.764 150.405L304.233 150.258L304.701 150.111L305.169 149.965L321.507 153.447L321.039 153.593L320.571 153.74L320.102 153.887L319.634 154.033Z" fill="#BCBCBC"/>
<path d="M311.777 147.895L328.115 151.377L327.647 151.523L327.178 151.67L326.71 151.817L326.242 151.964L309.904 148.482L310.372 148.335L310.84 148.188L311.308 148.042L311.777 147.895Z" fill="#BCBCBC"/>
<path d="M309.41 148.636L325.748 152.118L325.279 152.265L324.811 152.412L324.343 152.558L323.874 152.705L323.406 152.852L322.938 152.998L322.47 153.145L322.001 153.292L305.663 149.81L306.131 149.663L306.6 149.517L307.068 149.37L307.536 149.223L308.005 149.076L308.473 148.93L308.941 148.783L309.41 148.636Z" fill="#BCBCBC"/>
<path d="M304.233 150.258L320.571 153.74M304.233 150.258L304.701 150.111M304.233 150.258L303.764 150.405M320.571 153.74L321.039 153.593M320.571 153.74L320.102 153.887M321.039 153.593L321.507 153.447L305.169 149.965L304.701 150.111M321.039 153.593L304.701 150.111M303.764 150.405L303.296 150.552L319.634 154.033L320.102 153.887M303.764 150.405L320.102 153.887M327.178 151.67L310.84 148.188M327.178 151.67L326.71 151.817M327.178 151.67L327.647 151.523M310.84 148.188L310.372 148.335M310.84 148.188L311.308 148.042M310.372 148.335L309.904 148.482L326.242 151.964L326.71 151.817M310.372 148.335L326.71 151.817M327.647 151.523L328.115 151.377L311.777 147.895L311.308 148.042M327.647 151.523L311.308 148.042M307.536 149.223L323.874 152.705M307.536 149.223L307.068 149.37M307.536 149.223L308.005 149.076M323.874 152.705L323.406 152.852M323.874 152.705L324.343 152.558M324.811 152.412L308.473 148.93M324.811 152.412L324.343 152.558M324.811 152.412L325.279 152.265M308.473 148.93L308.005 149.076M308.473 148.93L308.941 148.783M306.6 149.517L322.938 152.998M306.6 149.517L306.131 149.663M306.6 149.517L307.068 149.37M322.938 152.998L322.47 153.145M322.938 152.998L323.406 152.852M322.47 153.145L322.001 153.292L305.663 149.81L306.131 149.663M322.47 153.145L306.131 149.663M307.068 149.37L323.406 152.852M324.343 152.558L308.005 149.076M308.941 148.783L309.41 148.636L325.748 152.118L325.279 152.265M308.941 148.783L325.279 152.265" stroke="#838383" stroke-width="0.018994"/>
<path d="M319.866 154.667V154.345L320.36 154.19L322.233 153.603L322.727 153.448L326.473 152.275L326.967 152.12L328.84 151.533L329.334 151.378V151.7V153.025V153.687V154.018V154.349L326.134 155.351V155.02V154.689V154.027V152.703L323.066 153.664V154.988V155.65V155.981V156.312L319.866 157.315V156.984V156.653V155.991V154.667Z" fill="#E3E3E3"/>
<path d="M319.866 154.667V154.345L320.36 154.19L322.233 153.603L322.727 153.448L326.473 152.275L326.967 152.12L328.84 151.533L329.334 151.378V151.7M319.866 154.667L323.066 153.664M319.866 154.667V155.991V156.653V156.984M329.334 151.7L326.134 152.703M329.334 151.7V153.025V153.687V154.018M326.134 152.703L323.066 153.664M326.134 152.703V154.027V154.689V155.02M323.066 153.664V154.988V155.65V155.981M323.066 155.981V156.312L319.866 157.315V156.984M323.066 155.981L319.866 156.984M326.134 155.02V155.351L329.334 154.349V154.018M326.134 155.02L329.334 154.018" stroke="black" stroke-width="0.00794118"/>
<path d="M319.866 157.315L323.066 156.313V155.982L319.866 156.984V157.315Z" fill="#BCBCBC"/>
<path d="M326.134 155.352L329.334 154.349V154.018L326.134 155.021V155.352Z" fill="#BCBCBC"/>
<path d="M319.866 157.315L323.066 156.313V155.982L319.866 156.984V157.315Z" stroke="black" stroke-width="0.00794118"/>
<path d="M326.134 155.352L329.334 154.349V154.018L326.134 155.021V155.352Z" stroke="black" stroke-width="0.00794118"/>
<path d="M266.02 57.023V68.8389L219.22 72.6476L172.42 76.4564L170.23 76.4294V64.6134L217.03 60.8047L263.83 56.9959L266.02 57.023Z" fill="#D9D9D9"/>
<path d="M266.02 57.023V68.8389L219.22 72.6476L172.42 76.4564M266.02 57.023L263.83 56.9959L217.03 60.8047L170.23 64.6134M266.02 57.023L219.22 60.8317L172.42 64.6405M172.42 64.6405L170.23 64.6134M172.42 64.6405V76.4564M170.23 64.6134V76.4294L172.42 76.4564" stroke="black" stroke-width="0.0952187"/>
<path d="M257.972 214.217H254.116V65.7591L256.973 65.4735H260.829V213.931L257.972 214.217Z" fill="#A6A6A6"/>
<path d="M254.116 65.7591H257.972M254.116 65.7591L254.116 214.217H257.972M254.116 65.7591L256.973 65.4735H260.829M257.972 214.217V65.7591M257.972 214.217L260.829 213.931V65.4735M257.972 65.7591L260.829 65.4735" stroke="black" stroke-width="0.0952187"/>
<path d="M257.976 214.217V65.7591L260.833 65.4735V213.931L257.976 214.217Z" fill="#D9D9D9" stroke="black" stroke-width="0.0952187"/>
<path d="M170.752 213.642H166.896V43.8555L169.753 43.5698H173.609V213.357L170.752 213.642Z" fill="#D9D9D9"/>
<path d="M166.896 43.8555H170.752M166.896 43.8555V213.642H170.752M166.896 43.8555L169.753 43.5698H173.609M170.752 213.642V43.8555M170.752 213.642L173.609 213.357V43.5698M170.752 43.8555L173.609 43.5698" stroke="black" stroke-width="0.0952187"/>
<path d="M172.611 76.7042V136.201L219.554 136.597L254.118 136.887V77.3902L219.554 77.0997L172.611 76.7042Z" fill="#7C7C7C" stroke="black" stroke-width="0.0952187"/>
<path d="M170.752 213.642H166.896V43.8556H170.752V213.642Z" fill="#A6A6A6" stroke="black" stroke-width="0.0952187"/>
<path d="M96.768 212.877H92.9116V72.2272L95.7682 71.9416H99.6245V212.591L96.768 212.877Z" fill="#D9D9D9"/>
<path d="M92.9116 72.2272H96.768M92.9116 72.2272L92.9116 212.877H96.768M92.9116 72.2272L95.7682 71.9416H99.6245M96.768 212.877V72.2272M96.768 212.877L99.6245 212.591V71.9416M96.768 72.2272L99.6245 71.9416" stroke="black" stroke-width="0.0952187"/>
<path d="M96.768 212.88H92.9116V74.2774H96.768V212.88Z" fill="#A6A6A6"/>
<path d="M92.9116 74.2774H96.768V212.88H92.9116V74.2774ZM92.9116 74.2774L95.7682 73.9918" stroke="black" stroke-width="0.0952187"/>
<path d="M216.51 194.511V203.895L212.701 203.864V194.479L216.51 194.511Z" fill="#484848" stroke="black" stroke-width="0.0952187"/>
<path d="M216.506 194.512V203.864L258.016 200.571V191.218L216.506 194.512Z" fill="#9B9B9B" stroke="black" stroke-width="0.0952187"/>
<path d="M256.927 190.964L212.596 194.534L216.459 194.566L260.789 190.996L256.927 190.964Z" fill="#727272" stroke="black" stroke-width="0.0952187"/>
<path d="M126.622 194.426V203.81L122.813 203.779V194.395L126.622 194.426Z" fill="#484848" stroke="black" stroke-width="0.0952187"/>
<path d="M126.619 194.427V203.779L170.753 200.277V190.925L126.619 194.427Z" fill="#9B9B9B" stroke="black" stroke-width="0.0952187"/>
<path d="M167.039 190.88L122.709 194.449L126.571 194.481L170.901 190.912L167.039 190.88Z" fill="#727272" stroke="black" stroke-width="0.0952187"/>
<path d="M52.6375 193.664V203.048L48.8287 203.016V193.632L52.6375 193.664Z" fill="#484848" stroke="black" stroke-width="0.0952187"/>
<path d="M52.6343 193.664V203.017L96.7681 199.515V190.162L52.6343 193.664Z" fill="#9B9B9B" stroke="black" stroke-width="0.0952187"/>
<path d="M93.0546 190.117L48.7244 193.686L52.5866 193.718L96.9169 190.149L93.0546 190.117Z" fill="#727272" stroke="black" stroke-width="0.0952187"/>
<path d="M60.3456 170.498L308.622 172.556V192.016L60.3455 189.957L60.3456 170.498Z" fill="#767676" stroke="black" stroke-width="0.0952187"/>
<path d="M308.62 192.016V172.557L309.578 172.48V191.939L308.62 192.016Z" fill="#616161" stroke="black" stroke-width="0.0952187"/>
<path d="M50.0613 171.26L298.338 173.318V192.778L50.0612 190.719L50.0613 171.26Z" fill="#767676" stroke="black" stroke-width="0.0952187"/>
<path d="M298.336 192.779V173.319L299.294 173.242V192.702L298.336 192.779Z" fill="#616161" stroke="black" stroke-width="0.0952187"/>
<path d="M288.053 193.635V174.175L50.0122 172.202V191.661L288.053 193.635Z" fill="#767676" stroke="black" stroke-width="0.0952187"/>
<path d="M288.054 193.634V174.175L289.012 174.098V193.557L288.054 193.634Z" fill="#616161" stroke="black" stroke-width="0.0952187"/>
<path d="M278.15 194.396V174.937L50.0122 173.045V192.505L278.15 194.396Z" fill="#767676" stroke="black" stroke-width="0.0952187"/>
<path d="M278.148 194.396V174.937L279.106 174.859V194.319L278.148 194.396Z" fill="#616161" stroke="black" stroke-width="0.0952187"/>
<path d="M265.2 195.446V175.986L50.0122 174.202V193.662L265.2 195.446Z" fill="#767676" stroke="black" stroke-width="0.0952187"/>
<path d="M265.202 195.444V175.985L266.16 175.908V195.367L265.202 195.444Z" fill="#616161" stroke="black" stroke-width="0.0952187"/>
<path d="M52.6333 171.531V174.259L265.304 176.022V173.294L52.6333 171.531Z" fill="#616161" stroke="black" stroke-width="0.0952187"/>
<path d="M265.261 176.032V173.304L309.591 169.735V172.464L265.261 176.032Z" fill="#535353" stroke="black" stroke-width="0.0952187"/>
<path d="M96.9635 167.961L52.6333 171.53L176.772 172.56L229.692 172.998L265.301 173.294L309.628 169.734L283.171 169.505L221.102 168.99L96.9635 167.961Z" fill="#888888" stroke="black" stroke-width="0.0952187"/>
<path d="M52.6333 171.532L126.666 172.147V80.4214L52.6333 79.8068V171.532Z" fill="#CCCCCC" stroke="black" stroke-width="0.0952187"/>
<path d="M126.667 172.144V80.4191L143.569 80.5834L148.711 80.6333L154.567 80.6903L170.754 80.8476V168.573L154.567 169.884L148.711 170.359L143.569 170.775L126.667 172.144Z" fill="#9B9B9B"/>
<path d="M148.711 80.6333V170.359M148.711 80.6333L154.567 80.6903M148.711 80.6333L143.569 80.5834M148.711 170.359L154.567 169.884M148.711 170.359L143.569 170.775M154.567 169.884L170.754 168.573V80.8476L154.567 80.6903M154.567 169.884V80.6903M143.569 80.5834L126.667 80.4191V172.144L143.569 170.775M143.569 80.5834V170.775" stroke="black" stroke-width="0.0952187"/>
<path d="M170.754 80.8476V168.573L159.732 169.466V80.7405L170.754 80.8476Z" fill="#474747"/>
<path d="M137.689 171.252L126.667 172.144V171.252V80.4191L137.689 80.5262V171.252Z" fill="#474747"/>
<path d="M137.689 171.252L126.667 172.144V171.252M137.689 171.252V80.5262L126.667 80.4191V171.252M137.689 171.252H126.667M170.754 168.573V80.8476L159.732 80.7405V169.466L170.754 168.573Z" stroke="black" stroke-width="0.0952187"/>
<path d="M159.756 146.311L137.808 148.073L146.496 148.146L168.444 146.385L159.756 146.311Z" fill="#AEAEAE"/>
<path d="M227.694 167.853L168.444 167.355L146.496 169.116L155.185 169.189L205.746 169.615L227.694 167.853Z" fill="#AEAEAE"/>
<path d="M159.756 146.311L137.808 148.073L146.496 148.146L168.444 146.385L159.756 146.311Z" stroke="black" stroke-width="0.0952187"/>
<path d="M227.694 167.853L168.444 167.355L146.496 169.116L155.185 169.189L205.746 169.615L227.694 167.853Z" stroke="black" stroke-width="0.0952187"/>
<path d="M227.696 170.116L205.748 171.877V169.614L227.696 167.853V170.116Z" fill="#C1C1C1"/>
<path d="M168.446 146.384L146.498 148.146V169.116L168.446 167.354V146.384Z" fill="#C1C1C1"/>
<path d="M227.696 170.116L205.748 171.877V169.614L227.696 167.853V170.116Z" stroke="black" stroke-width="0.0952187"/>
<path d="M168.446 146.384L146.498 148.146V169.116L168.446 167.354V146.384Z" stroke="black" stroke-width="0.0952187"/>
<path d="M227.696 155.904L168.446 155.406L146.498 157.167L205.748 157.666L227.696 155.904Z" fill="#E9E9E9" stroke="black" stroke-width="0.0952187"/>
<path d="M227.694 167.855L205.746 169.616V157.666L227.694 155.905V167.855Z" fill="#D1D1D1" stroke="black" stroke-width="0.0952187"/>
<path d="M205.748 157.664L146.498 157.166V169.116L205.748 169.614V157.664Z" fill="#C4C4C4" stroke="black" stroke-width="0.0952187"/>
<path d="M137.808 171.305V148.071L146.496 148.144V169.115L155.185 169.188L205.746 169.613V171.876L155.185 171.451L146.496 171.378L137.808 171.305Z" fill="#9E9E9E" stroke="black" stroke-width="0.0952187"/>
<path d="M159.732 80.7405L170.754 80.8476V135.121C167.08 134.543 159.732 122.857 159.732 80.7405Z" fill="#706E6E"/>
<path d="M126.667 80.4191L137.689 80.5262C137.689 121.786 130.341 137.415 126.667 140.072V80.4191Z" fill="#706E6E"/>
<path d="M159.732 80.7405L170.754 80.8476V135.121C167.08 134.543 159.732 122.857 159.732 80.7405Z" stroke="black" stroke-width="0.0952187"/>
<path d="M126.667 80.4191L137.689 80.5262C137.689 121.786 130.341 137.415 126.667 140.072V80.4191Z" stroke="black" stroke-width="0.0952187"/>
<path d="M137.689 171.254L126.667 172.147V171.254H137.689Z" fill="#1C1C1C" stroke="black" stroke-width="0.0952187"/>
<path d="M49.8264 216.689H45.9701V67.8501L48.8267 67.5645H52.683V216.403L49.8264 216.689Z" fill="#D9D9D9"/>
<path d="M45.9701 67.8501H49.8264M45.9701 67.8501V216.689H49.8264M45.9701 67.8501L48.8267 67.5645H52.683M49.8264 216.689V67.8501M49.8264 216.689L52.683 216.403V67.5645M49.8264 67.8501L52.683 67.5645" stroke="black" stroke-width="0.0952187"/>
<path d="M67.2514 171.671L65.5851 171.67V79.9446H67.2514L68.9177 79.9457V171.672L67.2514 171.671Z" fill="#9E9E9E"/>
<path d="M67.2514 171.671V79.9446M67.2514 171.671L65.5851 171.67V79.9446H67.2514M67.2514 171.671L68.9177 171.672V79.9457L67.2514 79.9446" stroke="black" stroke-width="0.0952187"/>
<path d="M67.2498 79.9446V171.671L68.9161 171.672V79.9457L67.2498 79.9446Z" fill="#B3B2B2" stroke="black" stroke-width="0.0952187"/>
<path d="M85.8206 171.764L84.1543 171.763V80.0375H85.8206L87.4869 80.0386V171.765L85.8206 171.764Z" fill="#9E9E9E"/>
<path d="M85.8206 171.764V80.0375M85.8206 171.764L84.1543 171.763V80.0375H85.8206M85.8206 171.764L87.4869 171.765V80.0386L85.8206 80.0375" stroke="black" stroke-width="0.0952187"/>
<path d="M85.819 80.0375V171.764L87.4853 171.765V80.0386L85.819 80.0375Z" fill="#B3B2B2" stroke="black" stroke-width="0.0952187"/>
<path d="M102.579 171.953L100.913 171.952V80.2271H102.579L104.245 80.2282V171.955L102.579 171.953Z" fill="#9E9E9E"/>
<path d="M102.579 171.953V80.2271M102.579 171.953L100.913 171.952V80.2271H102.579M102.579 171.953L104.245 171.955V80.2282L102.579 80.2271" stroke="black" stroke-width="0.0952187"/>
<path d="M102.577 80.2271V171.953L104.244 171.955V80.2282L102.577 80.2271Z" fill="#B3B2B2" stroke="black" stroke-width="0.0952187"/>
<path d="M49.8264 216.689H45.9701V67.8502H49.8264V216.689Z" fill="#C2C2C2" stroke="black" stroke-width="0.0952187"/>
<path d="M123.81 68.4239L49.8256 67.8013L94.1498 64.2306L260.783 65.421L213.887 69.1819L170.753 68.8193L123.81 68.4239Z" fill="#8E8E8E"/>
<path d="M213.887 69.1819L170.753 68.8193L123.81 68.4239L49.8256 67.8013L94.1499 64.2306L260.783 65.421L213.887 69.1821" stroke="black" stroke-width="0.0952187"/>
<path d="M260.783 65.4236L213.887 69.1846V81.1345L260.783 77.3734V65.4236Z" fill="#616161" stroke="black" stroke-width="0.0952187"/>
<path d="M123.811 217.448H119.954V47.661L122.811 47.3754H126.667V217.162L123.811 217.448Z" fill="#D9D9D9"/>
<path d="M119.954 47.661H123.811M119.954 47.661V217.448H123.811M119.954 47.661L122.811 47.3754H126.667M123.811 217.448V47.661M123.811 217.448L126.667 217.162V47.3754M123.811 47.661L126.667 47.3754" stroke="black" stroke-width="0.0952187"/>
<path d="M123.811 217.452H119.954V47.6657H123.811V217.452Z" fill="#C2C2C2" stroke="black" stroke-width="0.0952187"/>
<path d="M49.8256 67.8502V79.7526L119.954 80.3427V68.4404L49.8256 67.8502Z" fill="#6F6F6F"/>
<path d="M123.81 68.4729V80.3752L170.753 80.7707L213.887 81.1332V69.2309L170.753 68.8683L123.81 68.4729Z" fill="#6F6F6F"/>
<path d="M49.8256 67.8502V79.7526L119.954 80.3427V68.4404L49.8256 67.8502Z" stroke="black" stroke-width="0.0952187"/>
<path d="M123.81 68.4729V80.3752L170.753 80.7707L213.887 81.1332V69.2309L170.753 68.8683L123.81 68.4729Z" stroke="black" stroke-width="0.0952187"/>
<path d="M125.189 80.4191V96.8004L172.132 97.1959L215.266 97.5585V81.1771L172.132 80.8145L125.189 80.4191Z" fill="#9E9E9E" stroke="black" stroke-width="0.0952187"/>
<path d="M213.888 217.691H210.032V81.2309H213.888L216.745 80.9453V217.405L213.888 217.691Z" fill="#D9D9D9"/>
<path d="M213.888 217.691H210.032V81.2309H213.888M213.888 217.691V81.2309M213.888 217.691L216.745 217.405V80.9453L213.888 81.2309" stroke="black" stroke-width="0.0952187"/>
<path d="M213.888 217.687H210.032V81.2265H213.888V217.687Z" fill="#C2C2C2" stroke="black" stroke-width="0.0952187"/>
<path d="M282.819 79.5756V67.5305L238.12 67.1599V79.2051L282.819 79.5756Z" fill="#767676" stroke="black" stroke-width="0.0952187"/>
<path d="M238.12 67.1582L282.819 67.5288L283.825 67.3763L239.125 67.0057L238.12 67.1582Z" fill="#424242" stroke="black" stroke-width="0.0952187"/>
<path d="M282.821 79.5907V67.5273L283.779 67.4502V79.5136L282.821 79.5907Z" fill="#616161" stroke="black" stroke-width="0.0952187"/>
<path d="M123.095 68.4579V80.2738L76.2951 84.0825L29.4951 87.8913L27.3051 87.8643V76.0483L74.105 72.2396L120.905 68.4308L123.095 68.4579Z" fill="#D9D9D9"/>
<path d="M123.095 68.4579V80.2738L76.2951 84.0825L29.4951 87.8913M123.095 68.4579L120.905 68.4308L74.105 72.2396L27.3051 76.0483M123.095 68.4579L76.2951 72.2666L29.4951 76.0754M29.4951 76.0754L27.3051 76.0483M29.4951 76.0754V87.8913M27.3051 76.0483V87.8643L29.4951 87.8913" stroke="black" stroke-width="0.0952187"/>
<path d="M38.4922 75.3733L266.303 105.605L275.22 73.1787L276.777 67.5178L277.824 67.3273L258.971 57.615L258.019 57.4722L126.665 62.8242V68.5176L119.952 68.4223V63.0977L94.4332 64.1375L49.9185 67.8034L37.1116 75.2305L38.4922 75.3733Z" fill="#D9D9D9"/>
<path d="M281.886 79.5629L319.911 115.984L283.776 74.2075V79.5153L282.823 79.5629H281.886Z" fill="#D9D9D9"/>
<path d="M38.4922 75.3733L266.303 105.605L275.22 73.1787L276.777 67.5178L277.824 67.3273L258.971 57.615L258.019 57.4722L126.665 62.8242V68.5176L119.952 68.4223V63.0977L94.4332 64.1375L49.9185 67.8034L37.1116 75.2305L38.4922 75.3733Z" stroke="black" stroke-width="0.0952187"/>
<path d="M281.886 79.5629L319.911 115.984L283.776 74.2075V79.5153L282.823 79.5629H281.886Z" stroke="black" stroke-width="0.0952187"/>
<path d="M37.8781 75.3276L122.337 47.7142M124.908 47.7142L277.258 67.4721L171.898 43.9055M258.738 57.5693L173.66 43.9055M120.004 48.1903L79.3934 65.5201L166.947 44.3815" stroke="black" stroke-width="0.0952187"/>
<path d="M266.163 105.747L322.961 226.485M319.819 115.983L385.758 212.583" stroke="black" stroke-width="0.0952187"/>
<path d="M37.6377 75.1847L34.1622 233.771M35.0775 87.5631L6.52173 225.63" stroke="black" stroke-width="0.0952187"/>
<path d="M283.248 142.251C274.935 138.814 266.856 139.269 265.204 143.265L263.784 160.214L290.112 158.871C292.704 158.49 294.6 157.427 295.31 155.709C296.962 151.713 291.562 145.687 283.248 142.251Z" fill="#D9D9D9"/>
<path d="M295.266 155.691C294.565 157.385 292.69 158.444 290.105 158.824C286.676 159.329 282.02 158.637 277.284 156.68C273.132 154.964 269.71 152.602 267.533 150.173C265.354 147.741 264.433 145.255 265.248 143.283C266.063 141.312 268.47 140.201 271.731 140.018C274.987 139.835 279.078 140.579 283.23 142.295C287.381 144.011 290.803 146.372 292.98 148.802C295.16 151.234 296.081 153.719 295.266 155.691Z" fill="#D9D9D9" stroke="black" stroke-width="0.0952187"/>
<path d="M293.71 154.967C293.084 156.482 291.407 157.429 289.093 157.77C286.023 158.222 281.855 157.602 277.615 155.85C273.898 154.313 270.834 152.199 268.885 150.024C266.934 147.847 266.111 145.623 266.84 143.86C267.569 142.098 269.721 141.104 272.64 140.94C275.556 140.776 279.218 141.441 282.935 142.978C286.652 144.514 289.716 146.629 291.664 148.803C293.616 150.98 294.438 153.204 293.71 154.967Z" fill="#C6C6C6" stroke="black" stroke-width="0.0952187"/>
<path d="M265.204 143.265C266.856 139.269 274.935 138.814 283.248 142.251C291.562 145.687 296.962 151.713 295.31 155.709C294.6 157.427 292.704 158.49 290.112 158.871L263.784 160.214M263.784 160.214L264.974 145.217M263.784 160.214L272.02 153.93M263.784 160.214L267.164 149.835M263.784 160.214L277.972 156.977" stroke="black" stroke-width="0.0952187"/>
<path d="M275.446 157.071L277.35 170.211M292.252 170.211L290.109 158.975M265.829 158.975L262.067 170.211M270.066 169.735L268.876 160.022" stroke="black" stroke-width="0.190437"/>
</g>
<defs>
<filter id="filter0_f_552_7883" x="282.125" y="148.182" width="40.9593" height="11.3759" filterUnits="userSpaceOnUse" color-interpolation-filters="sRGB">
<feFlood flood-opacity="0" result="BackgroundImageFix"/>
<feBlend mode="normal" in="SourceGraphic" in2="BackgroundImageFix" result="shape"/>
<feGaussianBlur stdDeviation="0.170946" result="effect1_foregroundBlur_552_7883"/>
</filter>
<clipPath id="clip0_552_7883">
<rect width="460" height="270" fill="white"/>
</clipPath>
</defs>
</svg>
