<svg width="1464" height="161" viewBox="0 0 1464 161" fill="none" xmlns="http://www.w3.org/2000/svg">
<g style="mix-blend-mode:difference" clip-path="url(#clip0_198_4514)">
<path d="M239.416 51.0872H317.985C321.674 51.1941 325.247 51.319 328.724 51.4616C332.2 51.6043 335.503 51.9431 338.651 52.4423C341.799 52.9416 344.754 53.7262 347.516 54.7604C350.278 55.8125 352.808 57.2925 355.087 59.1826C356.169 60.092 357.309 61.2689 358.506 62.7132C359.703 64.1576 360.843 65.9407 361.925 68.0448C363.006 70.149 363.895 72.6097 364.609 75.4092C365.305 78.2088 365.672 81.4184 365.672 85.0204C365.672 88.6223 365.131 92.3491 364.049 96.2007C362.968 100.052 360.959 103.636 358.043 106.935C355.435 109.931 352.403 112.285 348.946 113.996C345.488 115.708 341.78 116.992 337.821 117.902C333.881 118.811 329.67 119.346 325.247 119.56C320.805 119.756 316.266 119.863 311.612 119.863H280.613V157.256H239.455V51.0872H239.416ZM280.555 95.9867H307.131C308.85 95.9867 310.743 95.9332 312.809 95.8441C314.856 95.7371 316.749 95.3448 318.487 94.6315C320.206 93.9361 321.655 92.9019 322.775 91.5289C323.915 90.1737 324.475 88.1765 324.475 85.5553C324.475 83.7365 324.069 82.0782 323.258 80.5625C322.447 79.0468 321.443 77.8878 320.264 77.0854C318.758 76.0868 317.135 75.4627 315.397 75.2666C313.678 75.0704 311.998 74.9634 310.376 74.9634H280.555V95.9867Z" fill="white"/>
<path d="M497.373 51.2297V75.106H417.51V92.5273H491.347V116.404H417.336V133.379H498.976V157.255H376.333V51.2297H497.354H497.373Z" fill="white"/>
<path d="M513.308 51.2297H597.729C600.221 51.2297 602.847 51.2832 605.609 51.3724C608.371 51.4794 611.133 51.7468 613.914 52.1926C616.676 52.6384 619.419 53.316 622.123 54.2254C624.827 55.1348 627.376 56.383 629.771 57.9879C633.885 60.8944 637.168 64.746 639.602 69.5604C642.035 74.3749 643.271 79.4747 643.271 84.8776C643.271 88.6757 642.653 92.3312 641.398 95.844C640.143 99.3568 638.327 102.406 635.951 105.009C634.329 106.81 632.649 108.29 630.91 109.449C629.172 110.608 627.473 111.518 625.792 112.231C624.112 112.926 622.49 113.479 620.906 113.889C619.341 114.3 617.951 114.638 616.753 114.941L645.55 157.255H600.008L576.426 118.668H554.466V157.255H513.308V51.2297ZM554.466 94.7741H585.368C586.99 94.7741 588.748 94.7206 590.66 94.6136C592.553 94.5066 594.368 94.15 596.107 93.5437C597.845 92.9375 599.274 91.9746 600.414 90.655C601.553 89.3355 602.113 87.4454 602.113 85.0025C602.113 83.7899 601.901 82.5596 601.457 81.347C601.032 80.1345 600.259 79.0646 599.178 78.1552C597.555 76.7287 595.759 75.8728 593.808 75.5696C591.858 75.2665 590.119 75.106 588.613 75.106H554.466V94.7741Z" fill="white"/>
<path d="M778.43 51.2297V75.106H698.567V92.5273H772.404V116.404H698.393V133.379H780.033V157.255H657.39V51.2297H778.411H778.43Z" fill="white"/>
<path d="M870.983 93.8825H939.297V157.255H903.836V145.54C902.755 146.432 901.673 147.288 900.592 148.09C899.51 148.893 897.868 149.945 895.705 151.246C894.179 152.156 892.267 153.119 889.93 154.171C887.593 155.223 884.812 156.203 881.548 157.095C878.303 158.004 874.479 158.771 870.095 159.431C865.711 160.091 860.689 160.412 855.049 160.412C846.493 160.412 838.265 159.288 830.405 157.041C822.544 154.795 815.571 151.407 809.507 146.913C803.442 142.402 798.575 136.731 794.944 129.866C791.313 123.001 789.498 114.924 789.498 105.616C789.498 103.708 789.575 101.818 789.749 99.9096C789.903 98.0016 790.212 96.1115 790.637 94.2035C791.719 88.9076 793.805 83.4868 796.895 77.9947C799.985 72.4848 804.62 67.3315 810.801 62.5349C814.818 59.4322 819.125 56.8466 823.741 54.796C828.357 52.7454 833.147 51.0871 838.149 49.8389C843.132 48.5907 848.251 47.717 853.523 47.2177C858.777 46.7184 864.011 46.4688 869.226 46.4688C878.11 46.4688 887.053 47.3247 896.053 49.0186C903.102 50.4273 909.283 52.3888 914.594 54.9565C919.906 57.5064 924.792 61.144 929.234 65.8515C931.069 67.7595 932.402 69.4356 933.232 70.88C934.043 72.3243 934.893 73.9113 935.743 75.6053L895.087 79.5104C891.282 75.9084 887.246 73.4834 882.958 72.2352C878.67 70.987 874.305 70.3629 869.863 70.3629C863.026 70.3629 857.232 71.4149 852.461 73.519C847.691 75.6231 843.751 78.3335 840.68 81.6323C837.589 84.9311 835.33 88.6223 833.939 92.67C832.529 96.7177 831.815 100.712 831.815 104.599C831.815 110.002 832.78 114.692 834.731 118.633C836.682 122.591 839.308 125.89 842.63 128.547C845.933 131.204 849.738 133.147 854.006 134.413C858.275 135.679 862.756 136.286 867.429 136.286C871.447 136.286 875.348 135.804 879.134 134.859C882.919 133.914 886.319 132.612 889.293 130.954C892.267 129.296 894.797 127.352 896.864 125.105C898.911 122.859 900.283 120.434 900.939 117.83H871.003V93.9539L870.983 93.8825Z" fill="white"/>
<path d="M958.649 51.2297H1043.07C1045.56 51.2297 1048.19 51.2832 1050.95 51.3724C1053.71 51.4794 1056.47 51.7468 1059.26 52.1926C1062.02 52.6384 1064.76 53.316 1067.46 54.2254C1070.17 55.1348 1072.72 56.383 1075.11 57.9879C1079.23 60.8944 1082.51 64.746 1084.94 69.5604C1087.38 74.3749 1088.59 79.4747 1088.59 84.8776C1088.59 88.6757 1087.98 92.3312 1086.72 95.844C1085.46 99.3568 1083.65 102.406 1081.27 105.009C1079.65 106.81 1077.97 108.29 1076.23 109.449C1074.49 110.608 1072.8 111.518 1071.11 112.231C1069.43 112.926 1067.81 113.479 1066.23 113.889C1064.66 114.3 1063.27 114.638 1062.08 114.941L1090.87 157.255H1045.33L1021.75 118.668H999.788V157.255H958.63V51.2297H958.649ZM999.788 94.7741H1030.69C1032.31 94.7741 1034.07 94.7206 1035.98 94.6136C1037.88 94.5066 1039.69 94.15 1041.43 93.5437C1043.17 92.9375 1044.6 91.9746 1045.74 90.655C1046.88 89.3355 1047.44 87.4454 1047.44 85.0025C1047.44 83.7899 1047.22 82.5596 1046.78 81.347C1046.35 80.1345 1045.58 79.0646 1044.5 78.1552C1042.88 76.7287 1041.08 75.8728 1039.13 75.5696C1037.18 75.2665 1035.44 75.106 1033.94 75.106H999.769V94.7741H999.788Z" fill="white"/>
<path d="M1144.06 51.2297V157.238H1102.91V51.2297H1144.06Z" fill="white"/>
<path d="M1165.7 51.2297H1199.69L1234.97 86.9639C1237.47 89.4603 1239.55 91.5644 1241.23 93.2763C1242.91 94.9702 1244.46 96.6107 1245.87 98.1621C1247.28 99.7134 1248.69 101.336 1250.1 103.048C1251.51 104.76 1253.25 106.81 1255.29 109.2C1255.08 105.598 1254.94 102.459 1254.89 99.8204C1254.83 97.1635 1254.75 94.6136 1254.64 92.1707C1254.52 89.71 1254.48 87.1957 1254.48 84.5745V51.2476H1294.98V157.255H1260.84L1218.71 113.408C1217.19 111.803 1215.91 110.43 1214.89 109.271C1213.84 108.13 1212.88 107.024 1211.95 105.972C1211.02 104.92 1210.08 103.85 1209.09 102.745C1208.11 101.639 1206.99 100.338 1205.68 98.8397C1205.79 103.44 1205.87 107.274 1205.93 110.323C1205.98 113.372 1206.02 116.118 1206.08 118.579C1206.14 121.04 1206.18 123.483 1206.24 125.943C1206.29 128.404 1206.31 131.329 1206.31 134.734V157.255H1165.66V51.2297H1165.7Z" fill="white"/>
<path d="M1385.6 47.3246C1392.77 47.2176 1400.03 47.6099 1407.41 48.448C1414.79 49.3039 1421.78 50.9801 1428.38 53.4765C1434.99 55.9729 1440.55 59.1647 1445.05 63.0163C1449.55 66.8679 1453.2 71.0583 1456.02 75.5518C1458.84 80.0631 1460.87 84.7706 1462.13 89.6743C1463.38 94.5779 1464 99.2854 1464 103.797C1464 108.807 1463.32 113.765 1461.97 118.668C1460.62 123.572 1458.53 128.226 1455.71 132.63C1452.02 138.229 1447.47 142.99 1442.06 146.895C1434.26 152.601 1425.76 156.382 1416.6 158.236C1407.43 160.091 1397.6 161.018 1387.09 161.018C1376.58 161.018 1368.51 160.287 1361.31 158.842C1354.1 157.398 1347.94 155.508 1342.84 153.208C1337.74 150.907 1333.55 148.358 1330.23 145.558C1326.93 142.758 1324.24 139.995 1322.18 137.302C1318.28 132.505 1315.48 127.495 1313.79 122.288C1312.11 117.081 1311.28 111.429 1311.28 105.312C1311.28 99.1963 1312.11 93.4724 1313.79 87.8198C1315.48 82.1673 1318.16 76.9248 1321.85 72.1282C1325.87 66.9214 1330.5 62.6953 1335.75 59.45C1341.01 56.1869 1346.49 53.6905 1352.19 51.943C1357.89 50.1955 1363.61 49.0186 1369.36 48.4123C1375.1 47.8239 1380.52 47.4673 1385.62 47.3603L1385.6 47.3246ZM1388.04 70.8978C1381.53 70.7908 1376.08 71.8072 1371.7 73.8935C1367.31 75.9976 1363.78 78.6723 1361.13 81.9354C1358.47 85.1986 1356.56 88.8005 1355.36 92.7413C1354.16 96.6999 1353.56 100.48 1353.56 104.082C1353.56 108.183 1354.18 112.213 1355.44 116.172C1356.69 120.13 1358.68 123.679 1361.46 126.835C1364.22 129.991 1367.8 132.541 1372.2 134.485C1376.58 136.446 1381.88 137.409 1388.06 137.409C1390.88 137.409 1393.72 137.213 1396.59 136.803C1399.47 136.41 1402.16 135.608 1404.65 134.396C1407.8 132.898 1410.44 130.99 1412.62 128.689C1414.79 126.389 1416.55 123.839 1417.92 121.022C1419.27 118.222 1420.25 115.369 1420.85 112.463C1421.45 109.556 1421.74 106.757 1421.74 104.046C1421.74 101.14 1421.3 97.7876 1420.45 93.9895C1419.58 90.1914 1417.92 86.5895 1415.48 83.1836C1413.05 79.7778 1409.63 76.907 1405.23 74.5532C1400.84 72.1995 1395.11 70.9691 1388.08 70.88L1388.04 70.8978Z" fill="white"/>
<path d="M88.8443 0L0 50.8552V157.238H20.5887V61.4293L88.8443 22.3606L157.1 61.4293V157.238H177.689V50.8552L88.8443 0Z" fill="white"/>
<path d="M123.629 95.0237L134.425 78.904L88.8442 52.8167L43.2632 78.904L54.0597 95.0237L78.5498 81.0438V97.2526L43.2632 117.456L54.0597 133.575L78.5498 119.595V157.238H99.1386V119.595L123.629 133.575L134.425 117.456L99.1386 97.2526V81.0438L123.629 95.0237Z" fill="white"/>
</g>
<defs>
<clipPath id="clip0_198_4514">
<rect width="1464" height="161" fill="white"/>
</clipPath>
</defs>
</svg>
